<svg width="28" height="60" viewBox="0 0 28 60" fill="none" xmlns="http://www.w3.org/2000/svg">
<path d="M6.6898 7.55136C8.71701 2.53401 13.0755 0 19.816 0H21.2857C25.3401 0 27.418 0.304082 27.418 0.861565V9.57857H21.5898C18.0929 9.88266 16.319 11.5551 16.319 14.5452V21.5391C16.319 21.9446 16.5218 22.0966 16.8765 22.0966H26.8099V22.6541C26.2017 29.0398 25.6949 32.2327 25.3401 32.2327H16.8765C16.5725 32.2327 16.3697 32.4354 16.319 32.8408V59.9548H5.98027L5.82823 58.181V33.1956C5.52415 32.5874 5.27075 32.2833 4.96667 32.2833H0V22.1473H4.96667C5.52415 21.8432 5.82823 21.5391 5.82823 21.235L5.52415 12.2139C5.92959 10.1361 6.28435 8.61565 6.6898 7.55136Z" fill="white"/>
</svg>
