<svg width="53" height="54" viewBox="0 0 53 54" fill="none" xmlns="http://www.w3.org/2000/svg">
<path d="M0.578737 11.1906C3.14976 3.7285 8.26108 0 15.9178 0H37.3823L41.0954 0.286808L44.7625 1.49038C50.263 3.90263 53.0082 8.99859 53.0082 16.7782V36.5065C53.0082 42.678 51.3386 47.103 47.9942 49.7714C46.5141 51.9275 40.824 53.0031 30.9189 53.0031C17.9921 53.3565 10.3404 52.8597 7.95891 51.5076C2.65297 48.7163 0 43.1338 0 34.7754V19.4363C0 16.22 0.194619 13.4697 0.578737 11.1906ZM7.08825 8.53765C5.5108 8.53765 4.7272 13.4441 4.7272 23.2468V29.7563C4.7272 34.9956 4.92182 38.9188 5.30594 41.5256C6.56072 46.2221 10.8833 48.5678 18.2789 48.5678C22.7141 48.3732 26.9292 48.281 30.9138 48.281H39.4514C44.532 48.281 47.5691 44.6498 48.5678 37.3823V16.4966C48.5678 8.65032 44.8393 4.7272 37.3772 4.7272H16.7834C11.8974 4.7272 8.66569 5.99735 7.08825 8.53765ZM13.8436 22.3812C16.2251 16.1124 20.4504 12.978 26.5297 12.978H26.8165C29.5514 12.978 32.1839 13.8641 34.7242 15.631C38.4527 18.8166 40.317 22.2378 40.317 25.9049V26.5297C40.317 32.9931 36.7984 37.495 29.7563 40.0353H23.8716C16.6041 37.5616 12.9729 33.157 12.9729 26.8216C13.229 24.2813 13.5209 22.8012 13.8436 22.3864V22.3812ZM17.654 26.8165C17.8128 28.4554 18.0228 29.4388 18.2789 29.7614C20.0458 33.6845 22.8934 35.6461 26.8165 35.6461C31.7691 35.6461 34.7088 32.609 35.641 26.5297C35.641 25.403 35.5437 24.7115 35.3542 24.4555C33.9048 19.9229 31.0623 17.654 26.8165 17.654H26.5297C21.3211 17.654 18.3608 20.7116 17.654 26.8165ZM40.614 9.11638C42.5448 9.11638 43.733 10.3046 44.1837 12.6861C43.3489 14.6477 42.2683 15.631 40.952 15.631C39.6358 15.631 38.5398 14.6528 37.6742 12.6861C37.6742 10.9192 38.6576 9.72585 40.6191 9.11638H40.614Z" fill="white"/>
</svg>
