<svg width="52" height="50" viewBox="0 0 52 50" fill="none" xmlns="http://www.w3.org/2000/svg">
<path d="M6.12042 0C10.459 0.595952 12.6282 2.65794 12.6282 6.17406V6.51375C11.5078 9.91664 9.44583 11.6211 6.45416 11.6211C2.78905 11.6211 0.637668 9.91664 0 6.51375V4.43984C1.42432 1.47796 3.46248 0 6.12042 0ZM1.34685 16.049H10.888L11.5615 17.3958V48.4866C11.5615 48.9336 11.335 49.16 10.888 49.16H1.34685C0.971401 49.16 0.750899 48.9336 0.673425 48.4866V16.7224C0.673425 16.347 0.899887 16.1265 1.34685 16.049ZM37.1516 15.3756H40.5724C41.2101 15.3756 42.9085 15.9357 45.6797 17.0621C49.3448 20.2802 51.1803 23.8142 51.1803 27.67V49.166H40.9121C40.5366 49.166 40.3161 48.9396 40.2387 48.4926V31.0968C40.2387 26.3053 38.3137 23.9155 34.4579 23.9155C31.1266 23.9155 29.1838 26.3113 28.6236 31.0968V48.4926C28.6236 48.9396 28.3971 49.166 27.9501 49.166H18.4089C18.0335 49.166 17.813 48.9396 17.7355 48.4926V16.049H28.6236V19.4697H29.3506C31.8953 16.8535 34.4937 15.4828 37.1516 15.3756Z" fill="white"/>
</svg>
