<svg width="55" height="52" viewBox="0 0 55 52" fill="none" xmlns="http://www.w3.org/2000/svg">
<path d="M53.672 48.8282C51.2214 45.6424 48.8934 42.4566 46.504 39.2708C42.3993 33.8183 38.3558 28.4269 34.251 22.9744C33.2708 21.6878 33.2708 21.3815 34.1285 20.4012C38.6008 15.6838 43.0119 10.9052 47.423 6.1265C48.8934 4.53361 50.5475 3.00198 51.8953 1.2253C52.2017 0.857709 52.5693 0.551385 52.2017 0H47.4843C46.9329 0.36759 46.259 0.49012 45.7688 1.0415C44.7273 2.38933 43.3795 3.55337 42.2767 4.83993C38.7846 8.76089 35.1087 12.4981 31.6166 16.3577C30.4526 17.583 30.1463 17.5218 29.166 16.2352C25.6127 11.4565 21.998 6.73915 18.4447 1.96048C17.8933 1.2253 17.2806 0.49012 16.4229 0H0.0651826C-0.0573474 0.857709 0.371507 1.53162 0.861627 2.20554C3.1897 5.39132 5.57903 8.51583 7.96836 11.7016C11.8281 16.7866 15.6265 21.9329 19.4862 27.0178C20.3439 28.1819 20.3439 28.4882 19.5474 29.4072C16.668 32.5317 13.8498 35.5949 10.9703 38.6582C7.60077 42.2728 4.2312 45.9487 0.800362 49.5634C0.310242 50.1147 -0.179877 50.6661 0.0651826 51.4626H4.78259C5.21144 51.2175 5.70156 51.0337 6.06915 50.6661C7.96836 48.8282 9.68378 46.929 11.4605 44.9685C14.9526 41.1088 18.5672 37.3716 22.0593 33.5119C23.2233 32.2254 23.3459 32.2866 24.3874 33.6345C28.4309 39.0258 32.4743 44.4171 36.5178 49.8697C37.0692 50.6049 37.6206 51.2175 38.4783 51.5238C43.6246 51.5238 48.7708 51.5238 53.9171 51.5238C54.2234 51.5238 54.6523 51.7689 54.8361 51.2788C54.4072 50.4211 54.2234 49.5634 53.672 48.8282ZM40.5613 47.9092C40.0099 47.9092 39.8874 47.4803 39.6423 47.1128C31.923 36.8202 24.2036 26.5277 16.4842 16.2352C13.666 12.4981 10.9091 8.76089 8.09089 5.08499C7.78457 4.65614 7.47824 4.22728 6.98812 3.61463C9.37746 3.61463 11.4605 3.6759 13.5435 3.61463C14.2787 3.61463 14.7075 3.85969 15.0751 4.41108C21.3854 12.6818 27.5732 20.9526 33.8222 29.2847C38.172 35.1048 42.5831 40.9863 46.9329 46.8064C47.1779 47.1128 47.3617 47.4191 47.7293 47.9092C45.2175 47.9092 42.8894 47.9092 40.5613 47.9092Z" fill="white"/>
</svg>
