<svg width="59" height="41" viewBox="0 0 59 41" fill="none" xmlns="http://www.w3.org/2000/svg">
<path d="M54.9139 1.76305C57.2992 3.37054 58.4918 8.86711 58.4918 18.0972V22.2456C58.4918 28.7792 57.9214 33.5498 56.7288 36.5055C55.6398 39.2538 51.9581 40.6539 45.7356 40.6539H18.9787C11.2524 40.6539 6.27439 40.1872 4.14836 39.202C1.40007 37.6982 0 31.3719 0 20.1714V19.8602C0.311127 9.95605 1.08894 4.61504 2.33345 3.83723C2.33345 1.24451 10.6302 0 27.2754 0C43.9207 0 53.1508 0.570399 54.9139 1.76305ZM23.4382 27.8977H24.3716L38.2686 20.1714C37.9056 19.7047 33.0831 17.0083 23.6975 12.1858H23.3864V27.8977H23.4382Z" fill="white"/>
</svg>
