<svg xmlns="http://www.w3.org/2000/svg" xmlns:xlink="http://www.w3.org/1999/xlink" viewBox="0 0 672 566"><defs><style>.cls-1{isolation:isolate;}.cls-2,.cls-36{opacity:0.1;}.cls-3{fill:url(#linear-gradient);}.cls-4{opacity:0.31;fill:url(#linear-gradient-2);}.cls-5{fill:#dfdfdf;}.cls-6{fill:#090909;}.cls-7{fill:#505050;}.cls-10,.cls-18,.cls-49,.cls-52,.cls-8{fill:#fff;}.cls-9{fill:#251d1b;}.cls-10,.cls-39,.cls-49,.cls-52{stroke:#000;}.cls-10,.cls-37,.cls-39,.cls-40{stroke-miterlimit:10;}.cls-10{stroke-width:0.41px;}.cls-11{fill:#606060;}.cls-12{fill:#e58d68;}.cls-13{fill:#eaab55;}.cls-14{fill:#212121;}.cls-15{fill:#cbc1cb;}.cls-16{opacity:0.72;}.cls-17{opacity:0.32;}.cls-18,.cls-19,.cls-20,.cls-21,.cls-22,.cls-23{fill-rule:evenodd;}.cls-19,.cls-48{fill:#4d4d4d;}.cls-21,.cls-45{fill:#666;}.cls-22,.cls-24{fill:#333;}.cls-23{fill:#d5d5d5;}.cls-25,.cls-26,.cls-27,.cls-28,.cls-29,.cls-38{fill:gray;}.cls-26,.cls-31{opacity:0.8;}.cls-27,.cls-32{opacity:0.6;}.cls-28,.cls-33{opacity:0.4;}.cls-29,.cls-30,.cls-34{opacity:0.2;}.cls-35{fill:#1a1a1a;}.cls-37,.cls-39,.cls-40{fill:none;}.cls-37{stroke:#dfdfdf;}.cls-37,.cls-39{stroke-width:0.23px;}.cls-38{opacity:0.52;mix-blend-mode:overlay;}.cls-40{stroke:#090909;stroke-width:0.55px;}.cls-41,.cls-43,.cls-44{fill:#e6e6e6;}.cls-42{fill:#ccc;}.cls-43,.cls-44,.cls-45{mix-blend-mode:multiply;}.cls-44{opacity:0.5;}.cls-46{fill:#999;}.cls-47{fill:#b3b3b3;}.cls-49,.cls-52{stroke-linecap:round;stroke-linejoin:round;}.cls-49{stroke-width:0.22px;}.cls-50{opacity:0.23;}.cls-51{fill:#101010;}.cls-52{stroke-width:0.2px;}.cls-53{fill:#303030;}</style><linearGradient id="linear-gradient" x1="-2709.08" y1="509.31" x2="-2532.66" y2="509.31" gradientTransform="matrix(-1, 0, 0, 1, -2335.01, 0)" gradientUnits="userSpaceOnUse"><stop offset="0" stop-color="#fff"/><stop offset="1" stop-color="#999"/></linearGradient><linearGradient id="linear-gradient-2" x1="-2544.38" y1="524.27" x2="-2445.05" y2="524.27" xlink:href="#linear-gradient"/></defs><g class="cls-1"><g id="Layer_1" data-name="Layer 1"><g class="cls-2"><path d="M158.52,185.43c.31,4.73,5.15,19.06,16.77,24.57a10.86,10.86,0,0,1,6.05,11.23c-2.24,17.16-6.47,48.78-8.8,66.22a10.92,10.92,0,0,0,10.83,12.36h11.5a10.92,10.92,0,0,0,10.87-9.87c1-10.51,4.72-25.55,17.47-24.82,12.33.71,15.37,14.33,15.93,24.24A10.93,10.93,0,0,0,250,299.68l12.16.06A10.92,10.92,0,0,0,273,287l-7.8-45.71c-.05-.3-.09-.6-.12-.89a10.9,10.9,0,0,1,4.51-9.81,41.26,41.26,0,0,0,14.22-18.52c6.75-16.89-8.63-25.51-8.63-25.51s-7.88-5.6-15.9-8a11,11,0,0,1-7.07-6.22c-3.49-8.2-11-21.39-24.66-24-17.25-3.38-20.63,1.12-33.75-12.38s-15-18.37-15.75-28.5,2.25-23.63,17.62-35.25c8.63-6,19.51-7.51,21-8.63s3-7.88-1.13-8.63-37.88,7.88-49.88,24-27,48.38,2.25,82.89c6,7.13,16.5,18.37,16.87,24.75s.38,10.13-1.49,10.5-10.88-1.5-16.13-10.88-1.87-13.5-4.13-14.25S158.14,179.8,158.52,185.43Z"/></g><ellipse class="cls-3" cx="285.86" cy="509.31" rx="88.21" ry="19.25"/><ellipse class="cls-4" cx="159.71" cy="524.27" rx="49.66" ry="10.84"/><polygon class="cls-5" points="557.29 513.77 521.03 507.47 532.41 461.1 562.65 465.74 582.21 479.45 573.31 501.5 557.29 513.77"/><path class="cls-6" d="M567.38,516.2c-9.89-2.48-13.81,1.88-14.87-2.27s2.73-6.08,7.11-9.74,7.79-12,5.3-16.93-6.81-.23-7.76-3.57-4.71-21.19-3-26.14,11.37-5.76,16.16-8.82,24.23-19.42,30.89-24c0,0,4.3-20,10.87-22.73s23.28-.37,23.64.49-22.31,118.4-22.31,118.4S588.52,521.51,567.38,516.2Z"/><path class="cls-6" d="M601.23,424.72c-6.66,4.54-26.09,20.92-30.89,24s-14.44,3.87-16.16,8.82,2,22.8,3,26.14c.68,2.37,3,.7,5.24,1.28,4.4-2.71,8.87-8.93,13.55-11.45,6.17-3.32,23.16-15.15,24.34-18.62,1-2.8,1.12-23.24,1.14-31C601.3,424.39,601.23,424.72,601.23,424.72Z"/><path class="cls-7" d="M561.53,502.22a14.34,14.34,0,0,1-1.91,2c-4.38,3.66-8.17,5.58-7.11,9.74s5-.21,14.87,2.27a138.52,138.52,0,0,0,15.35,2.87c.91-6.11-13.09-7.67-17.32-10.62A9.06,9.06,0,0,1,561.53,502.22Z"/><path class="cls-8" d="M635.73,402.51c-.23-.53-6.87-1.66-13.41-1.76.1,5.37.15,14-.24,22.92-.65,14.64-7.34,40.8-12.36,58.14-4.81,16.59-5.53,26.87-6.47,39,6.16.23,10.17.13,10.17.13S636.1,403.37,635.73,402.51Z"/><path class="cls-9" d="M601.28,460.37a.54.54,0,0,1-.48.42.52.52,0,0,1-.55-.49c-.86-13.92.71-36.59.72-36.81a.53.53,0,0,1,.55-.48.52.52,0,0,1,.49.55c0,.23-1.58,22.82-.73,36.68A.57.57,0,0,1,601.28,460.37Z"/><path class="cls-9" d="M589.78,463.78A2.72,2.72,0,1,0,592,467,2.72,2.72,0,0,0,589.78,463.78Z"/><path class="cls-9" d="M597.72,458.51a2.72,2.72,0,1,0,2.17,3.18A2.72,2.72,0,0,0,597.72,458.51Z"/><path class="cls-8" d="M591,466.17a2.07,2.07,0,0,1-4,.15c-.17-.67-4.29-16.42-3.18-30.81a2.08,2.08,0,0,1,4.14.32c-1.06,13.68,3,29.27,3,29.43A2,2,0,0,1,591,466.17Z"/><path class="cls-8" d="M599.39,461.06a2.08,2.08,0,0,1-1.51,1.62,2.06,2.06,0,0,1-2.53-1.47c-.18-.66-4.29-16.41-3.18-30.81a2.08,2.08,0,0,1,2.22-1.9,2.06,2.06,0,0,1,1.91,2.22c-1,13.68,3,29.27,3.05,29.43A2,2,0,0,1,599.39,461.06Z"/><path class="cls-9" d="M572.12,476.32a2.72,2.72,0,1,0,2.17,3.17A2.71,2.71,0,0,0,572.12,476.32Z"/><circle class="cls-9" cx="580.87" cy="471.9" r="2.72"/><path class="cls-8" d="M582.6,471.79a2.07,2.07,0,0,1-4,.14c-.18-.66-4.29-16.41-3.18-30.8a2.08,2.08,0,1,1,4.14.32c-1.06,13.67,3,29.27,3.05,29.42A2,2,0,0,1,582.6,471.79Z"/><path class="cls-8" d="M573.36,478.83a2.07,2.07,0,0,1-4,.15c-.17-.66-4.28-16.41-3.17-30.81a2.07,2.07,0,0,1,4.13.32c-1.06,13.68,3,29.28,3.05,29.43A2,2,0,0,1,573.36,478.83Z"/><path class="cls-8" d="M589.78,463.23a8.61,8.61,0,0,1-2.7,4.83c-2.59,2.29-6.6,2.9-10.46,1.6-3.2-1.09-5.83-3.2-8.15-5.06a15.29,15.29,0,0,1-4.71-5.27c-1.22-2.63-1-5.51-.81-7.82a86.63,86.63,0,0,1,1.88-13.92,16.19,16.19,0,0,1,7.92-9.95,6.81,6.81,0,0,1,4.46-1c3.37.57,5.4,4.41,5.11,7.49-.33,3.31-2.44,5.93-4.57,8.26l-.52.58c-3.35,3.68-6.8,7.48-8.67,11.85a13.39,13.39,0,0,0,3.52-.1c1-.17,2-.44,3.07-.73,2.58-.7,5.51-1.5,8.48-.63a8.89,8.89,0,0,1,6.07,6.33A8.75,8.75,0,0,1,589.78,463.23Zm-21.37-4.29a18.58,18.58,0,0,0,2.66,2.43c2.15,1.73,4.37,3.51,6.88,4.36s4.92.52,6.38-.77a4.63,4.63,0,0,0,1.34-4.33,4.73,4.73,0,0,0-3.2-3.32c-1.85-.54-4,0-6.23.65-1.13.3-2.29.62-3.49.82A17.51,17.51,0,0,1,568.41,458.94Zm-1-10.55a73.47,73.47,0,0,1,6.8-8.24l.51-.58c1.74-1.9,3.32-3.75,3.51-5.86.12-1.21-.81-2.87-1.68-3a3.1,3.1,0,0,0-1.72.56,12,12,0,0,0-5.93,7.34A65.28,65.28,0,0,0,567.37,448.39Z"/><circle class="cls-9" cx="595" cy="510.2" r="2.33"/><path class="cls-8" d="M598.06,510.78a3.11,3.11,0,1,1-2.48-3.63A3.12,3.12,0,0,1,598.06,510.78Zm-4.58-.86a1.55,1.55,0,1,0,1.81-1.24A1.55,1.55,0,0,0,593.48,509.92Z"/><path class="cls-9" d="M597.43,497.34a2.34,2.34,0,1,0,1.86,2.73A2.35,2.35,0,0,0,597.43,497.34Z"/><path class="cls-8" d="M600.05,500.21a3.11,3.11,0,1,1-2.48-3.63A3.11,3.11,0,0,1,600.05,500.21Zm-4.58-.86a1.55,1.55,0,1,0,1.81-1.24A1.55,1.55,0,0,0,595.47,499.35Z"/><path class="cls-9" d="M617.76,451.7a.26.26,0,0,1-.23.21c-8.67.75-9.93,5.22-11.41,13.06-1.26,6.72-13.79,13.21-22.94,17.95-1.65.85-3.21,1.66-4.54,2.39-7.16,3.9-8.38,11.56-9.68,19.68-.23,1.48-.48,3-.76,4.51a.26.26,0,1,1-.51-.09c.28-1.49.53-3,.76-4.5,1.32-8.25,2.56-16,9.94-20.06,1.34-.73,2.9-1.54,4.55-2.39,9.06-4.69,21.45-11.11,22.67-17.59,1.53-8.08,2.83-12.69,11.88-13.48a.26.26,0,0,1,.28.24A.2.2,0,0,1,617.76,451.7Z"/><path class="cls-9" d="M614.56,434.4a191.81,191.81,0,0,1-5.43,21.15.27.27,0,0,1-.33.17.26.26,0,0,1-.17-.33c14.38-46.06,2.31-52.5,2.19-52.56a.26.26,0,0,1-.12-.35.26.26,0,0,1,.34-.12C611.47,402.57,619.72,407,614.56,434.4Z"/><path class="cls-9" d="M608.79,483.93a.26.26,0,0,1-.26.21c-.17,0-17.38,0-25.28,6.22s-7.83,22.14-7.83,22.3a.26.26,0,0,1-.52,0c0-.16,0-16.31,8-22.7s25.43-6.34,25.61-6.34a.26.26,0,0,1,.25.26Z"/><path class="cls-9" d="M620.35,442.44c-1,5.15-3.47,14-6.1,23.25-2.58,9.09-5.24,18.49-6.26,23.89-2.14,11.32-4.53,31.38-4.55,31.58a.25.25,0,0,1-.29.22.26.26,0,0,1-.23-.29c0-.2,2.42-20.27,4.56-31.61,1-5.42,3.69-14.83,6.27-23.93,2.85-10.07,5.8-20.48,6.39-25.08,1.11-8.64,1.65-37.86,1.66-38.15a.26.26,0,0,1,.26-.26.26.26,0,0,1,.26.27c0,.29-.55,29.54-1.66,38.21C620.58,441.1,620.48,441.74,620.35,442.44Z"/><path class="cls-10" d="M435.71,470.36l76.48-30.49c-.5-1.24-12.35-30.85-28.72-61.67-28.26-53.19-59.36-78.69-87.66-84l-8.25,81.44a17.17,17.17,0,0,1-6.22-2.24C392.74,381.36,418.65,427.58,435.71,470.36Z"/><path class="cls-9" d="M467.45,433a.51.51,0,0,0,.47-.74c-2.1-4.33-51.83-106-70.34-109a.53.53,0,0,0-.59.43.51.51,0,0,0,.43.59c18,2.94,69.06,107.41,69.58,108.46A.49.49,0,0,0,467.45,433Z"/><path class="cls-5" d="M359.3,397.3a35.62,35.62,0,0,0,24.63-9.08c13.92-12.35,12.7-27.43,13.4-68.09.41-24.41-2.9-57.31-3-58.23L352,269.76c2.18,24.9,1.82,52.27-.44,68.66-9.93-9.21-22.35-25.25-31.39-41.44l-45,25c8.59,15.46,39.56,66.52,77.46,74.52A36.42,36.42,0,0,0,359.3,397.3Z"/><path class="cls-9" d="M332.78,334s-15.37,18.68-22.11,25.72-9-18-9-18L316.4,325Z"/><path class="cls-5" d="M352.37,270.45s-9.62-13.52-4-28C351.65,234,363.12,224,363.12,224s37,6.68,37.29,14.72-9.66,36.6-9.66,36.6Z"/><path class="cls-5" d="M353.1,259.94a5.45,5.45,0,0,1-4-4.38c-2.23-13.28-5.75-29.4-7.55-32.28a5.45,5.45,0,1,1,9.25-5.77c3.77,6,7.88,29.27,9.05,36.25a5.45,5.45,0,0,1-4.47,6.28A5.35,5.35,0,0,1,353.1,259.94Z"/><path class="cls-5" d="M363.17,242.15a5.29,5.29,0,0,1-1.5-.28,5.44,5.44,0,0,1-3.45-6.89c.07-.21,7-21,9.36-31.19l2.48-10.58a5.45,5.45,0,1,1,10.61,2.49l-2.48,10.59c-2.51,10.69-9.34,31.26-9.63,32.13A5.44,5.44,0,0,1,363.17,242.15Z"/><path class="cls-9" d="M369.56,267.25l-.06,0a.47.47,0,0,1-.25-.6c7-16.54-7.22-24.38-7.82-24.7a.46.46,0,0,1,.42-.81c.16.09,15.54,8.55,8.24,25.87A.45.45,0,0,1,369.56,267.25Z"/><path class="cls-9" d="M393.5,240.78a.28.28,0,0,1-.13,0c-.2-.08-20.08-8.22-27.52-10.46a.45.45,0,0,1-.3-.57.44.44,0,0,1,.56-.3c7.49,2.26,27.4,10.41,27.6,10.49a.46.46,0,0,1,.25.59A.45.45,0,0,1,393.5,240.78Z"/><path class="cls-5" d="M381.14,219.24a6.39,6.39,0,0,1,4.18,4.58,6.18,6.18,0,0,1,5.76-.75,6.41,6.41,0,0,1,4.3,5,5.7,5.7,0,0,1,0,.92,5.46,5.46,0,0,1,5.41-.88,5.73,5.73,0,0,1,3.85,4.44,4.63,4.63,0,0,1-.17,2l-4.7,14.32c-.84,2.55-3.85,3.8-6.72,2.79a5.77,5.77,0,0,1-3.77-4.16,5.88,5.88,0,0,1-6.86,1.89,6.42,6.42,0,0,1-4.19-4.58,6.16,6.16,0,0,1-5.75.74,6.24,6.24,0,0,1-4.22-5.11c1.16-7.1,3.14-12.13,6.24-21.1A14.86,14.86,0,0,1,381.14,219.24Z"/><path class="cls-9" d="M368.38,239.71a.22.22,0,0,1-.26.06.24.24,0,0,1-.16-.28L374.13,221a.22.22,0,0,1,.29-.12.23.23,0,0,1,.15.28l-6.16,18.53Z"/><path class="cls-9" d="M378.45,244.92a.22.22,0,0,1-.25.07.24.24,0,0,1-.17-.28l3.27-11.54a.21.21,0,0,1,.28-.13.23.23,0,0,1,.17.28l-3.27,11.54S378.46,244.9,378.45,244.92Z"/><path class="cls-9" d="M391.13,243.09a.22.22,0,0,1-.25.07.24.24,0,0,1-.17-.27l3.54-13.14a.21.21,0,0,1,.28-.13.24.24,0,0,1,.18.27L391.16,243Z"/><path class="cls-9" d="M389.5,247.61a.25.25,0,0,1-.24.07.23.23,0,0,1-.18-.27l.4-1.87a.21.21,0,0,1,.27-.15.24.24,0,0,1,.18.27l-.39,1.87A.2.2,0,0,1,389.5,247.61Z"/><path class="cls-9" d="M377.84,239.43s0,0,0,.07l-1.15,4.26a.25.25,0,0,1-.13.14,7.25,7.25,0,0,1-5.25-.51.22.22,0,1,1,.2-.38,6.88,6.88,0,0,0,4.74.5l1.09-4.06c-2-2.76-5.57-2.74-6.34-2.7l-1,3.51a.22.22,0,0,1-.29.14.25.25,0,0,1-.18-.29l1.06-3.65a.2.2,0,0,1,.18-.15c.05,0,4.64-.43,7,3A.22.22,0,0,1,377.84,239.43Z"/><path class="cls-9" d="M388.62,242.84a.18.18,0,0,1,0,.06l-1.15,4.27a.17.17,0,0,1-.13.13,7.16,7.16,0,0,1-5.25-.5.23.23,0,0,1-.12-.3.24.24,0,0,1,.32-.09,6.85,6.85,0,0,0,4.74.51l1.1-4.07c-2-2.76-5.58-2.74-6.34-2.7l-1,3.52a.25.25,0,0,1-.47-.15l1.05-3.65a.2.2,0,0,1,.18-.15c.05,0,4.64-.43,7.05,3A.28.28,0,0,1,388.62,242.84Z"/><path class="cls-9" d="M399.45,245.32a.18.18,0,0,1,0,.06l-1.09,4a.18.18,0,0,1-.12.13,6.77,6.77,0,0,1-5-.48.21.21,0,0,1-.11-.28.22.22,0,0,1,.3-.08,6.57,6.57,0,0,0,4.49.48l1-3.85c-1.9-2.62-5.28-2.6-6-2.56l-1,3.33a.21.21,0,0,1-.28.13.24.24,0,0,1-.16-.27l1-3.46a.19.19,0,0,1,.17-.14s4.4-.41,6.67,2.84A.25.25,0,0,1,399.45,245.32Z"/><path class="cls-9" d="M349.13,355a.26.26,0,0,0,.27-.22l2.36-16.33a.25.25,0,0,0-.21-.29.26.26,0,0,0-.3.22l-2.36,16.33a.25.25,0,0,0,.21.29Z"/><path class="cls-10" d="M250.66,521.84c32.29.78,110.41-15.87,143.86-23.39l146.92,21.81,12.09-81.45L391.3,414.74l-7.56,1.73c-50.16,11.49-99,16.49-115.49,16.37-.62-1.12-15.09,4.36-15.66,3.29A121,121,0,0,0,242.06,419l-65.5,31c.68.89,4.11,22.71,5.24,24.83,7.55,14.18,21.37,43.65,65.54,46.82C248.38,521.76,249.49,521.81,250.66,521.84Z"/><path class="cls-9" d="M255.43,498.94l.95,0c28.19.17,135.79-20.14,139.49-20.83l147.58,23.61a.52.52,0,0,0,.16-1L395.94,477.09h-.18c-1.1.21-110.94,21-139.38,20.83l-.93,0c-30.25-.72-49.69-27.57-60.71-50.09a.51.51,0,0,0-.92.46C209.75,480.86,231,498.36,255.43,498.94Z"/><path class="cls-9" d="M215.91,479.71a.56.56,0,0,0,.31-.09c10.57-7.54,11.16-37.73,11.18-39a.5.5,0,0,0-.5-.53.53.53,0,0,0-.53.51c0,.31-.6,31-10.75,38.19a.51.51,0,0,0,.29.93Z"/><path class="cls-9" d="M254.61,464.94a.51.51,0,0,0,.47-.27c6.84-12.58,30.38-34.6,30.62-34.83a.52.52,0,0,0,.08-.65.54.54,0,0,0-.64-.2c-1.18.51-29,12.4-37.51,20.79a.52.52,0,0,0,.73.74c6.85-6.76,27.17-16.14,34.51-19.41-6,5.78-23,22.61-28.7,33.07a.52.52,0,0,0,.21.7A.46.46,0,0,0,254.61,464.94Z"/><path class="cls-9" d="M530.86,514.31a.52.52,0,0,0,.52-.44l11-72.31a.52.52,0,1,0-1-.16l-11,72.32a.5.5,0,0,0,.43.58Z"/><path class="cls-6" d="M217.47,258.07c2-.46,4.11-.91,6.26-1.35L252,259s2.28.43,5.81,1.18C246.88,269.22,229.59,265.71,217.47,258.07Z"/><path class="cls-8" d="M252.29,237.9a8.35,8.35,0,0,1-4.07-1.36l.41-3.82s2.11-2,4.12-2a2.61,2.61,0,0,1,1,.17c1.24.49,1.78,2.11,1.76,3.51s-.5,2.78-1.8,3.25A4.22,4.22,0,0,1,252.29,237.9Z"/><path d="M252.75,230.81h0a2.66,2.66,0,0,1,.94.17c1.21.47,1.74,2.07,1.72,3.44s-.49,2.72-1.76,3.18a4,4,0,0,1-1.36.23,8.12,8.12,0,0,1-4-1.31l.36-3.74c.3-.27,2.22-2,4.06-2m0-.15c-2.08,0-4.2,2.06-4.2,2.06l-.37,3.88a8.36,8.36,0,0,0,4.11,1.37,4,4,0,0,0,1.41-.23c2.55-.92,2.37-6,.05-6.9a2.89,2.89,0,0,0-1-.18Z"/><path class="cls-9" d="M254.2,219.9c1.52,2.54.71,7.83-.73,12.47s-.84-9.18-.84-9.18l-3-4.17Z"/><path class="cls-8" d="M238.86,260.7A34.36,34.36,0,0,1,226,257.94l.77-17.07,10.16,8.41,9,1.76,0,8.49A18.27,18.27,0,0,1,238.86,260.7Z"/><path d="M226.85,241.07l10,8.29,0,0h0l8.83,1.72,0,8.34a18.22,18.22,0,0,1-6.9,1.15,34,34,0,0,1-12.77-2.74l.76-16.8m-.18-.4L225.89,258a34.19,34.19,0,0,0,13,2.8,17.65,17.65,0,0,0,7.09-1.21l0-8.63-9-1.75-10.32-8.54Z"/><path class="cls-9" d="M246,254V251l-9-1.75-3.45-2.85-2.28-.24C235.08,253.16,243.77,253.94,246,254Z"/><path class="cls-8" d="M242.91,251.93c-9.09,0-16-7.77-16.12-7.85l-2.91-16.86a11.8,11.8,0,0,1,2-9.21,14.33,14.33,0,0,1,9.85-5.43l.55-.07a28.23,28.23,0,0,1,2.85-.15c12.64,0,14.81,9.82,14.83,9.92a13.86,13.86,0,0,1,0,4.9,37,37,0,0,0-.28,6.73l.06.88c.38,5.47,1.1,15.64-8.59,17A16,16,0,0,1,242.91,251.93Z"/><path d="M239.12,212.26v.19c12.54,0,14.7,9.75,14.73,9.86a13.9,13.9,0,0,1,0,4.86,38.11,38.11,0,0,0-.28,6.75c0,.28,0,.57.06.88.38,5.44,1.09,15.55-8.5,16.88a15.86,15.86,0,0,1-2.18.15c-8.71,0-15.46-7.17-16-7.78L224,227.2a11.68,11.68,0,0,1,2-9.13,14.27,14.27,0,0,1,9.79-5.4l.55-.06a28.13,28.13,0,0,1,2.84-.16v-.19m0,0a26.37,26.37,0,0,0-2.86.16c-.19,0-.37,0-.56.06-7.89,1.09-13.27,6.91-11.9,14.76l2.93,16.9s6.95,7.88,16.19,7.88a16.75,16.75,0,0,0,2.21-.15c10.31-1.43,8.95-12.65,8.6-18s1-9,.31-11.64c0,0-2.05-10-14.92-10Z"/><path class="cls-6" d="M222.9,234.11l-1.81-12.71,8.71-1.89s-.69,4.39-1.07,9.71.35,7.56.35,7.56Z"/><path class="cls-8" d="M222.91,242.69a5.82,5.82,0,0,1-2.8-.64c-1.62-.86-2-2.94-1.73-4.59.24-1.84,1.26-3.86,3-4.26a3.84,3.84,0,0,1,.76-.08c2.85,0,5.55,3.46,5.58,3.5l-.28,5.08h0a13.48,13.48,0,0,1-4.5,1Z"/><path d="M222.11,233.22c2.61,0,5.1,3,5.46,3.4l-.25,5a11.5,11.5,0,0,1-4.41,1,5.8,5.8,0,0,1-2.76-.64c-1.57-.84-1.9-2.87-1.68-4.49.24-1.8,1.23-3.79,2.9-4.17a3.65,3.65,0,0,1,.74-.08m0-.2a3.46,3.46,0,0,0-.78.09c-3.21.74-4.43,7.34-1.27,9a5.9,5.9,0,0,0,2.85.66,11.77,11.77,0,0,0,4.6-1.08l.25-5.15S225,233,222.11,233Z"/><path class="cls-9" d="M221.19,240.77h-.06a2.92,2.92,0,0,1-1.12-3.62,2.89,2.89,0,0,1,1.49-1.82c.79-.32,1.8-.13,3.47.63a.14.14,0,0,1,.06.19.14.14,0,0,1-.18.06c-1.57-.72-2.54-.91-3.25-.62a3,3,0,0,0-.33,4.94.13.13,0,0,1,0,.19A.14.14,0,0,1,221.19,240.77Z"/><path class="cls-11" d="M254.66,220.11s.52-15.3-17.44-14.84c-16,.41-17.12,16.49-16.2,18.67,0,0,10-.36,13.28-.52S254.66,220.11,254.66,220.11Z"/><path class="cls-11" d="M228.49,223.62c-.16.16,12.3,5.14,22.66,4.42s13.41-1.12,13-3.3S252.83,219,252.83,219,238.37,214.17,228.49,223.62Z"/><path class="cls-9" d="M240.88,226.42a46.62,46.62,0,0,1-10-2.46.17.17,0,1,1,.13-.31,45.87,45.87,0,0,0,17.74,2.78l1.39-.08c7.89-.46,11.16-.65,11.13-1.55,0-.7-4.28-2.88-7.29-4.2a.18.18,0,0,1-.09-.22.16.16,0,0,1,.22-.08c1.25.54,7.46,3.32,7.49,4.49s-2.62,1.38-11.44,1.89l-1.39.08A40.52,40.52,0,0,1,240.88,226.42Z"/><path class="cls-9" d="M229,222.41l0-.12c0-.1-1.92-10.1,6.05-17a.17.17,0,0,1,.24,0,.16.16,0,0,1,0,.23c-7.36,6.36-6.15,15.41-6,16.55,7.19.73,23.73-2.19,23.89-2.22a.16.16,0,0,1,.19.13.16.16,0,0,1-.13.19c-.17,0-16.94,3-24.1,2.21Z"/><path d="M241.21,220a67.73,67.73,0,0,0,8.31-1.23l-.18-1.77L241,218.11Z"/><path class="cls-9" d="M310.42,348.67h.06a.24.24,0,0,0,.2-.29c-1.79-9.94-1.48-23.78-1.47-23.92a.27.27,0,0,0-.26-.27.26.26,0,0,0-.26.26c0,.13-.31,14,1.49,24A.25.25,0,0,0,310.42,348.67Z"/><path class="cls-9" d="M309,333.45a.27.27,0,0,0,.24-.14l4-8.14a.26.26,0,0,0-.11-.35.27.27,0,0,0-.35.12l-4.06,8.14a.25.25,0,0,0,.12.34A.23.23,0,0,0,309,333.45Z"/><path class="cls-12" d="M231.42,397.45s-13.25,28.35,1.46,37c3.87,2.27,27.5-3.53,29.87-3s22.3,1.61,28.45-2.43,33.09-19,33.09-19,.67-4.44-3.37-5.76-17.13,3.24-18.89,3.8-.8-17.64-.8-17.64l-39.55-1.31s-11.81,5.87-14.85,9.79Z"/><path class="cls-13" d="M244.75,393.42s-9.13,26.54-3.11,43.67l-12.09-.29s-7.32-27.45,2.84-42.91Z"/><ellipse class="cls-8" cx="235.17" cy="403.17" rx="9.96" ry="6.44"/><path class="cls-9" d="M224.32,404.09h0a5.64,5.64,0,0,1-.09-.93,6.53,6.53,0,0,1,3.37-5.37,14.17,14.17,0,0,1,7.58-2c6,0,10.91,3.31,10.93,7.42s-4.81,7.41-10.94,7.41C229.65,410.58,225,407.79,224.32,404.09Zm19.79-1.5c-.5-2.74-4.42-4.89-8.94-4.89a12.13,12.13,0,0,0-6.52,1.73,4.64,4.64,0,0,0-2.47,3.73c0,3,4.15,5.47,9,5.47s9-2.49,9-5.46A2.78,2.78,0,0,0,244.11,402.59Z"/><polyline class="cls-8" points="240.97 402.49 233.47 402.61 236.23 406.31"/><path class="cls-9" d="M233,402.7a.45.45,0,0,1,0-.3.46.46,0,0,1,.43-.27L241,402a.49.49,0,0,1,.49.48.48.48,0,0,1-.48.49l-6.56.11,2.2,2.94a.49.49,0,0,1-.1.68.48.48,0,0,1-.68-.1l-2.76-3.7A.4.4,0,0,1,233,402.7Z"/><path class="cls-6" d="M346.46,327.14s-31.58-49.65-57.46-58v.07c-9-4-23.22-7.37-31.15-9.07-11,9.08-28.26,5.57-40.39-2.07C194,263.33,178.34,269.2,169.57,275l-.47,0c-15.16,9.93-44.78,64.3-44.78,64.3s-.42,1.95,1.24,4.9,5.72,7.27,14.84,11.44c12.84,5.87,24.46,7.17,31.84,8.64l-.09,1.68c-.31,5.81-.57,12-.76,18.35l.22.07a18.94,18.94,0,0,0-.3,2.81c-.08,4.32-1.35,34.4,1.38,49.11h0A113.38,113.38,0,0,0,177,459s11.54-9,29.55-8.56,90.81-30.75,90.81-30.75l19.37-13.44s-3.22-27.65-7.26-57.71Z"/><path class="cls-8" d="M257.46,432.07c-1.13.18-29.23,5.14-57.49,5.42-2.78,0-6.43.07-10.66,0-4.92-.11-10.62-.42-16.63-1.14-1.66-15.74-1.79-34.51-1.29-52,16.8,5,56.46,12.92,85.48,8.1Z"/><path class="cls-8" d="M191.23,332.08a.24.24,0,0,0-.24.17l-10.68,32.18c-.37,0-1.32.06-2.52.06a38,38,0,0,1-4.63-.25h0a.27.27,0,0,0-.26.23.24.24,0,0,0,.22.28,34.31,34.31,0,0,0,3.45.24h1.23c1.58,0,2.72-.06,2.75-.07a.23.23,0,0,0,.22-.17l10.73-32.35a.24.24,0,0,0-.16-.32Z"/><path class="cls-8" d="M167.87,283.13a.26.26,0,0,0-.13.48c.14.08,14.18,9,19,20.58a.25.25,0,0,0,.23.16h0l.1,0a.25.25,0,0,0,.14-.34c-4.84-11.72-19-20.73-19.16-20.82a.23.23,0,0,0-.14,0Z"/><path class="cls-9" d="M303.41,297.89a.26.26,0,0,0,.26-.25c0-1.68,2.39-14.53,2.41-14.66a.25.25,0,0,0-.2-.3c-.16,0-.28.06-.3.2-.1.54-2.38,13-2.42,14.74A.27.27,0,0,0,303.41,297.89Z"/><path class="cls-8" d="M155.69,318.87h-.07a.26.26,0,0,0-.18.32c.21.71,5.15,17.4,10.14,23a.27.27,0,0,0,.19.08h0a.27.27,0,0,0,.17-.06.28.28,0,0,0,0-.37c-4.92-5.5-10-22.61-10-22.79a.25.25,0,0,0-.24-.18Z"/><path class="cls-8" d="M153.48,325a.27.27,0,0,0-.26.25c0,.4-.56,10,1.07,13.86a.25.25,0,0,0,.23.16h0l.11,0a.26.26,0,0,0,.13-.34c-1.58-3.71-1-13.54-1-13.64a.26.26,0,0,0-.24-.27h0Z"/><rect class="cls-9" x="203.9" y="433.57" width="7.35" height="2.79" transform="translate(443.24 855.36) rotate(176.24)"/><rect class="cls-9" x="213.13" y="432.96" width="7.35" height="2.79" transform="translate(461.64 853.55) rotate(176.24)"/><rect class="cls-9" x="222.3" y="432.36" width="7.35" height="2.79" transform="matrix(-1, 0.07, -0.07, -1, 479.91, 851.74)"/><rect class="cls-9" x="231.15" y="431.77" width="7.35" height="2.79" transform="translate(497.56 850) rotate(176.24)"/><rect class="cls-9" x="240.57" y="431.16" width="7.35" height="2.79" transform="translate(516.33 848.14) rotate(176.24)"/><rect class="cls-9" x="249.42" y="430.57" width="7.35" height="2.79" transform="translate(533.97 846.4) rotate(176.24)"/><path class="cls-14" d="M201.89,443.34l83.39-6.6-.57-7.26-83.09,6.57a1.5,1.5,0,0,0-1.38,1.62l.36,4.57A1.19,1.19,0,0,0,201.89,443.34Z"/><rect class="cls-9" x="239.9" y="434.77" width="8.74" height="2.41" transform="translate(516.63 854.99) rotate(176.24)"/><rect class="cls-8" x="239.88" y="435.09" width="8.74" height="0.95" transform="translate(-28.05 16.96) rotate(-3.76)"/><path class="cls-5" d="M205.94,439a1.29,1.29,0,0,1,1.2-1.37,1.3,1.3,0,0,1,1.37,1.21,1.29,1.29,0,0,1-1.2,1.37A1.3,1.3,0,0,1,205.94,439Z"/><path class="cls-5" d="M210,438.76a1.29,1.29,0,1,1,1.37,1.2A1.28,1.28,0,0,1,210,438.76Z"/><path class="cls-15" d="M373.29,346.07l-106.72,8.44a4,4,0,0,0-3.67,3.56l-8.46,76.08a4,4,0,0,0,4.24,4.45l106.14-6.52a4,4,0,0,0,3.74-3.55l9-78A4,4,0,0,0,373.29,346.07Z"/><path d="M376.58,345.85,269.86,354.3a4,4,0,0,0-3.68,3.56l-8.45,76.08a4,4,0,0,0,4.23,4.45l106.15-6.53a4,4,0,0,0,3.74-3.54l9-78A4,4,0,0,0,376.58,345.85Z"/><path class="cls-5" d="M254.52,434.06,263,358a4,4,0,0,1,3.68-3.56L373.37,346c.13,0,.26,0,.39,0l-103.83,8.22a4,4,0,0,0-3.67,3.56l-8.45,76.08A4,4,0,0,0,262,438.3l103-6.34-.1,0-106.2,6.53A4,4,0,0,1,254.52,434.06Z"/><g class="cls-16"><path class="cls-8" d="M329.32,397a9.33,9.33,0,0,1-8.09.45c-3.92-1.54-7.89-5.67-7.53-10.15s4.31-7.43,8.28-8.5a10.43,10.43,0,0,1,8.31,1.17c5.63,3.7,4.66,13.42-.76,16.9Z"/></g><path class="cls-5" d="M257.46,432.07c-1.13.18-29.23,5.14-57.49,5.42-2.78,0-6.43.07-10.66,0-4.92-.11-10.62-.42-16.63-1.14-22.54-2.71-49.46-11.28-56.07-37.89-3.61-14.52-.77-32.07,9-54.21,1.72,3.09,5.72,7.27,14.84,11.44,12.84,5.87,24.46,7.17,31.84,8.64l-.09,1.68c-3,6.85-4.93,12.68-5.48,16.79,1.26.47,2.85,1,4.72,1.56,16.8,5,58.7,12.61,87.72,7.8Z"/><g class="cls-17"><path class="cls-18" d="M265.64,330.92a18,18,0,0,0-8.25-13c-.94,2.53-2.93,4.21-4.61,6.12.73,4.54,2.47,8.49,3.41,12.43l-.09-.11a8,8,0,0,1-1.1-2.56,64.93,64.93,0,0,1-2.52-9.53,33.55,33.55,0,0,1-8.51,3.82,21.32,21.32,0,0,0,4.35,10.69l0,.06h0c.67-.36,1.24-1.2,2.19-1.41,1.52-.33,2.84.37,4.35,0a3.11,3.11,0,0,0,1.3-.7,16.43,16.43,0,0,0,2-2.91c-.37,1.84-1.31,3.5-3.38,4-1.43.34-2.88-.31-4.24,0a4,4,0,0,0-1.78,1.38,7.51,7.51,0,0,1,.78.07l.3.07a3.44,3.44,0,0,1,.42.14,1,1,0,0,1,.2.13.44.44,0,0,1,.21.39,6.85,6.85,0,0,0-2.2-.48,3.94,3.94,0,0,0,0,1.2c.59.32,1.8.5,1.82,1.11-.75,0-1.12-.49-1.8-.62,1.11,3.54,5.1,5.12,9.75,4.16C264.54,344,266.61,338.22,265.64,330.92ZM247,330.16c.19-.32,1.38-.13,2.06-.3C248.78,330.43,247.51,330.48,247,330.16Zm1.27,3.86c.22-.4,1.06-.4,1.53-.35A1.92,1.92,0,0,1,248.29,334Zm1.2-6c-.09-.48.93-.06,1-.4a.26.26,0,0,1,.22.28C250.31,328,249.82,328.33,249.49,328Zm1.18,2.48,1.24-.12C252,330.79,250.64,331,250.67,330.5Zm.42,5.24c.69-.22,1.14-.63,1.81-.87A1.51,1.51,0,0,1,251.09,335.74Z"/><path class="cls-19" d="M244,328.05s.29,6.77,4.63,11a3.36,3.36,0,0,1,3.4-1.47s3.33.38,4.28-.69c0,0-3.16-9.36-3.59-13.09C252.69,323.78,245.69,326.82,244,328.05Z"/><path class="cls-20" d="M282.66,308.21a7.23,7.23,0,0,0-1.71.35c-1.46.72-3.58,3.8-4.19,5.15-2.15,4.61-1.57,11.22-2.24,17.23-.92,8.2-2.69,14.72-11.86,16.09-.36-.88-.29-2.24-.88-2.86,4-2.3,4.94-7.07,4.27-13.18,1.61-1.75,4.29-2.6,4.29-5.67-1.26-.6-2.38-.67-3.35-1.47a19.68,19.68,0,0,1-2-2.49,21,21,0,0,0-2.19-2.39,8.94,8.94,0,0,0-5.29-2.3c.28-1.77-1.72-2.21-2.26-3.31s-.25-2.42-1.52-3a10.69,10.69,0,0,0,.78-7.92c4.53-2.77,9.38-7.13,9.52-13.3a13.73,13.73,0,0,0-2.88-8.78,12.79,12.79,0,0,0-4.24-3.34,12.56,12.56,0,0,0-6.41-.54c-8.26,1.25-10.8,9.61-8.16,18.07-3.48-1.15-10.27-.06-13.15,1.28.29-6.41-2.1-12.79-5.88-15s-9-.92-12.09,1.33c-3.73,2.73-6.21,8.3-5.11,14.16a10.79,10.79,0,0,0,3.19,5.41c2.15,2,5,3.2,8,4.35.07,3.18.76,6.46,2.26,8.38-1.28.84-.55,2.91-.87,4.46-.15.74-.81,1.14-.84,1.81a4.28,4.28,0,0,0,.44,1.89,20.23,20.23,0,0,0-4.57,13c0,5.76,1.06,10.24,4.08,13,.46.42,2.1,1.2,1.73,1.93a1,1,0,0,1-.18.22.92.92,0,0,1-.08.4c0,.05,0,.09-.05.13l0,0c-.17,3.12-.16,7.59.88,10.11a23.54,23.54,0,0,0,2.47,3.62c1.76,2.51,3.8,3.76,6.46,5.43,1.1.69,3,1.81,3.12,2.81s-.43,2.22-.62,3.33a8.89,8.89,0,0,0-.29,3.59,3.86,3.86,0,0,0,2.54,2.26c4.62,1.27,5.42-4.4,6.86-6.7,1.94,1.35,3.43-.44,5.09-1.48a10.71,10.71,0,0,1,3.41-1.66c1.32-.25,2.25.19,3.78-.54,1.26.88,2,2.3,3.17,3.26a4.73,4.73,0,0,0,2.52,1.26c2-.05,2.74-2.11,2.76-3.44,0-2.66-2.55-4.71-2.75-6.92a7.43,7.43,0,0,1,1.13-3.54A32.45,32.45,0,0,0,263,351.92a15,15,0,0,0,4.11-.66c3.42-1.09,5.48-3.41,7.24-5.85a18.55,18.55,0,0,0,2-3.54c1.87-4.47,2.36-9.77,2.14-15.26-.26-6.2.33-12.75,3.28-16.84C282.13,309.35,282.83,308.93,282.66,308.21Zm-25.1,9c1.28-.42,3.9,1.15,5,2,2.51,2.09,3.67,6,7.4,6.16,0,2.73-2.5,3.87-4,5a18.39,18.39,0,0,0-8.35-13Zm8.08,13.76c1,7.3-1.1,13.1-7.39,14.41-4.65,1-8.64-.62-9.75-4.16.68.13,1.05.58,1.8.62,0-.61-1.23-.79-1.82-1.11a3.94,3.94,0,0,1,0-1.2,6.85,6.85,0,0,1,2.2.48.44.44,0,0,0-.21-.39,1,1,0,0,0-.2-.13,3.44,3.44,0,0,0-.42-.14l-.3-.07a7.51,7.51,0,0,0-.78-.07,4,4,0,0,1,1.78-1.38c1.36-.33,2.81.32,4.24,0,2.07-.52,3-2.18,3.38-4a16.43,16.43,0,0,1-2,2.91,3.11,3.11,0,0,1-1.3.7c-1.51.4-2.83-.3-4.35,0-.95.21-1.52,1.05-2.19,1.41h0l0-.06A21.32,21.32,0,0,1,244,328.05a33.55,33.55,0,0,0,8.51-3.82,64.93,64.93,0,0,0,2.52,9.53,8,8,0,0,0,1.1,2.56l.09.11c-.94-3.94-2.68-7.89-3.41-12.43,1.68-1.91,3.67-3.59,4.61-6.12A18,18,0,0,1,265.64,330.92ZM255,313.59c.73,1.41,2.71,1.67,2.1,4.21a12,12,0,0,1-2.38,3.62,15.24,15.24,0,0,1-3.39,3s0,0,0,0a24.52,24.52,0,0,1-6,2.86,21.83,21.83,0,0,1-2.91.75c2.51-6.35,8.39-10.57,11.07-17.09.12,0,.18,0,.21.09C254.8,311.54,254.43,312.56,255,313.59ZM241.2,328.92a3.45,3.45,0,0,1-4.83-1.65c.82-1.4,4.6-1.91,6.22-1.19C242.22,327.11,242.08,328.35,241.2,328.92ZM219,313a18.6,18.6,0,0,1-1.34-7.24c-3.35-1.32-6.28-2.38-8.5-4.72a10.12,10.12,0,0,1-2.77-5.65,13.26,13.26,0,0,1,11-15.23,8.69,8.69,0,0,1,8.86,4.17,20.7,20.7,0,0,1,2.5,12.42c3.2-2.14,10.28-2.85,14.18-1.68-1.77-4.83-1.61-11.43,1.42-14.89,2.3-2.63,8.12-4.55,12.31-2.77a14.41,14.41,0,0,1,3.35,2.29,12.78,12.78,0,0,1,3.64,9.43c-.14,6.29-5.13,10.55-9.73,13.22,1.58,3.89-.08,7-1.4,9.88a21.63,21.63,0,0,1-3.05,4.6c-2.44,3.05-4.69,6-6.57,8.95-1.77-.93-5.55-.13-6.85,1.05-2.79-3.39-7.69-4.61-11.07-7.65-1.12-1-2.53-1.77-3.49-2.83-.38-.44-.74-1.16-1.18-1.73A12.75,12.75,0,0,1,219,313Zm-.79,7.31c1.52-1.07.17-4.46,1.54-5.64.1,0,.11,0,.12.09.93,1.85,2.58,2.85,4.12,4.2,4,3.53,10.22,5.14,12.89,9.9-6.86,0-14.67-1.39-17.95-5.78A4.55,4.55,0,0,1,218.22,320.28Zm-4.13,15c.1-4,1.84-10,4.31-12.28.08,0,.1,0,.11.09,2.89,3.38,7.58,5.33,12.92,6,1.88.23,3.89-.12,5.91.14.9.12,2,.71,3.27.39a3,3,0,0,0,1.6-1.26l1.45-.14a18.09,18.09,0,0,0,4.62,10.92,2.9,2.9,0,0,0-.21,1.82c-.31.18-.8-.5-1.19-.87a5.05,5.05,0,0,0-1.32-1.17c.41,1.9,4.34,2.85,2.06,4.87-.63.07-.79-.38-1.27-.47-.2,1.87-3,2.51-3.5.66-.51,1.06-1.66,2.82-3.13,1.72-.26-.44-.07-.78-.28-1.17-.73.2-.56,1.12-1.38,1.34a1.82,1.82,0,0,1-2.05-1c-.12-.77,1.34-2.18,1.91-2.89a16.26,16.26,0,0,0,2-2.7c-.8.27-1.29,1.26-1.86,2a27.05,27.05,0,0,0-1.65,2.27c.32-2.2-.94-4.38-2.69-4.53-2.3-.19-3.55,2.08-5.85,2.5a7.3,7.3,0,0,1-7.76-3.66c.14,2.18,3.2,3.85,5.36,4.1a9.54,9.54,0,0,0,2.32,0c2.71-.44,5.38-4,7.38-1.54a8.89,8.89,0,0,0-4.21,3.23c1.58-.89,2.35-2.4,4.56-2.77,1,1.44-1.54,2.07-1.57,3.56.72-.25,1.3-1.91,2.07-2.11a9,9,0,0,1-2.15,5.33,10.84,10.84,0,0,1-8.75,3.49,11.93,11.93,0,0,1-3.84-.71C216,348.38,213.9,342.56,214.09,335.28ZM236.48,382a8.58,8.58,0,0,1-2.29.07c-.56-.71-.12-2.25-.18-2.83-.71.36-.58,1.8-.35,2.59-2.43-.68-2.11-2.89-1.61-5.52.21-1.12.75-2.5.51-3.42s-2.51-2.44-3.66-3.15a25.55,25.55,0,0,1-4-2.72,15.4,15.4,0,0,1-5.13-8.81,24.59,24.59,0,0,1,0-7.37c0-.23.09-.44.14-.65a5.38,5.38,0,0,0,.72.37c2.93,1.29,8.47,1.17,11.29-.83-1.18,1.66-3.07,3.56-4.16,5.62-.49-.21-.81-.13-1,.08-.48.5-.12,1.83.78,1.54.6-.19.43-.82.44-1.34a50.66,50.66,0,0,1,5.84-7.3c-1.08,10.3,1.89,21.13,6.51,27.22C239,377.71,238.49,380.43,236.48,382Zm12.34-9.79a11.13,11.13,0,0,0-3.21,1.55c-1.15.73-2.24,2.22-3.92,2-1-.12-2.27-2.18-2.9-3.31-3.48-6.15-5.45-15.72-4.58-24.48l.31-.53a16.33,16.33,0,0,0,1.19-2.32,1.48,1.48,0,0,0,.64.62l.23.12.32.11a1.89,1.89,0,0,0,2-.37,1.16,1.16,0,0,0,.2-.32,1.4,1.4,0,0,0,.47.66l.22.14c1.08.53,2.92-.2,3-1.49.6,1.33,3.81.76,3.69-.88a1.33,1.33,0,0,0,2.13-.81c.63.28.89,1,1.43,1.34,0,1,0,2.06.08,3.07.39,8.52,2.43,16.34,4.08,23.68C252.43,372.36,250.85,371.77,248.82,372.24ZM259.62,362c-.62,1.38-1.6,2.64-1.38,4.47.27,2.19,2.66,4.12,2.72,6.52,0,1-.3,2.66-1.86,3-.3-.68-.53-1.47-1.13-1.81-.12.67.72,1.1.73,2-2.6-.49-3.35-3.09-5.47-4.15.35-.4,1.17-.43,1.39-.94a163.37,163.37,0,0,1-4.17-23.7c-.08-.93-.14-1.87-.19-2.82.41-.15.83.51,1.38.55a7.53,7.53,0,0,0,2.21,2.67c1,.85,2.19,1.56,3.14,2.5-.21.26-.13.77-.24,1.12,1.47,1.16,2.1-2,.43-1.43a18.94,18.94,0,0,0-2.47-2.07,9.63,9.63,0,0,1-2.54-2.55,12,12,0,0,0,9.41-1,19.76,19.76,0,0,1,1,5.09C262.81,354.19,261.27,358.36,259.62,362Zm21.81-52.19a11.59,11.59,0,0,0-.85,1.26c-3,5.85-2.27,12.78-2.5,20.21-.16,5.38-1.31,9.77-3.84,13.46-1.81,2.65-3.81,5.06-7.5,6.22l-.06,0-.3.08-.3.08a16.62,16.62,0,0,1-3.07.48c0-.7-.07-1.39-.12-2.06a18,18,0,0,0-.32-2.22,12.64,12.64,0,0,0,9.67-5.73c2.63-4.33,2.62-10.76,3.06-17,.38-5.48.86-9.94,3.56-13.41a6.26,6.26,0,0,1,3.22-2.58C282.23,308.88,281.72,309.38,281.43,309.81Z"/><path class="cls-18" d="M260,279.67a14.41,14.41,0,0,0-3.35-2.29c-4.19-1.78-10,.14-12.31,2.77-3,3.46-3.19,10.06-1.42,14.89-3.9-1.17-11-.46-14.18,1.68a20.7,20.7,0,0,0-2.5-12.42,8.69,8.69,0,0,0-8.86-4.17,13.26,13.26,0,0,0-11,15.23,10.12,10.12,0,0,0,2.77,5.65c2.22,2.34,5.15,3.4,8.5,4.72A18.6,18.6,0,0,0,219,313a12.75,12.75,0,0,0,1.28,1.62c.44.57.8,1.29,1.18,1.73,1,1.06,2.37,1.81,3.49,2.83,3.38,3,8.28,4.26,11.07,7.65,1.3-1.18,5.08-2,6.85-1.05,1.88-2.91,4.13-5.9,6.57-8.95a21.63,21.63,0,0,0,3.05-4.6c1.32-2.86,3-6,1.4-9.88,4.6-2.67,9.59-6.93,9.73-13.22A12.78,12.78,0,0,0,260,279.67Zm-35.5,17.5c0,.94-.09,2.19-1,2.64,1.48-4.71-.21-11.31-3.45-13.48s-8.55.59-9,3.81c-.34-1.15,1.29-3.26,2.33-3.91a9,9,0,0,1,5-1c2.93.29,5.41,4.26,5.89,8.08A27.49,27.49,0,0,1,224.49,297.17Zm6.93,21.69c-1,0-1.72-1-1.44-2.71-.4-.56-1.22-.66-1.17-1.71.56.24.73.91,1.24,1.2.24-.81,1.6-1.76,2.57-1.14S233.48,318.89,231.42,318.86ZM246,314.81c.59,1.78-.62,3.54-2.13,2.71s-.65-4.77,1.11-4.23c.43.13.56.64.91,1.22.59-.27.76-.88,1.28-1.22A1.78,1.78,0,0,1,246,314.81ZM247.43,297a6.62,6.62,0,0,1-1.28-3.95c-.21-3.33,1.13-7.48,3-9.09,1.36-1.15,4.55-2.61,6.23-.79C247.79,280.94,245.21,290.62,247.43,297Z"/><path class="cls-20" d="M255.4,283.17c-7.61-2.23-10.19,7.45-8,13.83a6.59,6.59,0,0,1-1.28-3.95c-.21-3.33,1.13-7.48,3-9.09C250.52,282.81,253.72,281.35,255.4,283.17Z"/><path class="cls-20" d="M223.49,299.81c1.49-4.71-.21-11.31-3.45-13.48s-8.55.59-9,3.8c-.34-1.13,1.29-3.24,2.33-3.9a9,9,0,0,1,5-1c2.93.29,5.42,4.26,5.89,8.08a27.58,27.58,0,0,1,.25,3.87C224.48,298.11,224.41,299.36,223.49,299.81Z"/><path class="cls-19" d="M255,313.59c-.55-1-.18-2-1.3-2.59,0-.08-.09-.11-.21-.09-2.68,6.52-8.56,10.74-11.07,17.09a21.83,21.83,0,0,0,2.91-.75,24.52,24.52,0,0,0,6-2.86s0,0,0,0a15.24,15.24,0,0,0,3.39-3,12,12,0,0,0,2.38-3.62C257.69,315.26,255.71,315,255,313.59ZM249.24,322a2.8,2.8,0,0,1-1.11-1.1C248.77,321,249.08,321.44,249.24,322Zm-2.18,2c-.27-.26-.62-.43-.68-.94C246.84,323.17,247.07,323.48,247.06,324.05Zm3.58-1c.48-.07.47.4.76.53C251,323.92,250.72,323.32,250.64,323Zm1.15-5.32c.4.23.91.32,1.08.8C252.31,318.5,251.72,318.05,251.79,317.69Zm2.37-2.12a9.22,9.22,0,0,1-1.22-1.2C253.26,314,254.32,315.05,254.16,315.57Zm1.3,2.88c-.39.05-.32-.41-.36-.76C255.38,317.77,255.47,318.06,255.46,318.45Z"/><path class="cls-18" d="M263,351.62a26.4,26.4,0,0,0-.45-4.28,12.68,12.68,0,0,0,9.68-5.73c2.62-4.33,2.61-10.76,3.05-17,.38-5.48.85-9.94,3.56-13.41a6.24,6.24,0,0,1,3.22-2.57c.16.22-.36.72-.66,1.15a12.13,12.13,0,0,0-.84,1.27c-3,5.84-2.27,12.77-2.5,20.2-.16,5.39-1.31,9.78-3.84,13.46C271.89,348.16,269.25,351.2,263,351.62Z"/><path class="cls-19" d="M224,318.93c-1.54-1.35-3.19-2.35-4.12-4.2,0-.07,0-.12-.12-.09-1.37,1.18,0,4.57-1.54,5.64a4.55,4.55,0,0,0,.72,2.77c3.28,4.39,11.09,5.82,17.95,5.78C234.22,324.07,228,322.46,224,318.93Zm-3.12,1.3a3.62,3.62,0,0,1,.73-1.79C222,318.8,221.38,319.93,220.88,320.23Zm2.22,4.47c-.54-.23-.59-1.26-.33-1.8C223.25,323.08,222.94,324.15,223.1,324.7Zm-.67-3.7a4.21,4.21,0,0,1,.53-1.47C223.35,319.78,222.87,320.8,222.43,321Zm4.33,2.94a3.55,3.55,0,0,1,.11-1.63l.32,0C227.07,322.86,227.2,323.63,226.76,323.94Zm2.21,1.31c.33.31.41.9.62,1.36A1.1,1.1,0,0,1,229,325.25Zm2.45.27c.43.05.55.46.59,1A1.38,1.38,0,0,1,231.42,325.52Z"/><path class="cls-20" d="M232.62,314.5c-1-.62-2.33.33-2.57,1.14-.51-.29-.68-1-1.24-1.2-.05,1.05.77,1.15,1.17,1.71-.28,1.68.39,2.69,1.44,2.71C233.48,318.89,233.64,315.15,232.62,314.5Z"/><path class="cls-20" d="M247.15,313.29c-.52.34-.69.95-1.28,1.22-.35-.58-.48-1.09-.91-1.22-1.76-.54-2.48,3.46-1.11,4.23s2.72-.93,2.13-2.71A1.78,1.78,0,0,0,247.15,313.29Z"/><path class="cls-20" d="M254.15,315.57a9.71,9.71,0,0,1-1.21-1.19C253.26,314,254.32,315.05,254.15,315.57Z"/><path class="cls-20" d="M221.62,318.44c.35.36-.24,1.49-.74,1.79A3.45,3.45,0,0,1,221.62,318.44Z"/><path class="cls-20" d="M223,319.53c.38.25-.1,1.27-.54,1.47A4,4,0,0,1,223,319.53Z"/><path class="cls-19" d="M262.53,319.2c-1.07-.89-3.69-2.46-5-2v.2a18.39,18.39,0,0,1,8.35,13c1.51-1.17,4-2.31,4-5C266.2,325.18,265,321.29,262.53,319.2Zm-2.09-.31c.48.22,1,.4,1.19.89A1.25,1.25,0,0,1,260.44,318.89Zm3.3,3.58c-.29-.2-.7-.71-.57-1C263.51,321.53,264,322,263.74,322.47Zm1.71,3.21c-.28-.07-.45-.67-.26-1C265.62,324.66,265.34,325.4,265.45,325.68Zm1,1.59c0-.46.18-.84.23-1.31l.3,0C267,326.53,267.05,327.17,266.47,327.27Z"/><path class="cls-20" d="M251.79,317.69c.39.23.91.32,1.08.8C252.3,318.5,251.72,318.05,251.79,317.69Z"/><path class="cls-20" d="M255.11,317.69c.27.08.36.37.35.76C255.08,318.5,255.14,318,255.11,317.69Z"/><path class="cls-20" d="M260.45,318.89c.46.22,1,.4,1.18.89A1.24,1.24,0,0,1,260.45,318.89Z"/><path class="cls-18" d="M218.4,323c.09,0,.1,0,.11.09,2.89,3.38,7.58,5.33,12.92,6,1.88.23,3.89-.12,5.91.14.9.12,2,.71,3.27.39a3,3,0,0,0,1.6-1.26l1.45-.14a18.14,18.14,0,0,0,4.62,10.93,2.73,2.73,0,0,0-.2,1.81c-.32.18-.81-.51-1.2-.87a5.05,5.05,0,0,0-1.32-1.17c.42,1.9,4.34,2.85,2.06,4.87-.63.07-.79-.37-1.27-.47-.2,1.87-3,2.51-3.5.66-.51,1.06-1.66,2.82-3.13,1.72-.26-.44-.07-.78-.28-1.17-.73.2-.57,1.12-1.38,1.34a1.82,1.82,0,0,1-2.05-1c-.11-.77,1.34-2.18,1.91-2.89a16.26,16.26,0,0,0,2-2.7c-.81.27-1.29,1.25-1.86,2a24.82,24.82,0,0,0-1.64,2.27c.31-2.19-1-4.39-2.7-4.53-2.31-.19-3.55,2.08-5.85,2.49-3.66.67-6.21-1.21-7.77-3.64.15,2.17,3.21,3.84,5.37,4.09a9.54,9.54,0,0,0,2.32,0c2.71-.44,5.38-4,7.38-1.54a8.89,8.89,0,0,0-4.21,3.23c1.57-.88,2.35-2.4,4.55-2.77,1,1.44-1.53,2.06-1.56,3.56.72-.24,1.3-1.91,2.07-2.11-.32,5.11-4.69,9-10.9,8.83-8.17-.27-11.29-7-11.06-15.79C214.2,331.25,215.93,325.29,218.4,323Z"/><path class="cls-20" d="M226.87,322.32l.32,0c-.12.57,0,1.34-.43,1.65A3.64,3.64,0,0,1,226.87,322.32Z"/><path class="cls-20" d="M222.76,322.9c.49.18.17,1.25.33,1.79C222.56,324.46,222.51,323.43,222.76,322.9Z"/><path class="cls-20" d="M248.13,320.94c.64.06,1,.49,1.11,1.1A2.86,2.86,0,0,1,248.13,320.94Z"/><path class="cls-20" d="M263.16,321.43c.36.1.85.59.58,1C263.45,322.27,263,321.76,263.16,321.43Z"/><path class="cls-20" d="M246.38,323.11c.45.06.69.37.68.94C246.79,323.79,246.43,323.62,246.38,323.11Z"/><path class="cls-20" d="M250.64,323c.48-.07.47.4.76.53C251,323.92,250.71,323.32,250.64,323Z"/><path class="cls-20" d="M229,325.25c.33.31.41.91.61,1.36A1.11,1.11,0,0,1,229,325.25Z"/><path class="cls-20" d="M231.42,325.53c.44,0,.55.45.59,1A1.41,1.41,0,0,1,231.42,325.53Z"/><path class="cls-21" d="M242.59,326.08c-.37,1-.51,2.27-1.39,2.84a3.43,3.43,0,0,1-4.82-1.65C237.19,325.87,241,325.37,242.59,326.08Z"/><path class="cls-20" d="M265.19,324.72c.43-.06.15.68.26,1C265.17,325.61,265,325,265.19,324.72Z"/><path class="cls-20" d="M266.7,326l.3,0c0,.59.06,1.23-.54,1.34C266.51,326.81,266.65,326.43,266.7,326Z"/><path class="cls-20" d="M250.5,327.62a.27.27,0,0,1,.23.28c-.42.12-.91.43-1.24.12C249.4,327.54,250.41,328,250.5,327.62Z"/><path class="cls-20" d="M249.08,329.86c-.3.57-1.57.62-2.07.3C247.21,329.84,248.4,330,249.08,329.86Z"/><path class="cls-20" d="M250.67,330.5l1.24-.12C252,330.79,250.64,331,250.67,330.5Z"/><path class="cls-20" d="M249.82,333.68a2,2,0,0,1-1.53.35C248.51,333.61,249.35,333.62,249.82,333.68Z"/><path class="cls-20" d="M252.9,334.86a1.51,1.51,0,0,1-1.81.88C251.78,335.52,252.23,335.11,252.9,334.86Z"/><path class="cls-22" d="M250.12,347.36c-.06-1-.09-2-.08-3.07-.54-.37-.8-1.06-1.43-1.34a1.33,1.33,0,0,1-2.13.81c.12,1.64-3.09,2.21-3.69.88-.11,1.29-1.95,2-3,1.49a1.64,1.64,0,0,1-.22-.14,1.4,1.4,0,0,1-.47-.66,1.16,1.16,0,0,1-.2.32,1.86,1.86,0,0,1-2,.37l-.32-.11-.23-.12a1.48,1.48,0,0,1-.64-.62,16.33,16.33,0,0,1-1.19,2.32l-.31.53c-.87,8.76,1.1,18.33,4.58,24.48.63,1.13,1.9,3.19,2.9,3.31,1.68.2,2.77-1.29,3.92-2a11.13,11.13,0,0,1,3.21-1.55c2-.47,3.61.12,5.38-1.2C252.55,363.7,250.51,355.88,250.12,347.36Zm-12.77,3.92c.5,1.5,3.25,2.33,4.43.62,0-.45-.15-1,.13-1.2.17-.05.19.07.32.07.22.34,0,.69,0,1.09.53,1.71,3.15.54,2.63-1.27.68-.16.55.62.48,1,1,1.3,2.81-.49,3.23-1.43.39,1.35-2.43,3.23-3.42,1.75-.33,1.14-2.86,1.77-3.11.23C240.89,353.84,237.37,353.57,237.35,351.28Zm9.2,12.37c-.08,1.34-1.57,3-2.89,1.9a4.29,4.29,0,0,1-1.06,1.4c-2.22.35-3.14-1.34-3.3-3,.66,1.07,1.41,3.19,3.07,2.62.91-.31.74-1.46.9-2.27.73.29.35,1.31,1.42,1.22s1.4-1.56,1.71-2.55c.68.36.9,1.08,1.71,1,1.07-.12,1.32-1.36,1.51-2.43C250.77,363.12,247.82,365.49,246.55,363.65Zm-.18-6.3c-.33,1.09-1.9,2.66-3.12,1.63-1.05,2.28-4.76,1.33-4.44-1.1.71.44.59,1.52,1.37,1.93a2.17,2.17,0,0,0,2.75-1.09c-.09-.32-.54-1-.08-1.28.6-.08.55.56.59,1.12,1.2,1.05,2.7-.78,2.67-2.16l.3,0c-.1,2.07,3.14,2.19,3.33.23C250.76,358.35,246.59,359.27,246.37,357.35Z"/><path class="cls-18" d="M259.62,362c1.65-3.64,3.19-7.81,2.94-12.53a19.76,19.76,0,0,0-1-5.09,12,12,0,0,1-9.41,1,9.63,9.63,0,0,0,2.54,2.55,18.94,18.94,0,0,1,2.47,2.07c1.67-.55,1,2.59-.43,1.43.11-.35,0-.86.24-1.12-.95-.94-2.1-1.65-3.14-2.5a7.53,7.53,0,0,1-2.21-2.67c-.55,0-1-.7-1.38-.55.05.95.11,1.89.19,2.82a163.37,163.37,0,0,0,4.17,23.7c-.22.51-1,.54-1.39.94,2.12,1.06,2.87,3.66,5.47,4.15,0-.86-.85-1.29-.73-2,.6.34.83,1.13,1.13,1.81,1.56-.38,1.89-2,1.86-3-.06-2.4-2.45-4.33-2.72-6.52C258,364.64,259,363.38,259.62,362Zm-.27,11.37a2.06,2.06,0,0,1,.72,1.87A2.42,2.42,0,0,1,259.35,373.37Z"/><path class="cls-20" d="M241.91,350.7c.17-.05.19.07.32.07.22.34,0,.7,0,1.09.53,1.71,3.15.54,2.63-1.27.69-.16.55.61.48,1,1,1.3,2.81-.49,3.23-1.43.39,1.34-2.43,3.23-3.42,1.75-.33,1.14-2.86,1.78-3.11.23-1.11,1.66-4.63,1.39-4.64-.9.5,1.5,3.24,2.33,4.42.62C241.76,351.45,241.63,350.91,241.91,350.7Z"/><path class="cls-20" d="M246.1,356.4l.31,0c-.09,2.07,3.14,2.19,3.33.24,1,1.75-3.15,2.67-3.37.76-.33,1.09-1.9,2.65-3.12,1.62-1.05,2.29-4.76,1.33-4.44-1.1.71.44.58,1.52,1.37,1.93a2.17,2.17,0,0,0,2.74-1.09c-.08-.32-.53-1-.07-1.28.6-.08.55.56.59,1.12C244.64,359.61,246.14,357.78,246.1,356.4Z"/><path class="cls-20" d="M249.62,361.54c1.15,1.59-1.8,3.95-3.08,2.11-.07,1.34-1.56,3-2.88,1.9a4.19,4.19,0,0,1-1.06,1.4c-2.23.34-3.15-1.34-3.3-3,.65,1.07,1.41,3.19,3.07,2.62.91-.31.74-1.46.9-2.27.73.29.36,1.31,1.42,1.22s1.4-1.56,1.71-2.55c.68.37.9,1.08,1.71,1C249.17,363.85,249.44,362.62,249.62,361.54Z"/><path class="cls-20" d="M259.35,373.38a2,2,0,0,1,.72,1.86A2.4,2.4,0,0,1,259.35,373.38Z"/><path class="cls-20" d="M235.39,379.59c.42.39.26,1.86,0,2.36C234.87,381.46,235.33,380.22,235.39,379.59Z"/><path class="cls-18" d="M233.82,348.36a50.66,50.66,0,0,0-5.84,7.3c0,.52.16,1.15-.44,1.34-.9.29-1.26-1-.78-1.54.19-.21.51-.29,1-.07h0c1.09-2.06,3-4,4.16-5.62-2.82,2-8.36,2.12-11.29.83a5.38,5.38,0,0,1-.72-.37c-.05.21-.1.42-.14.65a24.59,24.59,0,0,0,0,7.37,15.4,15.4,0,0,0,5.13,8.81,25.55,25.55,0,0,0,4,2.72c1.15.71,3.38,2.09,3.66,3.15s-.3,2.3-.51,3.42c-.5,2.63-.82,4.84,1.61,5.52-.23-.79-.36-2.23.35-2.59.06.58-.38,2.12.18,2.83a8.58,8.58,0,0,0,2.29-.07c2-1.6,2.55-4.32,3.85-6.45C235.71,369.49,232.74,358.66,233.82,348.36ZM235.43,382c-.56-.49-.1-1.74-.05-2.35C235.81,380,235.65,381.46,235.43,382Z"/><path class="cls-23" d="M232,320.57A1.37,1.37,0,0,1,230.7,322a1.29,1.29,0,0,1-1.45-1.17,1.38,1.38,0,0,1,1.28-1.42A1.28,1.28,0,0,1,232,320.57Z"/><path class="cls-23" d="M246.31,319.76a1.37,1.37,0,0,1-1.26,1.42,1.27,1.27,0,0,1-1.42-1.17,1.37,1.37,0,0,1,1.26-1.42A1.27,1.27,0,0,1,246.31,319.76Z"/></g><polygon class="cls-8" points="436.59 529.07 431.59 535.11 374.15 529.84 379.51 525.15 436.59 529.07"/><path class="cls-24" d="M436.59,529.07l-5,6h0l-57.44-5.23H374l.08-.07,5.37-4.69v0h0Zm0,0-57.08-3.88h0l-5.36,4.7,0-.08,57.43,5.31h0Z"/><polygon class="cls-25" points="386.88 526.29 382.86 529.96 376.29 529.38 380.31 525.82 386.88 526.29"/><polygon class="cls-26" points="395.37 526.9 391.36 530.71 384.3 530.09 388.32 526.39 395.37 526.9"/><polygon class="cls-27" points="404.5 527.55 400.52 531.53 392.91 530.85 396.92 527.01 404.5 527.55"/><polygon class="cls-28" points="414.35 528.25 410.43 532.4 402.2 531.67 406.17 527.67 414.35 528.25"/><polygon class="cls-29" points="425.01 529.01 421.16 533.36 412.24 532.57 416.15 528.38 425.01 529.01"/><g class="cls-30"><polygon points="386.88 526.29 382.86 529.96 376.29 529.38 380.31 525.82 386.88 526.29"/><polygon class="cls-31" points="395.37 526.9 391.36 530.71 384.3 530.09 388.32 526.39 395.37 526.9"/><polygon class="cls-32" points="404.5 527.55 400.52 531.53 392.91 530.85 396.92 527.01 404.5 527.55"/><polygon class="cls-33" points="414.35 528.25 410.43 532.4 402.2 531.67 406.17 527.67 414.35 528.25"/><polygon class="cls-34" points="425.01 529.01 421.16 533.36 412.24 532.57 416.15 528.38 425.01 529.01"/></g><path class="cls-35" d="M429.85,531.05c1.12.09,1.81.43,1.53.77a3.94,3.94,0,0,1-2.57.45c-1.12-.09-1.79-.44-1.5-.77A3.84,3.84,0,0,1,429.85,531.05Z"/><polygon class="cls-36" points="420.25 534.07 431.59 535.11 436.59 529.07 396.9 526.34 420.25 534.07"/><polygon class="cls-8" points="439.6 530.12 425.1 534.52 385.36 521.83 396.39 518.28 439.6 530.12"/><path class="cls-24" d="M439.6,530.12l-14.49,4.41h0l-39.75-12.65-.14,0,.14,0,11-3.54h0Zm0,0-43.22-11.8h0l-11,3.56v-.09l39.74,12.71h0Z"/><polygon class="cls-25" points="400.92 520.38 392.28 523.13 387.73 521.71 396.08 519.03 400.92 520.38"/><polygon class="cls-26" points="407.21 522.14 398.2 524.99 393.29 523.45 401.99 520.68 407.21 522.14"/><polygon class="cls-27" points="414.02 524.04 404.59 526.99 399.28 525.33 408.37 522.46 414.02 524.04"/><polygon class="cls-28" points="421.4 526.1 411.52 529.16 405.76 527.36 415.27 524.38 421.4 526.1"/><polygon class="cls-29" points="429.45 528.34 419.07 531.53 412.8 529.56 422.76 526.48 429.45 528.34"/><g class="cls-2"><polygon points="400.92 520.38 392.28 523.13 387.73 521.71 396.08 519.03 400.92 520.38"/><polygon class="cls-31" points="407.21 522.14 398.2 524.99 393.29 523.45 401.99 520.68 407.21 522.14"/><polygon class="cls-32" points="414.02 524.04 404.59 526.99 399.28 525.33 408.37 522.46 414.02 524.04"/><polygon class="cls-33" points="421.4 526.1 411.52 529.16 405.76 527.36 415.27 524.38 421.4 526.1"/><polygon class="cls-34" points="429.45 528.34 419.07 531.53 412.8 529.56 422.76 526.48 429.45 528.34"/></g><path class="cls-35" d="M430.25,530.84c.84.24.86.64.05.89a6,6,0,0,1-3,0c-.81-.24-.81-.64,0-.88A6,6,0,0,1,430.25,530.84Z"/><polygon class="cls-36" points="425.1 534.52 439.6 530.12 409.47 521.87 417.07 531.95 425.1 534.52"/><polygon class="cls-8" points="441.17 531.98 421.17 533.54 406.84 516.24 422.58 514.27 441.17 531.98"/><path class="cls-24" d="M441.17,532l-20,1.58h0l-14.34-17.28-.06-.07h.09l15.73-2h0Zm0,0-18.61-17.69h0l-15.73,2,0-.07,14.3,17.32h0Z"/><polygon class="cls-25" points="423.13 517.05 410.87 518.5 409.12 516.46 421.02 514.98 423.13 517.05"/><polygon class="cls-26" points="425.85 519.71 413.11 521.12 411.25 518.95 423.6 517.5 425.85 519.71"/><polygon class="cls-27" points="428.75 522.55 415.5 523.92 413.51 521.6 426.34 520.19 428.75 522.55"/><polygon class="cls-28" points="431.85 525.59 418.04 526.91 415.93 524.43 429.28 523.07 431.85 525.59"/><polygon class="cls-29" points="435.18 528.85 420.77 530.1 418.51 527.45 432.42 526.14 435.18 528.85"/><path class="cls-35" d="M431.62,531.18c.32.34-.33.69-1.46.78a4,4,0,0,1-2.58-.45c-.3-.33.34-.67,1.45-.76A4.09,4.09,0,0,1,431.62,531.18Z"/><path class="cls-37" d="M355.48,157.93a12.26,12.26,0,0,0-4.61-2.63l-.08,0a8.94,8.94,0,0,0-4.65,0l-.08,0a12.26,12.26,0,0,0-4.61,2.63c-3.86,3.67-3.23,10.32.52,13.82a6.84,6.84,0,0,1,1.84,3.66,31.31,31.31,0,0,1,.46,4.82h8.39a31.31,31.31,0,0,1,.46-4.82,6.84,6.84,0,0,1,1.84-3.66C358.71,168.25,359.34,161.6,355.48,157.93Z"/><path class="cls-38" d="M347,175.41a6.92,6.92,0,0,0-1.84-3.66c-3.75-3.5-4.38-10.15-.53-13.82a12.3,12.3,0,0,1,4.62-2.63l.07,0a6.85,6.85,0,0,1,.76-.16,9,9,0,0,0-3.9.16l-.08,0a12.26,12.26,0,0,0-4.61,2.63c-3.86,3.67-3.23,10.32.52,13.82a6.84,6.84,0,0,1,1.84,3.66,31.31,31.31,0,0,1,.46,4.82h3.15A32.61,32.61,0,0,0,347,175.41Z"/><path class="cls-39" d="M348.47,180.23V170l1.8-1a.77.77,0,0,0-.19-1.42l-3.28-.86a.62.62,0,0,1-.1-1.16l1.77-.79v-3.48"/><path class="cls-6" d="M353.5,181.64a.58.58,0,0,1-.57.57H343.7a.57.57,0,0,1-.56-.57h0a.56.56,0,0,1,.56-.56h9.23a.57.57,0,0,1,.57.56Z"/><path class="cls-6" d="M353.5,183.34a.57.57,0,0,1-.57.56H343.7a.56.56,0,0,1-.56-.56h0a.57.57,0,0,1,.56-.57h9.23a.58.58,0,0,1,.57.57Z"/><path class="cls-6" d="M353.5,185a.58.58,0,0,1-.57.57H343.7a.57.57,0,0,1-.56-.57h0a.56.56,0,0,1,.56-.56h9.23a.57.57,0,0,1,.57.56Z"/><path class="cls-6" d="M348.32,189.55a3.29,3.29,0,0,0,3.29-3.29H345A3.29,3.29,0,0,0,348.32,189.55Z"/><line class="cls-6" x1="388.85" y1="149.64" x2="413.78" y2="121.4"/><line class="cls-6" x1="326.38" y1="154.77" x2="308.69" y2="135.41"/><path class="cls-40" d="M209.39,449.72C205.6,452,117.68,445,108.65,469.15s46.14,11.21,40.52,28.66-49.91-4.67-67.07-9.09-42.83,3-45.68,15.7,34.22,16.33,48,11.17,13.89-18.48-2.32-14.67-3.94,18.13,9.17,16.44,15.48-5.45,25.94-4.76"/><path class="cls-41" d="M126.06,521.64a2.64,2.64,0,0,0,1.38.86l.52.19.87.34c.54.22,1.1.42,1.66.62a22.68,22.68,0,0,1,5.08,2.12c.33.21.82.88,1.64.88,1.1,0,.6-.69,0-1.18a14,14,0,0,0-4.51-2.21,16.45,16.45,0,0,1,2.61.59,9.82,9.82,0,0,1,2.79,1.38c.39.28,1.34,1,1.93.81,1.25-.49-1.9-2.07-5.59-3.47a16.52,16.52,0,0,1,3.75,1.1c.51.22,1.8.82,2.31,1.05s.87.7,1.55.6c.41-.06.77-.21.6-.64s-1-.69-1.52-.94A35,35,0,0,0,136,522c.24,0,1,.12,1.2.17a22.35,22.35,0,0,1,3.25.8c.47.16.94.35,1.42.49.28.08.56.16.78,0s-.27-.73-.5-.83a23.55,23.55,0,0,0-6.32-1.32c-1.09-.14-2.2-.26-3.28-.45a13,13,0,0,1-1.64-.38,5.92,5.92,0,0,1-1.34-.64l0-.06a6.91,6.91,0,0,1,.3-1.78c.09-.17.2-.32.29-.49a1.41,1.41,0,0,0,.33-.64l0,0s0-.07,0-.11c-.09-.44-.73-.81-1.2-.87a9.68,9.68,0,0,0-1-.1,3,3,0,0,0-.57,1.2,13,13,0,0,1-.79,2.24C126.44,520,125.42,520.68,126.06,521.64Z"/><path class="cls-42" d="M135.79,526a2,2,0,0,0-.26-.21,16,16,0,0,0-3.85-1.69l-1.21-.42c-.52-.18-1.11-.4-1.67-.63l-.87-.33-.51-.19a2.72,2.72,0,0,1-1.42-.89c-.49-.74-.06-1.33.36-1.9a3.58,3.58,0,0,0,.41-.63,11.49,11.49,0,0,0,.72-2l.07-.23a3.11,3.11,0,0,1,.58-1.22l.06,0a8.88,8.88,0,0,1,1,.09h.07a1.59,1.59,0,0,1,1.26.92.15.15,0,0,1,0,.18h0a1.44,1.44,0,0,1-.34.66l-.15.26-.14.21a7.45,7.45,0,0,0-.29,1.73l0,0a5.64,5.64,0,0,0,1.31.63,12.3,12.3,0,0,0,1.63.37c.87.16,1.76.27,2.63.38l.65.08.61.07a21.5,21.5,0,0,1,5.73,1.25,1.23,1.23,0,0,1,.6.68.32.32,0,0,1-.08.28.57.57,0,0,1-.4.15,1.56,1.56,0,0,1-.45-.09c-.34-.09-.67-.22-1-.34l-.43-.15a21.74,21.74,0,0,0-3-.76l-.22,0-.19,0a26.63,26.63,0,0,1,4.15,1.43l.42.18c.45.17,1,.37,1.14.8a.53.53,0,0,1,0,.43.87.87,0,0,1-.66.31l-.2,0a1.72,1.72,0,0,1-1-.37,2.91,2.91,0,0,0-.42-.25c-.63-.3-1.83-.85-2.31-1a13.05,13.05,0,0,0-2.86-.92c2,.79,5.08,2.14,5.08,2.92,0,.16-.11.28-.32.37a.86.86,0,0,1-.28,0,3.51,3.51,0,0,1-1.63-.79l-.09-.07a9.75,9.75,0,0,0-2.78-1.37,12,12,0,0,0-1.75-.44,11.81,11.81,0,0,1,3.72,1.93c.3.24.79.7.68,1s-.3.29-.71.29h0A2.12,2.12,0,0,1,135.79,526Zm-3.08-2.85.74.13a11.93,11.93,0,0,1,1.87.46,10.24,10.24,0,0,1,2.81,1.39l.1.07a3.31,3.31,0,0,0,1.54.77.51.51,0,0,0,.22,0c.16-.06.24-.14.24-.23,0-.55-2.24-1.74-5.83-3.11a.08.08,0,0,1,0-.09.06.06,0,0,1,.09,0,3.91,3.91,0,0,0,.65.14,13.09,13.09,0,0,1,3.11,1c.48.2,1.68.76,2.31,1.06a3.18,3.18,0,0,1,.44.26,1.65,1.65,0,0,0,.89.34H142c.29,0,.48-.13.55-.25a.33.33,0,0,0,0-.29c-.14-.37-.61-.55-1.06-.73-.15-.06-.29-.11-.43-.18a27.34,27.34,0,0,0-4.18-1.44l-.92-.26a.07.07,0,0,1,0-.09A.08.08,0,0,1,136,522l.45.07c.28,0,.6.08.76.11l.21,0a20.79,20.79,0,0,1,3,.76l.43.15c.32.12.66.25,1,.34a1.64,1.64,0,0,0,.41.08.46.46,0,0,0,.3-.11.18.18,0,0,0,0-.15,1.1,1.1,0,0,0-.52-.56,21.12,21.12,0,0,0-5.69-1.24l-.61-.08-.65-.08c-.87-.1-1.77-.21-2.64-.37a14.34,14.34,0,0,1-1.64-.38,5.48,5.48,0,0,1-1.36-.65l0,0,0-.06a6.58,6.58,0,0,1,.29-1.86l.15-.23.15-.26a1.44,1.44,0,0,0,.32-.61.08.08,0,0,1,0,0h0l0,0v0c-.08-.39-.68-.76-1.14-.82h-.07c-.27,0-.6-.07-.93-.08a3,3,0,0,0-.53,1.14l-.07.22a12.69,12.69,0,0,1-.72,2,6.64,6.64,0,0,1-.43.65c-.41.55-.8,1.07-.36,1.73a2.6,2.6,0,0,0,1.35.83l.52.19.86.34c.56.23,1.15.44,1.67.62l1.21.42a16.65,16.65,0,0,1,3.88,1.7,2.6,2.6,0,0,1,.28.23,2,2,0,0,0,1.3.64h0c.32,0,.53-.07.57-.18s-.18-.51-.63-.87a11.75,11.75,0,0,0-3.81-1.94l-.67-.25a.07.07,0,0,1,0-.09.08.08,0,0,1,.07,0Z"/><path class="cls-43" d="M126.84,519.18a13,13,0,0,0,.79-2.24,3,3,0,0,1,.57-1.2,9.68,9.68,0,0,1,1,.1c.47.06,1.11.43,1.2.87,0,0,.05.08,0,.11l0,0a1.41,1.41,0,0,1-.33.64c-.09.17-.2.32-.29.49a6.91,6.91,0,0,0-.3,1.78l0,.06a5.92,5.92,0,0,0,1.34.64,13,13,0,0,0,1.64.38c1.08.19,2.19.31,3.28.45a23.55,23.55,0,0,1,6.32,1.32,1.11,1.11,0,0,1,.26.18l-.52.25a.1.1,0,0,0,0,.16,2,2,0,0,0,.67.31.87.87,0,0,1-.69,0c-.48-.14-1-.33-1.42-.49a22.35,22.35,0,0,0-3.25-.8c-.24-.05-1-.13-1.2-.17a39.5,39.5,0,0,1,4.8,1.56c-.32.16-.7.41-.55.55a2.75,2.75,0,0,0,.89.44c.27.11.51.32.8.41s.61.12.74-.14c0,.3-.29.42-.64.47-.68.1-1-.34-1.55-.6s-1.8-.83-2.31-1.05a16.52,16.52,0,0,0-3.75-1.1,38.22,38.22,0,0,1,4.35,1.91,3.06,3.06,0,0,0-.78.24.1.1,0,0,0,0,.15,3.62,3.62,0,0,0,.89.53,2.28,2.28,0,0,0,.89.42c.3,0,.43-.12.46-.3.14.22.1.4-.2.52-.59.23-1.54-.53-1.93-.81a9.82,9.82,0,0,0-2.79-1.38,16.45,16.45,0,0,0-2.61-.59,14,14,0,0,1,4.51,2.21l.2.17a3.84,3.84,0,0,0-1.31-.17.09.09,0,0,0-.08.14,2.14,2.14,0,0,0,1.76.9.93.93,0,0,1-.56.14c-.82,0-1.31-.67-1.64-.88a22.68,22.68,0,0,0-5.08-2.12c-.56-.2-1.12-.4-1.66-.62l-.87-.34-.52-.19a2.64,2.64,0,0,1-1.38-.86C125.42,520.68,126.44,520,126.84,519.18Z"/><path class="cls-25" d="M184.79,502.06a39.43,39.43,0,0,1-.89,4.48,1.64,1.64,0,0,1-1.05-.21v-3.1Z"/><path class="cls-8" d="M182.8,506.39a.06.06,0,0,1,0-.06v-3.1a.07.07,0,0,1,0-.06l1.95-1.18h.08a.11.11,0,0,1,0,.08,40.77,40.77,0,0,1-.9,4.49.06.06,0,0,1-.06.05,1.35,1.35,0,0,1-.24,0h0A1.44,1.44,0,0,1,182.8,506.39Zm1.9-4.19-1.78,1.07v3a1.31,1.31,0,0,0,.75.19h.18A37.56,37.56,0,0,0,184.7,502.2Z"/><path class="cls-8" d="M184.42,502.32a40.13,40.13,0,0,1-.9,4.48,1.57,1.57,0,0,1-1.05-.21v-3.1Z"/><path class="cls-8" d="M182.42,506.65a.06.06,0,0,1,0-.06v-3.1a.07.07,0,0,1,0-.06l1.95-1.17a.06.06,0,0,1,.08,0,.08.08,0,0,1,0,.07,41.28,41.28,0,0,1-.9,4.5.1.1,0,0,1-.06.05h-.24A1.44,1.44,0,0,1,182.42,506.65Zm1.9-4.19-1.78,1.07v3a1.39,1.39,0,0,0,.75.18h.18A38.12,38.12,0,0,0,184.32,502.46Z"/><path class="cls-41" d="M169.08,526a1.77,1.77,0,0,1,.58.71.38.38,0,0,1-.29.58,1.78,1.78,0,0,1-1-.53,3.43,3.43,0,0,0-1.1-.72c-.7-.25-1.46-.3-2.17-.49a1.64,1.64,0,0,1-.3-.14c-.78-.49-.67-1.3-.61-2.09-.37-.63.31-.94.87-1.1a1.74,1.74,0,0,1,1.26.21,3.27,3.27,0,0,1,.58.39s.26.13.44.24a2.82,2.82,0,0,0,.64.21c.49.08,1,.07,1.48.12a7.49,7.49,0,0,1,2.48.53c.42.2.3.61,0,.66a9.82,9.82,0,0,1-1.27-.2,5,5,0,0,1,1.7.86.5.5,0,0,1-.41.83,7.86,7.86,0,0,1-1.4-.52l-.12,0a3,3,0,0,1,1.08,1,.64.64,0,0,1,0,.64c-.16.27-.59.08-.79,0a3.85,3.85,0,0,1-.92-.63A5.4,5.4,0,0,0,169.08,526Z"/><path class="cls-42" d="M170.79,527.19a3.73,3.73,0,0,1-.84-.56l-.1-.08-.31-.23a1.74,1.74,0,0,1,.18.33.53.53,0,0,1,0,.42.54.54,0,0,1-.36.26h0a1.82,1.82,0,0,1-1-.55,3.45,3.45,0,0,0-1.08-.7,7.1,7.1,0,0,0-1.27-.3c-.29-.06-.59-.11-.89-.19a1.6,1.6,0,0,1-.32-.15c-.77-.48-.71-1.26-.65-2v-.12a.57.57,0,0,1-.07-.54c.1-.27.43-.48,1-.64a1.78,1.78,0,0,1,1.31.21,4.86,4.86,0,0,1,.53.35l.06.05.08,0a3.35,3.35,0,0,1,.35.2,3.09,3.09,0,0,0,.63.2,8.08,8.08,0,0,0,.86.08l.61,0,.16,0a6.78,6.78,0,0,1,2.34.51.48.48,0,0,1,.32.48.38.38,0,0,1-.29.33,2.1,2.1,0,0,1-.48,0,3,3,0,0,1,.95.58.58.58,0,0,1,.1.61.6.6,0,0,1-.56.34h0a2.9,2.9,0,0,1-.94-.32l0,0a2.67,2.67,0,0,1,.59.68.69.69,0,0,1,0,.72.36.36,0,0,1-.33.17h0A1.54,1.54,0,0,1,170.79,527.19Zm-.24-1.77.11,0a4.25,4.25,0,0,1,.5.21,3.27,3.27,0,0,0,.89.31.46.46,0,0,0,.43-.26.43.43,0,0,0-.09-.46,5,5,0,0,0-1.66-.83s-.06,0-.06-.08a.08.08,0,0,1,.08-.06l.42.08c.3,0,.67.12.81.12h0a.22.22,0,0,0,.18-.2c0-.13-.06-.25-.23-.33a7,7,0,0,0-2.3-.5h-.16a5.87,5.87,0,0,0-.59-.05,8.66,8.66,0,0,1-.89-.07,2.84,2.84,0,0,1-.66-.22c-.12-.08-.27-.15-.36-.2l-.09-.06-.07,0a4,4,0,0,0-.5-.34,1.68,1.68,0,0,0-1.21-.2c-.51.15-.81.33-.9.55a.49.49,0,0,0,.07.44.06.06,0,0,1,0,0v.14c-.06.75-.11,1.45.58,1.88a1.3,1.3,0,0,0,.29.14c.29.08.59.13.88.18a8.35,8.35,0,0,1,1.29.31,3.39,3.39,0,0,1,1.12.73,1.79,1.79,0,0,0,.91.51.37.37,0,0,0,.26-.17.41.41,0,0,0,0-.3A1.71,1.71,0,0,0,169,526a.06.06,0,0,1,0-.09.06.06,0,0,1,.09,0,5,5,0,0,1,.83.53l.1.07a3.8,3.8,0,0,0,.82.55,1.42,1.42,0,0,0,.48.14.21.21,0,0,0,.2-.11.54.54,0,0,0,0-.56,2.71,2.71,0,0,0-1.05-1,.08.08,0,0,1,0-.09.1.1,0,0,1,.07-.05Z"/><path class="cls-44" d="M165.1,522.19a1.74,1.74,0,0,1,1.26.21,3.27,3.27,0,0,1,.58.39s.26.13.44.24a2.82,2.82,0,0,0,.64.21c.49.08,1,.07,1.48.12l.22,0a5.21,5.21,0,0,1-2.42.06.09.09,0,0,0-.11.12,2.19,2.19,0,0,0,.33.58,8.84,8.84,0,0,0-1-.4.09.09,0,0,0-.09.16,2.07,2.07,0,0,1,.33.39c-.46-.18-.88-.43-1.35-.59a.1.1,0,0,0-.11,0c-.32.7.25,1.26.86,1.54a15.89,15.89,0,0,1,1.52.5c.37.23.67.55,1,.78s.81-.11.41-.5a5.16,5.16,0,0,0-2.05-1,5.69,5.69,0,0,1,2.23.71,12.68,12.68,0,0,0,1.22.73c.16.08.44.21.59,0,.39-.41-.36-.84-.65-1a8.64,8.64,0,0,0-1.31-.7c.59.11,1.15.39,1.75.51.16,0,.76.12.67-.22s-.69-.52-1-.64a6.07,6.07,0,0,0-1.3-.39,2,2,0,0,1,1.4,0,2,2,0,0,0,1.13.14.38.38,0,0,0,.29-.25.31.31,0,0,1-.11.56,9.82,9.82,0,0,1-1.27-.2,5,5,0,0,1,1.7.86.5.5,0,0,1-.41.83,7.86,7.86,0,0,1-1.4-.52l-.12,0a3,3,0,0,1,1.08,1,.64.64,0,0,1,0,.64c-.16.27-.59.08-.79,0a3.85,3.85,0,0,1-.92-.63,5.4,5.4,0,0,0-.82-.52,1.77,1.77,0,0,1,.58.71.38.38,0,0,1-.29.58,1.78,1.78,0,0,1-1-.53,3.43,3.43,0,0,0-1.1-.72c-.7-.25-1.46-.3-2.17-.49a1.64,1.64,0,0,1-.3-.14c-.78-.49-.67-1.3-.61-2.09C163.86,522.66,164.54,522.35,165.1,522.19Z"/><path class="cls-25" d="M156.54,515.72a12.88,12.88,0,0,1-.42-4.54c.17-2.6.92-5.54,2.83-7.42a4.68,4.68,0,0,1,4-1.51,4.31,4.31,0,0,1,3,2.59,5.29,5.29,0,0,1,.5,2.27,8.17,8.17,0,0,1-.51,2.33,16.16,16.16,0,0,0-.87,2.79,9.17,9.17,0,0,0-.59,2.75,9.35,9.35,0,0,0,.8,4.46c.61,1.36,2,2.48,2.4,3.88,0,0,0,.09-.07.07a.45.45,0,0,1-.19-.11c-.08-.07-.63-.4-.64-.45,0,.11.3.66.09.75s-.46-.15-.63-.23a3.1,3.1,0,0,1-.53-.24,3.41,3.41,0,0,1,.37.39s.07.12,0,.11a2.26,2.26,0,0,1-1-.38c-.25-.14-.64.47-.7.69s-.53-1-.93-1.36l-.48-.45c-1.49-1-4-2.8-5.05-3.6A9.38,9.38,0,0,1,156.54,515.72Z"/><path class="cls-25" d="M164.1,523.61a5,5,0,0,0-.68-1l-.3-.28-.17-.16c-1.44-.95-4-2.77-5.06-3.61h0a9.5,9.5,0,0,1-1.41-2.81,13,13,0,0,1-.43-4.56c.28-4.13,1.71-6.34,2.86-7.48a4.76,4.76,0,0,1,4.06-1.52,4.36,4.36,0,0,1,3.08,2.63,5.25,5.25,0,0,1,.5,2.31,7.88,7.88,0,0,1-.51,2.34c-.07.22-.16.45-.25.68a10.49,10.49,0,0,0-.61,2.1v0a8.57,8.57,0,0,0-.58,2.73,9.17,9.17,0,0,0,.79,4.42,9.33,9.33,0,0,0,1.11,1.72,7.21,7.21,0,0,1,1.29,2.17.13.13,0,0,1,0,.12.11.11,0,0,1-.15,0h0a.59.59,0,0,1-.17-.1l-.27-.19-.16-.1c.08.23.16.52,0,.6l-.12,0a.89.89,0,0,1-.42-.17l-.15-.08-.14-.06h0l.08.09a.21.21,0,0,1,0,.18.12.12,0,0,1-.11.06h0a2.6,2.6,0,0,1-1-.39c-.19-.11-.54.44-.6.63a.08.08,0,0,1-.08.07h0C164.33,524,164.3,524,164.1,523.61Zm1-.44a2.36,2.36,0,0,0,.89.36l-.06-.07a2.62,2.62,0,0,0-.28-.29.08.08,0,1,1,.09-.12h0a1.2,1.2,0,0,0,.36.17l.15.07a.65.65,0,0,1,.16.09c.14.08.31.18.41.13s0-.21-.09-.55a.37.37,0,0,1,0-.11.07.07,0,0,1,.05-.09.07.07,0,0,1,.08,0l.34.23.29.2a.35.35,0,0,0,.12.07,7.25,7.25,0,0,0-1.25-2.08,10.23,10.23,0,0,1-1.13-1.75,9.45,9.45,0,0,1-.8-4.49,8.82,8.82,0,0,1,.59-2.77,10.1,10.1,0,0,1,.63-2.12c.08-.23.17-.46.24-.68a7.93,7.93,0,0,0,.5-2.3,5.12,5.12,0,0,0-.49-2.24,4.24,4.24,0,0,0-3-2.55,4.63,4.63,0,0,0-3.94,1.49c-1.13,1.11-2.54,3.3-2.81,7.38a13,13,0,0,0,.42,4.51,9.51,9.51,0,0,0,1.38,2.76c1.08.83,3.61,2.64,5,3.59l.18.17.3.28a4.86,4.86,0,0,1,.71,1l.14.24c.12-.24.39-.64.65-.64Z"/><path class="cls-25" d="M156.54,515.72a12.88,12.88,0,0,1-.42-4.54c.17-2.6.92-5.54,2.83-7.42a4.68,4.68,0,0,1,4-1.51,4.31,4.31,0,0,1,3,2.59,5.29,5.29,0,0,1,.5,2.27,8.17,8.17,0,0,1-.51,2.33,16.16,16.16,0,0,0-.87,2.79,9.17,9.17,0,0,0-.59,2.75,9.35,9.35,0,0,0,.8,4.46c.61,1.36,2,2.48,2.4,3.88,0,0,0,.09-.07.07a.45.45,0,0,1-.19-.11c-.08-.07-.63-.4-.64-.45,0,.11.3.66.09.75s-.46-.15-.63-.23a3.1,3.1,0,0,1-.53-.24,3.41,3.41,0,0,1,.37.39s.07.12,0,.11a2.26,2.26,0,0,1-1-.38c-.25-.14-.64.47-.7.69s-.53-1-.93-1.36l-.48-.45c-1.49-1-4-2.8-5.05-3.6A9.38,9.38,0,0,1,156.54,515.72Z"/><path class="cls-25" d="M164.1,523.61a5,5,0,0,0-.68-1l-.3-.28-.17-.16c-1.44-.95-4-2.77-5.06-3.61h0a9.5,9.5,0,0,1-1.41-2.81,13,13,0,0,1-.43-4.56c.28-4.13,1.71-6.34,2.86-7.48a4.76,4.76,0,0,1,4.06-1.52,4.36,4.36,0,0,1,3.08,2.63,5.25,5.25,0,0,1,.5,2.31,7.88,7.88,0,0,1-.51,2.34c-.07.22-.16.45-.25.68a10.49,10.49,0,0,0-.61,2.1v0a8.57,8.57,0,0,0-.58,2.73,9.17,9.17,0,0,0,.79,4.42,9.33,9.33,0,0,0,1.11,1.72,7.21,7.21,0,0,1,1.29,2.17.13.13,0,0,1,0,.12.11.11,0,0,1-.15,0h0a.59.59,0,0,1-.17-.1l-.27-.19-.16-.1c.08.23.16.52,0,.6l-.12,0a.89.89,0,0,1-.42-.17l-.15-.08-.14-.06h0l.08.09a.21.21,0,0,1,0,.18.12.12,0,0,1-.11.06h0a2.6,2.6,0,0,1-1-.39c-.19-.11-.54.44-.6.63a.08.08,0,0,1-.08.07h0C164.33,524,164.3,524,164.1,523.61Zm1-.44a2.36,2.36,0,0,0,.89.36l-.06-.07a2.62,2.62,0,0,0-.28-.29.08.08,0,1,1,.09-.12h0a1.2,1.2,0,0,0,.36.17l.15.07a.65.65,0,0,1,.16.09c.14.08.31.18.41.13s0-.21-.09-.55a.37.37,0,0,1,0-.11.07.07,0,0,1,.05-.09.07.07,0,0,1,.08,0l.34.23.29.2a.35.35,0,0,0,.12.07,7.25,7.25,0,0,0-1.25-2.08,10.23,10.23,0,0,1-1.13-1.75,9.45,9.45,0,0,1-.8-4.49,8.82,8.82,0,0,1,.59-2.77,10.1,10.1,0,0,1,.63-2.12c.08-.23.17-.46.24-.68a7.93,7.93,0,0,0,.5-2.3,5.12,5.12,0,0,0-.49-2.24,4.24,4.24,0,0,0-3-2.55,4.63,4.63,0,0,0-3.94,1.49c-1.13,1.11-2.54,3.3-2.81,7.38a13,13,0,0,0,.42,4.51,9.51,9.51,0,0,0,1.38,2.76c1.08.83,3.61,2.64,5,3.59l.18.17.3.28a4.86,4.86,0,0,1,.71,1l.14.24c.12-.24.39-.64.65-.64Z"/><path class="cls-45" d="M156.12,511.18c.17-2.6.92-5.54,2.83-7.42a4.68,4.68,0,0,1,4-1.51,4.31,4.31,0,0,1,3,2.59,5.29,5.29,0,0,1,.5,2.27,8.17,8.17,0,0,1-.51,2.33,16.16,16.16,0,0,0-.87,2.79,9.17,9.17,0,0,0-.59,2.75,1.34,1.34,0,0,1,0,.2,3.47,3.47,0,0,0-.16-.55.1.1,0,0,0-.12-.07c-.49.19-.7.79-.85,1.25a11.58,11.58,0,0,0-.67,2.22,4.7,4.7,0,0,0,.29,2.6,8.08,8.08,0,0,0,1.58,2.29c.06.06.17,0,.16-.06,0-.44,0-.88,0-1.32a3.69,3.69,0,0,0,.65,1.24c0,.06.17,0,.16-.06a9.91,9.91,0,0,1-.06-1.08,5.63,5.63,0,0,0,1.36,1.21c0,.13.3.64.09.73s-.46-.15-.63-.23a3.1,3.1,0,0,1-.53-.24,3.41,3.41,0,0,1,.37.39s.07.12,0,.11a2.26,2.26,0,0,1-1-.38c-.25-.14-.64.47-.7.69s-.53-1-.93-1.36l-.48-.45c-1.49-1-4-2.8-5.05-3.6a9.38,9.38,0,0,1-1.4-2.79A12.88,12.88,0,0,1,156.12,511.18Z"/><path class="cls-45" d="M167.09,523a4.92,4.92,0,0,0,.57.36h0a.45.45,0,0,1-.19-.11c-.07-.06-.5-.32-.61-.42Z"/><path class="cls-41" d="M160.29,525.63a6.4,6.4,0,0,1,.14,1.38,2.85,2.85,0,0,0,.12,1.23,1.57,1.57,0,0,0,.86.72c.85.36,1.77.69,2.65,1,.2.07,2,.54,1.64-.15a1.83,1.83,0,0,0-.9-.64,10,10,0,0,0-1.38-.44,7.25,7.25,0,0,1,1.65.35c.22.07,2.33.95,2.28.4,0-.33-.68-.61-.92-.73a9.22,9.22,0,0,0-1.59-.59l.35.08c.68.15,2.77,1.1,3.17.82s.12-.5-.07-.64a1.89,1.89,0,0,0-.94-.35,19.89,19.89,0,0,1-2-.45c.13,0,1,.18,1.17.21a6,6,0,0,0,1.34.11c.39,0,1.18-.23.57-.71a1.44,1.44,0,0,0-.82-.15c-.65,0-1.31,0-2-.05a6,6,0,0,1-2.6-.48c-.73-.43-.89-1.2-1.45-1.75-.28-.28-1.32-.76-1.49-.12v.06A2.78,2.78,0,0,0,160.29,525.63Z"/><path class="cls-42" d="M164,530c-.69-.23-1.71-.59-2.66-1a1.54,1.54,0,0,1-.89-.75,2.42,2.42,0,0,1-.14-1.07V527a5.56,5.56,0,0,0-.13-1.36,2.25,2.25,0,0,0-.08-.24,1.85,1.85,0,0,1-.11-.69s0-.05,0-.07a.49.49,0,0,1,.52-.37,1.88,1.88,0,0,1,1.09.46,4,4,0,0,1,.56.76,2.69,2.69,0,0,0,.87,1,4.51,4.51,0,0,0,2.08.45,4.07,4.07,0,0,1,.5,0c.38,0,.77,0,1.14,0l.81,0h.19a1,1,0,0,1,.67.16c.21.16.29.32.24.47s-.61.37-.85.37h-.39a1.9,1.9,0,0,1,.86.34.57.57,0,0,1,.24.44.39.39,0,0,1-.17.32.49.49,0,0,1-.27.06,4.94,4.94,0,0,1-1.3-.31c.28.15.56.36.59.6a.2.2,0,0,1,0,.17.39.39,0,0,1-.29.09,7.23,7.23,0,0,1-1.89-.53l-.14-.05-.45-.14.23.1h0a1.77,1.77,0,0,1,.91.66.31.31,0,0,1,0,.31c-.07.11-.23.16-.48.16h0A5.17,5.17,0,0,1,164,530Zm-.62-1.38a8.06,8.06,0,0,1,1.67.36l.15,0a7.13,7.13,0,0,0,1.84.52c.12,0,.17,0,.18,0s0,0,0-.06c0-.25-.57-.52-.8-.63l-.07,0a12.39,12.39,0,0,0-1.59-.59s-.06-.05,0-.08a.07.07,0,0,1,.09,0l.35.08c.22.05.59.18,1,.33a8.11,8.11,0,0,0,1.91.54.44.44,0,0,0,.19,0,.26.26,0,0,0,.11-.2.46.46,0,0,0-.18-.32,1.71,1.71,0,0,0-.81-.32l-.26,0a14.13,14.13,0,0,1-1.85-.43.07.07,0,0,1-.05-.09.07.07,0,0,1,.1,0l.72.13.43.08a5.05,5.05,0,0,0,1.12.1h.21c.26,0,.66-.11.71-.27s-.08-.22-.19-.3a.89.89,0,0,0-.58-.13h-.19c-.27,0-.54,0-.81,0s-.77,0-1.15,0l-.49,0a4.68,4.68,0,0,1-2.15-.46,2.76,2.76,0,0,1-.93-1,3.36,3.36,0,0,0-.54-.73,1.7,1.7,0,0,0-1-.41.33.33,0,0,0-.37.26s0,0,0,0a1.77,1.77,0,0,0,.11.62c0,.09.06.18.08.26a5.78,5.78,0,0,1,.14,1.39v.19a2.27,2.27,0,0,0,.12,1,1.47,1.47,0,0,0,.82.68c.94.4,2,.76,2.64,1a4.87,4.87,0,0,0,1.22.22c.25,0,.33-.06.35-.1s0-.09,0-.17c-.13-.28-.55-.46-.83-.59h0a8.68,8.68,0,0,0-1.37-.44.08.08,0,0,1,0-.15Z"/><path class="cls-43" d="M166.52,527.82l-.84-.15a3,3,0,0,1-.41-.18c.66,0,1.33.12,2,.14.33,0,.84,0,1-.37a.71.71,0,0,0,0-.14.58.58,0,0,1,.21.1c.61.48-.18.7-.57.71A6,6,0,0,1,166.52,527.82Z"/><path class="cls-44" d="M160.1,524.73v-.06c.17-.64,1.21-.16,1.49.12.56.55.72,1.32,1.45,1.75a3,3,0,0,0,1,.34c-.26,0-.54,0-.8,0-.08,0-.09.11-.05.16l.19.18c-.34-.09-.66-.28-1-.34-.07,0-.17.06-.11.14a2,2,0,0,0,.5.46,3.82,3.82,0,0,1-1.63-.64.09.09,0,0,0-.14.08,2.32,2.32,0,0,0,1.33,2c.51.24,1.06.41,1.59.61.23.08.58.22.79,0s-.9-.8-1.6-1a4.16,4.16,0,0,1,2.14.34c.27.11.85.43,1.14.25s-.22-.56-.37-.63a6.47,6.47,0,0,1-.84-.3l-.12-.08a9.59,9.59,0,0,1,1.38.53c.24.12.88.4.92.73.05.55-2.06-.33-2.28-.4a7.25,7.25,0,0,0-1.65-.35,10,10,0,0,1,1.38.44,1.83,1.83,0,0,1,.9.64c.33.69-1.44.22-1.64.15-.88-.3-1.8-.63-2.65-1a1.57,1.57,0,0,1-.86-.72,2.85,2.85,0,0,1-.12-1.23,6.4,6.4,0,0,0-.14-1.38A2.78,2.78,0,0,1,160.1,524.73Z"/><path class="cls-43" d="M165,528.19a4.13,4.13,0,0,0-.38-.25,7.66,7.66,0,0,1,2.15.61c.26.08,1,.43,1.24.06a.29.29,0,0,0-.05-.39,2.37,2.37,0,0,1,.31.19c.19.14.33.45.07.64s-2.49-.67-3.17-.82Z"/><path class="cls-41" d="M121.36,525.56a2.6,2.6,0,0,0,1.39.86l.52.19.86.34c.55.23,1.11.43,1.67.63a23.33,23.33,0,0,1,5.08,2.11c.32.21.82.89,1.63.88,1.11,0,.6-.68,0-1.18a13.87,13.87,0,0,0-4.5-2.2,15.09,15.09,0,0,1,2.6.59,9.88,9.88,0,0,1,2.8,1.38c.38.28,1.34,1,1.93.8,1.25-.49-1.9-2.06-5.59-3.47a16.25,16.25,0,0,1,3.75,1.11c.51.21,1.8.81,2.3,1s.87.69,1.56.59c.4,0,.77-.21.6-.63s-1-.7-1.53-1a36.06,36.06,0,0,0-5.11-1.71c.24,0,1,.13,1.2.18a23.21,23.21,0,0,1,3.24.79c.47.17.95.36,1.43.5.27.08.56.15.77,0s-.27-.74-.49-.83a23.62,23.62,0,0,0-6.33-1.32c-1.09-.14-2.2-.26-3.28-.46a12.82,12.82,0,0,1-1.63-.37,5.55,5.55,0,0,1-1.34-.65.1.1,0,0,1,0,0,7.51,7.51,0,0,1,.29-1.79l.3-.48a1.41,1.41,0,0,0,.33-.64l0,0s0-.06,0-.1c-.09-.44-.74-.82-1.21-.88-.28,0-.66-.08-1-.09a3.07,3.07,0,0,0-.58,1.19,13.93,13.93,0,0,1-.78,2.25C121.75,523.91,120.73,524.61,121.36,525.56Z"/><path class="cls-42" d="M131.1,530l-.26-.22a16.37,16.37,0,0,0-3.85-1.68l-1.22-.42c-.54-.2-1.11-.4-1.66-.63l-.87-.34-.51-.19a2.67,2.67,0,0,1-1.43-.89c-.49-.73,0-1.32.37-1.89a5.62,5.62,0,0,0,.41-.63,12.15,12.15,0,0,0,.72-2l.06-.22a3.22,3.22,0,0,1,.59-1.22l.06,0c.35,0,.69.06,1,.09h.07c.46.06,1.16.43,1.27.92a.16.16,0,0,1,0,.17v0a1.46,1.46,0,0,1-.34.65l-.15.26-.14.22a8,8,0,0,0-.3,1.72l0,0a5.45,5.45,0,0,0,1.31.63,12.3,12.3,0,0,0,1.63.37c.86.16,1.76.27,2.62.37l.65.08.61.08a21,21,0,0,1,5.73,1.25,1.19,1.19,0,0,1,.61.67.29.29,0,0,1-.09.28.49.49,0,0,1-.39.15,1.47,1.47,0,0,1-.45-.08c-.34-.1-.68-.22-1-.34l-.43-.16a21.85,21.85,0,0,0-3-.75l-.22,0-.18,0a25.51,25.51,0,0,1,4.14,1.43l.42.17c.46.18,1,.38,1.15.81a.47.47,0,0,1,0,.42c-.09.17-.31.27-.65.32h-.2a1.76,1.76,0,0,1-1-.36,3.7,3.7,0,0,0-.43-.25c-.58-.28-1.81-.85-2.3-1.06a13.77,13.77,0,0,0-2.86-.91c2,.79,5.07,2.14,5.08,2.92,0,.15-.11.28-.33.36a.76.76,0,0,1-.27.05,3.34,3.34,0,0,1-1.63-.8l-.1-.06a11.47,11.47,0,0,0-4.53-1.81,11.46,11.46,0,0,1,3.73,1.93c.3.24.79.7.67,1s-.29.28-.71.29h0A2.1,2.1,0,0,1,131.1,530ZM128,527.12l.75.13a11.13,11.13,0,0,1,1.87.46,9.71,9.71,0,0,1,2.81,1.39l.09.06a3.36,3.36,0,0,0,1.55.78.72.72,0,0,0,.22,0c.15-.06.23-.14.23-.23,0-.55-2.23-1.74-5.82-3.11a.06.06,0,0,1,0-.09.07.07,0,0,1,.09-.05,4,4,0,0,0,.64.15,11.91,11.91,0,0,1,3.11,1c.5.2,1.73.78,2.31,1.05a3.81,3.81,0,0,1,.45.26,1.56,1.56,0,0,0,.89.35l.18,0q.43-.06.54-.24a.31.31,0,0,0,0-.3c-.15-.37-.61-.55-1.06-.72l-.43-.18a27,27,0,0,0-4.18-1.44l-.93-.27a.07.07,0,0,1-.05-.08.09.09,0,0,1,.09-.06l.44.06.76.11.22.05a20.76,20.76,0,0,1,3,.75l.43.16c.32.12.66.24,1,.34a1.64,1.64,0,0,0,.41.08.42.42,0,0,0,.29-.11.14.14,0,0,0,0-.15c0-.22-.36-.5-.51-.57a21.1,21.1,0,0,0-5.69-1.23l-.61-.08-.66-.08c-.86-.11-1.76-.22-2.63-.38a12.44,12.44,0,0,1-1.64-.37,5.67,5.67,0,0,1-1.36-.65l0,0a.16.16,0,0,1,0-.07,6.57,6.57,0,0,1,.29-1.85c0-.08.09-.16.14-.24l.16-.26a1.24,1.24,0,0,0,.31-.6l0,0h0l0,0s0,0,0,0c-.08-.39-.68-.76-1.15-.82h-.07a7.75,7.75,0,0,0-.92-.09,2.91,2.91,0,0,0-.54,1.14l-.06.22a11.54,11.54,0,0,1-.73,2,3.93,3.93,0,0,1-.43.66c-.4.55-.79,1.07-.36,1.72a2.6,2.6,0,0,0,1.36.84l.51.18.87.34c.56.23,1.12.43,1.66.63l1.21.42a15.92,15.92,0,0,1,3.89,1.7l.28.23a2,2,0,0,0,1.3.64h0c.33,0,.53-.07.57-.19s-.18-.5-.62-.86a11.88,11.88,0,0,0-3.81-2l-.68-.24a.09.09,0,0,1,0-.09.09.09,0,0,1,.07-.06Z"/><path class="cls-43" d="M131.4,526l-.09,0,.05,0H131a13.42,13.42,0,0,1-2.53-.27,14.27,14.27,0,0,1-3.88-1.48,6.45,6.45,0,0,1-1.76-1.35l-.4-.4c.2-.53.36-1.08.51-1.62a3.07,3.07,0,0,1,.58-1.19c.37,0,.75.06,1,.09.47.06,1.12.44,1.21.88,0,0,0,.08,0,.1l0,0a1.41,1.41,0,0,1-.33.64l-.3.48a7.51,7.51,0,0,0-.29,1.79.1.1,0,0,0,0,0,5.55,5.55,0,0,0,1.34.65,12.82,12.82,0,0,0,1.63.37c1.08.2,2.19.32,3.28.46l1.66.2C132.55,525.83,131.92,525.94,131.4,526Z"/><path class="cls-43" d="M128.17,526.89h0a13,13,0,0,1,5.64,2.25c.27.18,1,.73,1.34.35a.38.38,0,0,0,.1-.34c.41.36.48.64.07.8-.59.24-1.55-.52-1.93-.8a9.88,9.88,0,0,0-2.8-1.38,11.39,11.39,0,0,0-2-.48,3.92,3.92,0,0,0-1.06-.26A2.88,2.88,0,0,1,128.17,526.89Z"/><path class="cls-43" d="M129.94,526.49l-.34,0a13.77,13.77,0,0,1,1.34-.65c.38-.14.78-.34,1.17-.46,1,.12,1.94.25,2.89.45a1.36,1.36,0,0,0-.57.36.1.1,0,0,0,0,.16c.55.12,1.1.21,1.65.36s.82.32,1.24.44.49,0,.51-.23c.14.17.22.36.08.49s-.5.13-.77,0c-.48-.14-1-.33-1.43-.5a23.21,23.21,0,0,0-3.24-.79c-.24,0-1-.14-1.2-.18l1.71.5a4.68,4.68,0,0,0-.65,0,.1.1,0,0,0,0,.19,38.74,38.74,0,0,1,4.42,2c.29.13.61.22.79-.1a.35.35,0,0,0,0-.33,1,1,0,0,1,.37.43c.17.42-.2.58-.6.63-.69.1-1-.34-1.56-.59s-1.79-.84-2.3-1a13.22,13.22,0,0,0-2.86-.92A5,5,0,0,0,129.94,526.49Z"/><path class="cls-43" d="M122.15,523.11a8.58,8.58,0,0,0,.45-1.13,2.21,2.21,0,0,1,.06.85,14.25,14.25,0,0,1-.66,1.75c0,.1.35-.24.48-.36a1.71,1.71,0,0,0-.12.69,1.69,1.69,0,0,0,1,1.34,10.32,10.32,0,0,0,2.48.88l.74.18h0a14.57,14.57,0,0,1,4.76,2.25c.38.31.83.73,1.36.61a.35.35,0,0,0,.3-.3c.27.36.28.68-.49.69s-1.31-.67-1.63-.88a23.33,23.33,0,0,0-5.08-2.11c-.56-.2-1.12-.4-1.67-.63l-.86-.34-.52-.19a2.6,2.6,0,0,1-1.39-.86C120.73,524.61,121.75,523.91,122.15,523.11Z"/><path class="cls-41" d="M164.54,495.62l.17-.09a.24.24,0,0,0,0,.08,2.56,2.56,0,0,0,.41.65,1.9,1.9,0,0,0,1.15.6,5.36,5.36,0,0,0,6.08-4.19,6.8,6.8,0,0,0-3.12-6.78,5.36,5.36,0,0,0-3.81-.67c-1,.21-2.32.91-2.35,2.11a4,4,0,0,0,.56,1.77c.32.69.66,1.38,1,2.08a6.66,6.66,0,0,1,.65,2.52,2.51,2.51,0,0,1-.36,1.45c-.07,0-.13,0-.14,0s0,.15-.06.22a1.19,1.19,0,0,1-.23.16S164.51,495.63,164.54,495.62Z"/><path class="cls-42" d="M166.28,496.94a2.07,2.07,0,0,1-1.2-.63,2.74,2.74,0,0,1-.41-.67h0l-.09,0h0a.15.15,0,0,1-.14-.1.1.1,0,0,1,0-.1.9.9,0,0,0,.2-.14.24.24,0,0,0,0-.08.45.45,0,0,0,0-.11.14.14,0,0,1,.13-.1h.06a2.47,2.47,0,0,0,.32-1.37,6.73,6.73,0,0,0-.64-2.49c-.19-.43-.39-.85-.58-1.26s-.26-.55-.38-.82c-.05-.09-.09-.19-.13-.28a3.32,3.32,0,0,1-.45-1.52c0-1.17,1.24-1.94,2.42-2.19a5.16,5.16,0,0,1,1-.1,5.58,5.58,0,0,1,2.81.79,6.9,6.9,0,0,1,3.17,6.85,5.48,5.48,0,0,1-5.32,4.33A4.72,4.72,0,0,1,166.28,496.94Zm-.83-11.65c-.83.17-2.26.79-2.29,2a3.21,3.21,0,0,0,.43,1.46c0,.09.09.18.13.28.13.27.25.55.38.82s.4.83.58,1.26a7.08,7.08,0,0,1,.66,2.54,2.72,2.72,0,0,1-.38,1.51.07.07,0,0,1-.09,0h-.05l0,.1a.29.29,0,0,1,0,.09.08.08,0,0,1,0,0l0,0h0a.08.08,0,0,1,.05.05.24.24,0,0,0,0,.08,2.89,2.89,0,0,0,.4.63,1.85,1.85,0,0,0,1.1.57,4.58,4.58,0,0,0,.83.08,5.32,5.32,0,0,0,5.17-4.21,6.74,6.74,0,0,0-3.09-6.71,5.51,5.51,0,0,0-2.74-.77A5.05,5.05,0,0,0,165.45,485.29Z"/><path class="cls-43" d="M164.61,491.18c-.3-.7-.64-1.39-1-2.08a4,4,0,0,1-.56-1.77c0-1.2,1.33-1.9,2.35-2.11a5.36,5.36,0,0,1,3.81.67l.26.16a2.88,2.88,0,0,0-1.49.07c-1.62.55-1.59,2.42-1.14,3.79a.09.09,0,0,0,.17,0c.25-.39.42-.82.68-1.2-.3,1.17-.43,3,.94,3.24a2.9,2.9,0,0,0,1.3-.22,5.2,5.2,0,0,0,1.35-.58,4.72,4.72,0,0,0,1-.78,6.49,6.49,0,0,1,.05,2.28,5.36,5.36,0,0,1-6.08,4.19,1.9,1.9,0,0,1-1.15-.6,2.56,2.56,0,0,1-.41-.65.24.24,0,0,1,0-.08l-.17.09s-.1-.05-.07-.07a1.19,1.19,0,0,0,.23-.16c0-.07,0-.12.06-.22s.07-.05.14,0a2.51,2.51,0,0,0,.36-1.45A6.66,6.66,0,0,0,164.61,491.18Z"/><path class="cls-25" d="M164.47,495.55a1.19,1.19,0,0,0,.23-.16c0-.07,0-.12.06-.22s.07-.05.14,0a2.51,2.51,0,0,0,.36-1.45,6.66,6.66,0,0,0-.65-2.52c-.3-.7-.64-1.39-1-2.08a4,4,0,0,1-.56-1.77c0-1.2,1.33-1.9,2.35-2.11a5.28,5.28,0,0,1,3.71.62,4.05,4.05,0,0,0-2.24-.37,2,2,0,0,0-1.88,1.87,6.28,6.28,0,0,0,.28,1.67,25,25,0,0,0,.72,2.42,2.37,2.37,0,0,0,.46-.88,2.64,2.64,0,0,0,1.88,2.82c1,.39,2,0,3.08-.09.15,0,.45,0,.8-.08a5.41,5.41,0,0,1-6,3.66,1.9,1.9,0,0,1-1.15-.6,2.56,2.56,0,0,1-.41-.65.24.24,0,0,1,0-.08l-.17.09S164.44,495.57,164.47,495.55Z"/><path class="cls-25" d="M166.28,496.94a2.07,2.07,0,0,1-1.2-.63,2.74,2.74,0,0,1-.41-.67h0l-.09,0h0a.15.15,0,0,1-.14-.1.1.1,0,0,1,0-.1.9.9,0,0,0,.2-.14.24.24,0,0,0,0-.08.45.45,0,0,0,0-.11.14.14,0,0,1,.13-.1h.06a2.47,2.47,0,0,0,.32-1.37,6.73,6.73,0,0,0-.64-2.49c-.19-.43-.39-.85-.58-1.26s-.26-.55-.38-.82c-.05-.09-.09-.19-.13-.28a3.32,3.32,0,0,1-.45-1.52c0-1.17,1.24-1.94,2.42-2.19a5.16,5.16,0,0,1,1-.1,5.63,5.63,0,0,1,2.71.73.08.08,0,0,1,0,.1.09.09,0,0,1-.1,0,3.87,3.87,0,0,0-2.2-.36,1.94,1.94,0,0,0-1.82,1.8,5.63,5.63,0,0,0,.27,1.58l.08.31a19.19,19.19,0,0,0,.61,2.05,3.06,3.06,0,0,0,.36-.75.08.08,0,0,1,.08-.06.08.08,0,0,1,.07.07s0,.06,0,.09a2.56,2.56,0,0,0,1.84,2.66,2.33,2.33,0,0,0,.9.16,7,7,0,0,0,1.17-.13c.32-.05.65-.1,1-.12l.8-.08a.07.07,0,0,1,.06,0s0,0,0,.06a5.52,5.52,0,0,1-5.19,3.79A4.72,4.72,0,0,1,166.28,496.94Zm5.18-3.59a7.8,7.8,0,0,0-1,.13,8,8,0,0,1-1.19.13,2.45,2.45,0,0,1-1-.18,2.71,2.71,0,0,1-1.92-2.48c-.13.27-.3.55-.38.55h0a.08.08,0,0,1-.07-.05,16.92,16.92,0,0,1-.66-2.17l-.09-.31a6,6,0,0,1-.26-1.63,2,2,0,0,1,1.94-1.94,3.42,3.42,0,0,1,1,0,4.89,4.89,0,0,0-2.46-.11c-.83.17-2.26.79-2.29,2a3.21,3.21,0,0,0,.43,1.46c0,.09.09.18.13.28.13.27.25.55.38.82s.4.83.58,1.26a7.08,7.08,0,0,1,.66,2.54,2.72,2.72,0,0,1-.38,1.51.07.07,0,0,1-.09,0h-.05l0,.1a.29.29,0,0,1,0,.09.08.08,0,0,1,0,0l0,0h0a.08.08,0,0,1,.05.05.24.24,0,0,0,0,.08,2.89,2.89,0,0,0,.4.63,1.85,1.85,0,0,0,1.1.57,4.58,4.58,0,0,0,.83.08,5.38,5.38,0,0,0,5-3.58Z"/><path class="cls-45" d="M164.7,495.39c0-.07,0-.12.06-.22s.07-.05.14,0a2.51,2.51,0,0,0,.36-1.45,5.76,5.76,0,0,0-.22-1.37,6.12,6.12,0,0,0-.28-2.95,4.56,4.56,0,0,1-.21-2.45,3.19,3.19,0,0,1,1.4-1.79,5.39,5.39,0,0,1,3.2.7,4.05,4.05,0,0,0-2.24-.37,2,2,0,0,0-1.88,1.87,6.28,6.28,0,0,0,.28,1.67,25,25,0,0,0,.72,2.42,2.37,2.37,0,0,0,.46-.88,2.64,2.64,0,0,0,1.88,2.82c1,.39,2,0,3.08-.09.15,0,.45,0,.8-.08a5.41,5.41,0,0,1-6,3.66,1.9,1.9,0,0,1-1.15-.6,2.56,2.56,0,0,1-.41-.65.24.24,0,0,1,0-.08l-.17.09s-.1-.05-.07-.07A1.19,1.19,0,0,0,164.7,495.39Z"/><path class="cls-9" d="M118.42,517.09a8.49,8.49,0,0,0,.9,1.81c.49.73.94,1.5,1.38,2.27,0,0,.17.17.17.06a3.55,3.55,0,0,0-.22-.77l-.05-.2a6.21,6.21,0,0,0,.47.68,5.09,5.09,0,0,0,1.5,1.46c.09,0,.07-.07,0-.12a6.4,6.4,0,0,1-.43-.92,12.55,12.55,0,0,0,2.34,2.09,12,12,0,0,0,2.43,1.42,8.22,8.22,0,0,0,5.11,1.43c2.9-.21,5.48-1.63,8.09-2.75,2.24-.95,12.62-4.76,13.87-3.17.3.38,3.32,3.18,5,4.57l.43.5a3.09,3.09,0,0,1,.56,1.32s.16.24.2.14.31-.27.43-.44.11-.33.35-.16a2.32,2.32,0,0,0,.94.5c.07,0,0-.08,0-.11a5,5,0,0,0-.32-.44,2.18,2.18,0,0,0,.5.31c.16.09.39.36.59.3s0-.64,0-.75.51.44.58.52a.59.59,0,0,0,.18.13c.05,0,.08,0,.07-.06-.26-1.45-1.47-2.71-1.92-4.14a9.23,9.23,0,0,1-.27-4.52,7.41,7.41,0,0,1,1.85-3.93,10.94,10.94,0,0,1,1.58-1.46c2.75-1.93,5.33-4.36,6.48-7.61.88-2.47,1.17-6.55-1.59-8.12s-5.49,1.55-8,2.34a4.87,4.87,0,0,1-2.51.2c-1.08-.26-3.15.55-4.37.55a22.27,22.27,0,0,1-3.65-.28c-6.22-1-12.26-4.61-18.71-2.94-6.87,1.78-14,7.67-14.75,14.81A11.9,11.9,0,0,0,118.42,517.09Z"/><path class="cls-25" d="M159.91,526.79l-.06-.24a2.41,2.41,0,0,0-.49-1c-.09-.11-.18-.21-.26-.32A1.19,1.19,0,0,1,159,525c-1.65-1.38-4.68-4.18-5-4.58a1.66,1.66,0,0,0-1.27-.35c-3.16,0-10.67,2.77-12.51,3.55l-1.53.68a19.76,19.76,0,0,1-6.58,2.08l-.55,0a8.54,8.54,0,0,1-4.6-1.46,12,12,0,0,1-2.44-1.43,14.13,14.13,0,0,1-2.06-1.76,4.59,4.59,0,0,0,.26.49.24.24,0,0,1,0,.19c0,.05-.09.06-.16,0a4.33,4.33,0,0,1-1.39-1.31L121,521l-.2-.27a2.15,2.15,0,0,1,.12.5.12.12,0,0,1,0,.09.09.09,0,0,1-.07,0h0a.31.31,0,0,1-.2-.14c-.47-.81-.9-1.55-1.38-2.26a8.53,8.53,0,0,1-.91-1.82,12.09,12.09,0,0,1-.76-5.52c.74-7.36,8.18-13.16,14.81-14.87a13.74,13.74,0,0,1,3.54-.44,31.85,31.85,0,0,1,9.1,1.82,49.59,49.59,0,0,0,6.1,1.56,23.56,23.56,0,0,0,3.54.28h.1a9.59,9.59,0,0,0,1.84-.29,10.19,10.19,0,0,1,2-.32,1.85,1.85,0,0,1,.5.06,4.74,4.74,0,0,0,2.48-.2,12.56,12.56,0,0,0,2.42-1.23,8.16,8.16,0,0,1,3.95-1.56,3.39,3.39,0,0,1,1.68.45c3,1.7,2.36,6.12,1.62,8.22-1,2.79-3.06,5.22-6.51,7.64a10.61,10.61,0,0,0-1.52,1.4l-.05,0a7.33,7.33,0,0,0-1.82,3.89,9.14,9.14,0,0,0,.26,4.49,10.09,10.09,0,0,0,.9,1.84,7.5,7.5,0,0,1,1,2.3.21.21,0,0,1,0,.12.13.13,0,0,1-.16,0l0,0a.52.52,0,0,1-.17-.13l-.24-.21-.15-.12c.06.24.1.53-.11.59h-.08a.8.8,0,0,1-.44-.22l-.13-.1-.14-.07h0l.07.11a.16.16,0,0,1,0,.17.09.09,0,0,1-.09,0h0a2.43,2.43,0,0,1-1-.51.28.28,0,0,0-.11-.06s0,.05-.05.08l-.08.12a.76.76,0,0,1-.21.19.6.6,0,0,0-.21.24.12.12,0,0,1-.11.07C160,527,159.92,526.82,159.91,526.79Zm1.09-.53a2.43,2.43,0,0,0,.85.46l-.06-.08a2.22,2.22,0,0,0-.24-.32h0a.09.09,0,0,1,0-.11.08.08,0,0,1,.11,0h0a1.82,1.82,0,0,0,.34.22l.14.08a.65.65,0,0,1,.15.1c.13.11.28.22.39.19s.07-.21,0-.56a.89.89,0,0,1,0-.11h0a.08.08,0,0,1,.06-.09.1.1,0,0,1,.08.05,3.22,3.22,0,0,0,.3.27l.27.23a.48.48,0,0,0,.11.09,7.32,7.32,0,0,0-1-2.22,9.46,9.46,0,0,1-.92-1.86,9.34,9.34,0,0,1-.27-4.57,7.45,7.45,0,0,1,1.86-4l.06-.05a10.38,10.38,0,0,1,1.54-1.42c3.42-2.4,5.47-4.81,6.45-7.57a10.44,10.44,0,0,0,.57-4.37,4.54,4.54,0,0,0-2.12-3.67,3.22,3.22,0,0,0-1.61-.44,8.2,8.2,0,0,0-3.88,1.54,12.62,12.62,0,0,1-2.45,1.25,4.79,4.79,0,0,1-2.55.2,2.12,2.12,0,0,0-.47-.05,10.85,10.85,0,0,0-2,.31,9.83,9.83,0,0,1-1.87.3h-.1a22.71,22.71,0,0,1-3.57-.29,48.58,48.58,0,0,1-6.12-1.56,31.86,31.86,0,0,0-9.05-1.82,13.81,13.81,0,0,0-3.5.44c-6.58,1.7-14,7.45-14.7,14.75a11.87,11.87,0,0,0,.75,5.44,7.92,7.92,0,0,0,.89,1.8c.48.71.91,1.45,1.38,2.27l0,0a1.94,1.94,0,0,0-.12-.39l-.09-.28c0-.07,0-.14,0-.2a.08.08,0,0,1,0-.09.08.08,0,0,1,.09,0,4.7,4.7,0,0,0,.46.67l.14.17a4.28,4.28,0,0,0,1.27,1.24,5.88,5.88,0,0,1-.43-.91.07.07,0,0,1,0-.09.07.07,0,0,1,.09,0,13.35,13.35,0,0,0,2.32,2.08,12.82,12.82,0,0,0,2.43,1.41,8.12,8.12,0,0,0,5.07,1.42,19.62,19.62,0,0,0,6.53-2.07c.5-.22,1-.46,1.53-.67,1.85-.79,9.38-3.57,12.57-3.57a1.73,1.73,0,0,1,1.38.41c.31.39,3.33,3.18,5,4.57l.16.19.26.31a2.62,2.62,0,0,1,.52,1.11l.06.23a.38.38,0,0,0,.08.11.69.69,0,0,1,.25-.26c.06-.06.13-.11.18-.17l.06-.1a.2.2,0,0,1,.18-.15A.29.29,0,0,1,161,526.26Z"/><path class="cls-45" d="M118.42,517.09a8.49,8.49,0,0,0,.9,1.81c.49.73.94,1.5,1.38,2.27,0,0,.17.17.17.06a3.55,3.55,0,0,0-.22-.77l-.05-.2a6.21,6.21,0,0,0,.47.68,5.09,5.09,0,0,0,1.5,1.46c.09,0,.07-.07,0-.12a6.4,6.4,0,0,1-.43-.92,12.55,12.55,0,0,0,2.34,2.09,12,12,0,0,0,2.43,1.42,8.22,8.22,0,0,0,5.11,1.43c2.9-.21,5.48-1.63,8.09-2.75,2.24-.95,12.62-4.76,13.87-3.17.3.38,3.32,3.18,5,4.57l.43.5a3.09,3.09,0,0,1,.56,1.32s.16.24.2.14.31-.27.43-.44.11-.33.35-.16a2.32,2.32,0,0,0,.94.5c.07,0,0-.08,0-.11a5,5,0,0,0-.32-.44,2.18,2.18,0,0,0,.5.31c.16.09.39.36.59.3s0-.64,0-.75.51.44.58.52a.59.59,0,0,0,.18.13c.05,0,.08,0,.07-.06-.26-1.45-1.47-2.71-1.92-4.14a9.23,9.23,0,0,1-.27-4.52,7.41,7.41,0,0,1,1.85-3.93,10.94,10.94,0,0,1,1.58-1.46c2.75-1.93,5.33-4.36,6.48-7.61.88-2.47,1.17-6.55-1.59-8.12s-5.49,1.55-8,2.34a4.87,4.87,0,0,1-2.51.2c-1.08-.26-3.15.55-4.37.55a22.27,22.27,0,0,1-3.65-.28c-6.22-1-12.26-4.61-18.71-2.94-6.87,1.78-14,7.67-14.75,14.81A11.9,11.9,0,0,0,118.42,517.09Zm4.29-12.56a12.13,12.13,0,0,1,4.35-4.25,11.23,11.23,0,0,1,5.48-2.32,23,23,0,0,1,8.2.84,40.29,40.29,0,0,1,4,1.16l.83.3c.53.12,1.06.24,1.6.34,1.42.28,3,.35,4.21,1.27.55.43,1,.93,1.59,1.33a7,7,0,0,0,2.35,1,10.37,10.37,0,0,0,2.42.32,4.47,4.47,0,0,0,2.32-.8.1.1,0,0,1,.14.11c-.68,2.32-.81,6.83,2.67,6.63a.1.1,0,0,1,.06.17,10.57,10.57,0,0,1-1.31.91,6.26,6.26,0,0,0,1-.12,12.76,12.76,0,0,1,1.26-.25.09.09,0,0,1,.06.16,11.25,11.25,0,0,0-3.14,5.67,10.76,10.76,0,0,0-.3,4.07,22.31,22.31,0,0,0,1,3.5c0,.1-.1.17-.16.1a9,9,0,0,1-1.07-1.46c.09.4.22.79.31,1.19,0,.08-.1.17-.16.09a24.07,24.07,0,0,0-4.49-4.36A10.32,10.32,0,0,1,152.3,516a7,7,0,0,1-.27-3.81,5,5,0,0,1,.55-1.58c-.37.25-.67.58-1,.84-.05.05-.14,0-.14-.08a2.53,2.53,0,0,1,.73-1.67,8.45,8.45,0,0,0-1.77,1.25,4.51,4.51,0,0,0-1.47,3.63,2,2,0,0,1,.81-1,.1.1,0,0,1,.14.11,7.4,7.4,0,0,0-.27,2.52.08.08,0,0,1-.06.09,7.08,7.08,0,0,1-3.14-.12A4,4,0,0,1,144,514.3c-.32-.5-.57-1-.85-1.56A15.27,15.27,0,0,0,142,511a16.77,16.77,0,0,0-2.58-2.68,21.66,21.66,0,0,0-3.22-2.22l-.09,0a9.61,9.61,0,0,0-3.09-.63,4.24,4.24,0,0,0-2.58.6,4.49,4.49,0,0,1,2.56.52,14,14,0,0,1,3.19,1.92,10.52,10.52,0,0,1,3.81,6.86c0,.1-.13.11-.17,0a9.3,9.3,0,0,0-1-1.35,6.06,6.06,0,0,1,.11,5,7,7,0,0,1-4.41,4c-4.34,1.43-8.78-1.42-11.3-4.8a11.8,11.8,0,0,1-2.37-6.5A13.09,13.09,0,0,1,122.71,504.53Z"/><path class="cls-25" d="M130.72,505.76a14.32,14.32,0,0,1,6.61,2.93,12.62,12.62,0,0,1,4.31,5.71,8,8,0,0,1,.44,3.55,11.65,11.65,0,0,1-1.24,3.63c-1.07,2.18-3.5,3.5-5.75,4.14-.06,0-.16-.12-.09-.15a13,13,0,0,0,3.07-1.53,11.76,11.76,0,0,0,1.18-.93,9.5,9.5,0,0,0,1.09-1.37,9,9,0,0,0,1.25-3.11,7,7,0,0,0,0-3.63c-1.29-4.77-6.13-8.25-10.84-9.15C130.73,505.85,130.68,505.75,130.72,505.76Z"/><path class="cls-41" d="M163,498.29a6.66,6.66,0,0,0,.39-2.75,2.63,2.63,0,0,1-1.32-.66,16.92,16.92,0,0,1-1.54-1.93,7.79,7.79,0,0,0-3.65-2.71,5.46,5.46,0,0,0-4.07.51,5.58,5.58,0,0,0-2.61,3.19,6.89,6.89,0,0,0,5.88,9.06,6.54,6.54,0,0,0,4.19-1.32,7.9,7.9,0,0,0,2.55-3Z"/><path class="cls-42" d="M156.11,503.07a6.65,6.65,0,0,1-4-1.76,6.79,6.79,0,0,1-1.93-7.39,5.58,5.58,0,0,1,2.64-3.23,5.51,5.51,0,0,1,4.12-.52,8.13,8.13,0,0,1,3.69,2.73c.17.22.34.45.5.68a8.36,8.36,0,0,0,1,1.25,2.64,2.64,0,0,0,1.27.64.07.07,0,0,1,.07.06,6.8,6.8,0,0,1-.39,2.79l0,.06c0,.11-.11.21-.16.32a8.11,8.11,0,0,1-2.56,3,6.74,6.74,0,0,1-3.91,1.34Zm5.94-8.13a7.9,7.9,0,0,1-1-1.27c-.17-.23-.33-.46-.51-.68a8,8,0,0,0-3.61-2.68,5.36,5.36,0,0,0-4,.51A5.46,5.46,0,0,0,150.3,494a6.65,6.65,0,0,0,1.9,7.23,6.55,6.55,0,0,0,3.92,1.73h.32a6.64,6.64,0,0,0,3.82-1.3,8,8,0,0,0,2.52-3l.16-.32,0-.06a6.65,6.65,0,0,0,.39-2.66A2.77,2.77,0,0,1,162.05,494.94Z"/><path class="cls-43" d="M152.15,501.26a6.71,6.71,0,0,0,4,1.74,6.54,6.54,0,0,0,4.19-1.32,7.9,7.9,0,0,0,2.55-3l.18-.38a6.66,6.66,0,0,0,.39-2.75,2.63,2.63,0,0,1-1.32-.66,16.92,16.92,0,0,1-1.54-1.93,7.79,7.79,0,0,0-3.65-2.71,5.46,5.46,0,0,0-4.07.51,5.58,5.58,0,0,0-2.61,3.19A6.77,6.77,0,0,0,152.15,501.26Zm.55-8c1.8-1.33,4.77-.26,5.94,1.43a.09.09,0,0,1-.1.14,3.79,3.79,0,0,0-3.57.64,5.9,5.9,0,0,1,2.74.51c.08,0,.1.16,0,.18a2.12,2.12,0,0,0-1.2.58c1.37-.24,2.76.15,3.13,1.67a3.14,3.14,0,0,1-1.89,3.41,4.56,4.56,0,0,1-6.3-2.72C150.67,497.12,150.91,494.56,152.7,493.26Z"/><path class="cls-9" d="M151.13,500.15a6.82,6.82,0,0,1-.9-6.21,5.58,5.58,0,0,1,2.61-3.19,5.46,5.46,0,0,1,4.07-.51,7.79,7.79,0,0,1,3.65,2.71c.51.63,1.71,2.07,1.8,2.14l.25-.29c1.52-1.76,3.43-2.13,5.65-2.43,1.16-.16,2.49-.3,3.29-1.26a2,2,0,0,1-1.25,1.56c-.07,0,1.26-.3,1.88-.42-.34.42-.87.66-1.23,1.07a5.83,5.83,0,0,1,1,.21,23.71,23.71,0,0,1,3.2,1.57,12.75,12.75,0,0,0,2.39.9c1.7.5,3.4,1,5.13,1.43a9.68,9.68,0,0,0,1.7.35c.52,0,1,.92,1,1.33a5.59,5.59,0,0,1-.27,2.22c-1.33,4.9-9.13,9.1-15.09,9.27a13.65,13.65,0,0,1-5.52-.61,2.59,2.59,0,0,1-1.76-1.8,1.79,1.79,0,0,1,.24-1,5.39,5.39,0,0,1-.84.95,1.63,1.63,0,0,1,0-.9l-.06.07c-.14.16-.51.47-.54.42a1.57,1.57,0,0,1,0-1.15,1,1,0,0,1,.07-.15c-.46.15-1.22-.54-1.16-.52,1.24.35,1.26-1.15,1-1.89a12.64,12.64,0,0,1-.62-2.42c0-.09,0-.18,0-.28a6.12,6.12,0,0,1-.5.39,6.67,6.67,0,0,1-3.68,1.32,5.72,5.72,0,0,0,3.16-1.43,3,3,0,0,0,1-2.13,2,2,0,0,0-.65-2,4,4,0,0,0-.89-.57c-.17-.07-.79-.4-1-.33a3.51,3.51,0,0,1,1.82,0,8.22,8.22,0,0,0-2-1.18c.54,0,1.7.16,1.68.12a8.78,8.78,0,0,0-2.36-2.68,5.65,5.65,0,0,0-3.34-1.28,3.78,3.78,0,0,0-3.23,2.17,6.77,6.77,0,0,0-.35,4.81A7.39,7.39,0,0,0,151.13,500.15Z"/><path class="cls-45" d="M164.49,510.06a2.69,2.69,0,0,1-1.81-1.86,1.68,1.68,0,0,1,0-.6c-.23.28-.5.59-.58.59a.08.08,0,0,1-.08-.06,1.91,1.91,0,0,1,0-.68,1.25,1.25,0,0,1-.46.33.08.08,0,0,1-.07,0,1.6,1.6,0,0,1,0-1.2v0a1.72,1.72,0,0,1-1.11-.62.08.08,0,0,1,0-.05.08.08,0,0,1,.08,0,.69.69,0,0,0,.84-.21,2,2,0,0,0,.06-1.59,12.33,12.33,0,0,1-.63-2.43.78.78,0,0,1,0-.14l-.4.3a6.8,6.8,0,0,1-3.73,1.34h0a.08.08,0,0,1-.08-.08.08.08,0,0,1,.08-.07,5.65,5.65,0,0,0,3.11-1.41,2.85,2.85,0,0,0,1-2.08,1.92,1.92,0,0,0-.62-1.92,3.32,3.32,0,0,0-.87-.56l-.11,0a2.77,2.77,0,0,0-.77-.28h-.06a.08.08,0,0,1-.07-.08.07.07,0,0,1,.06-.07,2,2,0,0,1,.72-.12,4.79,4.79,0,0,1,.84.09,8.1,8.1,0,0,0-1.76-1,.08.08,0,0,1-.06-.08.09.09,0,0,1,.08-.06,11.14,11.14,0,0,1,1.22.09l.34,0a8.85,8.85,0,0,0-2.29-2.55,5.6,5.6,0,0,0-3.26-1.27h0a3.72,3.72,0,0,0-3.16,2.13,6.69,6.69,0,0,0-.35,4.76,7.61,7.61,0,0,0,.66,1.6.07.07,0,0,1,0,.09.07.07,0,0,1-.1,0,6.9,6.9,0,0,1-.9-6.27,5.58,5.58,0,0,1,2.64-3.23,5.51,5.51,0,0,1,4.12-.52,8.13,8.13,0,0,1,3.69,2.73c.5.63,1.49,1.82,1.74,2.08l.19-.23c1.52-1.76,3.4-2.14,5.7-2.46l.18,0a4.59,4.59,0,0,0,3.07-1.2.05.05,0,0,1,.08,0,.08.08,0,0,1,0,.07,1.85,1.85,0,0,1-.94,1.39l.27-.06,1.2-.27a.08.08,0,0,1,.08,0,.1.1,0,0,1,0,.09,4,4,0,0,1-.66.57,6,6,0,0,0-.48.4,4.69,4.69,0,0,1,.86.19,14.07,14.07,0,0,1,2.32,1.1l.9.48a13,13,0,0,0,2.37.89l.4.11c1.54.46,3.13.92,4.73,1.32l.23.06a8.24,8.24,0,0,0,1.45.28c.57,0,1,.95,1.1,1.4a5.45,5.45,0,0,1-.27,2.25c-.63,2.31-2.7,4.6-5.84,6.45a20.63,20.63,0,0,1-9.32,2.88l-1.48,0A11.64,11.64,0,0,1,164.49,510.06Zm6.5-17.47-.69.15a.08.08,0,0,1-.07-.05.08.08,0,0,1,0-.09,2.21,2.21,0,0,0,1.19-1.26,5.13,5.13,0,0,1-3,1.08l-.18,0c-2.27.31-4.12.69-5.61,2.41l-.24.29a.08.08,0,0,1-.1,0c-.12-.08-1.4-1.64-1.82-2.16a8,8,0,0,0-3.61-2.68,5.36,5.36,0,0,0-4,.51A5.46,5.46,0,0,0,150.3,494a6.77,6.77,0,0,0,.19,4.91c0-.11-.07-.22-.1-.32a6.83,6.83,0,0,1,.36-4.87,3.85,3.85,0,0,1,3.29-2.21h0a5.72,5.72,0,0,1,3.35,1.31,8.81,8.81,0,0,1,2.39,2.7.09.09,0,0,1,0,.07.11.11,0,0,1-.1,0l-.45,0-.8-.07a5.64,5.64,0,0,1,1.68,1.1s0,.06-.08.06l-.12,0a5.35,5.35,0,0,0-1-.11l-.36,0a5,5,0,0,1,.54.24l.11.05a3.35,3.35,0,0,1,.91.58,2.08,2.08,0,0,1,.67,2,3.09,3.09,0,0,1-1,2.18,5.76,5.76,0,0,1-1.66,1,7.29,7.29,0,0,0,2.09-1l.5-.39a.06.06,0,0,1,.07,0l0,0,0,.28a13,13,0,0,0,.62,2.4,2.1,2.1,0,0,1-.07,1.72.73.73,0,0,1-.64.33h-.1a1.54,1.54,0,0,0,.78.35.25.25,0,0,0,.12,0,.11.11,0,0,1,.08,0,.06.06,0,0,1,0,.08.84.84,0,0,0-.06.14,1.41,1.41,0,0,0,0,1,2.81,2.81,0,0,0,.44-.38l.05-.06s.06,0,.09,0a.07.07,0,0,1,0,.08,1.8,1.8,0,0,0-.05.76,8.75,8.75,0,0,0,.74-.87.07.07,0,0,1,.12.08,1.7,1.7,0,0,0-.22,1,2.53,2.53,0,0,0,1.7,1.75,11.91,11.91,0,0,0,4,.63l1.47,0a20.42,20.42,0,0,0,9.25-2.86c3.11-1.83,5.16-4.09,5.77-6.36a5.36,5.36,0,0,0,.28-2.19c-.07-.42-.51-1.24-1-1.27a7.74,7.74,0,0,1-1.48-.29l-.23-.06c-1.59-.39-3.19-.86-4.73-1.31l-.41-.12a13.47,13.47,0,0,1-2.39-.9l-.9-.48a13.69,13.69,0,0,0-2.29-1.09,5.34,5.34,0,0,0-1-.21.07.07,0,0,1-.06,0,.11.11,0,0,1,0-.08,4.06,4.06,0,0,1,.6-.51,4.78,4.78,0,0,0,.48-.39Z"/><path class="cls-45" d="M169.32,500.85c.24-.25,0-.54-.2-.75a5,5,0,0,1-.49-4.17,4.51,4.51,0,0,0-1,.62,3,3,0,0,1,.89-2,1.52,1.52,0,0,1,2-.08,1.1,1.1,0,0,0-1.19.51.09.09,0,0,0,.1.14c2-.45,4,1.08,4.83,2.87a5.8,5.8,0,0,1,.49,1.51,3.7,3.7,0,0,1,.08.88,5.81,5.81,0,0,0-.09.58,1.12,1.12,0,0,0,.38.79,3.33,3.33,0,0,1,.25.28,8,8,0,0,0-4.9-.85c-.61.08-1.25.18-1.88.32a2.31,2.31,0,0,1,.19-.28C169,501.08,169.17,501,169.32,500.85Z"/><path class="cls-45" d="M151.13,500.15a6.82,6.82,0,0,1-.9-6.21,5.58,5.58,0,0,1,2.61-3.19,5.46,5.46,0,0,1,4.07-.51,5,5,0,0,1,1,.39,3.41,3.41,0,0,0-2.78,0c-.09,0,0,.16.05.17a7.25,7.25,0,0,1,4.13,2.45,9.75,9.75,0,0,1,2.36,4.2.09.09,0,0,0,.18,0,13.74,13.74,0,0,1,.68-2.52l.11-.13c1.52-1.76,3.43-2.13,5.65-2.43a7.92,7.92,0,0,0,2.46-.6,4,4,0,0,1-1.64,1.32c-1.09.52-2.27.75-3.37,1.22-1.33.56-3.05,1.81-2.66,3.46,0,.08.37-1.41,1.48-1.54a4.72,4.72,0,0,0-1.23,4.62.1.1,0,0,0,.17,0,3.43,3.43,0,0,1,1-1.09,5.25,5.25,0,0,0-.54,4.5.09.09,0,0,0,.18,0,2.93,2.93,0,0,1,.9-1.58,7.52,7.52,0,0,0-.38,3.53.1.1,0,1,0,.19,0,3.2,3.2,0,0,1,.66-1.76,3.78,3.78,0,0,0,.06,2.59,3.42,3.42,0,0,0,2.77,2.23,9,9,0,0,0,5.2-1c.41-.2,1.09-.39,1-.94a20.26,20.26,0,0,1-.18-2,3.19,3.19,0,0,0,1.67,2.27c1.42.6,3.24-.44,4.34-1.31a8.06,8.06,0,0,0,1.78-1.86c.27-.41.71-1.07.58-1.6-.21-.9-1.93-1.48-1.34-2.51a.1.1,0,0,0-.13-.13,3.94,3.94,0,0,0-.59.49,2,2,0,0,1,.74-1.58c.08-.06,0-.18-.09-.16a5.86,5.86,0,0,0-.69.28,4,4,0,0,1,2.39-1.71,7.6,7.6,0,0,0,1.33.25c.52,0,1,.92,1,1.33a5.59,5.59,0,0,1-.27,2.22c-1.33,4.9-9.13,9.1-15.09,9.27a13.65,13.65,0,0,1-5.52-.61,2.59,2.59,0,0,1-1.76-1.8,1.79,1.79,0,0,1,.24-1,5.39,5.39,0,0,1-.84.95,1.63,1.63,0,0,1,0-.9l-.06.07c-.14.16-.51.47-.54.42a1.57,1.57,0,0,1,0-1.15,1,1,0,0,1,.07-.15c-.46.15-1.22-.54-1.16-.52,1.24.35,1.26-1.15,1-1.89a12.64,12.64,0,0,1-.62-2.42c0-.09,0-.18,0-.28a6.12,6.12,0,0,1-.5.39,6.67,6.67,0,0,1-3.68,1.32,5.72,5.72,0,0,0,3.16-1.43,3,3,0,0,0,1-2.13,2,2,0,0,0-.65-2,4,4,0,0,0-.89-.57c-.17-.07-.79-.4-1-.33a3.51,3.51,0,0,1,1.82,0,8.22,8.22,0,0,0-2-1.18c.54,0,1.7.16,1.68.12a8.78,8.78,0,0,0-2.36-2.68,5.65,5.65,0,0,0-3.34-1.28,3.78,3.78,0,0,0-3.23,2.17,6.77,6.77,0,0,0-.35,4.81A7.39,7.39,0,0,0,151.13,500.15Z"/><path class="cls-25" d="M150.41,512.22a3.42,3.42,0,0,1,1-1.61s.1.06.07.09a4.34,4.34,0,0,0-.76,1.34,3.54,3.54,0,0,0-.28,1.32,2.83,2.83,0,0,1,.65-.81c.06,0,.17.1.15.16a3.3,3.3,0,0,0-.47,1.55c.22-.22.4-.59.6-.8,0-.06.19.12.16.18a4.33,4.33,0,0,0,.09,3.64,7.35,7.35,0,0,0,2.41,3.08s.09.16,0,.11a6.82,6.82,0,0,1-2.48-2.91,5.12,5.12,0,0,1-.52-3.25,1.06,1.06,0,0,1-.27.25c-.07.05-.15-.1-.16-.15a2.49,2.49,0,0,1,.14-1.1c-.08.13-.15.27-.24.4s-.16-.06-.18-.11A2.33,2.33,0,0,1,150.41,512.22Z"/><path class="cls-42" d="M167.37,525.12a4.7,4.7,0,0,1,1.91,1s0,.09,0,.06c-.27-.19-.54-.36-.83-.53s-.7-.3-1-.48C167.37,525.17,167.33,525.11,167.37,525.12Z"/><path class="cls-42" d="M168.94,524.74a4.53,4.53,0,0,1,2,.92s.06.12,0,.08a11.76,11.76,0,0,0-1.93-.92S168.91,524.73,168.94,524.74Z"/><path class="cls-42" d="M169.4,524.06a4.12,4.12,0,0,1,1.63.32s.08.1,0,.09a6.33,6.33,0,0,1-.75-.19c-.29-.07-.59-.11-.89-.16C169.41,524.12,169.37,524.06,169.4,524.06Z"/><path class="cls-8" d="M173.2,501.09a12.24,12.24,0,0,0-1.48-.2,10.69,10.69,0,0,0-1.38.11l-.24,0-.06-.09c-.81-1.27-1.84-4-.5-5.28a2.11,2.11,0,0,1,1.75-.22,3.9,3.9,0,0,1,1.56,1.11,5.89,5.89,0,0,1,1.73,3.25,2.55,2.55,0,0,1-.36,1.55A4.47,4.47,0,0,0,173.2,501.09Z"/><path class="cls-25" d="M174.19,501.4a5.25,5.25,0,0,0-1-.24l-.39-.06a7.77,7.77,0,0,0-1.08-.13,8.47,8.47,0,0,0-1.13.07l-.24,0-.24,0a.09.09,0,0,1-.07,0L170,501c-.9-1.41-1.82-4.12-.49-5.37a1.71,1.71,0,0,1,1.13-.33,2.36,2.36,0,0,1,.69.09,4,4,0,0,1,1.59,1.12,6.12,6.12,0,0,1,1.75,3.3,2.64,2.64,0,0,1-.37,1.6l-.06,0Zm-4.6-5.69a2.78,2.78,0,0,0-.53,2.57,8.06,8.06,0,0,0,1,2.61l0,.06.19,0,.24,0a7.45,7.45,0,0,1,1.16-.08,8.06,8.06,0,0,1,1.1.13l.38.06a5.09,5.09,0,0,1,1,.24,2.39,2.39,0,0,0,.32-1.45,5.87,5.87,0,0,0-1.71-3.21,3.81,3.81,0,0,0-1.52-1.09,2.13,2.13,0,0,0-.65-.09A1.56,1.56,0,0,0,169.59,495.71Z"/><path class="cls-45" d="M169.54,495.65a2.11,2.11,0,0,1,1.75-.22,3.23,3.23,0,0,1,1.14.7,2.13,2.13,0,0,0-1.62-.39c-1.51.43-.76,2.48-.17,3.36a3.45,3.45,0,0,0,1.67,1.44,1.85,1.85,0,0,0,1.82-.2,1.76,1.76,0,0,0,.42-.77l0,.22a2.55,2.55,0,0,1-.36,1.55,4.47,4.47,0,0,0-1-.25,12.24,12.24,0,0,0-1.48-.2,10.69,10.69,0,0,0-1.38.11l-.24,0-.06-.09C169.23,499.66,168.2,496.91,169.54,495.65Z"/><path class="cls-46" d="M171.23,498.92a1.35,1.35,0,1,0,.2-2.18A1.59,1.59,0,0,0,171.23,498.92Z"/><path class="cls-47" d="M171.77,498.46a1.08,1.08,0,0,0,1.36.59,1.07,1.07,0,0,0,.13-1.47c-.34-.57-.94-.83-1.35-.59A1.08,1.08,0,0,0,171.77,498.46Z"/><path class="cls-8" d="M171.33,497.55c0,.21.13.37.27.37s.27-.17.27-.37-.13-.37-.27-.37S171.33,497.35,171.33,497.55Z"/><path class="cls-8" d="M171.64,498.4c0,.1.06.17.13.17s.13-.08.13-.17-.06-.18-.13-.18S171.64,498.3,171.64,498.4Z"/><path class="cls-25" d="M173.93,501.27a10.77,10.77,0,0,0-2.2-.28,8.94,8.94,0,0,0-2.36.2l-.56.11s0,0,0-.05a6.36,6.36,0,0,1,3.43-.47,5.4,5.4,0,0,1,2.85.91A9.73,9.73,0,0,0,173.93,501.27Z"/><path class="cls-24" d="M168.18,495.21c0,.05.19.18.21.11a1.6,1.6,0,0,1,2.13-.86.16.16,0,0,0,.09,0h0c.06,0,0-.07,0-.09h0a2.29,2.29,0,0,0-1.55-.61c-.64,0-.94.9-.86,1.42h0Z"/><path class="cls-35" d="M174.33,505.25a8.8,8.8,0,0,0,.79,1.84,1.9,1.9,0,0,0,2.15.84,8.74,8.74,0,0,0,3.43-1.51,14,14,0,0,0,2.64-2.33,13.79,13.79,0,0,0,1.1-1.42,14.62,14.62,0,0,0,.76-1.47s.1.05.09.08a10.91,10.91,0,0,1-.79,1.7,13.55,13.55,0,0,1-1.25,1.58,12.71,12.71,0,0,1-3.53,2.74c-1.09.55-2.58,1.26-3.78.72a2.4,2.4,0,0,1-1-1.06,5.67,5.67,0,0,1-.71-1.77C174.19,505.09,174.31,505.2,174.33,505.25Z"/><path class="cls-41" d="M181.61,499.23c0,.87,1,2.75,2.31,2.82s2.56-1.68,2.61-2.55-1-1.63-2.37-1.71S181.66,498.36,181.61,499.23Z"/><path class="cls-42" d="M183.92,502.13c-1.38-.08-2.43-2-2.38-2.9s1.2-1.59,2.62-1.51,2.49.88,2.44,1.78a3.26,3.26,0,0,1-.8,1.65,2.58,2.58,0,0,1-1.79,1Zm-2.23-2.89c-.05.86,1,2.67,2.24,2.74H184c1.26,0,2.4-1.64,2.44-2.48s-1-1.56-2.3-1.63h-.21C182.72,497.86,181.73,498.47,181.69,499.24Z"/><path class="cls-43" d="M183.92,502.05c1.36.08,2.56-1.68,2.61-2.55s-1-1.63-2.37-1.71-2.5.57-2.55,1.44S182.57,502,183.92,502.05Zm-1-2.81c0-.6.82-1.05,1.77-1s1.69.58,1.66,1.19-.87,1.84-1.82,1.79S182.91,499.85,183,499.24Z"/><path class="cls-48" d="M179.06,506.4l-.27.15-.29.18-.36.25-.41.33-.22.19-.22.2c-.14.15-.3.29-.43.45l-.22.24-.19.26a6.42,6.42,0,0,0-.38.53l-.09.13a.91.91,0,0,1-.07.14l-.15.27a.83.83,0,0,0-.07.13l-.06.14a2.1,2.1,0,0,0-.13.26c-.08.16-.13.33-.19.48a1.43,1.43,0,0,1-.08.22c0,.07,0,.14-.06.2s-.07.24-.09.34l-.08.29.06-.3c0-.09.05-.21.07-.34s.08-.27.13-.42a3.79,3.79,0,0,1,.18-.5l.12-.27a1.21,1.21,0,0,1,.05-.14l.08-.13a1.82,1.82,0,0,1,.15-.27l.07-.14.09-.14a6.45,6.45,0,0,1,.37-.54c.07-.08.13-.17.2-.26l.22-.24c.14-.16.3-.3.44-.45s.31-.27.45-.38a5.29,5.29,0,0,1,.43-.32l.37-.24.3-.17A2.48,2.48,0,0,1,179.06,506.4Z"/><path class="cls-48" d="M179,506l-.25,0a1.86,1.86,0,0,0-.28.05l-.18,0-.18.06a4,4,0,0,0-.42.13,4.43,4.43,0,0,0-.45.2,1.67,1.67,0,0,0-.23.12l-.23.13-.12.07-.1.08-.23.16-.41.35-.37.37-.31.38c-.1.12-.17.25-.25.36a3.15,3.15,0,0,0-.2.31l-.15.25-.12.22.11-.22c0-.08.08-.16.13-.26a2.19,2.19,0,0,1,.18-.33c.08-.11.15-.25.25-.37s.19-.26.3-.39l.37-.39c.14-.12.27-.24.42-.35l.22-.16.12-.08.11-.07.24-.14.23-.11c.16-.08.32-.13.46-.19l.43-.13.19,0,.18,0,.29,0Z"/><path class="cls-48" d="M173.17,508.76a5.18,5.18,0,0,1,.5-1l.3-.45a5.71,5.71,0,0,1,.39-.47,5.11,5.11,0,0,1,.48-.45,4.21,4.21,0,0,1,.55-.39l.3-.16.31-.14a3.73,3.73,0,0,1,.63-.18l.31-.05.3,0c.19,0,.37,0,.54,0a2.79,2.79,0,0,1,.46.07l.35.07.3.09-.31-.07a2.35,2.35,0,0,0-.34-.06l-.22,0-.24,0h-.54l-.29,0-.3,0a4.83,4.83,0,0,0-.62.18l-.3.14a2.69,2.69,0,0,0-.29.16,4,4,0,0,0-.54.38,5,5,0,0,0-.48.44,7.46,7.46,0,0,0-.71.89c-.18.28-.32.53-.41.7Z"/><path class="cls-48" d="M173.43,506.32a4.78,4.78,0,0,1,.76-.68l.41-.28a4.48,4.48,0,0,1,.49-.26,4.53,4.53,0,0,1,.55-.23,5.69,5.69,0,0,1,.59-.16l.31,0,.3,0a2.94,2.94,0,0,1,.6,0l.28,0,.27.06.47.16c.14.06.27.11.38.17l.28.16.24.15-.25-.13a1.58,1.58,0,0,0-.29-.14.75.75,0,0,0-.18-.08l-.2-.08a4.41,4.41,0,0,0-.47-.14,1.09,1.09,0,0,0-.26-.05l-.28,0a2.79,2.79,0,0,0-.58,0l-.3,0-.3.05a2.74,2.74,0,0,0-.58.15,4.48,4.48,0,0,0-.55.21,6.71,6.71,0,0,0-.9.51c-.25.18-.45.34-.59.45Z"/><path class="cls-25" d="M184.86,499.24c0,.2.22.64.54.66s.6-.4.61-.6-.23-.39-.55-.4S184.87,499,184.86,499.24Z"/><path class="cls-49" d="M373.51,364c0-9.94,6.68-18,14.91-18-8.23,0-14.91-8.06-14.91-18,0,9.94-6.67,18-14.9,18C366.84,346,373.51,354,373.51,364Z"/><path class="cls-50" d="M361.19,180.52c0-8.53,5.72-15.44,12.79-15.44-7.07,0-12.79-6.92-12.79-15.44,0,8.52-5.73,15.44-12.8,15.44C355.46,165.08,361.19,172,361.19,180.52Z"/><path d="M347.56,151a2.76,2.76,0,0,1,2.47-3,2.76,2.76,0,0,1-2.47-3,2.75,2.75,0,0,1-2.46,3A2.75,2.75,0,0,1,347.56,151Z"/><path class="cls-5" d="M518.94,547.81h-7.78a20.79,20.79,0,0,1-16.22-8.09c-4.53-5.91-4.94-13.43-4.71-20.58,0-1.76.14-3.52.19-5.29.2-7.47-.06-15-.06-22.53h49.38c-.36,0,0,26.51,0,28.92,0,4.62.2,9.45-1.4,13.86A21,21,0,0,1,518.94,547.81Z"/><path class="cls-51" d="M539.38,491.45c0,1.94-9,2.37-10.77,2.52a169.58,169.58,0,0,1-24.59.2,74.42,74.42,0,0,1-9.95-1.11c-1-.2-3.71-.65-3.71-1.61,0-1.29,4.54-1.77,5.8-1.95a134.41,134.41,0,0,1,25.55-1c3.88.18,7.92.44,11.79,1C535,489.69,539.38,490,539.38,491.45Z"/><path class="cls-52" d="M513.81,493.63c-.45,0-.9,0-1.35,0a.79.79,0,0,1-.49-.17c-1.83-1.46-3.56-3.38-5.46-4.28-4.43-2.09-9.89-2.47-14.67-3.23-7.62-1.22-16-3.61-19.67-10.08-1.25-2.22-1.53-5.46.7-6.82,1.34-.81,3.09-.61,4.65-.33q3.42.61,6.75,1.56a.8.8,0,0,0,.73-1.39,66.55,66.55,0,0,1-12.79-14.2,12.11,12.11,0,0,1-2.43-5.84,4.85,4.85,0,0,1,3.25-5c2.25-.6,4.51.83,6.27,2.28l.94.79a.8.8,0,0,0,1.24-1,89.84,89.84,0,0,1-9.79-27.44c-1.32-7.39-1.65-15.22,1.29-22.16.13-.32.48-.38.8-.49,5.4-1.88,6.47,5.4,7.49,9.52l5.91,23.81a.8.8,0,0,0,1.57,0q1.59-8.34,3.36-16.65c.39-1.82.94-3.85,2.65-4.75,2.22-1.17,5.15.45,6.14,2.67s.6,4.74.19,7.12q-1.3,7.69-2.62,15.4a.8.8,0,0,0,1.39.67l0,0c2.3-2.42,7.14-2.86,8.84,0,.86,1.46.65,3.26.41,4.92l-1,7a.82.82,0,0,1-1,.69,6.36,6.36,0,0,0-4.84.7c-3.22,2.08-3.09,6.57-2.23,10.17,1.67,7,5.76,12.89,9.14,19.14,3,5.46,3.65,11.07,5.36,16.54A.81.81,0,0,1,513.81,493.63Z"/><path class="cls-53" d="M515.12,453.69c.25.49.48,1,.71,1.47a11.43,11.43,0,0,0,.66-.94,3.6,3.6,0,0,0-1.37-.53Z"/><path d="M519,462.23l-2.58,31.49h-.17l-1.24,0c-2-5.82-2.56-11.81-5.71-17.63-3.38-6.25-7.47-12.13-9.14-19.14-.86-3.6-1-8.09,2.23-10.17a6.7,6.7,0,0,1,5.68-.48L505.62,463c4-2.28,4.32-9.47,9-9.34a3.1,3.1,0,0,1,.54.05c.25.49.48,1,.71,1.47a11.43,11.43,0,0,0,.66-.94C518.66,455.64,519.19,459.37,519,462.23Z"/><path class="cls-52" d="M576.35,432.43c-4,3-9.11,4.18-13.88,5.88-4.51,1.6-9.12,4.13-11,8.24a.82.82,0,0,0,.46,1.1c4.58,1.71,10.64-2.07,14.89.54,4.08,2.51,2.59,8.95-1.31,11.72s-9,3.18-13.7,4.44c-15,4-25.13,16.62-33.87,29a.8.8,0,0,1-.63.35h0a.81.81,0,0,1-.81-.87q1.24-15.32,2.51-30.62c.22-2.63-.21-6-2-7.61a.8.8,0,0,1-.12-1c6.51-10.86-.94-27.51,8.6-36.46a4.57,4.57,0,0,1,2.68-1.41c2.14-.14,3.52,2,4.39,3.9l5.76,12.42a.8.8,0,0,0,1.5-.14c2.83-11.33,6-22.82,13-32.33,1.88-2.55,4.16-5,7.23-6.1s7.07-.34,8.66,2.38.3,6.05-1,8.89l-6,13.12a.8.8,0,0,0,1.05,1.06c5.84-2.48,13.12-4,16.72.71C582.55,423.56,580.3,429.38,576.35,432.43Z"/></g></g></svg>