<?xml version="1.0" encoding="utf-8"?>
<!-- Generator: Adobe Illustrator 23.0.0, SVG Export Plug-In . SVG Version: 6.00 Build 0)  -->
<svg version="1.1" id="Layer_1" xmlns="http://www.w3.org/2000/svg" xmlns:xlink="http://www.w3.org/1999/xlink" x="0px" y="0px"
	 viewBox="0 0 788 693" style="enable-background:new 0 0 788 693;" xml:space="preserve">
<style type="text/css">
	.st0{fill:none;stroke:#000000;stroke-width:1.4;stroke-miterlimit:10;}
	.st1{fill:#2D2D2D;}
	.st2{fill:#FFFFFF;}
	.st3{fill:#4D4D4D;}
	.st4{fill:#DFDFDF;}
	.st5{fill:#FFFFFF;stroke:#000000;stroke-width:0.7;stroke-linecap:round;stroke-linejoin:round;}
	.st6{fill:#808080;}
	.st7{fill:none;stroke:#000000;stroke-width:0.7;stroke-miterlimit:10;}
	.st8{fill:none;stroke:#FFFFFF;stroke-width:1.4;stroke-linecap:round;stroke-linejoin:round;}
	.st9{fill:none;stroke:#1A1A1A;stroke-width:1.4;stroke-linecap:round;stroke-linejoin:round;}
	.st10{clip-path:url(#SVGID_2_);}
	.st11{fill:#CFCFCF;}
	.st12{fill:#AFAFAF;}
	.st13{fill:none;stroke:#000000;stroke-width:3.5;stroke-linecap:round;stroke-linejoin:round;}
	.st14{fill:none;stroke:#000000;stroke-width:2.8;stroke-linecap:round;stroke-linejoin:round;}
	.st15{fill:none;stroke:#000000;stroke-width:1.4;stroke-linecap:round;stroke-linejoin:round;}
	.st16{fill:none;stroke:#000000;stroke-width:0.52;stroke-linecap:round;stroke-linejoin:round;}
	.st17{fill:none;stroke:#000000;stroke-width:0.17;stroke-linecap:round;stroke-linejoin:round;}
	.st18{fill:#BFBFBF;}
	.st19{fill:#101010;}
	.st20{fill:#303030;}
</style>
<path class="st0" d="M392.1,299.4c0,0,77.2,24.7,72.8,109s-166.4,140.5-131,212.5c23.5,47.8,77,38.2,89.4,17.8
	c11.3-18.7-34.4-26.1-58.9-28c-29.9-2.4-76.3-36.8-80.6,8.3c-6.1,64,92.1,49.6,73.7,32s-41.2,20.5-8.9,24.5s80.4-41.1,135-24.5
	c54.6,16.6,89.9,2.2,97.8-11.7"/>
<path class="st1" d="M318.4,98.9c-0.6-0.8-2.1,0.2-2.7-0.8c-0.3-0.6,0.7-1.8,0.5-2.5s-0.6-1.2-0.5-1.8s-0.1-2.2,0.7-2.5
	s1.5,0.1,1.8-0.4s1.1-1.2,1.3-1.8s0.3-0.8,1.1-1.1c0.5-0.2,0.9-1.4,1.9-1.4c0.6,0,1.2-0.1,1.8-0.1s1.2,1.3,1.9,1.3s1.3-0.9,1.9-0.9
	s1.2,0.7,1.8,0.8s0.8,1,1.3,1.3s2.8-0.7,3-0.1c0,0.8-0.1,1.6-0.3,2.4c-0.1,0.6,0.4,1.3,0.4,1.8s-2.1,1.1-2.1,1.7s1.1,1.4,1,1.9
	c-0.1,0.7-1.6,0.8-1.9,1.2s0.3,1.7-0.4,1.9c-0.4,0.1-1.1,0.1-1.9,0.2c-0.6,0.1-1.3-0.2-2-0.2s-1.1,1.6-1.8,1.7s-1.4-2.3-2-2.3
	s-1.3,0.8-1.9,0.8s-1.5,1.1-2.1,1C318.3,101,318.7,99.4,318.4,98.9z"/>
<path d="M125.9,79c0.1,2.2,2.4,8.7,7.6,11.2c1.9,0.9,3,3,2.8,5.1c-1,7.8-2.9,22.2-4,30.2c-0.4,2.7,1.6,5.2,4.3,5.6
	c0.2,0,0.4,0,0.6,0h5.2c2.6,0,4.7-1.9,5-4.5c0.5-4.8,2.1-11.7,8-11.3c5.6,0.3,7,6.5,7.3,11c0.1,1.1,0.5,2.2,1.3,3
	c0.9,1.1,2.3,1.7,3.7,1.7h5.6c2.8,0,5-2.2,5-5c0-0.3,0-0.5-0.1-0.8l-3.6-20.8l-0.1-0.4c-0.1-1.7,0.6-3.4,2.1-4.5
	c2.9-2.1,5.2-5.1,6.5-8.4c3.1-7.7-3.9-11.6-3.9-11.6c-2.2-1.5-4.7-2.8-7.3-3.6c-1.4-0.4-2.6-1.4-3.3-2.7c-1.6-3.7-5-9.8-11.3-11
	c-7.9-1.5-9.4,0.5-15.4-5.6s-6.8-8.4-7.2-13s1-10.8,8-16.1c3.9-2.7,8.9-3.4,9.6-3.9s1.4-3.6-0.5-3.9s-17.2,3.6-22.7,11
	s-12.3,22.1,1,37.8c2.7,3.3,7.5,8.4,7.7,11.3s0.2,4.6-0.7,4.8s-4.9-0.7-7.4-5s-0.9-6.2-1.9-6.5S125.7,76.4,125.9,79z"/>
<path d="M163.9,129.4c0.9,1.1,2.3,1.7,3.7,1.7h5.6c2.8,0,5-2.2,5-5c0-0.3,0-0.5-0.1-0.8l-3.6-20.8l-0.1-0.4
	c-0.3,0.8-0.4,1.6-0.4,2.4C174.1,112.9,173.8,128.4,163.9,129.4z"/>
<path class="st2" d="M212.4,526c-5.8,0-5.8-2.7-6-12.9c-0.1-5.4-0.3-12.7-1.4-22.6c1.4-3.3,79.6-26.4,97.3-28.7l0.3,0v-0.3
	c-2-17.8-3.2-37.1-3.5-57.6v-3.2c-0.1-12,0.1-24.4,0.5-37c0-1.1,0.1-2.1,0.1-3.2c0.8-19.2,2.2-39.1,4.3-59c0.5-4.6,1-9.6,1.7-15.3
	c0.5-4.3,1.1-9,1.8-13.8c0.4-2.7,0.7-5.3,1.1-8c0-0.1,0-0.2,0-0.3c0.6-4.1,1.2-8.4,1.9-13.1l61.6,8.4c0,1.3,0.2,6.5,0.4,14.5
	c0,0.4,0,0.7,0,1.1c0.2,7.5-1.7,16-3.8,25.8c-2.9,13-6.1,27.8-5.7,45.4c0.2,9.1-0.8,21.4-1.8,33.3c-0.9,11.3-1.8,21.9-1.7,29.7
	c0.7,44.6-4.8,93.9-14.7,95.7c-6.1,1.1-99.7,17.6-128.4,21C215.1,525.9,213.7,525.9,212.4,526z"/>
<path d="M310.8,251.2l18.3,2.5l42.7,5.8c0,1.7,0.2,6.7,0.4,14.2c0,0.4,0,0.8,0,1.1c0.2,7.5-1.7,15.9-3.8,25.7
	c-2.9,13-6.1,27.8-5.7,45.5c0.2,9.1-0.8,21.4-1.8,33.2c-1,11.3-1.9,21.9-1.7,29.8c0.3,21.4-0.9,44.7-3.1,62.3
	c-3.6,27.7-8.6,32.6-11.2,33.1c-6.1,1.1-99.8,17.6-128.4,21c-1.3,0.2-2.6,0.3-3.9,0.3c-5.3,0-5.5-2-5.7-12.6
	c-0.1-5.3-0.3-12.6-1.3-22.5c1.5-1.5,16.5-6.9,42.9-14.7c20.5-6,45.1-12.6,54-13.8l0.7-0.1l-0.1-0.7c-2-17.7-3.2-37.1-3.5-57.6v-0.1
	v-3.1c-0.1-12,0.1-24.4,0.5-37v-0.1c0-1,0.1-2,0.1-3.1c0.8-19.2,2.2-39,4.3-59c0.5-4.6,1-9.6,1.7-15.3c0.5-4.4,1.1-9,1.8-13.8
	c0.3-2.4,0.7-5,1.1-8c0-0.1,0-0.2,0-0.3v-0.1C309.4,259.9,310.1,255.8,310.8,251.2 M310.2,250.4c-0.7,4.5-1.3,8.9-2,13.4
	c0,0.1,0,0.2,0,0.4c-0.4,2.7-0.7,5.3-1.1,8c-0.6,4.6-1.2,9.2-1.8,13.8c-0.6,5.1-1.2,10.2-1.7,15.3c-2.1,19.9-3.5,39.7-4.3,59
	c0,1-0.1,2.1-0.1,3.1c-0.5,12.6-0.6,25-0.5,37.1c0,1.1,0,2.1,0,3.2c0.3,20.2,1.4,39.6,3.5,57.7l0,0c-17.6,2.3-97.9,26-97.6,29.1
	c3.2,28.6-1.6,35.9,7.7,35.9c1.3,0,2.7-0.1,4-0.3c28.6-3.4,121.8-19.8,128.5-21c10.9-2,15.5-55.9,15-96.1c-0.2-16.2,3.9-45.3,3.6-63
	c-0.6-30.9,10-53.6,9.5-71.1c0-0.4,0-0.8,0-1.1c-0.2-9.3-0.4-14.8-0.4-14.8l-43.3-5.9L310.2,250.4L310.2,250.4z"/>
<path class="st2" d="M247.6,595.7c-1.6-5.8-14.9-93.4-14.5-101.7c0.7-13.7,0.2-28.9-0.3-43.6c-0.7-19.4-1.4-39.4,0.7-57.1
	c1.4-12.5,1.8-25.3,2.2-37.7c0.5-17.8,1-36.1,4.7-53.8c10.9-51.9,13.2-65.2,13.6-67.2l54.1,1.2c-0.7,11.2-17.5,264.5-19,284.1
	c-0.9,11.4-1.5,23.1-2,33.4c-0.8,16.1-1.5,28.9-2.9,32.9L247.6,595.7z"/>
<path d="M254.3,235l53.4,1.2c-1,15.4-17.5,264.3-19,283.8c-0.9,11.4-1.5,23.1-2,33.4c-0.8,15.2-1.5,28.4-2.8,32.6l-36,9.3
	c-2-8.2-14.8-93.2-14.4-101.3c0.7-13.7,0.2-28.9-0.3-43.7c-0.7-19.3-1.4-39.3,0.7-57c1.4-12.5,1.8-25.3,2.2-37.7
	c0.5-17.8,1-36.1,4.7-53.7C251.2,252.1,253.8,237.8,254.3,235 M253.7,234.3c0,0-1.6,9.9-13.6,67.5c-6.3,30-3.4,61.3-6.9,91.5
	c-3.6,31.4,1.3,69.2-0.4,100.7c-0.5,9.4,13.7,100.7,14.6,102.1l37-9.6c2.3-6.4,2.6-37.3,5-66.5c1.6-20.2,19.1-284.5,19.1-284.5
	L253.7,234.3z"/>
<path class="st3" d="M300.2,315.2l0.6-1.1c-0.1-0.1-14.1-7.3-30.2-4.1l0.3,1.3C286.5,308.1,300.1,315.1,300.2,315.2z"/>
<path class="st2" d="M296.2,442.3h1.3c0-0.2,0.3-17.6,1.4-44.5s1.4-37.4,1.4-37.5h-1.3c0,0.1-0.3,10.6-1.4,37.5
	S296.2,442.1,296.2,442.3z"/>
<path d="M221,330.3c-0.2,0.8,0.3,1.7,1.1,1.9c0.6,0.1,1.2-0.1,1.5-0.5c4.3-5,12.7-13.4,19.8-9.8c15,7.5,35.3,37.9,55.4,41.5l0.4,0.1
	c0.3,0,0.6,0.1,0.9,0.1s0.5,0.1,0.8,0.1c3.6,0.6,7,1,10.1,1.2c8.8,0.6,20.9-1.2,32.8-3.7c11.4-2.4,22.7-5.6,30.9-8
	c7.5-2.3,12.5-3.9,12.5-3.9c2.1-0.7-0.2-48.4-0.8-60.7c-1.3-27.4-3.1-54.7-4.9-82.1c-1.5-21.5-10.7-55.1-20.6-62.1
	c-0.9-0.7-2.1-1.2-3.3-1.3c-3-0.2-14.9-0.9-28.6-1.7c-0.7-0.1-1.5-0.1-2.2-0.1c-2.1-0.1-4.3-0.2-6.6-0.4l-7.6-0.4l-4.9-0.3l-3.8-0.2
	c-12.9-0.7-23.8-1.4-26.6-1.6c-0.9-0.1-1.9,0-2.8,0.2c-9,1.9-13.4,13.8-16.3,21.2c-5.6,14.1-8,28.8-10.9,43.7
	c0,10.7-4.5,23-6.5,33.5l-6.8,34.5C230.4,291.3,225.9,310.8,221,330.3z"/>
<path d="M338.9,161.4c2-8.4,11.7-24.2,31.8-17.3s80.1,30.5,90.7,42.1c15.4,16.8,12.5,44.5-23.7,46.5c-23.4,1.3-71.2-23.3-85.5-37.3
	S336.3,172.3,338.9,161.4z"/>
<path class="st3" d="M419.7,200.2c-12,13.2-13.5,31.3-3.4,40.5c10.1,9.1,28,5.8,39.9-7.4s13.5-31.3,3.4-40.5S431.7,187,419.7,200.2z
	"/>
<path class="st4" d="M337.7,243.9l16,15c0.5-0.2,1.1-0.4,1.8-0.6s1.1-0.3,1.7-0.5l1.1-0.2c2.8-0.5,5.6-0.9,8.5-1.1
	c4.9-0.4,10.7-0.6,16.9-0.8c5-0.2,10.2-0.4,15.6-0.7c4.3-0.3,8.5-0.6,12.8-1.1h0.1l0,0c4.2-0.5,8.3-1.1,12.2-1.9
	c10.4-2.1,19.6-5.6,25.9-11.4c1.1-1.1,2.2-2.2,3.1-3.4l0,0c13.8-12.9,13.4-28.4,7.5-37.3c-0.1-0.1-0.1-0.2-0.2-0.3
	c-0.1-0.2-0.2-0.4-0.4-0.5c-0.4-0.5-0.8-1-1.2-1.5c-0.8-0.9-1.7-1.8-2.7-2.5c-0.3-0.3-0.7-0.5-1-0.7s-0.7-0.5-1.1-0.7
	s-0.6-0.3-0.9-0.5s-0.4-0.2-0.6-0.3c-9.7-4.8-24.1-3.5-34.7,4.5c-2.1,1-5.3,2.7-9.2,4.9c-6.6,3.6-15.3,8.6-24.2,13.9
	c-9.8,5.7-20,11.8-28.4,16.8l-0.8,0.5l-5.5,3.3c-5.8,3.5-10.1,6-11.6,7L337.7,243.9L337.7,243.9z"/>
<path d="M296.7,151.8c-4.3-7.6-17.9-20.1-35.3-8S192.6,195,185.5,209c-10.3,20.3,12,60.8,47.4,52.9c22.8-5.1,50.3-56.4,60.2-73.8
	S302.1,161.5,296.7,151.8z"/>
<path class="st3" d="M234.8,212c12.3,12.9,14.4,30.9,4.6,40.3c-9.8,9.4-27.8,6.6-40.1-6.3s-14.4-30.9-4.6-40.3
	S222.4,199.2,234.8,212z"/>
<path class="st4" d="M193.8,243.1c-7.2-11.8-7.3-29.5,0.8-37.3c9.8-9.4,27.8-6.6,40.1,6.3c5.6,5.7,9.3,12.9,10.5,20.8
	C227.2,248.4,209.4,256.2,193.8,243.1z"/>
<path class="st2" d="M275.9,218.2l-20.2,3.8h-0.1l12,6.8c1.3-1.3,3.4-1.2,4.7,0.1c1,1,1.2,2.5,0.6,3.8c-0.9,1.5-2.9,2.1-4.4,1.2
	c0,0,0,0,0,0c-1.2-0.7-1.9-2.1-1.6-3.4l-11.8-6.7l7.1,19c0,0,10.6-4.5,18-0.3l4.9-8.7C277.6,229.5,275.9,218.2,275.9,218.2z"/>
<path class="st4" d="M397.2,302.1c-2.6,4.5-8.4,6-12.9,3.4l-6.1-3.4l9.1-16.2l6.1,3.4C398,291.8,399.6,297.5,397.2,302.1z"/>
<path class="st5" d="M378.2,302.1l-74.3-41.7c-1.5-0.8-2-2.6-1.2-4.1c0,0,0,0,0,0l-22.4-12.6c-0.7-0.4-0.9-1.2-0.6-1.9c0,0,0,0,0,0
	l4.9-8.7c0.4-0.7,1.2-0.9,1.9-0.5c0,0,0,0,0,0l22.3,12.6c0.8-1.4,2.6-2,4.1-1.1c0,0,0,0,0.1,0l74.3,41.7L378.2,302.1z"/>
<path class="st4" d="M313.5,259.8c0,0,1.4-4,2.4-6.5s2.4-3.9,7-5s12.2-6.4,16.5-4.7s18.2,7.7,14.8,19.9s-20.5,23.5-20.8,15.4
	c0,0-6.3,5-8.3-2.6c0,0-8.7,2.1-7.5-5.4C317.7,270.9,305.8,272.6,313.5,259.8z"/>
<path class="st6" d="M317.7,270.9c0.5-1.6,1.3-3.2,2.2-4.6c0.9-1.5,1.9-2.8,3.2-4.1c-0.5,1.6-1.3,3.2-2.2,4.6
	C319.9,268.3,318.9,269.7,317.7,270.9z"/>
<path class="st6" d="M325.2,276.3c1-2.1,2.1-4.1,3.3-6c1.2-1.9,2.5-3.8,3.9-5.6c-0.3,1.1-0.7,2.2-1.3,3.2c-0.5,1-1.1,2-1.7,3
	C328.2,272.9,326.8,274.7,325.2,276.3z"/>
<path class="st6" d="M333.5,279c1-1.3,2-2.4,3-3.6c0.5-0.6,1-1.2,1.5-1.8s1-1.2,1.5-1.8c-0.3,1.6-1.1,3.1-2.2,4.3
	c-0.5,0.6-1.1,1.2-1.8,1.7C334.9,278.3,334.2,278.7,333.5,279z"/>
<path d="M357.1,250.3c0.3,1.2,0.7,2.7,1,4.2c0.2,1,0.3,2.1,0.3,3.1c2.8-0.5,5.6-0.9,8.5-1.1c-0.3-2.4-1.3-7.9-3.1-10
	c-0.3-0.4-0.8-0.5-1.3-0.3l-3.9,1.5C357.4,248.1,356.8,249.2,357.1,250.3z"/>
<path class="st2" d="M361.6,246.4l-3,1.2c-1.8,0.7-3.8-0.1-4.5-1.8l-1.4-3.2c-0.7-1.8,0.1-3.8,1.8-4.5l3-1.2
	c1.8-0.7,3.8,0.1,4.5,1.8l1.4,3.2C364.1,243.6,363.3,245.7,361.6,246.4z"/>
<path d="M361,246.5l-2.8,1.2c-1.8,0.7-3.8-0.1-4.5-1.8l-1.2-3c-0.7-1.8,0.1-3.8,1.8-4.5l2.8-1.2c1.8-0.7,3.8,0.1,4.5,1.8l1.2,3
	C363.6,243.7,362.8,245.7,361,246.5z"/>
<path d="M350.1,236.4c0.6,0.9,0.9,2.2,1.1,2.4c1,0,2-0.3,2.9-0.7c1-0.3,1.9-0.7,2.8-1.2c0.5-0.2,1-0.6,1.4-1c0.6-0.8-1.1-2.7-2-3.4
	L350.1,236.4z"/>
<path class="st4" d="M138.2,141.4c0,0,6.1,10.9,16.4,9.6c1-0.1,2-0.2,3-0.1c3.3,0.4,6.5,1.7,9.1,3.8c1.9,1.4,3.5,3.1,4.9,5l0,0
	c7.6,16.3,17.2,71.9,18.6,76.5c8,26.8,43.5,11.3,37.5-10.2c-2-7.2-35.3-66.2-37.5-70c-0.7-2.8-1.6-5.5-2.6-8.2
	c-1.2-3.4-2.9-6.6-4.8-9.6c-2.8-4.2-6.4-7.1-10.6-6.2c-0.6,0.1-4.9,0.4-7.6-2c-0.9-0.8-2.3-4-3.6-8.5c-1.1-3.7-3.1-7-6.9-6.8
	c-5.4,0.3-12,0.7-13.2,1.3c-2.2,1,1.5,19.2,1.6,19.8c-0.2-0.7-6.7-19.6-11.8-25.3c-1.3-1.5-2.9,0.3-3.2,2.3
	C125.8,121.8,138.2,141.4,138.2,141.4z"/>
<path class="st6" d="M157.7,133.3L153,115C153,121.9,157.7,133.3,157.7,133.3z"/>
<path class="st6" d="M150,136.9l-3.3-21.8C146,121.9,150,136.9,150,136.9z"/>
<path class="st6" d="M221.9,215l1.4-0.7c-3.1-6.1-7.2-13.7-7.2-13.8l-1.4,0.8C214.8,201.3,218.9,208.9,221.9,215z"/>
<path class="st7" d="M278.2,415.2c0,0-14.2-10.7-40.2-12.1"/>
<path class="st7" d="M276.6,421c0,0-12.8-6.8-38.8-5.7"/>
<path class="st7" d="M274.8,427.5c0,0-14.2-1.4-22.4,1.4"/>
<path class="st7" d="M319.3,414.5c0,0,14.2-10.7,40.2-12.1"/>
<path class="st7" d="M320.9,420.3c0,0,12.8-6.7,38.8-5.7"/>
<path class="st7" d="M322.7,426.7c0,0,14.2-1.4,22.4,1.4"/>
<path class="st8" d="M275.8,177.6c-1.1,0.4-19.9,37.4-19.9,37.4"/>
<line class="st8" x1="378.8" y1="213.5" x2="351" y2="194.2"/>
<path class="st9" d="M333.8,477.6c0,0-23.1-1.4-31.7-22.1"/>
<path d="M234.7,656.3c1-7.2,3.6-13.7,7.1-22.6c4.5-11.5,2.5-33.7,1.4-40.6c-0.4-2.7-0.1-5.5,0.9-8.1c1.3,1.3,2.7,2.4,4.4,3.2
	c8.9,4.3,17.3-0.6,25.8-3.2c3.9-1.2,8.4-1.3,11.6,1.4l-0.6-0.3c4.4,3.3,4.5,8.3,3.9,13.6c0,0-1.9,17.2-1.1,21.6s6,23.2,8.3,26.5
	c1,1.9,1.6,3.9,1.8,6c0.5,3.7,0.5,7.3,0.1,11c-0.6,4.7-11.5,12.4-30.9,12.9s-33-4.9-33-15.1C234.2,660.5,234.4,658.4,234.7,656.3z"
	/>
<g>
	<defs>
		<path id="SVGID_1_" d="M234.7,656.3c1-7.2,3.6-13.7,7.1-22.6c4.5-11.5,2.5-33.7,1.4-40.6c-0.4-2.7-0.1-5.5,0.9-8.1
			c1.3,1.3,2.7,2.4,4.4,3.2c8.9,4.3,17.3-0.6,25.8-3.2c3.9-1.2,8.4-1.3,11.6,1.4l-0.6-0.3c4.4,3.3,4.5,8.3,3.9,13.6
			c0,0-1.9,17.2-1.1,21.6s6,23.2,8.3,26.5c1,1.9,1.6,3.9,1.8,6c0.5,3.7,0.5,7.3,0.1,11c-0.6,4.7-11.5,12.4-30.9,12.9
			s-33-4.9-33-15.1C234.2,660.5,234.4,658.4,234.7,656.3z"/>
	</defs>
	<clipPath id="SVGID_2_">
		<use xlink:href="#SVGID_1_"  style="overflow:visible;"/>
	</clipPath>
	<g class="st10">
		<path class="st3" d="M225,641.5c3.7-2.6,7.8,0.1,10.5,2.9c2.7,2.9,5,6.2,6.6,9.8c3.4,7.4,3.9,16.3-0.2,23.5
			c-0.6,1.2,1.2,2.3,1.8,1.1c3.3-6.4,4.1-13.8,2-20.7c-1-3.5-2.5-6.8-4.5-9.8c-1.9-3-4.3-5.7-7.1-7.9c-3-2.1-7-2.9-10.2-0.8
			C222.9,640.4,223.9,642.2,225,641.5L225,641.5z"/>
		<path class="st3" d="M300,641.2c-6.8,2.2-12.5,6.9-16,13.1c-3.9,7-5.3,15-4,22.9c0.7,4.6,2.2,9,4.4,13c0.6,1.2,2.5,0.1,1.8-1.1
			c-7.1-12.8-6.2-30,4.8-40.4c2.7-2.6,5.9-4.5,9.5-5.6C301.9,642.8,301.3,640.7,300,641.2L300,641.2z"/>
	</g>
</g>
<path class="st2" d="M265,677.5c-18.8,0-30.4-5.7-30.4-14.8c0-2,0.1-4,0.4-5.9c11.6,5.8,22.8,8.8,33.2,8.8l0,0
	c14.4,0,23.9-5.8,27.2-9.3c0.7-0.8,1.5-1.4,2.5-1.9c0.4,3.5,0.4,7,0,10.5c-0.5,4-10.3,12.1-30.6,12.6L265,677.5L265,677.5z"/>
<path d="M297.5,655c0.3,3.3,0.3,6.6,0,9.9c-0.5,4.2-11.1,11.8-30.3,12.3H265c-18.5,0-30.1-5.5-30.1-14.4c0-1.8,0.1-3.6,0.3-5.4
	c11.5,5.7,22.6,8.6,32.9,8.6c14.5,0,24.1-5.9,27.4-9.4C296.1,655.9,296.8,655.4,297.5,655 M298.1,653.9c-1.2,0.5-2.2,1.2-3,2.2
	c-3,3.1-12.2,9.2-26.9,9.2c-9.1,0-20.3-2.3-33.5-8.9c-0.3,2.1-0.4,4.3-0.4,6.4c0,9.8,12.5,15.1,30.8,15.1h2.2
	c19.5-0.4,30.3-8.2,30.9-12.9C298.5,661.4,298.5,657.7,298.1,653.9L298.1,653.9z"/>
<path d="M216.9,529.8c1.2-6.2-0.8-12.5-5.2-17c-7.4-7.4-1.8-12.8-1-15.6c1.1-3.4,1.1-7,0-10.4c0,0-36.2,0.6-48.5,3v109.1
	c0,0,8.4,2.2,12.3-7.7s13.1-52.5,21.3-59.1S216.9,529.8,216.9,529.8z"/>
<path class="st3" d="M168.1,508.5l0.2,1.2c16.3-2.2,21.6-22,21.6-22.2l-1.2-0.3C188.7,487.4,183.6,506.4,168.1,508.5z"/>
<path class="st2" d="M164.2,598.7c-0.6,0-1.1,0-1.7-0.1V490.1c1.8-0.3,4-0.6,7-0.9v108.1C168,598.2,166.2,598.7,164.2,598.7
	L164.2,598.7z"/>
<path d="M169.2,489.5V597c-1.5,0.9-3.2,1.4-4.9,1.4c-0.4,0-0.9,0-1.3-0.1V490.3C164.6,490.1,166.6,489.8,169.2,489.5 M169.9,488.7
	c-3,0.3-5.6,0.6-7.6,1v109.1c0.7,0.1,1.3,0.2,2,0.2c2,0,4-0.6,5.6-1.7L169.9,488.7L169.9,488.7z"/>
<path class="st4" d="M333.5,135.6c0.8,3.9,0.7,8-0.2,11.9c-1.4,5.3-3.9,44.8-12.5,52s-15.7-46.4-14.2-52
	C312.1,126.7,331.7,132.5,333.5,135.6z"/>
<path d="M333.5,134.9c0.6,0.6,7.8,6,8.5,7.5c0,0-4.3,1.8-6.8,8.2s-5-1.1-5-1.1s2.8-11.4,2.6-12.4S332.8,134.2,333.5,134.9z"/>
<path d="M315,134.6c-0.6,0.6-7.8,5.3-8.5,6.8c0,0,4.3,1.8,6.8,8.2s3.9,0,3.9,0s-1.8-12.4-1.6-13.5S315.7,133.9,315,134.6z"/>
<path d="M302.2,142.4c0.4,0,8.5-1.1,10.3,2.8s5.7,2.8,3.6,6.7s-8.2,11.1-7.5,23.5s-18.1-7.5-18.1-15.3s4.6-14.9,4.6-14.9l2.1-2.8
	H302.2L302.2,142.4z"/>
<ellipse transform="matrix(0.1719 -0.9851 0.9851 0.1719 158.9935 434.066)" class="st11" cx="337.7" cy="122.5" rx="2.9" ry="2"/>
<ellipse transform="matrix(0.9756 -0.2197 0.2197 0.9756 -19.0139 71.4349)" class="st11" cx="311.7" cy="121.2" rx="2" ry="2.9"/>
<path class="st3" d="M318.5,137.8c-1-1.2-1.9-5.5-3.1-6l0.2-3.6c6.2-1.5,12.3-3.3,18.3-5.6l-0.8,12.4c-0.9,0.6-2.5,4.2-4.4,5.4
	C325.7,142.4,321.9,141.5,318.5,137.8z"/>
<path class="st2" d="M312.4,127.6c0.2,1.5,1,2.8,2.1,3.7l5.2,4.7c0.8,0.7,1.8,1.2,2.9,1.2l2,0.1c1.1,0.1,2.1-0.2,3-0.8l6-4
	c1.3-0.8,2.2-2,2.7-3.5c0.3-1.4,0.8-4.5,1.1-6.6c0.2-1.2,0.3-2,0.3-2l0,0c0.7-2.5,0.2-5.9,0.2-8.7c0-7.8-8.7-11.6-16.5-9.5
	c-7.3,2-9.5,5.6-8.9,13c0.1,1.1,0,3.3-0.1,5.6C312.3,123.3,312.3,126,312.4,127.6z"/>
<path d="M333.9,106.5c-1.5,0.4-3,0.6-4.5,0.7c-1.7,0.2-3.2,0.8-4.6,0.7c-1.6-0.1-3.1-0.4-4.6-0.9c-2.5-0.7-4-1.7-4.3-1.7
	c-0.8,0-1.7,4.8-2,6.9s-1.1,1.7-1.4,3.6c-0.3,2.2,0.2,5-0.7,4.5s-1.5-2.4-1.9-4.4c-0.5-1.4-0.8-3-0.9-4.5c0.1-1.5,1.3-3,1.5-4.4
	c0.3-1.8,0-3.6,0.5-4.5s2-1.7,3.4-2.7c1.1-0.8,2.1-2.1,3.2-2.9c1.5-1,3.3-1.4,3.8-2.2c0.7-1.2,2.1-2.1,3.5-2.2
	c1.5,0.1,2.9,0.5,4.1,1.3c0.8,0.4,1.9,1.6,3.4,2.6c1.2,0.7,2.6,1.2,3.7,2c1.1,0.8,2.1,1.8,2.8,3c0.8,1.2,1,3.1,1.2,5.2
	c0.2,2.3,1.3,4.5,1.2,5.6c-0.2,2.1-1.5,4.1-2.1,7.2c-0.6,3.1-1.6,1.3-1.8,0.2c0.1-1.1,0-2.3,0-3.4c-0.5-3.7-1.6-6.1-1.7-7.3
	C335.3,107.1,336.4,105.2,333.9,106.5z"/>
<path class="st11" d="M312.4,129.1c0.2,1.5,0.9,2.9,2,3.9c2.7,2.2,2.7,2.2,5.5,4.4c0.8,0.8,1.8,1.2,2.8,1.3c1,0.1,1,0.3,2,0.4
	c1.1,0,2.2-0.4,3.1-1c3-2,2.9-2.2,5.9-4.1c1.3-0.7,2.2-1.9,2.6-3.4c0.3-1.4,0.7-4.5,1-6.6c-0.5-0.2-0.9,0-1.2,1.4
	c-0.3,1.1-0.8,2.2-1.3,3.2c-0.3,0.8-0.7,1.5-1.2,2.1c-1.2,1.6-2.7,2.9-4.5,3.9c-1.7,0.9-3.6,1.3-5.5,1.1c-2.3-0.2-4.5-0.9-5.5-1.7
	c-0.9-0.9-1.7-2-2.3-3.1c-0.8-1-1.3-2.2-1.5-3.4h-0.1c-0.1-0.3,0.1-0.7,0.1-1.1l0,0c0-0.2-0.1-0.3-0.1-0.5s-0.3-0.5-0.4-0.8
	c-0.2-1.1-0.7-2-1.4-2.8C312.3,124.8,312.2,127.5,312.4,129.1z"/>
<path class="st12" d="M313.7,126.7c0,0.4,0.1,0.9,0.2,1.3c0-0.2,0-0.3,0-0.5C313.8,127.2,313.7,126.9,313.7,126.7z"/>
<path class="st13" d="M183.7,141.7c5.3,1.1,5,6.4,5,6.4s-0.3,11.3-18.6,8.5c-1.2-0.1-2.3-0.6-3.3-1.2c-0.8-0.6-1.3-1.5-1.4-2.5"/>
<path class="st14" d="M184.4,143.5c5.3,1.1,5,6.4,5,6.4s-0.3,11.3-18.6,8.5c-1.6-0.2-3.1-0.7-4.5-1.4c-2.1-1.4-2.2-4.6-2.5-4.6"/>
<path class="st15" d="M184.7,145.6c5.3,1.1,5,6.4,5,6.4s-0.8,10.3-18.5,7.8c-0.4-0.1-4.6-0.4-6.8-2.9c-1.7-2-2.1-5.3-2.5-5.3"/>
<path class="st16" d="M185.1,146.7c5.3,1.1,5,6.4,5,6.4s-0.8,10.3-18.5,7.8c-0.5-0.1-4.6-0.4-6.8-2.8c-1.7-2-2.1-5.3-2.5-5.3"/>
<path class="st4" d="M177.3,148.1c2.5,3.2,9.3,1.1,10.2-0.3c-1.2-3.4-2.9-6.6-4.8-9.6c-1.8,0.1-5.5,0.5-5.8,1
	C176.6,139.9,174.8,144.9,177.3,148.1z"/>
<path class="st4" d="M157.5,150.8c1.8,0.2,3.5,0.7,5.1,1.5c1.6,0.5,3.2,1.2,4.6,2.1c0.7,0,0.6,0,1.1-0.4c2.5-1.8-0.4-7.5-0.4-7.5
	s-6.8-2.1-7.5-2.1s-2.1,1.8-2.5,2.9S157.1,149.4,157.5,150.8z"/>
<path class="st16" d="M313.1,156.1c0.5,4.1,3.7,7.4,7.7,8.2c7.1,1.4,11.7-6.1,11.7-6.1"/>
<path d="M321.6,164.7l1.6-0.3c0.4-0.1,0.8,0.2,0.9,0.6l0.3,1.6c0.1,0.4-0.2,0.8-0.6,0.9l-1.6,0.3c-0.4,0.1-0.8-0.2-0.9-0.6l-0.3-1.6
	C320.9,165.2,321.2,164.8,321.6,164.7z"/>
<polygon class="st2" points="322.7,164.8 323,165.8 323.9,165.8 323.2,166.3 323.5,167.2 322.7,166.7 321.9,167.2 322.2,166.3 
	321.4,165.8 322.4,165.8 "/>
<circle class="st17" cx="322.4" cy="164.4" r="0.5"/>
<path class="st18" d="M556.4,190.9c0.1,1.9,2,7.6,6.4,9.8c1.6,0.9,2.6,2.6,2.3,4.5c-0.9,6.8-2.5,19.4-3.4,26.4
	c-0.4,2.3,1.3,4.5,3.6,4.9c0.2,0,0.4,0,0.5,0h4.4c2.2,0,4-1.7,4.2-3.9c0.4-4.2,1.8-10.2,6.7-9.9s5.9,5.7,6.1,9.6
	c0.1,1,0.4,1.9,1.1,2.6c0.8,0.9,1.9,1.4,3.1,1.5h4.7c2.4,0,4.3-2,4.2-4.4c0-0.2,0-0.5-0.1-0.7l-3-18.2c0-0.1,0-0.2,0-0.4
	c-0.1-1.5,0.5-3,1.7-3.9c2.5-1.9,4.4-4.4,5.4-7.4c1.6-3.7,0.2-8.1-3.3-10.2c-1.9-1.3-3.9-2.4-6.1-3.2c-1.2-0.4-2.2-1.3-2.7-2.5
	c-1.3-3.3-4.2-8.5-9.4-9.6c-6.6-1.4-7.9,0.4-12.9-4.9s-5.7-7.3-6-11.4s0.9-9.4,6.7-14c3.3-2.4,7.5-3,8-3.4s1.2-3.1-0.4-3.4
	s-14.5,3.1-19.1,9.6s-10.3,19.3,0.9,33c2.3,2.8,6.3,7.3,6.5,9.9s0.1,4-0.6,4.2s-4.2-0.6-6.2-4.3s-0.7-5.4-1.6-5.7
	S556.3,188.6,556.4,190.9z"/>
<path d="M117.5,80.4c0-5.3,3.6-9.7,8-9.7c-4.4,0-8-4.3-8-9.7c0,5.3-3.6,9.7-8,9.7C113.9,70.7,117.5,75.1,117.5,80.4z"/>
<path class="st19" d="M121.4,82.2c-0.1-0.9,0.6-1.7,1.4-1.8c-0.9-0.1-1.5-0.9-1.4-1.8c0.1,0.9-0.6,1.7-1.4,1.8
	C120.8,80.5,121.5,81.3,121.4,82.2z"/>
<path class="st18" d="M511.6,194.1c-0.9-1.5-1.7-2.8-2.5-4.1c-3.8-6.1-7.2-12.3-8.6-19.5c-1.2-6.3-1.5-12.8-0.9-19.2
	c0.2-3,0.6-5.9,1.3-8.8c1.7-7.8,4.9-14.8,11.9-19.4c0.1-0.1,0.1-0.1,0.2-0.2c-1.2-2.8-2.7-5.4-3.6-8.2c-2.9-7.9-1.9-16.7,2.5-23.8
	c6.6-11.2,21.2-11.4,28.6-0.7c3.7,5.3,4.2,11.1,2.9,17.2c-0.7,3.5-2.9,6.2-5.5,8.4c-2.9,2.3-6.2,4.2-9.6,5.5c-2.3,1-4.6,2.1-6.8,3.1
	c-0.6,0.3-1.2,0.7-1.8,1.1c8.8,9.8,13.8,20.9,13.4,34.2c-0.4,13-3.7,24.7-13,34.5c2.8,0.3,5.3,0.5,7.8,0.8c1.3,0.3,2.5,0.6,3.8,1
	c1.5,0.4,2.5,1.2,2.2,3c0,0.3,0,0.6,0.1,0.8c2-0.1,2.5,1.1,2.7,2.8c0.5,6.3,1.1,12.5,1.7,18.8c0.3,3.1,0.5,6.2,0.8,9.3
	c0.1,0.8,0.2,1.6-0.8,2c-0.3,0.1-0.5,0.9-0.5,1.4c0,1.2-0.3,1.7-1.6,1.7c-13.7,0-27.3,0-40.9,0c-1.2,0-1.5-0.6-1.8-1.6
	c-0.2-0.5-0.6-1.3-1-1.4c-1.1-0.3-1.2-0.9-1.1-1.9c1-9.3,2-18.7,3-28.1c0-1.2,0.8-2.3,1.9-2.6c0.9-0.2,1.3-0.6,1.2-1.6
	c-0.2-1.6,0.8-2.4,2.2-2.9c3.4-1.2,7-1.4,10.6-1.5L511.6,194.1z M511.6,187.4l0.4-0.3c-0.3-0.4-0.6-0.7-1-1.1
	c-2.2-1.7-3.6-4.1-4-6.9c-0.7-3.6-0.9-7.2-0.5-10.8c0.6-5.1,0.9-10.2,1.4-15.3c-0.3,4.2-0.4,8.4-0.3,12.7c0.1,4.5,0.1,9,0.5,13.4
	c0.2,3.4,2.6,6.3,5.9,7.1c3.4,0.6,6.8-1,8.4-4c0.9-1.4,1.5-2.9,2-4.5c2.1-7.3,2-14.7,1.7-22.2c-0.2-5.4-1.3-10.8-3.2-15.9
	c-1.6-4.2-3.8-8.2-6.5-11.7c1.5-2.7,4.4-3.7,6.9-5.3c-3.4,0.9-6.5,3-8.7,5.8c-4.8,6.4-7.9,13.9-8.9,21.8c-0.8,5.4-1.4,10.9-1.7,16.4
	c-0.3,4.8-0.2,9.6,1.6,14.1C506.7,183.7,508.8,186,511.6,187.4L511.6,187.4z M512.7,109.9c0.1,4,0.9,7.3,2.8,10.1
	c0.4,0.7,1.2,1,2,0.7c0,0,0,0,0,0c2.5-0.9,5.1-1.4,7.6-2.5c2.9-1.1,5.8-2.5,8.4-4.2c6.9-4.6,7.2-15.4,0.2-21
	c-4.4-3.5-8.9-3.5-13.3,0C515,97.5,513.5,103.8,512.7,109.9z M506.5,133.7c-0.4,0.4-0.8,0.8-1.1,1.3c-1.5,3.1-2.5,6.4-2.8,9.8
	c-0.5,5.5-1,11.1-1.7,16.6c-0.5,4.1-0.2,8.2,0.9,12.2c0.2,0.8,0.5,1.6,0.8,2.4C501.3,161.7,502.6,147.4,506.5,133.7z M531.6,85.7
	c5.3,2.9,8,7.7,9.6,13.1c1.8,5.4,0.5,11.4-3.4,15.7c4.6-3.7,6.4-11.6,4.3-18.2C540.5,90.8,536.5,87.7,531.6,85.7L531.6,85.7z
	 M527.6,177.3c4.7-3.3,4.9-28.7,0.4-35.4c0.1,0.5,0.1,0.7,0.2,0.9c1.2,4.1,1.9,8.4,1.8,12.7c-0.1,4.1,0.7,8.2-0.4,12.3
	c-0.5,1.9-0.6,3.9-0.9,5.8C528.4,174.8,528,176,527.6,177.3z M519.3,197.4c0.1,0.6,0.1,1.3,0.2,1.9c-0.1,0.8,0.3,1.1,1,1.1
	c2.6-0.1,5.2-0.2,7.8-0.3c0.8,0,1.3-0.3,1.3-1.2s-0.3-1.4-1.2-1.4C525.4,197.4,522.4,197.4,519.3,197.4z M511.2,111h-0.2
	c0.3-3.4,0.7-6.8,1-10.1c-3.7,3.3-2.4,15.6,2.6,19.7c-3-5.9-3-11.7-2-17.6h-0.4L511.2,111z M519.9,188.7c-0.1,0.5,0,1.3-0.2,1.4
	c-1.4,0.4-1.2,1.9-1.9,2.8c-0.2,0.3,0.1,1,0.4,1.4c0.1,0.1,1,0.1,1.2-0.2c1.3-1.6,2.5-3.1,3.6-4.8c0.2-0.3,0.4-1.1,0.2-1.3
	c-0.4-0.4-1-0.7-1.5-0.6c-1,0.3-2,0.7-2.9,1.2c-0.1,0-0.1,0.2-0.3,0.5L519.9,188.7z M541.2,101.8c-0.8,3.1-1.9,6.8-2.8,10.3
	C540.7,110.5,541.9,106.1,541.2,101.8L541.2,101.8z M530.5,88c-2.1-1.2-6.1-1.1-7.5,0.4L530.5,88z M520.2,196l-0.1,0.4l3,0.5
	l0.1-0.6L520.2,196z M508.9,108.5h0.2c0.1-2,0.2-4,0.3-5.9h-0.3C509.1,104.5,509,106.5,508.9,108.5L508.9,108.5z"/>
<path class="st11" d="M480.9,235.8H729c26,0,47.1,21.1,47.1,47.1v347.9c0,26-21.1,47.1-47.1,47.1H480.9c-26,0-47.1-21.1-47.1-47.1
	V282.8C433.8,256.8,454.9,235.8,480.9,235.8z"/>
<path class="st4" d="M83.2,685.6H73c-8.3-0.1-16.2-4-21.2-10.6c-5.9-7.7-6.5-17.6-6.2-27c0.1-2.3,0.2-4.6,0.3-6.9
	c0.3-9.8-0.1-19.7-0.1-29.5h64.7c-0.5,0,0,34.7,0,37.9c0,6,0.3,12.4-1.8,18.2C104.7,678.3,94.6,685.4,83.2,685.6z"/>
<path class="st19" d="M110,611.8c0,2.5-11.9,3.1-14.1,3.3c-10.7,0.9-21.5,1-32.2,0.3c-4.4-0.2-8.7-0.7-13-1.5
	c-1.3-0.3-4.9-0.8-4.9-2.1c0-1.7,5.9-2.3,7.6-2.6c11.1-1.5,22.3-1.9,33.5-1.3c5.1,0.2,10.4,0.6,15.4,1.3
	C104.2,609.5,110,609.9,110,611.8z"/>
<path class="st5" d="M76.5,614.6l-1.8,0c-0.2,0-0.5-0.1-0.6-0.2c-2.4-1.9-4.7-4.4-7.2-5.6c-5.8-2.7-13-3.2-19.2-4.2
	c-10-1.6-21-4.7-25.8-13.2c-1.6-2.9-2-7.2,0.9-8.9c1.8-1.1,4-0.8,6.1-0.4c3,0.5,5.9,1.2,8.8,2c0.5,0.3,1.1,0.1,1.4-0.4
	c0.3-0.5,0.1-1.1-0.4-1.4c-6.4-5.4-12.1-11.6-16.7-18.6c-1.6-2.3-3-4.9-3.2-7.7s1.4-5.8,4.3-6.5s5.9,1.1,8.2,3
	c0.4,0.3,0.8,0.7,1.2,1c0.4,0.4,1.1,0.4,1.5-0.1c0.3-0.3,0.4-0.8,0.1-1.2c-6.2-11.2-10.5-23.3-12.8-35.9c-1.7-9.7-2.2-19.9,1.7-29
	c0.2-0.4,0.6-0.5,1-0.6c7.1-2.5,8.5,7.1,9.8,12.5l7.7,31.2c0.2,0.6,0.7,0.9,1.3,0.7c0.4-0.1,0.7-0.4,0.8-0.8
	c1.4-7.3,2.8-14.6,4.4-21.8c0.5-2.4,1.2-5,3.5-6.2c2.9-1.5,6.7,0.6,8,3.5s0.8,6.2,0.3,9.3c-1.1,6.7-2.3,13.4-3.4,20.2
	c-0.1,0.6,0.3,1.1,0.8,1.2c0.4,0.1,0.7-0.1,1-0.3l0,0c3-3.2,9.4-3.8,11.6,0c1.1,1.9,0.8,4.3,0.6,6.4c-0.4,3-0.9,6.1-1.3,9.1
	c-0.1,0.6-0.6,1-1.2,0.9c0,0,0,0,0,0c-2.2-0.6-4.4-0.2-6.4,0.9c-4.2,2.7-4,8.6-2.9,13.3c2.2,9.2,7.6,16.9,12,25.1
	c3.9,7.2,4.8,14.5,7,21.7c0.1,0.6-0.2,1.1-0.8,1.3C76.6,614.6,76.6,614.6,76.5,614.6z"/>
<path class="st20" d="M78.2,562.3c0.3,0.6,0.6,1.3,0.9,1.9c0.3-0.4,0.6-0.8,0.9-1.2C79.4,562.6,78.8,562.4,78.2,562.3z"/>
<path d="M83.2,573.5l-3.4,41.3h-0.2l-1.6,0c-2.6-7.6-3.4-15.5-7.5-23.1c-4.4-8.2-9.8-15.9-12-25.1c-1.1-4.7-1.3-10.6,2.9-13.3
	c2.3-1.3,5-1.5,7.4-0.6c-1.1,7.3-2.1,14.6-3.1,21.9c5.2-3,5.7-12.4,11.7-12.2c0.2,0,0.5,0,0.7,0.1c0.3,0.6,0.6,1.3,0.9,1.9
	c0.3-0.4,0.6-0.8,0.9-1.2C82.8,564.9,83.5,569.8,83.2,573.5z"/>
<path class="st5" d="M158.4,534.5c-5.2,4-11.9,5.5-18.2,7.7c-5.9,2.1-11.9,5.4-14.5,10.8c-0.2,0.5,0,1.2,0.5,1.4c0,0,0,0,0.1,0
	c6,2.3,13.9-2.7,19.5,0.7c5.3,3.3,3.4,11.7-1.7,15.3s-11.8,4.2-17.9,5.8c-19.6,5.3-32.9,21.8-44.4,38c-0.2,0.3-0.5,0.4-0.8,0.4l0,0
	c-0.6,0-1-0.4-1.1-0.9c0-0.1,0-0.1,0-0.2l3.3-40.1c0.3-3.4-0.3-7.8-2.6-10c-0.4-0.3-0.4-0.9-0.2-1.3c8.5-14.2-1.2-36,11.3-47.7
	c0.9-1,2.2-1.7,3.5-1.8c2.8-0.2,4.6,2.7,5.7,5.1l7.6,16.3c0.1,0.6,0.5,1,1.1,0.9c0.6-0.1,1-0.5,0.9-1.1l0,0
	c3.7-14.8,7.9-29.9,17.1-42.3c2.5-3.3,5.4-6.6,9.5-8s9.3-0.4,11.3,3.1s0.4,7.9-1.3,11.6c-2.6,5.7-5.2,11.5-7.8,17.2
	c-0.3,0.5-0.2,1.1,0.3,1.4c0.3,0.2,0.7,0.2,1.1,0c7.6-3.2,17.2-5.2,21.9,0.9C166.5,522.9,163.6,530.5,158.4,534.5z"/>
</svg>
