<?xml version="1.0" encoding="UTF-8"?>
<svg id="Layer_1" data-name="Layer 1" xmlns="http://www.w3.org/2000/svg" viewBox="0 0 871 767">
  <defs>
    <style>
      .cls-1 {
        stroke-width: .28px;
      }

      .cls-1, .cls-2, .cls-3, .cls-4, .cls-5, .cls-6 {
        fill: #fff;
      }

      .cls-1, .cls-7, .cls-8 {
        stroke: #000;
      }

      .cls-1, .cls-9 {
        stroke-linecap: round;
        stroke-linejoin: round;
      }

      .cls-10 {
        opacity: .11;
      }

      .cls-11 {
        opacity: .14;
      }

      .cls-12 {
        fill: #b1b1b1;
      }

      .cls-2 {
        opacity: .63;
      }

      .cls-13 {
        opacity: .53;
      }

      .cls-7, .cls-14, .cls-8 {
        stroke-miterlimit: 10;
      }

      .cls-7, .cls-14, .cls-8, .cls-9 {
        fill: none;
      }

      .cls-7, .cls-8, .cls-9 {
        stroke-width: .42px;
      }

      .cls-15 {
        fill: #bfbfbf;
      }

      .cls-4 {
        opacity: .1;
      }

      .cls-14 {
        stroke: #fff;
        stroke-width: .67px;
      }

      .cls-16 {
        fill: #0e0e0e;
      }

      .cls-17 {
        fill: #dfdfdf;
      }

      .cls-5 {
        opacity: .32;
      }

      .cls-18 {
        fill: #ebebeb;
      }

      .cls-8 {
        stroke-dasharray: 1.7 1.7;
      }

      .cls-6, .cls-19 {
        opacity: .21;
      }

      .cls-20, .cls-19 {
        fill-rule: evenodd;
      }

      .cls-9 {
        stroke: #0e0e0e;
      }
    </style>
  </defs>
  <g>
    <path class="cls-18" d="M226.9,646.76c-14-19.34-22.32-44.17-16.67-67.37,6.49-26.64,29.35-45.66,51.29-62.11,85.64-64.22,177.72-119.85,274.41-165.78,29.51-14.01,65.83-26.77,93.1-8.79,16.73,11.02,25.27,31.51,26.72,51.49,1.45,19.98-3.21,39.85-7.83,59.34-12.18,51.33-24.35,102.67-36.53,154-6.26,26.4-13.53,54.54-33.83,72.54-19.41,17.21-46.77,21.55-72.58,24.14-54.45,5.46-109.36,6.34-163.97,2.64-21.46-1.45-45.93-.1-64.26-12.01-18.18-11.82-37.16-30.56-49.85-48.08Z"/>
    <g class="cls-11">
      <path d="M636.02,386.13c29.26,0,49.43,7.59,61.67,23.21,5.87,7.49,9.56,16.65,10.96,27.24,1.27,9.54.57,19.9-2.02,29.98-5.02,19.56-15.82,36.94-26.27,53.74l-83.58,134.4c-7.42,11.94-14.81,23.49-23.57,33.66-9.99,11.6-20.3,19.56-31.52,24.32-9.48,4.03-20.01,5.99-32.18,5.99-14.99,0-30.12-2.97-44.24-6.18-53.18-12.09-105.77-28.78-156.29-49.61-3.55-1.46-7.29-2.9-10.92-4.29-17.21-6.61-35-13.45-46.15-27.49-12.99-16.37-25.24-39.89-31.97-61.4-3.71-11.85-5.31-24.13-4.64-35.52.75-12.68,4.19-23.98,10.24-33.57,6.62-10.49,16.39-19.24,29.87-26.73,12.1-6.72,25.63-11.58,38.44-15.82,101.47-33.63,206.73-57.16,312.85-69.95,11.13-1.34,20.71-1.99,29.3-1.99h0M636.02,386.03c-9.88,0-19.86.85-29.31,1.99-106.27,12.81-211.26,36.28-312.87,69.96-26.03,8.62-53.75,19.4-68.37,42.59-12.73,20.2-12.74,46.39-5.61,69.18,6.46,20.64,18.5,44.44,31.98,61.43,13.59,17.12,37.22,23.61,57.1,31.81,50.59,20.86,102.94,37.48,156.3,49.61,14.43,3.28,29.53,6.18,44.26,6.18,11.09,0,21.97-1.64,32.22-6,24.97-10.61,40.81-34.98,55.14-58.02l83.58-134.4c10.58-17.01,21.31-34.37,26.29-53.77,4.98-19.41,3.39-41.54-8.97-57.31-14.27-18.21-37.75-23.25-61.75-23.25h0Z"/>
    </g>
    <g>
      <path d="M453.52,375.75s-80.13,2.59-118.63,40.99c-10.79,10.76-71.27,104.16-71.27,104.16,0,0-32.74,31.48-15.17,67.97,31.9,66.26,108.44-60.94,108.44-60.94l73.91,146.19s133.8,39.07,166.95,0l-28.42-132.62s70.88,102.56,102.85,96.64c31.97-5.92,42.94-47.7,31.87-65.82-8.08-13.22-70.15-94.1-112.76-138.52-15.67-16.34-34.78-28.99-55.91-37.12-22.54-8.67-54.46-19.08-81.86-20.95Z"/>
      <path class="cls-4" d="M437.87,578.85l2.64-.36c11.27-1.55,20.46-6.71,27.41-15.66,9.02,6.76,19.24,9.26,30.52,7.72l2.75-.38c11.47-1.57,20.73-6.95,27.65-16.09,7.03-9.25,9.7-19.6,8.12-31.1l-7.73-56.34-25.21,3.46.03.2,7.7,56.15c.68,4.93-.5,9.38-3.46,13.28-2.95,3.99-6.94,6.26-11.83,6.93-4.9.67-9.25-.45-13.17-3.5-4-2.95-6.25-6.93-6.92-11.86l-7.7-56.15-.03-.2-25.19,3.46,7.8,56.85c.55,4.72-.57,8.98-3.54,12.77-2.95,3.99-6.93,6.26-11.82,6.93s-9.25-.45-13.27-3.49c-3.89-2.96-6.23-6.93-6.91-11.86l-7.7-56.15-.03-.2-25.1,3.44,7.73,56.34c1.58,11.5,7.03,20.73,16.18,27.76,9.24,6.93,19.5,9.62,31.07,8.04"/>
      <g>
        <path d="M473.76,320.77c-1.25-5.94-7.66-10.17-13.19-11.66-4.37-1.18-9.3-.76-13.17,1.71-4.11,2.62-6.7,7.68-5.86,12.48.62,3.5,2.92,6.79,2.36,10.3-.56,3.57-4.52,6.21-8.03,5.35-3.51-.85-5.82-5.01-4.68-8.44-3.16,6.8-1.41,15.43,3.82,20.8,5.23,5.37,13.49,7.39,20.75,5.51,7.26-1.88,13.35-7.43,16.39-14.28,2.9-6.56,3.07-14.79,1.6-21.78Z"/>
        <g>
          <path class="cls-3" d="M456.95,430.3c-3.97,0-9.4-2.88-12.77-16.59.57-7.69,1.21-15.63,1.83-23.31l.15-1.87c.51-6.31,1.05-13.02,1.53-19.66-3.39-2.3-5.97-5.18-8.8-8.82l-.44-.57c3.75-17.07,15.91-32.35,31.73-39.85,2.48-1.17,5.29-1.77,8.34-1.77,4.32,0,8.91,1.22,12.94,3.43,6.64,3.64,11.13,10.29,11.73,17.36.74,8.72-4.39,19.67-13.99,22.16,2.32.56,4.1,2.94,4.05,5.49-.04,2.32-1.52,4.65-3.76,5.93-1.42.81-3.16,1.24-5.02,1.24-.7,0-1.41-.06-2.12-.18-2.48-.42-4.61-1.14-6.72-2.28-.82,7.24-1.41,14.5-1.98,21.52-.57,7.02-1.15,14.29-1.92,21.49.18,3.17-2.03,7.85-5.38,11.39-2.99,3.16-6.33,4.91-9.42,4.91h0Z"/>
          <path d="M478.54,317.89c4.31,0,8.9,1.22,12.92,3.42,6.62,3.63,11.11,10.27,11.71,17.33.39,4.59-.81,9.57-3.29,13.68-2.62,4.33-6.41,7.33-10.67,8.44l-.35.09.36.07c2.3.48,4.06,2.83,4.02,5.36-.04,2.31-1.51,4.62-3.74,5.9-1.41.8-3.14,1.23-5,1.23-.7,0-1.41-.06-2.11-.18-2.47-.41-4.6-1.14-6.71-2.28l-.11-.06v.13c-.77,7.2-1.36,14.47-1.93,21.49-.57,7.02-1.15,14.29-1.92,21.5.18,3.15-2.03,7.82-5.37,11.35-2.98,3.15-6.31,4.89-9.39,4.89-3.95,0-9.37-2.87-12.72-16.55.57-7.71,1.21-15.65,1.83-23.34l.15-1.85c.51-6.33,1.05-13.07,1.53-19.66v-.05s-.04-.03-.04-.03c-3.37-2.26-5.94-5.14-8.77-8.77-.07-.09-.15-.19-.22-.28-.06-.08-.13-.17-.19-.25,1.85-8.41,5.75-16.54,11.29-23.5,5.55-6.98,12.6-12.62,20.4-16.32,2.48-1.17,5.28-1.77,8.33-1.77h0M478.54,317.8c-2.91,0-5.77.55-8.36,1.77-15.91,7.54-27.98,22.72-31.75,39.92.15.19.29.38.44.57,2.61,3.36,5.24,6.42,8.79,8.79-.48,6.5-1,13.08-1.53,19.66-.68,8.44-1.36,16.88-1.97,25.2,3.04,12.39,7.95,16.62,12.81,16.62,7.67,0,15.17-10.58,14.84-16.33,1.52-14.41,2.31-28.57,3.83-42.98,2.17,1.17,4.31,1.88,6.74,2.29.7.12,1.41.18,2.13.18,1.76,0,3.52-.38,5.04-1.24,2.14-1.22,3.73-3.51,3.78-5.97.05-2.46-1.67-4.95-4.09-5.45,9.1-2.36,14.82-12.84,14.02-22.2-.62-7.26-5.36-13.89-11.75-17.39-3.88-2.13-8.47-3.43-12.96-3.43h0Z"/>
        </g>
        <path class="cls-17" d="M474.12,363.74s-16.5,35.05-21.23,36.57c-1.74.56-4.27-4.8-6.77-11.8.53-6.59,1.06-13.17,1.53-19.66-3.55-2.38-6.18-5.44-8.79-8.79,4.7,1.96,21.3,8.09,35.25,3.68Z"/>
        <path d="M488.28,360.67c7.83-6.43,10.77-18.16,6.91-27.53-3.86-9.37-14.22-15.61-24.31-14.65l21.69-6.05s29.72,5.33,27.99,26.18c-1.73,20.85-32.28,22.05-32.28,22.05Z"/>
        <g>
          <path class="cls-3" d="M491.9,323.98c-1.26-2.4-4.3-4.27-6.77-5.23-1.25-.49-2.59-.74-3.97-.74s-2.75.25-4.02.76c.16-.28.19-.58.23-.88.03-.29.07-.58.17-.91,1.47-1,3.33-1.56,5.22-1.56,1.43,0,2.84.32,4.07.94,2.84,1.42,4.86,4.46,5.07,7.63Z"/>
          <path d="M482.75,315.46c1.43,0,2.83.32,4.05.93,2.77,1.38,4.75,4.32,5.03,7.39-1.32-2.32-4.28-4.14-6.7-5.08-1.26-.49-2.6-.74-3.98-.74-1.35,0-2.65.24-3.88.7.07-.27.1-.52.12-.77.03-.29.06-.57.16-.88,1.48-1.01,3.32-1.56,5.19-1.56M482.75,315.37c-1.86,0-3.73.54-5.26,1.59-.2.66-.13,1.18-.34,1.84,1.27-.5,2.64-.76,4-.76,1.35,0,2.7.24,3.95.74,2.53.99,5.66,2.95,6.84,5.39-.14-3.28-2.17-6.4-5.11-7.86-1.27-.63-2.68-.94-4.09-.94h0Z"/>
        </g>
        <path d="M496.63,344.92c-1.57-1.4-5.95.51-7.45,1.39-2.16,1.27-3.9,3.41-4.27,5.88-.37,2.48.83,5.22,3.1,6.29-1.93.24-3.96-.43-5.36-1.77-1.41-1.35-2.17-3.34-2.01-5.28-1.92,3.31-1.29,7.9,1.46,10.56,2.75,2.67,7.34,3.17,10.6,1.16,2.87-1.77,4.48-5.12,4.91-8.47.26-2.02.71-8.26-.98-9.76Z"/>
      </g>
    </g>
    <g>
      <polygon class="cls-18" points="499.09 650.77 698.07 686.83 698.07 750.02 499.09 762.31 499.09 650.77"/>
      <rect class="cls-12" x="199.35" y="650.77" width="299.74" height="114.78"/>
    </g>
    <path class="cls-14" d="M381.84,478.2s-18.98,40.82-26.62,52.43"/>
  </g>
  <g>
    <path class="cls-17" d="M702.79,576.56c-13.49-38.52-155.65-118.48-155.65-118.48l-41.72,26.04,45.47,76.21c19.73,33.07,52.61,61.41,89.89,71.06,0,0,89.9,24.84,62.02-54.82Z"/>
    <path class="cls-1" d="M563.94,525.62c12.93-11.89,31.06-23.29,47.86-28.09-9.39-6.74-19.41-11.57-27.79-17.59-15.71,5.9-31.92,15.8-42.29,29.43-4.44,5.84-7.55,12.33-9.81,19.15l12.95,21.71c4.96-9.14,11.34-17.49,19.08-24.6Z"/>
    <g>
      <path class="cls-17" d="M547.04,468.07c2.62-10.42,3.42-21.65-.35-31.67-2.34-6.21-6.3-11.65-10.22-17.01-6.38-8.72-12.37-17.52-18.18-26.63-1.04-1.64-2.56-3.49-4.49-3.15-1.25.23-2.14,1.35-2.65,2.51-.92,2.09-.98,4.46-.73,6.73.55,5.03,2.57,9.89,5.75,13.84,1.31,1.62,2.81,3.1,4,4.81,1.68,2.43,3.39,7.64-.23,9.4-13.27-7.18-40.45-23.72-53.72-30.9-1.55-.84-3.27-1.7-5-1.34-2.49.53-3.8,3.53-3.31,6,.49,2.47,2.26,4.48,4.07,6.24,4.13,4.05,22.7,16.91,27.75,19.77-6.27,1.77-12.79,4.32-16.53,9.61s-3.05,14.02,2.84,16.72c-2.87,3.29-3.75,8.18-2.18,12.23,1.56,4.05,5.49,7.08,9.84,7.6,5.94,7.31,15.15,12.89,24.27,15.46,13.85-5.79,26.04-12.81,39.08-20.23Z"/>
      <g>
        <path class="cls-9" d="M459.81,401.04c1.68,2.98,4.19,5.63,7.42,6.81,3.24,1.17,7.25.58,9.56-1.98.31-.35.6-.78.53-1.24"/>
        <g>
          <path class="cls-9" d="M514.79,392.35c-1.11,2.99-.99,6.4.35,9.28.8,1.73,2.05,3.3,3.74,4.21,1.68.92,3.82,1.11,5.54.26.21-.1.39-.45.17-.5"/>
          <path class="cls-9" d="M476.36,452.8c3.7-5.12,9.07-9.04,15.09-11.03,1.76-.58,3.59-1,5.44-1.03"/>
          <path class="cls-9" d="M484.07,473.28c-1.62-5.53.69-11.76,4.92-15.75,4.23-3.99,10.09-5.95,15.89-6.4"/>
          <path class="cls-9" d="M505.08,471.64c-.67,5.35.47,10.9,3.21,15.55,2.74,4.64,7.04,8.34,12.04,10.34"/>
          <path class="cls-9" d="M509.86,466c-1.63,2.42-3.92,4.49-6.71,5.36s-6.08.38-8.17-1.66"/>
        </g>
      </g>
    </g>
    <rect class="cls-16" x="544.04" y="481.6" width="38.01" height="49.6" rx="14.62" ry="14.62" transform="translate(-193.61 475.83) rotate(-39.66)"/>
  </g>
  <g>
    <path class="cls-17" d="M183.29,467.77l6.65,69.51h67.62l-16.72-45.94-22.29-27.31c5.17-7.75,2.98-18.25-.89-26.73-3.86-8.48-9.28-16.58-10.25-25.84-.51-4.89-.19-10.81-4.27-13.55-.8-.53-1.76-.9-2.71-.74-1.9.32-2.85,2.44-3.37,4.3-1.82,6.63-3.39,12.18-2.21,18.95-4.17-9.85-11.37-18.38-20.37-24.15-.73-7.83-5.77-17.5-10.59-23.73-1.95-2.52-4.78-5.03-7.91-4.42-2.15.42-3.79,2.29-4.56,4.34-.76,2.06-.8,4.3-.84,6.49-2.24-1.56-5.63-.18-6.87,2.25-1.23,2.43-.99,5.32-.71,8.03,1.05,10.13,2.18,20.25,3.41,30.35.95,7.84,2.05,15.95,6.25,22.64,3.69,5.88,9.45,10.11,15.06,14.2,5.19,3.78,10.38,7.55,15.56,11.33Z"/>
    <g>
      <path class="cls-9" d="M146.04,402.88c-.59-2.28,1.2-4.74,3.49-5.28,2.29-.54,4.76.56,6.27,2.36,1.51,1.8,2.18,4.18,2.37,6.52.14,1.78.02,3.59-.34,5.33,4.16,5.84,6.56,13.99,5.93,21.13,12.44,1.47,24.45,8.95,31.03,19.6"/>
      <path class="cls-9" d="M150.32,380.37c2.86-.27,5.23,2.09,7,4.35,3.51,4.47,6.65,9.87,5.88,15.49,4.02,4.82,6.2,11.73,6.46,18,4.26,3.44,6.35,8.4,6.85,13.85"/>
      <path class="cls-9" d="M165.61,374.77c5.78,6.03,8.41,14.93,6.82,23.13,5.82,4.2,8.53,13.14,8.17,20.3,4.33,4.35,6.82,9.33,8.44,15.25"/>
    </g>
  </g>
  <path class="cls-15" d="M463.73,615.26c.1,1.51,1.58,6.06,5.12,7.81,1.29.64,2.03,2.09,1.85,3.57-.68,5.46-1.97,15.51-2.69,21.05-.27,2.08,1.29,3.93,3.31,3.93h3.51c1.72,0,3.15-1.36,3.32-3.14.31-3.34,1.44-8.12,5.34-7.89,3.77.23,4.69,4.56,4.86,7.71.05.81.35,1.55.84,2.12.61.71,1.49,1.16,2.47,1.16l3.71.02c2.07,0,3.65-1.93,3.31-4.05l-2.38-14.53c-.01-.09-.03-.19-.04-.28-.1-1.21.41-2.4,1.38-3.12,1.34-.99,3.16-2.82,4.34-5.89,2.06-5.37-2.63-8.11-2.63-8.11,0,0-2.41-1.78-4.86-2.54-.97-.3-1.76-1.01-2.16-1.98-1.07-2.61-3.37-6.8-7.53-7.65-5.27-1.07-6.3.36-10.3-3.94-4.01-4.29-4.58-5.84-4.81-9.06-.23-3.22.69-7.51,5.38-11.21,2.63-1.91,5.96-2.39,6.41-2.74.46-.36.92-2.5-.34-2.74-1.26-.24-11.57,2.5-15.23,7.63-3.67,5.13-8.25,15.38.69,26.35,1.83,2.27,5.04,5.84,5.15,7.87s.11,3.22-.46,3.34c-.57.12-3.32-.48-4.92-3.46s-.57-4.29-1.26-4.53c-.69-.24-1.49,2.5-1.37,4.29Z"/>
  <path class="cls-17" d="M187.69,514.06s4.99,94.96,46.09,106.73c36.39,10.42,59.7-19.23,53.63-34.96-3.58-9.28-40.34-93.09-55.16-104.81-14.83-11.72-48.44,16.15-44.55,33.05Z"/>
  <g>
    <path class="cls-7" d="M390.34,171.28s.06.28.15.83"/>
    <path class="cls-8" d="M390.74,173.79c2.09,15.98,6.58,105.38-138.31,178.7-137.14,69.4-114.71,179.45-105.62,216.4,3.54,14.41,9.97,27.98,19.04,39.73,18.78,24.31,54.36,51.6,110.31,23.42,89.3-44.98,15.05-115.1-10.67-77.39s18.6,107.22,84.75,80.4c66.15-26.82,122.52-29.46,163.79-5.65,26.32,15.19,33.97,21.06,36.06,23.32"/>
    <path class="cls-7" d="M550.63,653.38c.42.66.04.73.04.73"/>
  </g>
  <path class="cls-3" d="M562.98,511.19l.21-.18c.9-.75,1.43-1.7,1.55-2.86,1.16.1,2.19-.24,3.09-.98l.22-.18c.92-.76,1.44-1.74,1.55-2.91.11-1.19-.22-2.24-.98-3.17l-3.74-4.51-2.02,1.67v.02s3.74,4.5,3.74,4.5c.33.39.47.85.42,1.35-.04.51-.27.93-.66,1.25s-.83.46-1.34.41c-.51-.04-.92-.27-1.25-.66l-3.73-4.5v-.02s-2.03,1.67-2.03,1.67l3.78,4.56c.3.38.44.82.38,1.31-.04.51-.27.93-.66,1.25s-.83.46-1.35.42c-.5-.05-.92-.27-1.25-.66l-3.73-4.5v-.02s-2.02,1.67-2.02,1.67l3.74,4.51c.76.92,1.74,1.43,2.93,1.55,1.19.1,2.23-.22,3.16-.99"/>
  <circle class="cls-6" cx="563.02" cy="503.46" r="13.94"/>
  <path class="cls-3" d="M562.25,501.41c-1.26-1.95-.97-4.38.64-5.42-1.62,1.04-3.95.31-5.21-1.64,1.26,1.95.97,4.38-.64,5.42,1.62-1.04,3.95-.31,5.21,1.64Z"/>
  <path class="cls-5" d="M563.52,495.88c-.27-.42-.21-.95.14-1.18-.35.23-.86.07-1.13-.36.27.42.21.95-.14,1.18.35-.23.86-.07,1.13.36Z"/>
  <g>
    <path class="cls-19" d="M477.78,194.56c-35.57-24.22-57.87-25.51-10.93-37.73-45.22-7.07-42.44-5.79,2.78-44.79-26.15,8.14-51.44,28.93-44.8,1.28-21.43,19.5-19.07,2.35-25.72-26.58-18.43,47.37-12,44.79-35.58,1.28,7.93,56.8-8.36,36.22-46.29,4.29,19.5,28.51,55.73,56.8,15.01,56.37,23.15,15.86,11.36,14.58-16.29,27.87,46.29,6.86,42.87,1.49,18.43,31.29,37.51-11.36,27.65-15.86,16.29,33.22,26.36-24.65,29.79-48.65,36.86-16.5h0c11.36-28.5,10.72-19.93,31.29,6.01-3.21-41.37-3.43-31.5,24.43-10.93-27.43-48.23-21.43-35.37,34.51-25.08Z"/>
    <path class="cls-20" d="M417.65,194.16c-13.72-10.29-13.5-15.01-12,5.36-10.08-12.65-9.65-17.15-15.43-3-3.43-15.85-5.15-3.85-18,8.15,5.57-24.22,10.5-21.86-8.14-16.29,12.01-14.79,13.72-12-9-15.43,13.72-6.43,19.51-5.78,8.14-13.72,19.93.22,2.14-13.72-7.5-27.65,18.65,15.64,26.79,25.72,22.72-2.14,11.79,21.44,8.57,22.72,17.57-.64,3.22,14.15,2.14,22.51,12.65,13.08-3.21,13.5,9.22,3.21,22.08-.64-22.29,19.29-23.58,18.43-1.28,22.07-23.15,6-12.22,6.43,5.36,18.43-27.65-4.93-30.43-11.36-17.15,12.44Z"/>
  </g>
  <g>
    <g>
      <path class="cls-3" d="M387.74,158.83h-3.98l-5.4,15.79h3.23l1.28-3.7h5.65l1.29,3.7h3.48l-5.57-15.79ZM383.79,167.94l1.87-6.14,1.93,6.14h-3.81Z"/>
      <rect class="cls-3" x="394.94" y="162.61" width="3.36" height="12.01"/>
    </g>
    <path class="cls-3" d="M396.92,161.79c0-3.91,2.63-7.08,5.87-7.08-3.24,0-5.87-3.17-5.87-7.08,0,3.91-2.63,7.08-5.87,7.08,3.24,0,5.87,3.17,5.87,7.08Z"/>
  </g>
  <polygon class="cls-13" points="420.48 230.96 421.37 233.69 424.24 233.69 421.92 235.37 422.8 238.1 420.48 236.41 418.16 238.1 419.05 235.37 416.73 233.69 419.6 233.69 420.48 230.96"/>
  <polygon class="cls-10" points="322.91 197.09 326.15 207.07 336.65 207.07 328.16 213.24 331.4 223.23 322.91 217.06 314.41 223.23 317.66 213.24 309.16 207.07 319.66 207.07 322.91 197.09"/>
  <polygon class="cls-10" points="428.61 103.48 429.66 106.72 433.07 106.72 430.31 108.73 431.37 111.97 428.61 109.96 425.85 111.97 426.91 108.73 424.15 106.72 427.56 106.72 428.61 103.48"/>
  <polygon points="477.16 104.31 477.92 106.67 480.4 106.67 478.4 108.13 479.16 110.49 477.16 109.03 475.15 110.49 475.92 108.13 473.91 106.67 476.39 106.67 477.16 104.31"/>
  <polygon points="314.27 86.74 315.04 89.1 317.51 89.1 315.51 90.55 316.27 92.91 314.27 91.45 312.26 92.91 313.03 90.55 311.03 89.1 313.5 89.1 314.27 86.74"/>
  <line x1="464.91" y1="210.67" x2="528.58" y2="259.08"/>
  <line x1="404.87" y1="35" x2="400.71" y2="76"/>
  <line x1="306.55" y1="233.74" x2="233.77" y2="291.66"/>
  <path class="cls-3" d="M488.89,583.67c.82-9.05,7.57-15.83,15.06-15.15-7.5-.68-12.91-8.57-12.08-17.62-.82,9.05-7.57,15.83-15.07,15.15,7.5.68,12.91,8.57,12.09,17.62Z"/>
  <path class="cls-2" d="M504.69,564.76c.16-1.77,1.48-3.09,2.94-2.95-1.46-.13-2.52-1.67-2.36-3.44-.16,1.76-1.48,3.09-2.94,2.95,1.46.13,2.52,1.67,2.36,3.44Z"/>
  <path class="cls-15" d="M424.4,617.76c-.74-1.21-1.39-2.27-2.04-3.32-3.02-4.9-5.77-9.92-6.93-15.65-1.04-5.12-1.07-10.28-.7-15.45.17-2.37.51-4.75,1-7.07,1.35-6.3,3.96-11.88,9.53-15.63.09-.06.15-.18.16-.2-1-2.22-2.14-4.33-2.91-6.56-2.29-6.66-1.55-13.12,2.01-19.13,5.34-8.98,17.02-9.16,22.98-.58,2.99,4.3,3.38,8.91,2.37,13.79-.58,2.79-2.32,4.95-4.46,6.78-2.3,1.97-4.97,3.29-7.74,4.46-1.86.78-3.68,1.66-5.5,2.53-.46.22-.87.55-1.4.89,7.07,7.88,11.12,16.77,10.8,27.47-.31,10.41-2.98,19.85-10.42,27.7,2.28.23,4.27.38,6.25.66,1.03.14,2.03.51,3.05.77,1.24.32,2.04.95,1.79,2.39-.03.19.03.39.06.67,1.63-.08,2.05.87,2.16,2.27.41,5.03.89,10.06,1.34,15.09.22,2.5.43,4.99.66,7.49.06.67.16,1.25-.67,1.59-.25.1-.4.73-.38,1.1.03.95-.25,1.4-1.3,1.39-10.96-.03-21.93-.03-32.89,0-.94,0-1.25-.46-1.48-1.25-.13-.44-.46-1.04-.81-1.14-.91-.24-.99-.75-.9-1.52.82-7.52,1.63-15.04,2.41-22.56.11-1.04.5-1.8,1.53-2.08.7-.18,1.03-.52.95-1.26-.13-1.32.63-1.94,1.78-2.36,2.75-1,5.61-1.12,8.49-1.22.34-.01.69-.04,1.22-.06ZM424.45,612.38l.29-.26c-.26-.28-.48-.61-.79-.84-1.86-1.38-2.79-3.27-3.21-5.51-.54-2.88-.74-5.74-.39-8.68.48-4.09.76-8.21,1.12-12.32-.27,3.4-.32,6.79-.26,10.18.06,3.6.08,7.2.4,10.78.26,2.97,2.29,5.16,4.73,5.68,2.48.53,5.25-.72,6.78-3.25.68-1.12,1.21-2.38,1.58-3.65,1.69-5.83,1.63-11.82,1.37-17.81-.19-4.39-1.07-8.66-2.55-12.78-1.23-3.42-3.04-6.52-5.27-9.4,1.2-2.16,3.53-2.99,5.54-4.26-2.8.85-5.15,2.29-6.99,4.66-4.03,5.2-6.19,11.15-7.12,17.57-.63,4.36-1.12,8.75-1.4,13.14-.24,3.83-.16,7.7,1.29,11.37.95,2.41,2.59,4.21,4.88,5.38ZM425.32,550.03c.08,3.24.7,5.83,2.27,8.15.44.65.87.76,1.61.51,2.02-.7,4.13-1.16,6.1-1.99,2.33-.97,4.7-1.99,6.78-3.39,5.51-3.72,5.79-12.35.16-16.83-3.55-2.83-7.18-2.84-10.69.04-4.42,3.62-5.62,8.67-6.23,13.51ZM420.33,569.17c-.3.34-.7.63-.88,1.02-1.16,2.5-2.01,5.09-2.27,7.87-.41,4.46-.8,8.92-1.39,13.36-.45,3.35-.16,6.59.74,9.81.19.66.43,1.31.62,1.9-.92-11.46-.08-22.74,3.17-33.96ZM440.46,530.63c4.25,2.29,6.4,6.18,7.73,10.55,1.39,4.59.52,8.86-2.7,12.58,3.67-2.95,5.11-9.3,3.48-14.66-1.33-4.36-4.5-6.83-8.51-8.46ZM437.29,604.23c3.8-2.64,3.96-23.08.29-28.41.07.39.1.57.14.75.93,3.35,1.58,6.7,1.48,10.23-.09,3.28.59,6.57-.3,9.85-.41,1.52-.46,3.13-.75,4.69-.18.93-.53,1.82-.85,2.9ZM430.58,620.37c.06.74.15,1.13.12,1.52-.05.64.2.88.83.86,2.09-.09,4.18-.18,6.28-.24.68-.02,1.05-.26,1.04-1,0-.67-.23-1.13-.94-1.13-2.4-.02-4.81,0-7.32,0ZM424.07,550.94c-.07,0-.13-.01-.2-.02.27-2.74.53-5.49.79-8.08-2.96,2.68-1.93,12.56,2.12,15.85-2.41-4.73-2.42-9.41-1.6-14.16-.1,0-.21-.01-.31-.02-.27,2.14-.53,4.28-.8,6.43ZM431.12,613.42c-.05.43,0,1.03-.14,1.08-1.1.36-.96,1.53-1.51,2.24-.16.2.08.82.29,1.14.07.11.77.04.92-.16,1.01-1.25,1.97-2.54,2.89-3.85.19-.27.31-.9.16-1.05-.3-.3-.87-.59-1.23-.51-.81.19-1.56.61-2.33.96-.08.04-.11.18-.24.38.4-.08.7-.13,1.18-.22ZM448.25,543.57c-.67,2.47-1.49,5.49-2.26,8.3,1.84-1.33,2.77-4.88,2.26-8.3ZM439.58,532.44c-1.67-.94-4.88-.91-6.02.36,2.17-.13,4.22-.25,6.02-.36ZM431.34,619.19c-.02.12-.03.23-.05.35.79.13,1.58.26,2.37.4.02-.17.05-.35.07-.52-.8-.08-1.59-.15-2.39-.23ZM422.24,548.88c.06,0,.12.02.18.03.09-1.59.19-3.18.28-4.77-.08,0-.15,0-.23-.01-.07,1.59-.15,3.17-.22,4.76Z"/>
</svg>