<svg xmlns="http://www.w3.org/2000/svg" xmlns:xlink="http://www.w3.org/1999/xlink" viewBox="0 0 872 768"><defs><style>.cls-1{fill:#191919;}.cls-2{isolation:isolate;}.cls-17,.cls-19,.cls-20,.cls-22,.cls-3,.cls-35,.cls-41,.cls-43,.cls-5,.cls-9{fill:none;}.cls-17,.cls-22,.cls-3,.cls-35,.cls-41,.cls-43,.cls-5{stroke-miterlimit:10;}.cls-3,.cls-41,.cls-43{stroke-width:0.61px;}.cls-3{stroke:url(#linear-gradient);}.cls-4{opacity:0.19;fill:url(#linear-gradient-2);}.cls-5{stroke:#dfdfdf;stroke-width:0.61px;}.cls-6{fill:url(#linear-gradient-3);}.cls-7{fill:#dfdfdf;}.cls-8{fill:#cfcfcf;}.cls-19,.cls-20,.cls-9{stroke:#222;}.cls-13,.cls-19,.cls-20,.cls-36,.cls-9{stroke-linecap:round;stroke-linejoin:round;}.cls-9{stroke-width:0.45px;}.cls-10{clip-path:url(#clip-path);}.cls-11{fill:#202020;}.cls-12,.cls-13,.cls-36{fill:#fff;}.cls-13,.cls-35,.cls-36{stroke:#000;}.cls-13,.cls-20,.cls-35{stroke-width:0.15px;}.cls-14{clip-path:url(#clip-path-2);}.cls-15{fill:#404040;}.cls-16,.cls-21{fill:#222;}.cls-16{mix-blend-mode:multiply;}.cls-17,.cls-22{stroke:#fff;}.cls-17,.cls-19{stroke-width:0.35px;}.cls-18{fill:#efefef;}.cls-22{stroke-width:0.41px;}.cls-23{clip-path:url(#clip-path-3);}.cls-24{fill:#303030;}.cls-25{fill:#8f8f8f;}.cls-26{opacity:0.42;}.cls-27{fill:url(#linear-gradient-4);}.cls-28{fill:url(#linear-gradient-5);}.cls-29{fill:url(#linear-gradient-6);}.cls-30{fill:url(#linear-gradient-7);}.cls-31{fill:url(#linear-gradient-8);}.cls-32{fill:url(#linear-gradient-9);}.cls-33{fill:url(#linear-gradient-10);}.cls-34{fill:url(#linear-gradient-11);}.cls-36{stroke-width:0.35px;}.cls-37{fill:gray;}.cls-38{opacity:0.13;}.cls-39{fill:#1a1a1a;}.cls-40{fill:#4d4d4d;}.cls-41{stroke:url(#linear-gradient-12);}.cls-42{fill:#333;}.cls-43{stroke:url(#linear-gradient-13);}</style><linearGradient id="linear-gradient" x1="192.73" y1="321.35" x2="653.49" y2="321.35" gradientUnits="userSpaceOnUse"><stop offset="0" stop-color="#fff"/><stop offset="1" stop-color="#999"/></linearGradient><linearGradient id="linear-gradient-2" x1="2982.03" y1="657.73" x2="3090.91" y2="657.73" gradientTransform="matrix(-1, 0, 0, 1, 3328.9, 0)" xlink:href="#linear-gradient"/><linearGradient id="linear-gradient-3" x1="455.1" y1="164.94" x2="557.36" y2="164.94" xlink:href="#linear-gradient"/><clipPath id="clip-path"><path class="cls-1" d="M524.32,275.77c-2.29,9.32-8.2,18.83-8.2,18.83s-9.48-1.42-22.8-3.62l-5.21-.87c-24.28-6.31-63.94-14.17-77.79-21.72,1.57-2.12,4.93-4.63,11.08-4.63,7.6,0,2.15-14.91,1.37-21.59h0l.1,0,102.31,26.44h0A27,27,0,0,1,524.32,275.77Z"/></clipPath><clipPath id="clip-path-2"><path class="cls-1" d="M461.79,395.3l-73.45-7.1,49.23-59.85,41.26-50.15C490.09,264.52,521,263.11,538,263.54l1.56,10.67c11.75,5.43,29,1.05,33.8,16.2,4.66,19,3.7,21.18,5.13,26.94,8.42,33.81-32.49,23.45-56.62,47.73C500.66,386.39,461.79,395.3,461.79,395.3Z"/></clipPath><clipPath id="clip-path-3"><path class="cls-1" d="M304.24,295.25s-1.82,3,6.91,4.81,15.27,7.55,9.82,10l-5.46,2.43s-17.94,6-18.55,11.64a45.64,45.64,0,0,0,0,10s9.91-7.56,16.2-7.8,78.36-7.45,90.73-7,39.77-6.06,43.53-4.81,44.15,3.91,60.33-11.24,5.83-36.09-5.18-38.35-118.28,15.94-131.19,18.53c-11.26,2.26-51.87,11.22-55.14,10.85s-15.59-.42-19.54,1S304.24,295.25,304.24,295.25Z"/></clipPath><linearGradient id="linear-gradient-4" x1="283.85" y1="738.67" x2="657.37" y2="591.69" xlink:href="#linear-gradient"/><linearGradient id="linear-gradient-5" x1="276.7" y1="740.88" x2="662.27" y2="589.15" xlink:href="#linear-gradient"/><linearGradient id="linear-gradient-6" x1="288.66" y1="735.11" x2="664.21" y2="587.34" xlink:href="#linear-gradient"/><linearGradient id="linear-gradient-7" x1="279.25" y1="738.05" x2="671.85" y2="583.56" xlink:href="#linear-gradient"/><linearGradient id="linear-gradient-8" x1="272.8" y1="739.04" x2="677.4" y2="579.83" xlink:href="#linear-gradient"/><linearGradient id="linear-gradient-9" x1="268.19" y1="740.98" x2="682.67" y2="577.89" xlink:href="#linear-gradient"/><linearGradient id="linear-gradient-10" x1="255.36" y1="744.23" x2="691.65" y2="572.55" xlink:href="#linear-gradient"/><linearGradient id="linear-gradient-11" x1="238.96" y1="748.57" x2="707.21" y2="564.32" xlink:href="#linear-gradient"/><linearGradient id="linear-gradient-12" x1="323.71" y1="239.78" x2="348.67" y2="239.78" xlink:href="#linear-gradient"/><linearGradient id="linear-gradient-13" x1="413.39" y1="189.34" x2="418.85" y2="189.34" xlink:href="#linear-gradient"/></defs><g class="cls-2"><g id="Layer_1" data-name="Layer 1"><path class="cls-3" d="M193.3,270.18c5.91-2.94,459.8-193,459.8-193L572.83,565.44Z"/><ellipse class="cls-4" cx="292.44" cy="657.73" rx="54.44" ry="7.98"/><path class="cls-5" d="M174.42,712.92c-1.38,2.29,464.4-140.17,469-142.62"/><path class="cls-6" d="M557.36,309.38s-7.62,8.77-24,6.56a9.76,9.76,0,0,1-3.8-1.42c-14.27-8.76-24.14-53.15-30.74-57-7.17-4.18-40.47-17.56-43.53-57.43s24.06-58.63,34.37-77.72S474.43,86.87,462.59,75.8c-9.47-8.87-8.42-19.95-3.89-32.64.82-2.32,1.77-4.7,2.78-7.13,0,0,0-.08,0-.13.35-.82.71-1.65,1.06-2.48a54.76,54.76,0,0,1,8-13.54h0c4.17-5,7.45-6.25,7.61-6.31-9.54,21-17.18,51.16-6.2,57.26s27.58,7.26,28.73,47.34-24.06,42.77-28.26,73.69,20.24,38.79,50,63.85S557.36,309.38,557.36,309.38Z"/><path class="cls-7" d="M470.63,19.88a113,113,0,0,0-9.1,16c.35-.82.71-1.65,1.06-2.48A54.76,54.76,0,0,1,470.63,19.88Z"/><path class="cls-8" d="M530.07,313.83a2.77,2.77,0,0,1-.46.69c-14.27-8.76-24.14-53.15-30.74-57-7.17-4.18-40.47-17.56-43.53-57.43s24.06-58.63,34.37-77.72S474.43,86.87,462.59,75.8c-9.47-8.87-8.42-19.95-3.89-32.64-2.93,9-3.22,17.38.63,24,7.06,12,23.89,18.07,30.25,30.79S499.11,119,484,137.4,454.44,187,460.8,212.72s33.8,34.45,40.83,42.81,7.61,15.4,10.33,23.09S532,309.54,530.07,313.83Z"/><path class="cls-7" d="M533.41,271.31l-9.09,4.46-31,15.21-.69.34c-1.44-.4-2.95-.8-4.52-1.21-24.28-6.31-63.94-14.17-77.79-21.72a19.72,19.72,0,0,1-2.65-1.68c-11.15-8.54-10.05-17.11-22.84-23.85s-8.51-12.32-8.51-12.32c-4.62-6.75-.11-9.21-.11-9.21-3.13-5.19.75-6.44.75-6.44L397.3,231l-.53-4c-4.5-7.92,2.62-9.22,2.62-9.22L420,241.54l2.74.62h0l.1,0c13.14,3,68.78,16,102.31,26.44h0C528.12,269.55,530.87,270.44,533.41,271.31Z"/><path class="cls-9" d="M397.3,231a29.42,29.42,0,0,1,1.79,10c-.1,5.27,3.1,10.91,6.11,12.16"/><path class="cls-9" d="M376.21,221.33s11.21,10.37,17,14.51"/><path class="cls-9" d="M376.31,230.54s7.72,6.87,13.5,10.34"/><path class="cls-1" d="M524.32,275.77c-2.29,9.32-8.2,18.83-8.2,18.83s-9.48-1.42-22.8-3.62l-5.21-.87c-24.28-6.31-63.94-14.17-77.79-21.72,1.57-2.12,4.93-4.63,11.08-4.63,7.6,0,2.15-14.91,1.37-21.59h0l.1,0,102.31,26.44h0A27,27,0,0,1,524.32,275.77Z"/><g class="cls-10"><path class="cls-11" d="M438.25,253.92a65.12,65.12,0,0,0-1.7-7.31c-.54-1.93-1.47-4.05-.27-5.88,2.14-3.27-3.1-6.32-5.24-3.06-2.63,4-.85,8.42.25,12.62a46.66,46.66,0,0,1,1.55,8.62c.18,2.89-.44,4.41-2.81,6.09-7.61,5.39-13.5,12.25-14.4,21.87-.37,3.89,5.7,3.86,6.06,0a20.4,20.4,0,0,1,5.6-11.77c2.87-3.11,7.14-4.85,9.66-8.2C439.77,263.15,439,258.24,438.25,253.92Z"/><path class="cls-11" d="M449.75,244.28a18.87,18.87,0,0,0-2.26,13c.43,2.27,2.1,5.42,1,7.65-.74,1.48-2.64,2.25-4,2.95-3.4,1.73-6.47,3.61-8.4,7a15.49,15.49,0,0,0-1.44,11.43c.95,3.79,6.8,2.18,5.85-1.61a9.1,9.1,0,0,1,3.13-9.46c2.67-2,6.07-2.78,8.5-5.2,2.68-2.66,3.11-6.13,2.41-9.71-.93-4.79-2.09-8.44.49-13C456.91,243.94,451.67,240.88,449.75,244.28Z"/><path class="cls-11" d="M466.79,249.85c-.52-3.84-6.36-2.21-5.85,1.62,1.11,8.24,3.3,16.52-2.61,23.43-4.26,5-11.18,7.71-12.71,14.64-.84,3.81,5,5.43,5.84,1.62.81-3.64,4.12-5.76,6.87-8a29.72,29.72,0,0,0,7.42-8.34C470.17,267,467.92,258.26,466.79,249.85Z"/><path class="cls-11" d="M479.33,253.33c-1.16-3.71-7-2.13-5.85,1.61a40.34,40.34,0,0,1,2.18,12.49c-.06,4.14-2.1,6.47-4.85,9.28a25.32,25.32,0,0,0-7.55,18.09c0,3.9,6.08,3.91,6.06,0a18.7,18.7,0,0,1,2.89-10.34c2-3.11,5.13-5.28,7.16-8.38C483.63,269.57,481.47,260.2,479.33,253.33Z"/><path class="cls-11" d="M494.5,256.12c-1-3.78-6.83-2.18-5.85,1.61,1.12,4.32,2.37,8.81,1.76,13.3-.63,4.68-3.24,7.27-7,9.76-6.68,4.42-11.15,10.53-10.85,18.86.14,3.89,6.2,3.91,6.06,0a14.12,14.12,0,0,1,4.71-11.38c3.05-2.68,6.87-4.21,9.44-7.46C498.44,273.64,496.6,264.24,494.5,256.12Z"/><path class="cls-11" d="M508.3,260.63c-2.25-3.15-7.51-.13-5.24,3.06,3.85,5.4,1.21,11.8-2.47,16.52-3.9,5-8.81,9.08-12.31,14.43-2.14,3.28,3.11,6.32,5.24,3.06,4.25-6.5,10.85-11.13,14.67-18C511.48,273.87,512.38,266.36,508.3,260.63Z"/><path class="cls-12" d="M522.6,264.59c-.88-3.8-6.73-2.19-5.84,1.62,3.24,13.9-7.95,22.85-18.08,29.9-3.18,2.21-.15,7.47,3.06,5.23,6-4.16,12-8.47,16.35-14.39A26.94,26.94,0,0,0,522.6,264.59Z"/></g><path class="cls-13" d="M466.16,400.72s-2.87,34.75-20,77q-1.83,4.49-3.85,9.07c-8.26,18.57-27.32,49.38-35.53,57-27.45,25.48-118.27,58.65-118.27,58.65s-22.6,0-36.92-17.14c0,0,36-14.47,60-37.24a148.12,148.12,0,0,1,26.66-20.38,120,120,0,0,1,21.27-10.06c7.55-3,13.89-47.22,14.28-68,.65-35.2,12.25-60.06,12.25-60.06Z"/><path class="cls-7" d="M466.16,400.72s-2.87,34.75-20,77c-36.65-4.87-58.82-16.17-72.33-28.05,6.85-28.8,14.47-61.43,14.47-61.43Z"/><path class="cls-1" d="M461.79,395.3l-73.45-7.1,49.23-59.85,41.26-50.15C490.09,264.52,521,263.11,538,263.54l1.56,10.67c11.75,5.43,29,1.05,33.8,16.2,4.66,19,3.7,21.18,5.13,26.94,8.42,33.81-32.49,23.45-56.62,47.73C500.66,386.39,461.79,395.3,461.79,395.3Z"/><g class="cls-14"><path class="cls-15" d="M475.35,389.33c-14.29,8.94-29.87-4.12-42-10.85-6.7-3.71-13.82-6.42-21.55-6.56-8.16-.14-16.15,2.21-23.83,4.73-3.69,1.21-2.11,7.06,1.62,5.84,7.84-2.57,16.07-5.1,24.42-4.4s15.76,5.18,22.79,9.49c12.24,7.49,27.74,15.66,41.6,7C481.71,392.51,478.67,387.26,475.35,389.33Z"/><path class="cls-15" d="M509.25,371.26c-9.62,1.78-19.34,3.54-29.16,3-9.23-.54-17.51-3.91-25.6-8.17-12.68-6.67-31.35-19.56-45.71-10.21-3.26,2.12-.23,7.37,3.06,5.23,7.14-4.64,16.34-1.35,23.41,1.83,7.69,3.46,14.83,8,22.5,11.53a61.81,61.81,0,0,0,25.16,6c9.4.14,18.74-1.59,27.95-3.29C514.69,376.4,513.07,370.55,509.25,371.26Z"/><path class="cls-15" d="M551.66,358.9c-23.27.64-47.26.61-69.2-8.21a80.37,80.37,0,0,1-14.6-7.68c-4.24-2.81-8.19-6.05-12.59-8.61-10.2-5.92-20.88-5.12-32.11-3.17-3.84.67-2.21,6.51,1.61,5.85,5.74-1,11.71-2,17.53-1.13,5.28.8,9.84,3.44,14.17,6.42s8.31,6.07,12.79,8.64a93.41,93.41,0,0,0,14.53,6.65c21.68,7.86,45.12,7.93,67.87,7.3C555.56,364.86,555.57,358.79,551.66,358.9Z"/><path class="cls-15" d="M568.85,345c-20.78,8-43.23,4.27-63.41-3.69-10.36-4.08-20.21-9.31-30-14.67-9-5-18.4-9.48-29-7.9-3.84.57-2.21,6.41,1.62,5.84,10.74-1.6,20.78,5.45,29.76,10.29A223.37,223.37,0,0,0,508,348.68c19.95,7.22,42.29,9.93,62.5,2.13C574.07,349.42,572.5,343.56,568.85,345Z"/><path class="cls-15" d="M591.69,315c-20.48,8.86-43.55,4.52-63.57-3.36-19.8-7.79-38.47-21.48-60.39-22.16-3.91-.13-3.9,5.94,0,6.06,11.37.36,21.93,4.8,32,9.68s20.25,10,30.89,13.84c17.51,6.34,36.61,9.19,54.59,4.45a45.92,45.92,0,0,1-22.36,9.22c-9.72,1.18-19.7-1-29.25-2.54-9.36-1.54-18.72-3.43-27.62-6.78-9.13-3.44-17.06-9-25.46-13.88-9-5.2-19.07-9.37-29.68-8.36-3.85.37-3.89,6.44,0,6.07,10.38-1,19.79,3.44,28.49,8.62,8.35,5,16.38,10.2,25.55,13.59,9.44,3.48,19.37,5.36,29.28,6.94C544,338,554,340,563.88,338.68a52.77,52.77,0,0,0,27.36-12.23c1.78-1.51,1-3.64-.62-4.58,1.39-.49,2.76-1,4.13-1.62C598.32,318.7,595.24,313.48,591.69,315Z"/><path class="cls-15" d="M587.94,295.37c-6.31,7.46-16.44,7.79-25.45,6.64-9.76-1.26-19.59-2.94-28.49-7.31-8.41-4.13-16.53-8.38-25.56-11a105.3,105.3,0,0,0-28.77-4.18c-3.9,0-3.91,6,0,6.07A98.91,98.91,0,0,1,510,290.48c9.67,3.18,18.14,8.76,27.6,12.37a79,79,0,0,0,15.09,3.71,120.28,120.28,0,0,0,15.58,2c8.8.31,18.12-1.95,24-8.92C594.73,296.69,590.47,292.38,587.94,295.37Z"/><path class="cls-15" d="M578.27,280.72c-5.41,3.89-12.54,3.79-18.91,3.12a55.21,55.21,0,0,1-20.11-6.2c-5.87-3.15-11.13-7.28-17.12-10.23A73,73,0,0,0,502.66,261c-3.82-.68-5.45,5.16-1.61,5.85a67.23,67.23,0,0,1,20.86,7.26c6.49,3.59,12.32,8.15,19.18,11.08a62.06,62.06,0,0,0,20.43,4.87c6.78.43,14.12,0,19.81-4.12C584.48,283.7,581.45,278.44,578.27,280.72Z"/></g><path class="cls-16" d="M509.85,291.62H480.92s-9.1,3.69-20.29,8.71l-22.06,26.81C499.25,320.9,509.85,291.62,509.85,291.62Z"/><path class="cls-7" d="M433.82,356.92c-53.59,6.31-83.92,24.78-151.2-20.67-49.54-33.46-118.13-36.81-118.13-36.81,17.08,31.11,4.29,33.79,4.29,33.79,40.71-5.19,62.61,7.28,123.41,38,19.7,10,62,17.29,96.7,15.78,58.84-2.55,119.61-9.49,147.2-20.84,23-10.31,31.81-17.27,31.81-23.79C538.76,353.6,498.81,349.27,433.82,356.92Z"/><path class="cls-7" d="M242.12,302.38l11.73,5.11S271.39,311.9,275,313s8.21,5.91,2.56,11.22S261.17,335.13,261,339s15,.81,30.64-6.6,13.27-7.19,23.66-6.79,108.47-10.47,130.41-12.13c8.88-.67,24.27-2.2,39.43-3.77,20.43-2.13,35.29-26.11,21.47-41.31-9.92-10.93-206.41,29-206.41,29s-25.58-7.41-32.89-5.78a82.17,82.17,0,0,0-15.66,5.77l-12.34-3.85s-6.68,3.09,3.18,9"/><path class="cls-7" d="M239.85,303.86l2.61-1.27,11.39,4.9C240.3,308.09,239.85,303.86,239.85,303.86Z"/><line class="cls-9" x1="251.62" y1="297.45" x2="272.55" y2="303.16"/><line class="cls-9" x1="258.13" y1="294.6" x2="276.77" y2="297.4"/><path d="M313.76,639.68c-3.95-7.8-9.19-22.4-13.58-35.4l11.56-6.46s-13.91-20.84-33.1-12.49a4.86,4.86,0,0,0-1.3.95c-.76-9.34-10.71-15.8-10.71-15.8l-.44.09a65.81,65.81,0,0,0-30.84,15.16h0l80.59,72S319.41,650.84,313.76,639.68Z"/><path class="cls-12" d="M317,650.34l-76.68-68.5c-1.69,1.23-3.34,2.51-4.92,3.9l80.58,72A16,16,0,0,0,317,650.34Z"/><path class="cls-17" d="M252.26,574.94s13.05,10.94,3.4,20.63"/><path class="cls-17" d="M278.54,616s6.44-6.74,15.61,5.15,12,16,17.5,14"/><line class="cls-17" x1="300.26" y1="604.35" x2="284.61" y2="604.32"/><line class="cls-17" x1="302.18" y1="609.93" x2="286.63" y2="610.32"/><line class="cls-17" x1="304.1" y1="615.51" x2="289.49" y2="616.42"/><path class="cls-13" d="M546.66,505.27c-22.83,20.37-63.33,60.61-63.33,60.61l-30-20.33s54-60.23,67.47-79.64c2.65-3.79,3.75-6,2.59-5.94-3.57.25-9.49.92-17,1.71l-.37,0-4.5.48-.29,0-.57,0h0c-36.62,3.72-100.56,8.4-121.56-12.56-12.46-12.45-14.72-35.05-4.69-49.79,5.21-7.65,10.42-13.08,19.66-13.61,19.42-1.11,75-1.48,117.85,5.52,51,8.34,77,23,82.32,33.46C605.11,446.39,575,480,546.66,505.27Z"/><path class="cls-18" d="M570.18,448c-3.37,4.49-27.08,14.24-49.34,18,2.65-3.79,3.75-6,2.59-5.94-3.57.25-9.49.92-17,1.71C519,460.26,549.47,456.18,570.18,448Z"/><path class="cls-19" d="M398.6,537a20.59,20.59,0,0,1-9,2.81"/><line class="cls-20" x1="561.31" y1="271.14" x2="551.3" y2="291.62"/><path class="cls-21" d="M505,604.63c-4-8.36-9-24.72-13.21-39.36l13.72-11.65s-14.57-21.28-37.17-4.86a8.59,8.59,0,0,0-1.56,1.59c-.24-11.28-11.24-16.08-11.24-16.08l-.51.24a114.54,114.54,0,0,0-36.45,28.55h0l87.7,63.16S510.75,616.6,505,604.63Z"/><path class="cls-12" d="M508,616.77l-83.43-60.09c-2,2.06-4,4.17-5.93,6.39l87.69,63.15A25,25,0,0,0,508,616.77Z"/><path class="cls-22" d="M438.76,544.35s14.25,9.34,2.5,24.38"/><path class="cls-22" d="M466.16,586.66S474,576.28,483.74,588s12.66,16,19.16,11.7"/><line class="cls-22" x1="491.91" y1="565.34" x2="473.93" y2="570.3"/><line class="cls-22" x1="493.73" y1="571.62" x2="475.85" y2="577.05"/><line class="cls-22" x1="495.55" y1="577.89" x2="478.71" y2="583.66"/><path class="cls-1" d="M304.24,295.25s-1.82,3,6.91,4.81,15.27,7.55,9.82,10l-5.46,2.43s-17.94,6-18.55,11.64a45.64,45.64,0,0,0,0,10s9.91-7.56,16.2-7.8,78.36-7.45,90.73-7,39.77-6.06,43.53-4.81,44.15,3.91,60.33-11.24,5.83-36.09-5.18-38.35-118.28,15.94-131.19,18.53c-11.26,2.26-51.87,11.22-55.14,10.85s-15.59-.42-19.54,1S304.24,295.25,304.24,295.25Z"/><g class="cls-23"><path class="cls-24" d="M348,319c1.28-4.13,0-8.35-2.52-11.74-2.71-3.69-6.62-5.93-10-8.86-3.06-2.63-6.45-6.91-3.68-10.92,2.23-3.21-3-6.25-5.23-3.06-3,4.31-2.07,10.07.83,14.19,3.39,4.83,9.09,7.1,12.77,11.59,1.82,2.21,3,4.95,1.79,7.72s-3.24,4.84-4.27,7.61c-1.86,5,.7,11.49,6.75,11.31,3.89-.11,3.91-6.18,0-6.06-3.13.09-.3-4.79.43-5.95A25,25,0,0,0,348,319Z"/><path class="cls-24" d="M366.24,308.28c-2.19-4.28-6.7-6.29-10.19-9.28a19.67,19.67,0,0,1-5-6.17,13.1,13.1,0,0,1-1.17-3.55c-.1-.61-.06-1.23-.14-1.84s.1-.74.13-.78c3.42-.34,3.26-5.9-.47-6-5.52-.21-6.14,6.28-5.36,10.31,1,5.31,4.6,9.94,8.76,13.23s10.24,5.86,8,12.18c-2.13,5.92-6.68,11.43-10.93,16-2.67,2.84,1.61,7.13,4.29,4.28a70.47,70.47,0,0,0,10.24-13.8C366.87,318.32,368.74,313.14,366.24,308.28Z"/><path class="cls-24" d="M381.23,304.86c-3.38-3.7-8.09-5.74-11-10-2.6-3.81-3.56-9.15-.18-12.81,2.65-2.86-1.63-7.16-4.29-4.28-6.86,7.42-3.82,17.92,2.75,24.36,2.81,2.75,10,5.88,10.05,10.42,0,2.41-2.38,5.18-3.61,7.11q-2.35,3.66-4.94,7.16c-2.31,3.15,3,6.18,5.24,3.06,3-4.12,6.4-8.5,8.44-13.23C385.54,312.46,384.26,308.17,381.23,304.86Z"/><path class="cls-24" d="M399.37,299.8c-3.28-3.7-8.62-4.8-10.81-9.52-2-4.4-1.41-9.56.08-14,1.24-3.71-4.61-5.3-5.85-1.61-2.79,8.34-2.17,18.73,5.33,24.43,4.11,3.12,8.62,4.65,8.87,10.57.23,5.49-3.2,10.34-6.21,14.63-2.25,3.2,3,6.23,5.23,3.06C401.5,319.54,406.87,308.26,399.37,299.8Z"/><path class="cls-24" d="M418.5,303.1c-2.11-4.94-6.25-7.91-9.74-11.78a14,14,0,0,1-2.31-15.66c1.73-3.49-3.5-6.57-5.23-3.06a20.46,20.46,0,0,0-1.67,14.25c1.21,4.74,4.26,8.22,7.7,11.52,3.78,3.62,6.92,7.34,6.84,12.87a14.22,14.22,0,0,1-7.71,12.25c-3.42,1.87-.37,7.11,3.06,5.23A20.23,20.23,0,0,0,418.5,303.1Z"/><path class="cls-24" d="M439.79,297.45c-1.92-4.38-5.52-7.47-8.82-10.79-3.15-3.16-7-8.14-4-12.59,2.2-3.24-3.05-6.28-5.23-3.06-5.71,8.43,1.89,16.92,7.66,22.61,3.73,3.68,6.33,7.58,5.94,13-.38,5.17-3.36,9.57-7,13-2.84,2.69,1.45,7,4.29,4.29C439.75,317.25,444,307,439.79,297.45Z"/><path class="cls-24" d="M453.43,286.18c-1.53-3.91-5.75-10.79-3-14.81,2.23-3.21-3-6.25-5.23-3.06-2.67,3.85-1.76,8.51-.3,12.65,1.79,5.06,4.2,9.93,5.41,15.19,2.58,11.17-4.78,19.07-12.5,26-2.91,2.61,1.39,6.88,4.29,4.29,7.37-6.61,14.79-14.54,14.89-25.06C457.07,296.08,455.33,291,453.43,286.18Z"/><path class="cls-24" d="M495.75,281.12a24.67,24.67,0,0,0-2.95-6.88c-1.41-2.36-3.27-4.73-3.5-7.57-.32-3.86-6.39-3.89-6.07,0,.37,4.45,2.66,7.65,4.8,11.43a18.26,18.26,0,0,1,1.45,14.36c-2.3,8-9.84,16.52-18,19.29a35,35,0,0,0,4.21-13.55,34.5,34.5,0,0,0-1.91-15,39.63,39.63,0,0,0-3-6.28c-1.23-2.13-3.35-4.84-2-7.37,1.88-3.42-3.35-6.48-5.24-3.06-2.39,4.35-.9,8.6,1.44,12.61a31.56,31.56,0,0,1,4.67,13.94,29.29,29.29,0,0,1-11.34,24.87c-3.05,2.44,1.26,6.7,4.29,4.29a35.56,35.56,0,0,0,5.48-5.49,2.89,2.89,0,0,0,3.25,1.35c10.06-2.37,19.19-11.94,23-21.29A26.08,26.08,0,0,0,495.75,281.12Z"/><path class="cls-24" d="M507,265.82c-2-3.35-7.25-.3-5.23,3.06a26.35,26.35,0,0,1-9.18,36.44c-3.36,2-.31,7.22,3.06,5.23A32.48,32.48,0,0,0,507,265.82Z"/></g><path d="M589.88,235.24a1.05,1.05,0,0,1-1-.77c-.39-1.35,1-4,.54-4.53-.55-.72-.89,5.79-6.66,5.46s-4-3.46-3.55-5.6c-5,3.32-16.52,1.45-17.88,1.31s.89.86,3,5.15-.88,11.88-7.21,13.15-6.79,13.3-11,15.24a14.81,14.81,0,0,1-7.9.64c-6.49-.92-15.9-4.94-26.59-16.19-16.69-17.57-10.39-25.94-10.39-25.94,2.14-2.61,6.09-1.83,12.82,3s15.09-1.34,30.36-12,27.35-6.51,27.35-6.51c19.82,5.65,23.33,15,22.86,21.21S592.25,235.55,589.88,235.24Z"/><circle class="cls-25" cx="555.03" cy="239.75" r="9.08"/><path class="cls-25" d="M574.85,208.55c4.21,1.57,9.94,3.1,13.15,6.91,1.21,5.79,2.34,12.5-1.59,17.57a7,7,0,0,1-6.58,2.31c-4.54-.89-2.17-2.14-1.17-2.94,4.05-3.89,7.1-9.35,6.4-15.13-1.37,4.56-2.1,10.12-6.4,12.95l-.3.2c3-3.65,5.42-8.27,5-13.16-2,4.57-3.6,9.82-8.17,12.57,4.23-4.81,8.16-11,6.78-17.71-.71,6.11-2,13.25-8,16.43,2.73-4.89,5.77-10.09,5.42-15.9-2,7-4,16.86-12.45,18.5.85-.9,1.72-1.78,2.6-2.65a23.51,23.51,0,0,1-7.52,1.27C567.31,223.31,572.64,216.77,574.85,208.55Z"/><path class="cls-12" d="M563.4,289.64c-2.27,0-5.76-.71-10.37-2.13-14.54-4.44-15.65-16-15.45-20.83a1.9,1.9,0,0,1,.75-1.3,16.17,16.17,0,0,0,2.95.25,12.32,12.32,0,0,0,4.92-.87c1.87-.86,3-3.64,4.21-6.59,1.59-3.9,3.23-7.93,6.76-8.64A9.9,9.9,0,0,0,564,244a9.14,9.14,0,0,0,.44-7.81,20.08,20.08,0,0,0-2.93-4.4,3.75,3.75,0,0,1-.47-.6h.28l.58.08a62.81,62.81,0,0,0,7.87.58c4.17,0,7.29-.62,9.27-1.83l-.18.67c-.3,1.15-.65,2.44,0,3.41.6.82,1.86,1.27,3.85,1.39h.43c3.94,0,5.22-3.25,5.83-4.81a3,3,0,0,1,.34-.72c.14.22-.06,1-.25,1.69a6,6,0,0,0-.33,2.81c-1.82,3.61-.07,7,1.71,9.14a1.58,1.58,0,0,1,.31,1.47,1.59,1.59,0,0,1-1.05,1.09c-1.46.48-2.29.93-2.48,1.35a2.1,2.1,0,0,0,0,1.26,2.65,2.65,0,0,1-.84,3c-.81.74-1,2.12-1.25,3.72-.34,2.34-.73,5-3.25,6.18a4.87,4.87,0,0,1-2.05.39,18.4,18.4,0,0,1-6.67-1.71,48.25,48.25,0,0,1-5.58-2.79l-.09,0-.07.07c-.07.1-2,2.39-4.67,11.83a11.77,11.77,0,0,0,.67,8.83c3.11,5.68,3.11,8.12,2.86,10C566.25,289.17,565.25,289.64,563.4,289.64Z"/><path d="M578.88,230.3c0,.13-.07.26-.1.39-.32,1.17-.67,2.5.06,3.51.61.85,1.9,1.32,3.94,1.44h.43c4,0,5.32-3.3,5.94-4.88.05-.12.1-.24.14-.35a10.61,10.61,0,0,1-.28,1.24,6.49,6.49,0,0,0-.35,2.78c-1.79,3.73,0,7.1,1.76,9.28a1.46,1.46,0,0,1,.29,1.36,1.5,1.5,0,0,1-1,1c-2.25.74-2.47,1.24-2.55,1.41a2.13,2.13,0,0,0,0,1.34,2.55,2.55,0,0,1-.81,2.87c-.84.77-1.06,2.24-1.28,3.79-.34,2.32-.73,4.94-3.19,6.09a4.76,4.76,0,0,1-2,.38,18.18,18.18,0,0,1-6.63-1.7,48,48,0,0,1-5.56-2.78l-.18-.11-.13.16c-.08.09-2,2.4-4.7,11.87a11.92,11.92,0,0,0,.68,8.92c3.1,5.65,3.1,8.07,2.85,9.89-.11.86-1.08,1.3-2.86,1.3-2.26,0-5.74-.71-10.34-2.12C538.6,283,537.5,271.45,537.7,266.69a1.66,1.66,0,0,1,.63-1.15,21.55,21.55,0,0,0,2.95.21,12.31,12.31,0,0,0,5-.88c1.92-.89,3.06-3.69,4.27-6.65,1.59-3.87,3.22-7.87,6.68-8.57a10,10,0,0,0,6.95-5.58,9.24,9.24,0,0,0,.43-7.92,19.8,19.8,0,0,0-2.94-4.41l-.33-.4h0l.57.07a60.68,60.68,0,0,0,7.89.59c4,0,7.08-.57,9.08-1.7m.36-.5c-2.29,1.53-6,2-9.44,2a67.92,67.92,0,0,1-8.44-.65l-.2,0c-.89,0,1.21,1.12,3.2,5.17,2.12,4.29-.88,11.88-7.21,13.15s-6.79,13.3-11,15.24a12,12,0,0,1-4.87.86,20.88,20.88,0,0,1-3-.22,2,2,0,0,0-.79,1.39c-.12,2.82-.39,16.08,15.53,20.95,4.86,1.48,8.24,2.13,10.41,2.13,2,0,3-.56,3.1-1.51.28-2.1.1-4.61-2.88-10a11.65,11.65,0,0,1-.66-8.73c2.74-9.54,4.65-11.79,4.65-11.79a48.3,48.3,0,0,0,5.6,2.8,19.12,19.12,0,0,0,6.72,1.72,5,5,0,0,0,2.1-.4c4.27-2,2.56-8.12,4.53-9.93s.41-3.29.84-4.28c.2-.45,1.28-.91,2.41-1.28a1.73,1.73,0,0,0,.79-2.75c-1.67-2-3.52-5.39-1.69-9.1h0c-.39-1.35,1-4,.54-4.53,0,0-.06-.06-.08-.06-.51,0-1.08,5.53-6.16,5.53h-.42c-5.77-.33-4-3.46-3.55-5.6Z"/><path d="M571.74,280.27c-2.49-.47-5.89-.47-8.12-2.06-1.4-2.28-1.58-5.53-.66-8.73,2.74-9.54,4.65-11.79,4.65-11.79a48.3,48.3,0,0,0,5.6,2.8c.59,12.14,13,13.63,13.62,16.92C587.5,280.93,577.25,281.32,571.74,280.27Z"/><path d="M180.62,331.88a4.62,4.62,0,0,1-1.11.36c-4.1.21-6.22.41-10.73,1,3.16-.41,7.21-.3,8.71-6.69a60.42,60.42,0,0,1,10-1c8.83,6.06,12.52,6.45,20.42,8.72a100.37,100.37,0,0,0-10.14-1.59c-2.19-.33-3.24-.48-5.26-.87A94.14,94.14,0,0,0,180.62,331.88Zm9.39-.75a26.39,26.39,0,0,1-3.82-1.29,18.55,18.55,0,0,1-3.1-1.7H183a5.35,5.35,0,0,1-.64,1.87,4.56,4.56,0,0,1-1.29,1.3C184.56,331.11,186.34,331.06,190,331.13Z"/><path d="M207.57,326.76a115.07,115.07,0,0,1,16.61,2.29,80.84,80.84,0,0,1,19.42,6.21c4.35,2.16,7.43,4.59,7.49,6s-2.18,1.55-5.78.89c-4.68-.86-11.17-2.81-18.17-4.74l-4-1.09c.3,1.08.34,1.44.59,2.1-4.17-1.29-6.17-1.85-10.08-2.81C211.69,334.14,212.16,333.58,207.57,326.76Zm15.09,8c1,.28,2.31.6,4.09,1,6.53,1.65,10.92,2.45,10.64,1.08s-4.54-3.32-11-4.76c-2.66-.59-4.36-.86-5.24-1A24.71,24.71,0,0,1,222.66,334.78Z"/><path d="M259.65,339.72a136.82,136.82,0,0,1,20.49,8.86,215,215,0,0,1,20.73,12.3c4.34,2.93,7.34,5.53,7.22,6.82s-2.69,1.19-7.07-.17c-5.69-1.75-13.82-5.28-22.64-9.76l-5-2.58a8.81,8.81,0,0,1-2.67,2.58c-5.68-2.8-8.42-4.08-13.67-6.44C259.65,349,261.71,347.72,259.65,339.72Zm14.69,13.65c1.24.67,2.79,1.47,4.94,2.58,7.92,4.12,13.39,6,13.65,4.67s-4.15-4.42-11.68-8.41c-3.06-1.63-5.14-2.57-6.23-3A9.19,9.19,0,0,1,274.34,353.37Z"/><path d="M316,366.6c3.82,1.25,9.55,3,15.85,4.51,7.79,1.84,13.18,2.77,16.82,3.87,3,.92,4.66,1.88,4.26,2.82-.55,1.3-6.19,1.56-11.09,1.17l0,0c3.48.68,5,1.32,5.38,1.94s.62,1.46,1.23,1.72c-5.31-.48-7.94-.8-13.08-1.57a1.42,1.42,0,0,1-.73-1.46c0-.7-1.93-1.37-6.71-2.42-1.42-.31-2.13-.47-3.53-.81A14.09,14.09,0,0,1,319.3,378c-4.58-1.11-6.79-1.73-10.94-3.07C313.8,373.82,316.63,373.18,316,366.6Zm9.93,8.68c1.84.46,2.77.67,4.63,1.06,5.89,1.25,10,1.28,10.46.43s-2.66-1.89-8.07-3.07l-5.37-1.17A4.79,4.79,0,0,1,325.92,375.28Z"/><path d="M409.6,375.34c-1.93,5.72-19.89,7.49-29.81,8.14-16.8,1.09-24.28-1.14-22.24-3.36s11.15-5.41,25.69-7.53C398.37,370.38,410.18,373.59,409.6,375.34Zm-39,4.76c-1,1.73,2.82,2.58,11.4,2s14.52-2.41,14.71-4.55c.17-2-5-3.32-12.92-2.3C376,376.3,371.58,378.39,370.57,380.1Z"/><path d="M431.51,377.49c-6.92-3.16-11-4.33-22-9.79,5.08-1.14,7.65-1.73,12.92-2.86,4.86,2.46,7,3.46,10.94,5.3,2.76,1.29,5.54,2.37,7.56,3.58l.33,0c1.59-1.67,3.28-3.52,4.89-5.5a18.73,18.73,0,0,0,4.32-8.24c7.44-1.07,11-1.54,17.95-2.4-3.71,8.44-7.92,11.62-18.54,17.47C442.53,376,438.05,376.59,431.51,377.49Z"/><path d="M516.7,360.42c-8.14,1.29-12.46,1.9-21.59,3.16a7.32,7.32,0,0,1-.31,3c10.07-1.48,14.82-2.21,23.71-3.79a8.28,8.28,0,0,1-1.14,2.09c-12.5,2.32-25.08,4.24-37.68,6,2.36-4.82,2-7.15-3.67-14.31,12.94-1.47,25.89-2.82,38.84-4.22a18.72,18.72,0,0,1,1.68,2.73c-8.72,1.12-13.37,1.64-23.31,2.83a14.17,14.17,0,0,1,1.38,3.1c9.23-1.2,13.58-1.76,21.79-3A8,8,0,0,1,516.7,360.42Z"/><path d="M524.59,351.49c4.28-.74,9.74-1.56,15.2-2.46,9.06-1.51,14.58-2.45,19-3,4.74-.62,7.78-.75,7.64.7s-3.6,4-7.91,6.23a98.12,98.12,0,0,1-20.61,7.57c-5.45,1.41-9.58,2.23-12.4,2.75C528.64,359,528.53,357.07,524.59,351.49ZM537.77,359c.89-.17,2.35-.53,3.64-.87,9.38-2.43,15.56-5.55,15.61-7.68.05-1.88-5.66-1.37-14.76.42-2.36.47-3.91.8-4.82,1C539.1,355,539.17,356.31,537.77,359Z"/><g class="cls-26"><path class="cls-27" d="M667.93,601.27l6.65-2.8,13.18,3-19,8.62-14.18-3.22,7.41-3.13-59.25-13.5,7.16-2.2Z"/><path class="cls-28" d="M659.29,614.43,581.58,596.8l8.07-2.49,75.94,17.26Z"/><path class="cls-29" d="M572.78,617.36c10.64,2.29,23.45,5.06,36.05,7.9l.16-.07c-9.85-3-20.53-6.35-29.08-9.19l-28.33-9.2,7.4-2.3,36.23,5.86c10.78,1.73,23.57,3.9,34.95,6l.1,0c-10.74-2.55-23.09-5.44-32.93-7.82l-30.21-7.21,8-2.48,77.24,18.79-9.25,4.2L612.39,617c-10.74-1.73-22.32-3.65-33-5.57l-.17.06c8.65,2.59,18.5,5.59,26.69,8.18l24.44,8-10.5,4.78-91.46-19.16,10.3-3.18Z"/><path class="cls-30" d="M529.84,635l18.31-6.63-22.35-5L504,630.53l-18.47-4.11,34.31-10.59,91.31,20.47L585.42,648l-18.18-4,17.61-7.43-19.43-4.35L547.93,639Z"/><path class="cls-31" d="M577.36,651.69l-11,5L482.18,638l-25.8,8.55-21.06-4.65,41.1-12.68Z"/><path class="cls-32" d="M524.31,675.81l-116.19-25.5,17.45-5.38,112.28,24.72Z"/><path class="cls-33" d="M392.1,655.25l119.78,26.21-18,8.17-62.34-3.3c-18.77-1-40.51-2.59-59.72-4.36l-.42.15c19,3.31,37.37,7,57.22,11.34l38.52,8.33-17.12,7.79L312.24,679.89l25.17-7.77,70.44,4.27c18.57,1.12,40,2.64,58.25,4.3l.15-.17c-16.73-3.37-34.41-7.08-54.67-11.5L374,660.83Z"/><path class="cls-34" d="M279.44,725.64,325.36,709l-35.6-7.6-54.89,18.16-30.44-6.42,85.41-26.35,142.89,30.65-63.48,28.86-29.67-6.26,44.08-18.6-30.85-6.59-43.78,17Z"/></g><path class="cls-7" d="M508,107c0-6,4.07-10.95,9.08-10.95-5,0-9.08-4.91-9.08-11,0,6-4.06,11-9.07,11C503.91,96,508,100.91,508,107Z"/><path class="cls-7" d="M533.41,395.3c0-9.22,6.19-16.69,13.83-16.69-7.64,0-13.83-7.47-13.83-16.69,0,9.22-6.19,16.69-13.83,16.69C527.22,378.61,533.41,386.08,533.41,395.3Z"/><path class="cls-7" d="M150.66,343.85c0-5.39,3.62-9.75,8.08-9.75-4.46,0-8.08-4.36-8.08-9.75,0,5.39-3.61,9.75-8.07,9.75C147.05,334.1,150.66,338.46,150.66,343.85Z"/><path d="M438.57,54.6c0-2.45,1.64-4.44,3.67-4.44-2,0-3.67-2-3.67-4.43,0,2.45-1.65,4.43-3.67,4.43C436.92,50.16,438.57,52.15,438.57,54.6Z"/><line class="cls-35" x1="126" y1="370.71" x2="248.76" y2="383.9"/><polygon class="cls-12" points="661.55 306.36 667.39 310.35 666.78 316.24 672.07 313.54 677.8 317.46 687.14 303.77 670.89 292.68 661.55 306.36"/><path class="cls-36" d="M666.69,316.37a.15.15,0,0,1-.06-.14l.6-5.8-5.77-3.94a.15.15,0,0,1,0-.21l9.34-13.69a.23.23,0,0,1,.1-.07.27.27,0,0,1,.12,0l16.25,11.09a.16.16,0,0,1,0,.22l-9.34,13.68a.16.16,0,0,1-.22,0l-5.65-3.86-5.21,2.66a.14.14,0,0,1-.11,0Z"/><path class="cls-37" d="M674.51,300.07a2.92,2.92,0,0,0,4.42,3,2.92,2.92,0,0,1,.77,4.06,3.71,3.71,0,0,1-2.53,1.49L671,310l-1-6.25a3.7,3.7,0,0,1,.47-2.9A2.92,2.92,0,0,1,674.51,300.07Z"/><g class="cls-38"><path class="cls-39" d="M684.14,212.11a2.78,2.78,0,1,1-2.78-2.77A2.78,2.78,0,0,1,684.14,212.11Z"/><path class="cls-39" d="M476.14,138.77a2.78,2.78,0,1,1-2.77-2.77A2.78,2.78,0,0,1,476.14,138.77Z"/><polygon class="cls-40" points="334.34 144.64 329.65 144.64 332 141.54 334.34 138.45 336.69 141.54 339.03 144.64 334.34 144.64"/><polygon class="cls-41" points="342.85 239.68 337.52 253.81 330.85 243.23 324.18 232.64 336.18 229.09 348.17 225.54 342.85 239.68"/><polygon class="cls-42" points="633.98 376.28 629.29 376.28 631.63 373.19 633.98 370.09 636.32 373.19 638.67 376.28 633.98 376.28"/><rect class="cls-43" x="413.7" y="187.46" width="4.85" height="3.76"/><rect class="cls-40" x="615.07" y="148" width="4.85" height="3.76"/></g></g></g></svg>