<?xml version="1.0" encoding="UTF-8"?>
<svg id="Layer_1" data-name="Layer 1" xmlns="http://www.w3.org/2000/svg" xmlns:xlink="http://www.w3.org/1999/xlink" viewBox="0 0 658 658">
  <defs>
    <style>
      .cls-1 {
        stroke-miterlimit: 10;
        stroke-width: .19px;
      }

      .cls-1, .cls-2 {
        fill: none;
      }

      .cls-1, .cls-3, .cls-4, .cls-5 {
        stroke: #000;
      }

      .cls-6 {
        opacity: .11;
      }

      .cls-7 {
        fill: #1d1d1b;
      }

      .cls-8 {
        fill: #9f9f9f;
      }

      .cls-2 {
        stroke: #1d1d1b;
        stroke-width: .26px;
      }

      .cls-2, .cls-3, .cls-4, .cls-5 {
        stroke-linecap: round;
        stroke-linejoin: round;
      }

      .cls-9, .cls-3, .cls-4, .cls-5 {
        fill: #fff;
      }

      .cls-10 {
        fill: #e6de9f;
      }

      .cls-3 {
        stroke-width: .1px;
      }

      .cls-4 {
        stroke-width: .2px;
      }

      .cls-5 {
        stroke-width: .39px;
      }

      .cls-11 {
        fill: #f4f4f4;
      }

      .cls-12 {
        opacity: .19;
      }

      .cls-13 {
        fill: url(#linear-gradient);
      }

      .cls-14 {
        clip-path: url(#clippath);
      }

      .cls-15 {
        opacity: .59;
      }

      .cls-16 {
        fill: #afafaf;
      }
    </style>
    <linearGradient id="linear-gradient" x1="-22191.97" y1="566.13" x2="-21956.83" y2="566.13" gradientTransform="translate(22316.1)" gradientUnits="userSpaceOnUse">
      <stop offset="0" stop-color="#ebebeb"/>
      <stop offset="1" stop-color="#999"/>
    </linearGradient>
    <clipPath id="clippath">
      <path class="cls-9" d="M227.68,210.5s5.51,25.78,2.95,31.48c-2.56,5.7-7.96,8.65-7.96,8.65,4.38,4.23,24.32,16.93,41.07,20.52.78-6.89,2.08-17.31-3.57-26.85,0,0-.77-.03-3.99-3.47-3.34-3.57-2.05-20.48-2.05-20.48l-26.46-9.85Z"/>
    </clipPath>
  </defs>
  <rect class="cls-9" width="658" height="658"/>
  <g>
    <ellipse class="cls-13" cx="235.57" cy="566.13" rx="160.62" ry="18.57"/>
    <g>
      <path class="cls-5" d="M466.93,520.86c.23-74.26-66.35-258.41-188.45-294.05-55.13-16.09-115.72.22-142.63,34.86-32.94,42.41-49.48,188.4-16.1,246.99,12.15,24.66,74.39,62.97,210.9,69.54,40.71,1.69,136.2-33.92,136.28-57.34Z"/>
      <path class="cls-10" d="M277.32,442.68c6.52,0,6.54-10.14,0-10.14s-6.54,10.14,0,10.14h0Z"/>
      <g class="cls-12">
        <path class="cls-16" d="M336.65,446.96c14.44,2.44,28.94,4.55,43.48,6.29,3.86.46,7.72.9,11.58,1.31,3.36.36,7.4.16,10.63,1.06s3.81,4.89,5.07,7.88c1.35,3.19,2.75,6.36,4.24,9.49,9.95,21.04,23.42,46.93,47.29,54.29,5.58,1.72,7.97-7.02,2.41-8.74-11.95-3.69-20.4-13.39-27.08-23.52-7.72-11.71-14.23-24.36-19.54-37.33-1.92-4.69-2.77-9.53-8.29-10.7-7.22-1.54-15.1-1.5-22.45-2.34-15.03-1.73-30.01-3.9-44.93-6.42-5.7-.97-8.15,7.76-2.41,8.74h0Z"/>
        <path class="cls-16" d="M200.55,386.96c1.28,15.18,13.99,24.51,24.98,33.35,13.41,10.79,27.2,21.1,41.38,30.86,6.99,4.82,14,10.01,21.57,13.88s14.99,5.22,23.15,5.53c15.25.57,31.08-.57,44.65-8.15,5.09-2.85.53-10.67-4.57-7.82-12.14,6.79-26.47,7.43-40.07,6.92-7.9-.3-14.84-2.01-21.69-6.02-6.35-3.71-12.4-7.99-18.45-12.15-12.51-8.61-24.74-17.65-36.62-27.1-9.11-7.25-24.17-16.43-25.25-29.28-.49-5.77-9.55-5.82-9.06,0h0Z"/>
      </g>
      <path d="M250.31,243.79l14.78-.08s9.64.53,12.33,3.65c2.69,3.12,22.75,28.21,24,40.06,1.25,11.84-3.12,17.45-3.12,17.45l12.47,31.79s-16.52,34.97-69.5,28.05c-13.61-1.78-36.15-104.09-36.15-104.09l17-10.55,28.19-6.28Z"/>
      <path d="M271.12,245.59s.68-1.62,4.97.85c25.66,14.74,33.78,46.84,36.89,52.76,3.12,5.92,16.81,35.61,12.44,40.9-4.36,5.3-22.83-6-22.83-6l-31.48-88.51Z"/>
      <path d="M321.26,193.09c4.27-1.26,16.09-4.77,21.42-6.35,1.3-.38,2.57.65,2.48,1.99l-4.32,60.52c-.06.85-.66,1.55-1.49,1.75l-23.14,5.42c-1.29.3-2.5-.76-2.37-2.08l6.04-59.58c.08-.78.62-1.44,1.38-1.66Z"/>
      <g>
        <path class="cls-5" d="M365.24,347.38c19.32-10.61,41.36-11.15,67.06-7.07,22.99,3.65,39.93,24.96,24.1,43.65-24.1,28.44-55.14,52.25-55.14,52.25l-89.93-17.03,53.92-71.79Z"/>
        <path class="cls-2" d="M380.42,382.55s10.73-16.18,25.2-18.95"/>
      </g>
      <g>
        <path class="cls-5" d="M613.05,620.49c-2.88,8.9-31.81,12.79-66.22,4.69l-1.88-.44c-8.76-2.06-19.69-4.61-32.17-9.3-5.77-2.15-7.08-10.88-6.42-18.74.08-.97.19-1.94.33-2.87,1.72-11.82-.29-19.34-.64-20.47l.12-.06-.33-.04s-.07-.1-.11-.14c-30.87-43.53-77.85-45.49-96.7-120.59,0,0-101.67-7.1-102.68-16.52-1.01-9.43,71.6-52.04,71.6-52.04,0,0,72.82,29.42,81.8,44.25,5.35,8.87,53.26,91.6,75.63,130.26.03.05.06.11.09.15l.02.02c.13.25.28.49.41.74,3.69,4.06,24.4,26.66,34.74,32.58,2.02,1.16,4.17,2.26,6.22,3.25,0,0,.02,0,.03.02,5.41,2.61,10.17,4.44,10.24,4.47,18.63,7.5,27.82,14.89,25.92,20.79Z"/>
        <path d="M613.05,620.49c-2.88,8.9-31.81,12.79-66.22,4.69l-1.88-.44c-8.76-2.06-19.69-4.61-32.17-9.3-5.77-2.15-7.08-10.88-6.42-18.74,2.16,0,4.81.81,8.02,2.88,14.22,9.17,48.67,15.25,62.9,12.84,14.21-2.42,8.7-12.05-.39-17.19,5.41,2.61,10.17,4.44,10.24,4.47,18.63,7.5,27.82,14.89,25.92,20.79Z"/>
      </g>
      <path class="cls-8" d="M334.39,366.17c18.88,3.87,39.59,14.5,53.75,22.25-24.13-1.14-63.55,51.06-58.67,57.48.65.86-61.23-1.12-87.56-27.11-26.33-25.99,0-57.57,0-57.57l92.48,4.96Z"/>
      <path class="cls-8" d="M311.32,337.21l25.44,13.98,36.55-7.61s-6.98,3.48-9.7,9.24c-4.04,8.55-5.26,21.12,1.63,28.01-4.67,11.22-77.29,36.53-89.44,40.7-12.15,4.17-46.75-38.52-38.64-59.09,8.1-20.57,74.17-25.24,74.17-25.24Z"/>
      <path d="M248.51,230.82s13.5,6.65,20.57-3.95c7.06-10.6,3.32-22.02-.83-26.8-4.16-4.78-2.73-26.79-21.33-22.74,0,0-25.83-11.54-31.86,10.06-11.85,2.35-20.5,20.4-8.24,31.8.36,1.08-9.37,15.97,10.57,18.27,19.95,2.3,31.12-6.65,31.12-6.65Z"/>
      <g>
        <path class="cls-9" d="M227.68,210.5s5.51,25.78,2.95,31.48c-2.56,5.7-7.96,8.65-7.96,8.65,4.38,4.23,24.32,16.93,41.07,20.52.78-6.89,2.08-17.31-3.57-26.85,0,0-.77-.03-3.99-3.47-3.34-3.57-2.05-20.48-2.05-20.48l-26.46-9.85Z"/>
        <g class="cls-14">
          <path class="cls-11" d="M215.34,206.94s26.18,36.22,51.32,30.06c25.14-6.17-15.79-36.71-15.79-36.71l-35.53,6.65Z"/>
        </g>
      </g>
      <path class="cls-9" d="M262.19,191.26s7.27,28.26-9.65,36.57c-10.61,1.9-21.66-10.35-21.66-10.35-15.89.7-14.15-15.87-6.51-14,2.94.29,8.52,1.86,8.73-10.09.06-3.61,11.32,2.96,18.8-9.05,5.3,3.62,5.02,3.86,10.28,6.92Z"/>
      <path d="M199.14,394.24c-36.66-39.01-26.04-123.72,5.98-133.63,30.55,9.95,14.43,63.51,26.41,105,0,0-9.41,35.17-32.4,28.63Z"/>
      <path class="cls-4" d="M269.72,442.6s21.48,17.38,30.87,19.2c9.27,3.74,27.44,8.82,28.88,6.49,2.85-4.62-16.96-8.05-12.44-12.6,5.34,2.69,27.74,18.63,27.93,8.48,6.46,2.67,9.1-.87,1.78-9.13,3.08-4.45-25.67-22.46-32.45-25.52l-32.1-7.97-12.47,21.06Z"/>
      <path class="cls-4" d="M232.09,366.17c-15.13,6.93-30.97,15.05-33.42,27.51,0,0,30.79,33.68,71.05,48.92,20.78,7.86,12.47-21.06,12.47-21.06-24.34-12.86-46.25-45.54-50.1-55.38Z"/>
      <path class="cls-7" d="M357.66,373.2c-1.05,0-18.64-5.38-22.16-6.46-.07-.02-.13-.06-.18-.11l-24.31-23.17c-.18-.17-.19-.46-.02-.65.18-.18.46-.19.65-.02l24.23,23.09c8.32,2.55,20.92,6.34,21.79,6.39.25.01.45.22.44.47,0,.25-.2.44-.45.44Z"/>
      <path class="cls-7" d="M310.28,335.38c-.2,0-.38-.13-.44-.32-.85-2.73-8.33-26.71-8.33-28.6,0-.64.4-1.33.96-2.28,1.39-2.36,3.7-6.32,3.41-14.73-.4-11.53-18.1-29.21-18.28-29.38-.18-.18-.18-.47,0-.65.18-.18.47-.18.65,0,.74.73,18.13,18.11,18.55,30,.3,8.68-2.19,12.94-3.53,15.23-.47.8-.83,1.42-.83,1.82,0,1.32,4.96,17.66,8.29,28.33.08.24-.06.5-.3.57-.05.01-.09.02-.14.02Z"/>
      <path class="cls-7" d="M227.3,335.8c-.23,0-.43-.18-.46-.42-.72-7.79-1.07-15.36-1.4-22.68-.89-19.39-1.66-36.13-9.33-41.18-.21-.14-.27-.42-.13-.63.14-.21.42-.27.63-.13,8.06,5.3,8.8,21.45,9.75,41.9.34,7.31.68,14.87,1.4,22.64.02.25-.16.47-.41.5-.01,0-.03,0-.04,0Z"/>
      <path class="cls-7" d="M296.68,382.55c-.11,0-.23-.04-.32-.13-.18-.17-.19-.46-.02-.65,6.26-6.57,33.08-12.06,34.22-12.29.25-.05.49.11.54.36.05.25-.11.49-.36.54-.28.06-27.67,5.66-33.74,12.02-.09.09-.21.14-.33.14Z"/>
      <path class="cls-7" d="M335.88,361.67c-.25,0-.46-.2-.46-.46v-6.86c0-.25.21-.46.46-.46s.46.21.46.46v6.86c0,.25-.21.46-.46.46Z"/>
      <path class="cls-7" d="M299.11,371.95c-.17,0-.33-.09-.41-.25-.12-.22-.03-.5.2-.62,1.37-.7,8.59-1.55,18.65-2.67,5.4-.6,10.98-1.23,11.75-1.52.23-.09.5.03.59.26.09.24-.03.5-.26.59-.84.32-5.1.81-11.98,1.58-7.58.85-17.01,1.9-18.34,2.58-.07.03-.14.05-.21.05Z"/>
      <path class="cls-7" d="M255.91,324.07c-12.43,0-19.58-8.84-19.68-8.97-.16-.2-.12-.49.08-.64.2-.16.49-.12.64.08.03.04,3.43,4.28,9.52,6.8,8.04,3.32,17.15,2.13,26.34-3.44.22-.13.5-.06.63.15.13.22.06.5-.15.63-6.56,3.97-12.38,5.39-17.36,5.39Z"/>
      <path class="cls-7" d="M234.35,188.54c-.23,0-.43-.18-.45-.41-.03-.25.16-.48.41-.5,6.12-.63,10.61-2.96,12.63-6.57.12-.22.4-.3.62-.18.22.12.3.4.18.62-2.17,3.88-6.91,6.38-13.34,7.04-.02,0-.03,0-.05,0Z"/>
      <path class="cls-7" d="M224.65,198.93c-.22,0-.41-.15-.45-.37-.05-.25.12-.49.36-.54,1.86-.36,3.22-1.22,4.03-2.57,1.75-2.91.46-7.19.45-7.23-.07-.24.06-.5.3-.57.24-.08.5.06.57.3.06.19,1.43,4.7-.54,7.97-.95,1.58-2.51,2.59-4.64,3-.03,0-.06,0-.09,0Z"/>
      <path class="cls-7" d="M257.84,187.45c-.07,0-.15-.02-.22-.05-4.55-2.44-6.39-7.21-6.46-7.41-.09-.24.03-.5.27-.59.23-.09.5.03.59.27.02.05,1.8,4.65,6.04,6.93.22.12.31.4.19.62-.08.15-.24.24-.4.24Z"/>
      <path class="cls-7" d="M218.71,227.48s-.05,0-.08,0c-2.83-.51-4.49-1.6-4.94-3.24-.99-3.61,4.49-8.42,4.72-8.63.19-.17.48-.15.65.05.17.19.15.48-.05.65-.05.05-5.28,4.64-4.44,7.69.35,1.27,1.77,2.14,4.22,2.58.25.04.41.28.37.53-.04.22-.23.38-.45.38Z"/>
      <path class="cls-7" d="M265.82,273.05s-.07,0-.11-.01c-.25-.06-.4-.31-.34-.55,4.46-18.26-2.74-26.83-2.81-26.92-.17-.19-.14-.48.05-.65.19-.17.48-.15.65.05.31.36,7.58,9.02,3.01,27.73-.05.21-.24.35-.44.35Z"/>
      <path class="cls-7" d="M306.34,331.64c-.17,0-.33-.09-.41-.26-.25-.5-24.77-50.13-40.26-55.61-3.28-1.16-6.13-2.06-8.89-2.93-10.27-3.24-18.39-5.8-37.09-18.39-.21-.14-.27-.43-.12-.64.14-.21.43-.26.64-.12,18.6,12.52,26.65,15.06,36.86,18.27,2.77.87,5.63,1.77,8.92,2.94,15.84,5.6,39.77,54.01,40.78,56.07.11.23.02.5-.21.61-.07.03-.13.05-.2.05Z"/>
      <path class="cls-7" d="M205.68,374.37c-.13,0-.25-.05-.34-.15-.17-.19-.15-.48.04-.65,9.72-8.61,23.79-9.3,23.93-9.31.25-.01.47.18.48.44.01.25-.19.47-.44.48-.14,0-13.89.69-23.36,9.08-.09.08-.2.11-.3.11Z"/>
      <path class="cls-7" d="M205.68,365.18c-.15,0-.29-.07-.38-.2-.14-.21-.09-.49.12-.64,6.57-4.54,18.4-5.5,18.91-5.53.25-.02.47.17.49.42.02.25-.17.47-.42.49-.12,0-12.09.98-18.46,5.37-.08.06-.17.08-.26.08Z"/>
      <path class="cls-2" d="M447.38,438.55s8.8,5.03,13.49,0"/>
      <path class="cls-3" d="M350.68,236.83c.07-6.65-19.84-40.92-23.37-39.46-3.53,1.45,9.43,25.44,9.43,25.44,0,0-2.3-1.92-6.31-5.65-4.97-4.62-11.54-8.08-12.78-6.66-3.77,4.32,2.49,5.46,9.97,12.41,5.67,5.27,6.75,13.99,6.82,14.94.12,1.62-16.01-17.42-19.75-11.66-1.16,2.79,19.55,17.27,14.78,20.02-4.77,2.74-18.55-12.39-19.32-7.2-.77,5.19,16.01,15.08,21.54,22.16l1.44,1.74c2.07,2.51,2.17,6.1.24,8.72l-20.38,27.56,2.91,43.94c15.5,4.52,29.94-43.67,37.59-71.99,3.43-12.7-2.36-31.02-2.8-34.31Z"/>
      <path d="M190.34,401.66s.04,0,.05.03c1.94,3.16,3.77,6.26,5.55,9.27,12.18,20.59,22.69,38.37,54.28,53.62.03.02.04.05.03.09-.01.02-.03.03-.06.03,0,0-.02,0-.02,0-31.62-15.27-42.15-33.06-54.33-53.67-1.77-3-3.6-6.09-5.55-9.27l.02-.09s.02,0,.03,0M190.34,401.27c-.08,0-.16.02-.24.07-.22.13-.28.41-.15.63,1.94,3.16,3.77,6.26,5.55,9.26,12.22,20.66,22.77,38.5,54.5,53.82.06.03.13.05.2.05.17,0,.33-.1.41-.26.11-.23.01-.5-.21-.61-31.48-15.2-41.97-32.93-54.11-53.46-1.78-3-3.61-6.11-5.55-9.27-.09-.14-.24-.22-.39-.22h0Z"/>
      <path d="M389.37,459.09s.05.01.06.05l8.99,32.69-.06.03s-.05-.01-.06-.05l-8.99-32.69.04-.03s.01,0,.02,0M389.37,458.69s-.08,0-.12.02c-.24.07-.39.32-.32.56l9,32.65c.06.2.24.34.44.34.04,0,.08,0,.12-.02.24-.07.39-.32.32-.56l-9-32.65c-.06-.2-.24-.34-.44-.34h0Z"/>
      <path d="M167.43,256.4h.02s.05.05.04.09c-.15.38-14.6,38.18-11.53,71.89,0,.04-.02.07-.06.07-.03,0-.06-.03-.06-.06-3.09-33.82,11.39-71.57,11.54-71.95.01-.03.04-.04.06-.04M167.43,256.01c-.18,0-.36.11-.43.29-.15.38-14.65,38.26-11.56,72.13.02.24.22.42.46.42.01,0,.03,0,.04,0,.25-.02.44-.25.41-.5-3.07-33.65,11.36-71.34,11.5-71.71.09-.24-.03-.5-.26-.59-.05-.02-.11-.03-.17-.03h0Z"/>
      <path d="M311.32,472.02s.03,0,.05.02c.02.02.01.07,0,.09-3.64,3-14.51,19.12-18.58,39.39,0,.03-.03.05-.07.05,0,0,0,0,0,0-.04,0-.06-.04-.05-.08,3.81-18.97,14.15-35.77,18.63-39.46.01,0,.03-.01.04-.01M311.32,471.63c-.1,0-.21.03-.29.1-4.51,3.72-14.94,20.62-18.76,39.69-.05.25.11.49.36.54.03,0,.06,0,.09,0,.21,0,.4-.15.45-.37,4.05-20.17,14.84-36.19,18.45-39.16.2-.16.22-.45.06-.64-.09-.11-.22-.17-.35-.17h0Z"/>
      <path d="M292.72,463.75s.04,0,.06.03c.01.03,0,.07-.02.09-.18.1-.52.24-.98.43-3.34,1.35-13.5,5.46-19.09,17.47-.01.02-.03.03-.06.03,0,0-.01,0-.02,0l-.03-.08h0c5.62-12.05,15.81-16.18,19.16-17.54.46-.19.8-.32.97-.42,0,0,.02,0,.03,0M292.72,463.36c-.08,0-.15.02-.22.06-.15.08-.49.22-.92.4-3.39,1.37-13.69,5.54-19.37,17.73-.11.23,0,.5.22.61.06.03.13.04.19.04.17,0,.34-.1.42-.26,5.53-11.87,15.58-15.94,18.88-17.27.5-.2.83-.34,1.03-.45.22-.12.3-.4.18-.62-.08-.15-.24-.23-.4-.23h0Z"/>
      <path d="M358.32,307.06l.04.41,23.07,16.13s.04.06.02.09c-.01.02-.02.02-.05.02-.01,0-.03,0-.04,0l-23.07-16.13s-.04-.06-.02-.09c.02-.02.04-.03.05-.03v-.39M358.32,307.06c-.14,0-.29.07-.38.2-.15.21-.09.49.11.64l23.07,16.13c.08.06.17.08.26.08.14,0,.29-.07.38-.2.14-.21.09-.49-.11-.64l-23.07-16.13c-.08-.06-.17-.08-.26-.08h0Z"/>
    </g>
  </g>
  <path class="cls-6" d="M379.29,238.83c0-53.65,36.01-97.09,80.43-97.09-44.42,0-80.43-43.49-80.43-97.11,0,53.62-36.02,97.11-80.45,97.11,44.43,0,80.45,43.45,80.45,97.09Z"/>
  <path class="cls-15" d="M426.94,222.71c0-7.91,5.31-14.31,11.86-14.31-6.55,0-11.86-6.41-11.86-14.31,0,7.9-5.31,14.31-11.86,14.31,6.55,0,11.86,6.4,11.86,14.31Z"/>
  <line class="cls-1" x1="447.52" y1="192.77" x2="515.6" y2="33.72"/>
  <path class="cls-1" d="M440.61,31.27c0,1.36-10.85,72.75-10.85,72.75"/>
</svg>