<?xml version="1.0" encoding="utf-8"?>
<!-- Generator: Adobe Illustrator 24.3.0, SVG Export Plug-In . SVG Version: 6.00 Build 0)  -->
<svg version="1.1" id="Layer_1" xmlns="http://www.w3.org/2000/svg" xmlns:xlink="http://www.w3.org/1999/xlink" x="0px" y="0px"
	 viewBox="0 0 872 768" style="enable-background:new 0 0 872 768;" xml:space="preserve">
<style type="text/css">
	.st0{fill:url(#SVGID_1_);}
	.st1{fill:#FFFFFF;stroke:#000000;stroke-width:0.86;stroke-linecap:round;stroke-linejoin:round;}
	.st2{fill:#BFBFBF;}
	.st3{fill:#363E44;}
	.st4{fill:#FFFFFF;stroke:#000000;stroke-width:0.13;stroke-linecap:round;stroke-linejoin:round;}
	.st5{fill:#FFFFFF;stroke:#000000;stroke-width:0.22;stroke-linecap:round;stroke-linejoin:round;}
	.st6{fill:#FFFFFF;stroke:#000000;stroke-width:0.21;stroke-linecap:round;stroke-linejoin:round;}
	.st7{fill:none;stroke:#000000;stroke-width:0.35;stroke-miterlimit:10;}
	.st8{fill:#AFAFAF;}
	.st9{fill:#FFFFFF;stroke:#000000;stroke-width:0.12;stroke-linecap:round;stroke-linejoin:round;}
	.st10{fill:#DFDFDF;}
	.st11{fill:none;stroke:#AFAFAF;stroke-width:0.47;stroke-miterlimit:10;}
	.st12{fill:#FFFFFF;stroke:#000000;stroke-width:0.62;stroke-linecap:round;stroke-linejoin:round;}
	.st13{stroke:#FFFFFF;stroke-width:1.33;stroke-linecap:round;stroke-linejoin:round;}
	.st14{fill:#FFFFFF;stroke:#000000;stroke-width:0.41;stroke-miterlimit:10;}
	.st15{fill:none;stroke:#000000;stroke-width:0.41;stroke-miterlimit:10;}
	.st16{opacity:0.26;fill:#BFBFBF;enable-background:new    ;}
	.st17{fill:#EFEFEF;}
	.st18{fill:#FFFFFF;}
	.st19{fill:#404040;}
</style>
<linearGradient id="SVGID_1_" gradientUnits="userSpaceOnUse" x1="215.03" y1="28.25" x2="375.23" y2="28.25" gradientTransform="matrix(1 0 0 -1 0 770)">
	<stop  offset="0" style="stop-color:#FFFFFF"/>
	<stop  offset="1" style="stop-color:#999999"/>
</linearGradient>
<ellipse class="st0" cx="295.1" cy="741.8" rx="80.1" ry="13"/>
<path class="st1" d="M255,739.9c3.7,10.6,38.5,14.3,79.4,3.6l2.2-0.6c10.4-2.7,23.4-6.1,38.2-12.1c6.8-2.7,8.1-13.2,7.1-22.6
	c-0.1-1.2-0.3-2.3-0.5-3.4c-2.4-14.1-0.2-23.2,0.1-24.5l-0.1-0.1l0.4-0.1l0.1-0.2c35.6-53,91.8-56.8,112.1-147.2
	c0,0,121.4-11.6,122.4-22.9s-87.2-60.1-87.2-60.1s-86.3,37.4-96.5,55.4c-6.1,10.8-61,111.2-86.6,158.1c0,0.1-0.1,0.1-0.1,0.2l0,0
	c-0.1,0.3-0.3,0.6-0.5,0.9c-4.3,5-28.4,32.6-40.6,40c-2.4,1.4-4.9,2.8-7.4,4.1l0,0c-6.4,3.3-12,5.6-12.1,5.7
	C263.3,723.8,252.5,732.9,255,739.9z"/>
<path d="M255,739.9c3.7,10.6,38.5,14.3,79.4,3.6l2.2-0.6c10.4-2.7,23.4-6.1,38.2-12.1c6.8-2.7,8.1-13.2,7.1-22.6
	c-2.6,0.1-5.7,1.1-9.5,3.7c-16.8,11.4-57.8,19.7-74.9,17.3s-10.8-14.2,0-20.6c-6.4,3.3-12,5.6-12.1,5.7
	C263.3,723.8,252.5,732.9,255,739.9z"/>
<path class="st2" d="M425.5,512l-3.2,123.9c-0.4,0-73.8,40.7-73.3,37.2c0.3-2.3-4.2-103.3-7.4-171.6c-0.4-9.1,0.8-18.1,3.5-26.8
	l50.7,8.6L425.5,512z"/>
<path class="st2" d="M541.1,531.4L384.8,702.3L330,659l87.1-142.5c0,0,28.3-41.2,66-22C520.8,513.7,541.1,531.4,541.1,531.4z"/>
<path class="st2" d="M404.9,422.1c110.2-19,217.5,17.7,322.6,96.2c0,0,7.4,49.4-50.5,63s-251.1-86.9-251.1-86.9l-0.5,17.5
	l-80.4-37.2C353.6,447.4,376.7,427.1,404.9,422.1z"/>
<path class="st3" d="M518.6,538.6h-0.2L405.1,486c-0.2-0.1-0.3-0.3-0.2-0.4s0.3-0.3,0.4-0.2c0,0,0.1,0,0.1,0l113.4,52.5
	c0.2,0.1,0.3,0.3,0.2,0.4c0,0,0,0,0,0C518.9,538.5,518.8,538.6,518.6,538.6z"/>
<path class="st3" d="M350.2,626.2c-0.1,0-0.1,0-0.2,0c-0.2-0.1-0.2-0.3-0.1-0.5l70.1-115c0.1-0.2,0.3-0.2,0.5-0.1
	c0.2,0.1,0.2,0.3,0.1,0.5c0,0,0,0,0,0l-70.1,115C350.4,626.2,350.3,626.3,350.2,626.2z"/>
<path d="M710.9,247.4L710.9,247.4c-0.4,0.1-0.9,0.1-1.4,0l-6-1.5c-2.5-0.9-6.4-0.9-11.2,4.2c-7.2,7.6-11.7,6.3-13,5.7l-0.3-0.2
	l0.3,0.2c1.7,0.9,9,4.2,14.7-1.3c0.4-0.4,0.8-0.8,1.2-1.1c1-0.8,2.1-1.4,3.3-1.8c1.2-0.4,2.6-0.5,3.8-0.3c3,3.9,6.2,16.7,3,28
	c-0.9,3.2-1.5,5.7-1.9,7.6l0,0c-0.6,1.5-5.9,12.9-20.6,7.6c-15.7-5.7-19.8-24.2-36-17.1s-12.8,8.6-27.9,1.3s-13.2-34.3-13.2-34.3
	s8.5,1.2,14.7-4.8s22.2-9.6,35.2,0.4c16.4,12.6,22,3.3,29.7-2.1C691.6,236.2,705.2,234.3,710.9,247.4z"/>
<path class="st4" d="M620.5,257.5L620.5,257.5l-0.1-0.2l0,0c-3.8-8-13.5-11.4-21.5-7.6c-7.8,3.7-11.3,12.9-7.9,20.8
	c0,0,7,18.8,13.4,20.1c2.3,0.5,5.1-1.3,7.7-3.8l5.9,13.5l1.4,17.1l17.5-22.7L620.5,257.5z"/>
<path d="M627.4,264.5c2.1-4.7-3.9-13.9-10.5-17.4c-8.6-4.5-15.1-5.6-22.6-1.3c-11.2,6.5-8.9,22.1-8.9,22.1s11.6-4.9,15.6-6.4
	c5.6-2.2,8.5,16.1,14.9,5.7c0.7-1.1,9.5,21.3,19.2,15.4C648.3,274.4,625.2,269.5,627.4,264.5z"/>
<ellipse class="st5" cx="614.6" cy="267.2" rx="9.8" ry="9.9"/>
<path class="st3" d="M687.3,292.8c-1.7,0-3.4-0.3-5-0.9c-5-2-8.4-6.5-11.7-10.7l-1-1.4c-3.3-4.3-7.9-9.2-13.9-9.7
	c-3.2-0.2-6.2,0.8-9.2,1.9c-2.6,1.1-5.3,1.7-8.1,2c-8.1-0.1-14.7-6.7-14.6-14.8c0-0.1,0-0.3,0-0.4c0-0.2,0.1-0.3,0.3-0.3
	c0.1,0,0.3,0.1,0.3,0.3c0,0,0,0,0,0c-0.3,7.8,5.9,14.4,13.7,14.6c0.1,0,0.3,0,0.4,0c2.7-0.3,5.4-0.9,7.9-1.9c3-1.1,6.2-2.2,9.5-1.9
	c6.2,0.5,10.9,5.5,14.2,9.9l1,1.4c3.3,4.2,6.6,8.6,11.5,10.6c7.8,2.7,16.3-1.4,19-9.1c0-0.1,0.2-0.2,0.3-0.2c0.1,0,0.2,0.2,0.2,0.4
	c-1.3,3.9-4.2,7.1-7.9,8.8C692,292.3,689.7,292.8,687.3,292.8z"/>
<path class="st3" d="M669.2,243.7c-1.1,0-2.1-0.1-3.1-0.4c-2.1-0.7-4.1-1.7-6-3c-0.8-0.5-1.7-1.1-2.6-1.6
	c-9.3-4.8-20.5-3.9-28.9,2.4c-0.1,0.1-0.2,0.1-0.3,0c0,0,0,0,0,0c-0.1-0.1-0.1-0.2,0-0.3c8.5-6.4,19.9-7.3,29.4-2.4
	c0.9,0.5,1.8,1,2.7,1.6c1.8,1.2,3.8,2.2,5.9,2.9c5.7,1.4,11.6-1.3,14.2-6.6c0-0.1,0.2-0.1,0.3-0.1c0.1,0,0.1,0.2,0.1,0.3
	C678.6,240.9,674.1,243.6,669.2,243.7z"/>
<path d="M382.5,419.4h93.7c6.4,0,11.5-5.2,11.5-11.5v0H382.5V419.4z"/>
<path d="M381.8,419.1l-28.4-89.6c-1.9-6.1,1.4-12.6,7.5-14.5l31.9,100.6L381.8,419.1z"/>
<path d="M741,526.4l-171.8-76.7l25.9-115.9l7.7-23c1.2-3.6,3.9-6.5,7.4-8l6.3-2.7c11.8-5.1,30.2-11.1,42-6l0,0
	c7.6,4.2,14.2,10.2,19.1,17.4C694.1,335.9,728.7,400.6,741,526.4z"/>
<path class="st6" d="M597,393.1c-37.9-13.8-82.5-20.1-124.4-19.3l0,0c-12.1-1-29.9,9.1-35.1,11.1c-9.4,3.5-18.5,9.1-17,13.2
	c1.8,4.9,10.6-0.1,15.5-1.1c5.8-1.2,8.6-0.9,9,0c0.5,1.2-5.7,1.9-9.5,6.9c-4.5,5.9-5.9,13.9-2.3,15.1s7.2-6.9,11.6-9.1
	c2.7-1.3,5.9-1.9,6.2-1.2c0.4,1-5.1,1.8-8.9,6.2c-5.3,6.1-6.7,15.3-3.6,16.2c4,1.2,7.4-6.8,9.5-8.3c4.7-3.3,8.2-6.4,8.9-5.5
	s-3.2,3.2-5.5,8.6s-3.2,11.2-0.5,12.5c4,1.9,6-8.3,17.5-12.9c6.8-2.8,10-0.9,15.8-4.4c2.4-1.5,4.5-3.3,6.2-5.5
	c21.4,13.5,78.5,46.4,108,35.6c15.1-5.5,20.1-15.3,20.7-24.8C619.7,411.5,610.8,398.1,597,393.1z"/>
<path d="M658.3,328.3l-37.3,17.2l16.8,57.6c0,0-49.6-20.5-92-27.5c-8.2-1.3-15.9,4.2-17.3,12.4l-6.8,39.3c-1.2,7.1,3.1,14,10,16
	l148.7,44.1c31,8.1,60.2-18.2,55.2-49.8c-4.8-30-18.5-73.8-52-105.3C676.8,326,666.8,324.4,658.3,328.3z"/>
<path class="st3" d="M691.9,489.3c-3.9,0-7.8-0.5-11.5-1.5l-34.7-8c-0.2,0-0.3-0.2-0.3-0.4c0-0.2,0.2-0.3,0.4-0.3l34.7,8
	c16.6,4.4,34.3-1.2,45.2-14.5c0.1-0.1,0.3-0.2,0.5-0.1c0,0,0,0,0,0c0.1,0.1,0.1,0.4,0,0.5C717.8,483.3,705.2,489.2,691.9,489.3z"/>
<path class="st3" d="M638.4,403.7l-0.6-0.2c-0.2-0.1-24.1-8.6-52.3-17c-0.2-0.1-0.3-0.3-0.2-0.4c0.1-0.2,0.2-0.3,0.4-0.2
	c25.7,7.6,47.7,15.3,51.7,16.7l-7.7-26.5c-0.1-0.2,0-0.4,0.2-0.4s0.4,0,0.4,0.2c0,0,0,0,0,0L638.4,403.7z"/>
<path class="st3" d="M627.2,367c-0.1,0-0.3-0.1-0.3-0.2c-3.3-10-0.4-19.3,8.2-26.9c4.2-3.6,9-6.5,14.2-8.5c0.2-0.1,0.4,0,0.5,0.2
	c0.1,0.2,0,0.4-0.2,0.5l0,0c-5.1,2-9.8,4.9-14,8.4c-8.6,7.5-11.3,16.3-8,26.2c0.1,0.2,0,0.4-0.2,0.4c0,0,0,0,0,0L627.2,367z"/>
<path class="st7" d="M300,332.1c0,0,54.5,47.2,65.9,117.2c13.6,84.2-175.6,132.1-144,206.6c21,49.5,75.4,42.8,89,23
	c12.5-18.2-33.1-28.2-57.7-31.6c-30-4.1-74.8-41.4-81.6,3.8c-9.7,64.2,89.9,55.2,72.4,36.4s-42.7,18.4-10.4,24.2
	S317,674.8,371,694.6s90.4,7.3,99.2-6.3c0,0,25.3-53.4,107-28.8s-37.2,130.9-72.1,99.7s108.4,5.1,192.6-5.7
	c87.7-11.3,47.3-92.5,38.5-125.2s29.1-100.5-9.8-139.4s-44.8-75.3-44.8-75.3"/>
<path class="st8" d="M302.4,336.2l-2.3,1c-1.4,0.6-2.9,0-3.5-1.4l0,0l-11.1-25.7l0,0l7.2-3.1l0,0l11.1,25.7
	C304.4,334,303.7,335.6,302.4,336.2L302.4,336.2z"/>
<path class="st9" d="M188.5,359.2c3.5,4,11.3,7.8,21.5,9.4c20.3,3.1,45.8-5.3,71.8-34.6c39.1-44.1,5.4-202.2-6.6-225.3
	c-9.2-17.9-40-36.9-63.2-42.7c-4.2-1.1-8.6-1.7-13-1.8c-1.4,0-2.7,0.1-4.1,0.3h-0.2h-0.2h-0.1c-30.6,6-31.6,69.3-23.5,89.5
	c6.8,17,21.2,17.9,34.1,13.7c2.4-0.9,4.7-2,7-3.2c12.3-6,19,2.4,20.8,6.9c10,25,17,91.7,6.6,103.1c-6.5,7.1-14.4,2.9-24.6,0.9
	c-6.1-1.2-13.1-1.6-21,1.8C172.5,286.2,178.1,347.1,188.5,359.2z"/>
<path class="st10" d="M191.4,361.8c4.1,3,10.6,5.6,18.6,6.8c20.3,3.1,45.8-5.3,71.8-34.6c39.1-44.1,5.4-202.2-6.6-225.3
	c-8.7-17-36.9-34.9-59.6-41.7c18.3,8.7,36.4,22.2,43.1,35.3c11.9,23.1,45.6,181.3,6.6,225.3c-26,29.3-51.5,37.7-71.8,34.6
	L191.4,361.8z"/>
<path class="st8" d="M199.1,64.9c-1.3,0-2.7,0.1-4,0.3h-0.2h-0.2l-0.1-0.7l0.1,0.7c-7.4,1.4-13.5,6.5-18.1,14.9
	c-11.4,20.9-10.8,58.4-4.8,73.5c7.2,18.1,23,16.4,32.4,13.5c-2.8-6.2-10.1-24.7-9.2-46.9c0.8-20.8,11.3-44,16.2-53.9
	C207.1,65.4,203.1,64.9,199.1,64.9z"/>
<path class="st8" d="M209.9,369.3c-9.8-1.5-18-5.1-21.9-9.6l0,0c-7.4-8.6-12.4-41.6-7.3-63.5c2.4-10.3,6.9-17.1,12.8-19.7
	c6.8-2.8,14.3-3.5,21.4-1.8c0.2,0,0.4,0.2,0.5,0.4c0.1,0.2,0.1,0.5,0,0.7c-7.2,14.5-10.8,30.6-10.6,46.8c0.6,21.4,3.4,37.7,5.9,45.8
	c0.1,0.2,0,0.5-0.1,0.7c0,0,0,0.1-0.1,0.1C210.4,369.2,210.1,369.3,209.9,369.3z"/>
<path class="st11" d="M254.1,154.1c0,0,15.4,41.2,17.4,83.2c1.9,40.7-13.9,70-13.9,70"/>
<path class="st12" d="M456.8,417.2c0,0,11.1-7.4,23.7-10.3"/>
<path class="st12" d="M451,407.9c0,0,12.1-8,25.4-9.6"/>
<path class="st13" d="M591.5,247.9c0,0,14.5-0.5,18.4,10.6"/>
<path class="st14" d="M632.2,148.2c-0.3,21.4-17.8,38.5-39.2,38.2c-21.4-0.3-38.5-17.8-38.2-39.2c0.3-21.4,17.8-38.5,39.2-38.2
	c21,0.3,38,17.2,38.2,38.2C632.2,147.6,632.2,147.9,632.2,148.2"/>
<line class="st15" x1="593.5" y1="109.4" x2="593.5" y2="187"/>
<path class="st14" d="M586.9,110c0,0-40.2,30.5-4.6,75.3"/>
<path class="st14" d="M598.9,110c0,0,40.3,31.2,4.7,76"/>
<line class="st15" x1="555" y1="153.3" x2="632.2" y2="153.3"/>
<path d="M597.7,117.6c0-4.2,2.8-7.6,6.3-7.6c-3.5,0-6.3-3.4-6.3-7.6c0,4.2-2.8,7.6-6.3,7.6C594.9,110,597.7,113.4,597.7,117.6z"/>
<path d="M207,183.4c0-9.7,6.5-17.4,14.4-17.4c-8,0-14.4-7.8-14.4-17.5c0,9.6-6.5,17.5-14.5,17.5C200.5,165.9,207,173.7,207,183.4z"
	/>
<path class="st16" d="M314.7,247.9c0-51.9,34.8-93.7,77.6-93.7c-42.8,0-77.6-42.1-77.6-93.8c0,51.8-34.8,93.8-77.8,93.8
	C279.9,154.1,314.7,196,314.7,247.9z"/>
<path class="st17" d="M692.9,583.1h-76.7c0,0-9,23.8-7.3,31.8c3.1,14.8,36.5,36.3,36.5,51.4s-33.4,36.6-36.5,51.4
	c-1.7,8,7.3,31.8,7.3,31.8h76.7c0,0,9-23.8,7.3-31.8c-3.1-14.8-36.5-36.3-36.5-51.4s33.4-36.6,36.5-51.4
	C701.8,606.9,692.9,583.1,692.9,583.1z"/>
<path class="st2" d="M657.2,667c0-8.9,15.8-20.6,22.9-30.5h-49.7c7.5,10,24.5,21.7,24.5,30.5c0,11.2,1.7,54.6-11.9,65.4
	c-4.7,3.7-22,12.8-22,12.8h69.5c0,0-4.9-3.7-17.9-9.6C655.8,727.9,657.2,678.2,657.2,667z"/>
<path class="st18" d="M698.4,749.6h-76.7c-0.1,0-0.2-0.1-0.3-0.2c-0.4-1-9-24-7.3-31.9c1.5-7,9.4-15.2,17.8-24
	c9.2-9.6,18.7-19.5,18.7-27.3s-9.5-17.8-18.7-27.3c-8.4-8.7-16.3-17-17.8-24c-1.6-7.8,6.9-30.8,7.3-31.8c0-0.1,0.2-0.2,0.3-0.2h76.7
	c0.1,0,0.2,0.1,0.3,0.2c0.4,1,9,24,7.3,31.9c-1.5,7-9.4,15.2-17.8,24c-9.2,9.6-18.7,19.5-18.7,27.3s9.5,17.8,18.7,27.3
	c8.4,8.7,16.3,17,17.8,24c1.7,8-7,30.9-7.3,31.9C698.6,749.6,698.5,749.6,698.4,749.6z M621.9,749h76.2c0.8-2.3,8.8-24,7.2-31.4
	c-1.4-6.8-9.7-15.4-17.6-23.7c-9.3-9.7-18.9-19.6-18.9-27.8s9.6-18.1,18.9-27.7c8-8.3,16.2-16.8,17.6-23.7
	c1.5-7.4-6.4-29.1-7.2-31.4h-76.2c-0.8,2.3-8.8,24-7.2,31.4c1.4,6.8,9.7,15.4,17.6,23.7c9.3,9.7,18.9,19.6,18.9,27.7
	s-9.6,18.1-18.9,27.8c-8,8.3-16.2,16.8-17.6,23.7C613.1,725,621,746.7,621.9,749z"/>
<path class="st18" d="M689.5,736.7L689.5,736.7c-0.2-0.1-0.3-0.2-0.3-0.4c2.7-9,3.7-15.5,3-18.7c-1.1-5.2-6.2-11.4-10.6-16.2
	c-0.1-0.1-0.1-0.3,0-0.4s0.3-0.1,0.4,0c4.4,4.8,9.6,11.1,10.7,16.5c0.7,3.3-0.3,9.8-3,19C689.7,736.7,689.6,736.7,689.5,736.7z"/>
<path class="st18" d="M686.1,626.5c-0.2,0-0.3-0.1-0.3-0.3c0-0.1,0-0.1,0.1-0.2c3.6-4.5,5.7-8.2,6.3-11.2c0.9-4.5-1.6-14.2-3.9-21.5
	c-0.1-0.2,0-0.3,0.2-0.4c0,0,0,0,0,0c0.2,0,0.3,0,0.4,0.2c2.3,7.4,4.8,17.2,3.9,21.8c-0.7,3.2-2.7,6.8-6.4,11.5
	C686.3,626.5,686.2,626.5,686.1,626.5z"/>
<path class="st19" d="M614.4,747.7h80.4c3.1,0,5.5,2.5,5.5,5.5v0c0,3.1-2.5,5.5-5.5,5.5h-80.4c-3.1,0-5.5-2.5-5.5-5.5v0
	C608.8,750.1,611.3,747.7,614.4,747.7z"/>
<path class="st19" d="M614.4,574.1h80.4c3.1,0,5.5,2.5,5.5,5.5v0c0,3.1-2.5,5.5-5.5,5.5h-80.4c-3.1,0-5.5-2.5-5.5-5.5v0
	C608.8,576.6,611.3,574.1,614.4,574.1z"/>
<path d="M695.2,253.4c1-0.8,2.1-1.4,3.3-1.8C697.5,252.3,696.4,252.9,695.2,253.4z"/>
</svg>
