<?xml version="1.0" encoding="UTF-8"?>
<svg id="Layer_1" data-name="Layer 1" xmlns="http://www.w3.org/2000/svg" xmlns:xlink="http://www.w3.org/1999/xlink" viewBox="0 0 871 767">
  <defs>
    <style>
      .cls-1 {
        opacity: .05;
      }

      .cls-2 {
        stroke: #1d1d1b;
        stroke-width: .5px;
      }

      .cls-2, .cls-3, .cls-4, .cls-5, .cls-6, .cls-7, .cls-8, .cls-9 {
        stroke-linecap: round;
        stroke-linejoin: round;
      }

      .cls-2, .cls-10, .cls-5 {
        fill: none;
      }

      .cls-3 {
        stroke-width: .88px;
      }

      .cls-3, .cls-11, .cls-4, .cls-6, .cls-8, .cls-9 {
        fill: #fff;
      }

      .cls-3, .cls-10, .cls-4, .cls-6, .cls-8, .cls-9 {
        stroke: #000;
      }

      .cls-12 {
        fill: #1d1d1b;
      }

      .cls-10 {
        stroke-miterlimit: 10;
        stroke-width: .37px;
      }

      .cls-13 {
        fill: #e6de9f;
      }

      .cls-4 {
        stroke-width: .19px;
      }

      .cls-5, .cls-7 {
        stroke: #fff;
        stroke-width: .54px;
      }

      .cls-6 {
        stroke-width: .76px;
      }

      .cls-14 {
        fill: #ddd;
      }

      .cls-15 {
        fill: #efefef;
      }

      .cls-16 {
        fill: #dfdfdf;
      }

      .cls-8 {
        stroke-width: .38px;
      }

      .cls-9 {
        stroke-width: .82px;
      }

      .cls-17 {
        fill: #f4f4f4;
      }

      .cls-18 {
        opacity: .19;
      }

      .cls-19 {
        clip-path: url(#clippath);
      }

      .cls-20 {
        fill: #afafaf;
      }
    </style>
    <clipPath id="clippath">
      <path class="cls-11" d="M424.81,303.07s5.77,27.02,3.1,32.99c-2.68,5.97-8.34,9.06-8.34,9.06,4.59,4.44,25.49,17.74,43.04,21.51.82-7.22,2.18-18.14-3.74-28.14,0,0-.8-.03-4.18-3.64-3.5-3.74-2.15-21.46-2.15-21.46l-27.73-10.32Z"/>
    </clipPath>
  </defs>
  <g>
    <ellipse cx="473.56" cy="673.2" rx="168.67" ry="19.5"/>
    <path class="cls-6" d="M675.56,628.34c.25-77.82-69.54-270.82-197.5-308.17-57.77-16.86-121.28.23-149.48,36.53-34.53,44.44-51.86,197.45-16.87,258.86,12.74,25.85,77.96,65.99,221.03,72.88,42.66,1.77,142.74-35.55,142.82-60.1Z"/>
    <path class="cls-13" d="M476.84,550.96c12.69,0,12.71-19.73,0-19.73s-12.71,19.73,0,19.73h0Z"/>
    <g class="cls-18">
      <path class="cls-20" d="M538.62,552.35c15.51,2.63,31.08,4.88,46.7,6.74,3.93.47,7.86.91,11.8,1.32,1.97.21,3.94.41,5.9.6.84.08,5.28.05,5.91.57.96.79,2.41,6.16,3.28,8.19,1.45,3.41,2.98,6.79,4.58,10.14,10.59,22.14,24.85,48.89,50,56.61,7.71,2.37,11.01-9.7,3.32-12.06-11.72-3.6-20.16-13.05-26.8-22.94-8.05-11.97-14.82-24.99-20.38-38.28-2.41-5.75-3.49-12.26-10.35-13.77-7.47-1.64-15.7-1.57-23.31-2.44-15.83-1.81-31.59-4.09-47.3-6.75-7.87-1.33-11.25,10.72-3.32,12.06h0Z"/>
      <path class="cls-20" d="M392.32,488.01c1.46,17.74,15.57,28.37,28.47,38.71,14.17,11.36,28.74,22.24,43.71,32.52,7.31,5.02,14.65,10.47,22.6,14.43s15.76,5.54,24.32,5.98c17.08.87,35.05-.54,50.23-9.04,9.9-5.54,1.02-20.77-8.9-15.22-12.21,6.84-26.8,7.24-40.47,6.67-15.28-.64-26.71-9.67-38.89-18.04-12.71-8.73-25.15-17.86-37.23-27.44-5.88-4.66-11.92-9.27-17.36-14.46-3.96-3.77-8.38-8.37-8.86-14.11-.92-11.23-18.56-11.32-17.63,0h0Z"/>
    </g>
    <path d="M448.54,337.97l15.49-.08s10.1.56,12.92,3.83c2.82,3.27,23.84,29.57,25.15,41.98,1.31,12.41-3.27,18.29-3.27,18.29l13.06,33.32s-17.32,36.65-72.84,29.4c-14.26-1.86-37.89-109.09-37.89-109.09l17.81-11.05,29.55-6.58Z"/>
    <path d="M470.34,339.85s.71-1.7,5.21.89c26.9,15.44,35.4,49.09,38.67,55.29,3.27,6.21,17.61,37.32,13.04,42.87-4.57,5.55-23.93-6.29-23.93-6.29l-32.99-92.76Z"/>
    <path d="M522.89,284.83c4.48-1.32,16.86-5,22.45-6.66,1.36-.4,2.7.68,2.6,2.09l-4.53,63.42c-.06.89-.7,1.63-1.56,1.83l-24.25,5.68c-1.36.32-2.62-.79-2.48-2.18l6.33-62.45c.08-.82.65-1.51,1.44-1.74Z"/>
    <g>
      <path class="cls-16" d="M568.98,446.54c20.25-11.12,43.34-11.69,70.28-7.41,24.1,3.82,41.84,26.16,25.26,45.74-25.26,29.81-57.79,54.76-57.79,54.76l-94.25-17.85,56.51-75.24Z"/>
      <path class="cls-2" d="M584.9,483.39s11.24-16.96,26.41-19.86"/>
    </g>
    <g>
      <path class="cls-16" d="M828.69,732.77c-3.02,9.33-33.34,13.4-69.4,4.92l-1.97-.46c-9.18-2.16-20.64-4.83-33.71-9.75-6.05-2.25-7.42-11.4-6.73-19.64.08-1.02.2-2.03.34-3.01,1.81-12.38-.3-20.27-.67-21.46l.12-.06-.34-.04c-.04-.05-.07-.1-.11-.15-32.36-45.62-81.59-47.68-101.34-126.38,0,0-106.55-7.44-107.61-17.31-1.06-9.88,75.04-54.54,75.04-54.54,0,0,76.32,30.83,85.73,46.38,5.61,9.3,55.81,96,79.26,136.52.03.05.06.11.09.16l.02.02c.14.26.29.51.43.78,3.87,4.26,25.58,27.94,36.41,34.14,2.12,1.21,4.37,2.37,6.52,3.4.01.01.02.01.03.02,5.67,2.74,10.66,4.65,10.73,4.68,19.52,7.86,29.16,15.6,27.16,21.79Z"/>
      <path d="M828.69,732.77c-3.02,9.33-33.34,13.4-69.4,4.92l-1.97-.46c-9.18-2.16-20.64-4.83-33.71-9.75-6.05-2.25-7.42-11.4-6.73-19.64,2.26,0,5.04.85,8.41,3.02,14.91,9.61,51.01,15.98,65.92,13.46,14.9-2.53,9.12-12.63-.41-18.01,5.67,2.74,10.66,4.65,10.73,4.68,19.52,7.86,29.16,15.6,27.16,21.79Z"/>
    </g>
    <path d="M536.65,466.22c19.79,4.06,41.5,15.2,56.33,23.31-25.29-1.19-66.6,53.51-61.49,60.24.68.9-64.18-1.18-91.77-28.41-27.59-27.23,0-60.34,0-60.34l96.93,5.2Z"/>
    <path d="M512.48,435.88l26.66,14.65,38.3-7.97s-7.31,3.65-10.16,9.69c-4.24,8.97-5.52,22.14,1.7,29.36-4.9,11.76-81,38.29-93.74,42.66-12.74,4.37-48.99-40.37-40.5-61.93,8.49-21.56,77.74-26.46,77.74-26.46Z"/>
    <path d="M446.64,324.38s14.15,6.97,21.56-4.14c7.4-11.11,3.48-23.08-.87-28.09-4.35-5.01-2.86-28.07-22.35-23.83,0,0-27.08-12.1-33.39,10.55-12.42,2.46-21.48,21.38-8.64,33.33.38,1.14-9.82,16.73,11.08,19.15,20.9,2.41,32.61-6.97,32.61-6.97Z"/>
    <g>
      <path class="cls-11" d="M424.81,303.07s5.77,27.02,3.1,32.99c-2.68,5.97-8.34,9.06-8.34,9.06,4.59,4.44,25.49,17.74,43.04,21.51.82-7.22,2.18-18.14-3.74-28.14,0,0-.8-.03-4.18-3.64-3.5-3.74-2.15-21.46-2.15-21.46l-27.73-10.32Z"/>
      <g class="cls-19">
        <path class="cls-17" d="M411.88,299.35s27.44,37.97,53.78,31.5c26.35-6.46-16.55-38.47-16.55-38.47l-37.23,6.97Z"/>
      </g>
    </g>
    <path class="cls-11" d="M460.98,282.91s7.62,29.61-10.11,38.32c-11.12,1.99-22.7-10.84-22.7-10.84-16.66.73-14.83-16.63-6.82-14.67,3.08.3,8.93,1.95,9.15-10.58.07-3.78,11.87,3.1,19.71-9.48,5.55,3.79,5.27,4.04,10.78,7.25Z"/>
    <path d="M394.9,495.65c-38.42-40.88-27.29-129.66,6.27-140.04,32.02,10.42,15.12,66.56,27.68,110.04,0,0-9.87,36.86-33.95,30Z"/>
    <path class="cls-8" d="M468.87,546.33s22.51,18.21,32.35,20.12c9.72,3.92,28.76,9.24,30.26,6.8,2.98-4.84-17.77-8.44-13.04-13.21,5.6,2.82,29.07,19.52,29.27,8.89,6.77,2.8,9.54-.91,1.87-9.57,3.23-4.66-26.9-23.54-34.01-26.75l-33.64-8.35-13.07,22.07Z"/>
    <path class="cls-8" d="M429.43,466.22c-15.86,7.26-32.46,15.77-35.03,28.83,0,0,32.27,35.3,74.47,51.27,21.77,8.24,13.07-22.07,13.07-22.07-25.51-13.48-48.47-47.72-52.51-58.04Z"/>
    <path class="cls-12" d="M511.39,433.96c-.2,0-.39-.13-.46-.34-.89-2.86-8.73-28-8.73-29.97,0-.68.42-1.4,1.01-2.39,1.45-2.48,3.88-6.63,3.57-15.44-.42-12.08-18.97-30.61-19.16-30.8-.19-.19-.19-.49,0-.68.19-.19.49-.19.68,0,.78.77,19,18.98,19.44,31.44.32,9.09-2.3,13.56-3.7,15.96-.49.83-.87,1.49-.87,1.91,0,1.38,5.2,18.51,8.69,29.69.08.25-.06.52-.31.6-.05.01-.1.02-.14.02Z"/>
    <path class="cls-11" d="M424.42,434.39c-.24,0-.45-.19-.48-.44-.75-8.16-1.12-16.1-1.47-23.77-.93-20.32-1.74-37.86-9.78-43.15-.22-.15-.28-.44-.14-.66.15-.22.44-.28.66-.14,8.45,5.56,9.23,22.48,10.21,43.91.35,7.66.72,15.59,1.47,23.73.02.26-.17.5-.43.52-.01,0-.03,0-.04,0Z"/>
    <g>
      <path class="cls-5" d="M498.26,484.87s24.74-11.25,36.25-12.59"/>
      <path class="cls-5" d="M501.04,472.79c.28-.09,28.97-4.88,33.87-3.18"/>
    </g>
    <path class="cls-12" d="M538.21,461.51c-.26,0-.48-.21-.48-.48v-7.19c0-.26.22-.48.48-.48s.48.21.48.48v7.19c0,.26-.22.48-.48.48Z"/>
    <path class="cls-11" d="M454.4,422.1c-13.02,0-20.52-9.27-20.63-9.4-.16-.21-.13-.51.08-.67.21-.16.51-.13.67.08.04.04,3.59,4.49,9.97,7.12,8.42,3.48,17.97,2.23,27.6-3.6.23-.14.52-.07.66.16.14.23.06.52-.16.66-6.87,4.16-12.98,5.65-18.2,5.65Z"/>
    <path class="cls-12" d="M431.8,280.07c-.24,0-.45-.18-.48-.43-.03-.26.16-.5.43-.53,6.42-.66,11.12-3.1,13.24-6.89.13-.23.42-.31.65-.18.23.13.31.42.18.65-2.28,4.06-7.24,6.68-13.98,7.37-.02,0-.03,0-.05,0Z"/>
    <path class="cls-12" d="M421.64,290.95c-.23,0-.43-.16-.47-.39-.05-.26.12-.51.38-.56,1.95-.37,3.37-1.28,4.22-2.69,1.84-3.05.48-7.54.47-7.58-.08-.25.06-.52.32-.6.25-.08.52.06.6.32.06.2,1.49,4.93-.56,8.36-1,1.66-2.63,2.72-4.86,3.14-.03,0-.06,0-.09,0Z"/>
    <path class="cls-12" d="M456.43,278.93c-.08,0-.15-.02-.23-.06-4.77-2.56-6.69-7.55-6.77-7.77-.09-.25.03-.52.28-.62.25-.09.52.03.62.28.02.05,1.89,4.87,6.33,7.26.23.13.32.42.2.65-.09.16-.25.25-.42.25Z"/>
    <path class="cls-12" d="M415.41,320.88s-.06,0-.09,0c-2.97-.54-4.71-1.68-5.18-3.4-1.04-3.78,4.71-8.83,4.95-9.04.2-.17.5-.15.68.05.17.2.15.5-.05.68-.06.05-5.54,4.86-4.65,8.06.37,1.33,1.85,2.24,4.43,2.7.26.05.43.3.39.56-.04.23-.24.39-.47.39Z"/>
    <path class="cls-12" d="M464.79,368.64s-.08,0-.11-.01c-.26-.06-.41-.32-.35-.58,4.68-19.14-2.87-28.12-2.95-28.21-.17-.2-.15-.5.05-.68.2-.17.5-.15.68.05.33.38,7.95,9.45,3.15,29.07-.05.22-.25.37-.47.37Z"/>
    <path class="cls-11" d="M507.26,430.04c-.18,0-.35-.1-.43-.27-.26-.52-25.96-52.54-42.2-58.28-3.43-1.21-6.42-2.16-9.31-3.07-10.77-3.39-19.27-6.08-38.87-19.27-.22-.15-.28-.45-.13-.67.15-.22.45-.28.67-.13,19.49,13.12,27.93,15.78,38.63,19.15,2.9.91,5.9,1.86,9.35,3.08,16.6,5.87,41.68,56.6,42.74,58.76.12.24.02.53-.22.64-.07.03-.14.05-.21.05Z"/>
    <path class="cls-11" d="M401.75,474.82c-.13,0-.26-.05-.36-.16-.18-.2-.16-.5.04-.68,10.19-9.03,24.93-9.75,25.08-9.76.26-.01.49.19.5.46.01.26-.19.49-.46.5-.14,0-14.56.72-24.49,9.51-.09.08-.2.12-.32.12Z"/>
    <path class="cls-11" d="M401.75,465.19c-.15,0-.3-.07-.4-.21-.15-.22-.1-.52.12-.67,6.89-4.75,19.29-5.76,19.81-5.8.26-.02.49.18.52.44.02.26-.18.49-.44.51-.13.01-12.67,1.03-19.34,5.63-.08.06-.18.09-.27.09Z"/>
    <path class="cls-2" d="M655.07,542.09s9.22,5.27,14.14,0"/>
    <path class="cls-4" d="M553.73,330.67c.07-6.97-20.79-42.88-24.5-41.36-3.7,1.52,9.88,26.66,9.88,26.66,0,0-2.41-2.01-6.62-5.92-5.21-4.84-12.09-8.47-13.39-6.98-3.95,4.53,2.61,5.72,10.45,13.01,5.95,5.53,7.07,14.66,7.15,15.66.13,1.7-16.78-18.26-20.7-12.22-1.22,2.92,20.49,18.1,15.49,20.98-5,2.87-19.44-12.98-20.25-7.55-.81,5.44,16.78,15.8,22.58,23.22l1.51,1.82c2.17,2.63,2.28,6.4.25,9.14l-21.36,28.89,3.05,46.05c16.25,4.74,31.38-45.76,39.4-75.45,3.6-13.31-2.47-32.51-2.94-35.96Z"/>
    <path d="M385.68,503.01c-.09,0-.17.02-.25.07-.23.14-.3.43-.16.66,2.03,3.31,3.95,6.56,5.81,9.71,12.81,21.65,23.87,40.35,57.12,56.41.07.03.14.05.21.05.18,0,.35-.1.43-.27.12-.24.02-.53-.22-.64-32.99-15.93-43.98-34.51-56.71-56.03-1.86-3.15-3.79-6.4-5.82-9.72-.09-.15-.25-.23-.41-.23h0Z"/>
    <path d="M594.27,563.19s-.09,0-.13.02c-.26.07-.41.33-.33.59l9.43,34.21c.06.21.25.35.46.35.04,0,.08,0,.13-.02.26-.07.41-.33.33-.59l-9.43-34.21c-.06-.21-.25-.35-.46-.35h0Z"/>
    <path d="M361.67,350.77c-.19,0-.37.12-.45.31-.15.4-15.35,40.1-12.12,75.59.02.25.23.44.48.44.01,0,.03,0,.04,0,.26-.02.46-.26.43-.52-3.22-35.27,11.9-74.76,12.05-75.16.1-.25-.03-.52-.27-.62-.06-.02-.12-.03-.17-.03h0Z"/>
    <path d="M512.48,576.75c-.11,0-.22.04-.3.11-4.73,3.9-15.65,21.61-19.67,41.59-.05.26.12.51.38.56.03,0,.06,0,.09,0,.22,0,.42-.16.47-.39,4.25-21.14,15.55-37.93,19.34-41.04.2-.17.23-.47.07-.68-.09-.12-.23-.18-.37-.18h0Z"/>
    <path d="M492.98,568.09c-.08,0-.16.02-.23.06-.15.09-.51.23-.97.42-3.55,1.44-14.34,5.81-20.3,18.59-.11.24,0,.53.23.64.07.03.13.04.2.04.18,0,.35-.1.43-.28,5.8-12.44,16.33-16.7,19.79-18.1.52-.21.87-.35,1.08-.47.23-.13.31-.42.18-.65-.09-.16-.25-.25-.42-.25h0Z"/>
    <path d="M561.73,404.28c-.15,0-.3.07-.39.2-.15.22-.1.52.12.67l24.18,16.9c.08.06.18.09.27.09.15,0,.3-.07.39-.2.15-.22.1-.52-.12-.67l-24.18-16.9c-.08-.06-.18-.09-.27-.09h0Z"/>
    <g>
      <ellipse class="cls-15" cx="291.25" cy="722.67" rx="40.84" ry="6.06"/>
      <ellipse class="cls-15" cx="338.17" cy="709.91" rx="26.7" ry="3.96"/>
      <g>
        <path class="cls-11" d="M360.04,728.35l-85.17-8c-1.2-.11-2.27-.81-2.86-1.86l-.1-.18-24.65-3.01-.1.04c-1.32.58-4.02,1.54-7.34,1.54-2.64,0-5.12-.62-7.39-1.83l-7.48-3.91c-.19-.1-.31-.29-.31-.51l7.94,4.15c2.19,1.17,4.62,1.77,7.21,1.77,3.54,0,6.41-1.11,7.48-1.59l-.31-.76c-.64.24-1.32.41-2.14.57-.52.1-1.1.15-1.77.15-.61,0-1.23-.04-1.83-.08-.3-.02-.6-.05-.89-.08.11,0,.23,0,.34,0,.17,0,.35,0,.52,0,.72-.01,1.43-.09,2.12-.16.49-.05.98-.1,1.46-.13.56-.04,1.09-.16,1.58-.28l1.73-.41-.16,1.28,23.81,2.91-.11-.56c-.07-.35-.09-.71-.06-1.07.04-.42.15-.83.34-1.22l.24-.51-23.82-2.91-.15,1.2-1.29-.56c-.18-.08-.35-.15-.55-.22-.48-.15-.98-.32-1.47-.5-.5-.17-1-.35-1.48-.5-.27-.08-.54-.16-.81-.24.28.05.55.1.83.16l.33.07c.89.19,1.8.38,2.61.78.29.14.58.29.86.46l.47-.67c-.93-.77-3.64-2.65-8.68-3.42-.79-.12-1.55-.18-2.33-.18-2.06,0-3.92.42-6.07.91l-5.94,1.47c.05-.21.21-.36.42-.42l5.45-1.35c2.16-.49,4.04-.91,6.15-.91.79,0,1.57.06,2.37.18,4.7.72,7.39,2.36,8.57,3.27l.09.07,24.7,3.02.14-.15c.69-.74,1.67-1.16,2.67-1.16.11,0,.23,0,.35.02.06,0,.14.02.2.02l84.59,12.74c.34.05.63.23.84.5s.29.61.24.95c-.09.62-.64,1.08-1.26,1.08-.04,0-.08,0-.12,0ZM246.26,713.39c-.75-.02-1.69-.14-2.23-.25-.2-.04-.39-.08-.58-.12l.89.06c.51.04,1.21.08,1.8.08.24,0,.45,0,.64-.03l1.4-.13-.05.43-1.86-.05Z"/>
        <path d="M247.69,711.74h.07s.15.03.15.03l-.04.3-.03.25-.43-.19.28-.39M275.21,713.44c.1,0,.2,0,.31.01.06,0,.13.01.18.02l84.59,12.74c.47.07.8.51.73.98-.06.42-.43.74-.86.74-.03,0-.05,0-.08,0l-85.17-8c-1.06-.1-2.01-.72-2.54-1.65l-.2-.36h-.03s-.12-.58-.12-.58c-.06-.31-.08-.63-.05-.95.03-.37.14-.74.3-1.09l.25-.53h.03s.28-.3.28-.3c.62-.66,1.48-1.03,2.37-1.03M247.6,714.32l-.04.29-.04.3h-.1s-.19-.04-.19-.04l-.18-.43.54-.13M236.68,707.39c-2.16,0-4.09.44-6.25.93l-5.45,1.35c-.4.1-.7.43-.75.84,0,0,0,0,0,0-.05.41.16.8.53,1l7.48,3.91c2.63,1.41,5.25,1.88,7.59,1.88,3.44,0,6.25-1.03,7.51-1.58l24.33,2.97c.63,1.13,1.79,1.94,3.18,2.07l85.17,8c.05,0,.1,0,.16,0,.82,0,1.54-.6,1.67-1.43.14-.92-.5-1.78-1.42-1.92l-84.59-12.74c-.07-.01-.15-.02-.23-.03-.13-.01-.26-.02-.38-.02-1.16,0-2.22.49-2.97,1.29l-24.38-2.98c-1.17-.91-3.93-2.61-8.76-3.36-.85-.13-1.65-.19-2.43-.19h0ZM239.78,716.14c-2.18,0-4.61-.43-7.02-1.72l-7.18-3.75,5.1-1.26c2.15-.49,3.97-.9,5.98-.9.72,0,1.47.05,2.27.18,4.98.76,7.64,2.63,8.48,3.33-.29-.17-.58-.33-.88-.48-.95-.47-2.01-.66-3.04-.88-1.03-.22-2.07-.37-3.11-.45-.56-.03-1.11-.06-1.67-.06-.49,0-.98.02-1.46.06-.03,0-.05.02-.05.05,0,.03.02.06.05.06,1.03.09,2.05.23,3.05.44,1.01.2,1.99.46,2.96.76.97.3,1.99.7,2.95,1,.18.06.35.13.51.2-.18.02-.38.02-.6.02-.7,0-1.55-.07-2.06-.1l-2.14-.16-2.16-.17s0,0,0,0c-.02,0-.05.01-.05.04,0,.03,0,.06.04.07.69.23,1.39.42,2.08.62.7.19,1.41.35,2.12.5.59.12,1.57.24,2.3.26-.5.12-1,.23-1.51.27-1.19.07-2.37.27-3.57.29-.17,0-.34,0-.51,0-1.03,0-2.07-.07-3.1-.21-.6-.08-1.2-.17-1.79-.31-.3-.06-.59-.14-.88-.23-.29-.09-.57-.19-.84-.32h0s-.02,0-.02,0c-.02,0-.04,0-.05.03-.02.03-.01.06.02.08.52.35,1.1.58,1.69.78.58.21,1.18.37,1.78.53,1.21.28,2.44.46,3.68.55.63.04,1.26.08,1.9.08s1.24-.04,1.85-.16c.77-.16,1.5-.32,2.2-.59-1.02.46-3.84,1.56-7.31,1.56h0ZM271.22,717.5l-22.84-2.79.17-1.39.06-.47.08-.68,22.84,2.79c-.2.42-.33.87-.38,1.36-.04.41-.01.8.06,1.19h0Z"/>
      </g>
      <g>
        <path class="cls-11" d="M334.95,709.16c-.83-.75-2.34-2.41-3.19-5.12-.21-.69-.37-1.41-.47-2.14-.64-4.73,1.09-7.64,2.17-8.95l.48-.58,10.74-1.03c-.53.7-2.74,3.94-1.86,9.04.82,4.73,2.94,7.18,3.36,7.62h0s-10.76,1.59-10.76,1.59l-.49-.44ZM370.65,693.32s0,0,0,0Z"/>
        <path d="M343.87,691.84c-.84,1.4-2.17,4.4-1.44,8.62.66,3.83,2.16,6.2,2.98,7.26l-9.84,1.44-.34-.31c-.8-.72-2.26-2.32-3.07-4.93-.21-.67-.36-1.36-.46-2.07-.62-4.57,1.04-7.37,2.08-8.63l.38-.46,9.71-.93M369.6,688.42c-.31,0-.62.03-.95.1-1.71.37-3.89,2.41-5.48,3.9-.5.47-.93.87-1.24,1.12-.86.69-2.25.94-2.95,1.02,0-.2-.06-.38-.19-.54-.18-.21-.45-.33-.75-.33-.05,0-.1,0-.15,0l-2.75.15c-.09-.2-.25-.35-.44-.44l-5.48-2.76s0,0,0,0h0c-.09-.07-.2-.11-.31-.11-.02,0-.03,0-.05,0l-32.75,3.14v.02s0,0,0,0c-.57.09-1.08.47-1.3,1.03-.22.55-.39,1.29-.49,2.18-.14,1.15-.17,2.36-.21,3.52-.05,1.57-.1,3.19-.39,4.71-.11.55-.22,1.07-.33,1.56-.21.96-.41,1.87-.55,2.96-.11.81-.06,1.57.15,2.23.25.82.74,1.5,1.43,2.02t9.56,7.06c.15.11.33.17.51.17.08,0,.16-.01.24-.03.26-.07.46-.26.56-.51.52-1.34.62-3.09.76-5.31.07-1.2.15-2.53.31-3.96l25.6-3.75c.16-.03.31-.14.38-.29l4.25-4.04c.18-.17.27-.4.28-.64l2.62-.67c.29-.07.64-.2.75-.51.04-.12.04-.24,0-.37.83-.12,3.4-.6,5.66-2.42,1.03-.83,2.5-2.41,3.57-3.6.6.56,3.6,3.28,5.97,3.5.08,0,.16.01.25.01,2.24,0,6.43-2.47,7.69-5.02.64-1.31.5-2.52-.43-3.52-.36-.39-.76-.59-1.2-.6-.01,0-.03,0-.04,0-.93,0-1.81.85-2.67,1.68-.34.32-.68.66-1.02.93-.48.38-.86.58-1.23.58-.61,0-1.22-.51-2.3-1.56-1.43-1.39-3-2.63-4.9-2.63h0ZM359.87,700.47c-.43-.71-.94-1.85-1.18-2.82-.21-.83-.07-1.71.12-2.4.64-.06,2.41-.3,3.52-1.19.33-.26.77-.67,1.28-1.15,1.45-1.36,3.65-3.41,5.17-3.74.28-.06.56-.09.82-.09,1.56,0,2.92.99,4.43,2.45,1.05,1.02,1.85,1.73,2.75,1.73.5,0,1.03-.22,1.65-.72.36-.29.72-.63,1.06-.97.76-.74,1.55-1.5,2.21-1.5,0,0,.02,0,.02,0,.26,0,.5.14.74.39.73.79.84,1.72.32,2.78-1.22,2.49-5.24,4.66-7.1,4.66-.07,0-.13,0-.19,0-2.15-.2-5.08-2.85-5.6-3.34.53-.61.9-1.04.94-1.09.12-.14.1-.35-.04-.46-.06-.05-.14-.08-.21-.08-.09,0-.19.04-.25.12-.03.04-3.14,3.72-4.85,5.1-2.52,2.03-5.55,2.31-5.58,2.31-.01,0-.03,0-.04,0h0ZM346.49,707.74c-.39-.41-2.46-2.8-3.25-7.41-.87-5.03,1.36-8.18,1.81-8.76l3.64-.35c-.32,1.01-1.58,5.36-.59,9.12.8,3.04,2.06,5.49,3.42,6.66l-5.03.74h0ZM352.1,706.63c-1.32-1.02-2.57-3.42-3.37-6.46-.95-3.59.26-7.77.57-8.74,0,0,0,0,0,0l5.1,2.57c.08.04.13.1.15.18.02.08.01.16-.03.23-.54.86-.69,2.23-.44,3.95.31,2.05,1.27,3.44,2.01,4.01.07.05.11.13.11.21,0,.08-.03.16-.09.22l-4.03,3.83h0ZM326.43,710.68s0-.05,0-.07c.53-4.04,2.37-12.03,2.93-14.38.06-.24,0-.48-.13-.68-.14-.2-.36-.33-.6-.36l-9.33-1.15,13.84-1.33c-1.04,1.25-2.94,4.3-2.26,9.27.11.8.28,1.53.49,2.2.87,2.8,2.46,4.53,3.31,5.3l-8.25,1.21h0ZM320.03,717.26c-2.52-1.87-5.21-3.85-5.22-3.86-1.44-1.06-1.45-2.74-1.33-3.64.14-1.06.34-1.96.54-2.91.11-.5.22-1.02.33-1.58.3-1.57.35-3.22.4-4.81.04-1.15.07-2.34.21-3.46.1-.84.25-1.52.45-2.02.16-.39.54-.65.95-.65.04,0,.08,0,.13,0l6.66.82c-.12.69-.39,2.29-.53,3.38-.12.88-.17,2.08-.23,3.35-.09,1.81-.18,3.85-.48,5.29-.26,1.3-.58,2.57-.87,3.69-.38,1.5-.71,2.8-.81,3.79-.11,1.09-.17,2.02-.2,2.6h0ZM358.83,701.45c-.36-.55-1.26-2.01-1.5-3.23-.37-1.93-.06-2.99.36-3.85h.24s.03-.02.03-.02c.03,0,.05,0,.07,0,.12,0,.21.05.25.1.04.05.05.12.03.19-.27.81-.54,2.02-.26,3.17.27,1.1.95,2.63,1.52,3.4,0,.01.01.02.02.03-.04.02-.12.06-.27.09l-.49.13h0ZM357.66,701.75c-.35-.52-1.24-1.91-1.47-3.28-.37-2.2,0-3.25.4-4.04l.61-.03c-.4.89-.66,2.01-.29,3.91.04.19.09.38.14.57.33,1.07.98,2.15,1.33,2.7l-.72.18h0ZM356.66,702.01c-.05-.06-.1-.11-.16-.15-.69-.53-1.5-1.85-1.76-3.59-.23-1.54-.11-2.79.34-3.51.05-.08.08-.16.1-.24l.91-.05c-.46.99-.67,2.12-.33,4.08.04.26.11.52.19.77.34,1.08.92,2.05,1.26,2.55l-.55.14h0ZM328.45,697.27l-4.94-.26c.11-.72.23-1.39.29-1.77l4.76.59c.08,0,.12.06.14.08,0,.01.02.03.03.06,0,.03.01.06,0,.1-.07.31-.17.72-.28,1.2h0ZM327.72,700.51l-4.59-.35c.04-.57.08-1.1.14-1.53.04-.29.09-.62.14-.96l4.89.26c-.17.75-.37,1.64-.58,2.59h0ZM326.98,703.92l-4.02-.66c.02-.45.05-.9.07-1.34.02-.38.04-.75.06-1.11l4.48.35c-.19.89-.4,1.83-.59,2.77h0ZM326.24,707.7l-3.56-1.22c.11-.79.19-1.67.24-2.57l3.92.65c-.22,1.07-.43,2.14-.61,3.13h0ZM325.7,711.26l-3.59-2.01c.15-.63.3-1.28.43-1.94.01-.05.02-.11.03-.17l3.55,1.21c-.14.79-.25,1.53-.34,2.16-.03.25-.06.5-.09.74h0ZM325.4,714.88l-4-2.78c.08-.35.18-.71.27-1.08.09-.36.19-.73.28-1.12l3.67,2.06c-.1,1.04-.17,2.01-.22,2.92h0ZM325.11,718.52l-4.32-2.82c.03-.31.06-.63.09-.97.06-.54.19-1.2.36-1.94l4.12,2.86c-.07,1.08-.13,2.03-.25,2.87h0ZM324.48,720.5s-.08-.01-.12-.04h0s-1.72-1.27-3.7-2.73c0-.23.03-.68.07-1.28l4.26,2.78c-.08.42-.19.8-.32,1.15-.03.08-.09.11-.13.12-.02,0-.04,0-.06,0h0Z"/>
      </g>
    </g>
    <g>
      <g>
        <polygon class="cls-20" points="260 186.24 251.49 225.64 244.91 225.64 255.25 181.33 260 186.24"/>
        <polygon class="cls-3" points="255.46 181.32 245.19 224.91 228.85 224.91 240.98 180.83 255.46 181.32"/>
        <polygon class="cls-20" points="286.94 683.94 279.35 679.74 221.51 462.77 226.37 462.89 286.94 683.94"/>
        <polygon class="cls-20" points="209.73 749.46 203.42 755.11 206.04 464.31 209.24 464.39 209.73 749.46"/>
        <polygon class="cls-3" points="294.06 682.3 285.88 685.49 225.11 463.66 234.91 463.9 294.06 682.3"/>
        <polygon class="cls-3" points="185.04 461.16 109.98 702.2 100.47 699.12 175.31 460.92 185.04 461.16"/>
        <polygon class="cls-3" points="206.58 462.71 203.95 755.11 188.62 755.11 194.74 462.4 206.58 462.71"/>
        <polygon class="cls-3" points="321.05 232.94 297.46 459.78 286.94 464.89 313.88 224.91 321.05 232.94"/>
        <path class="cls-14" d="M314.44,224.91s-27.21,240.71-27.22,240.82c-.06.55-43.7-1.14-47.38-1.23-19.33-.48-38.66-.95-57.99-1.43-21.42-.53-42.83-1.06-64.25-1.59-2.65-.07-5.29-.13-7.94-.2-1.14-.03-5.25.39-5.66-.53-.09-.21.15-.87.18-1.09.21-1.39.47-2.78.7-4.17.85-5.11,1.71-10.22,2.56-15.34,1.27-7.61,2.54-15.23,3.82-22.84,1.57-9.39,3.14-18.79,4.71-28.18,1.75-10.45,3.49-20.89,5.24-31.34s3.6-21.55,5.4-32.33c1.73-10.38,3.47-20.77,5.2-31.15,1.55-9.27,3.1-18.53,4.64-27.8,1.24-7.42,2.48-14.85,3.72-22.27.81-4.86,1.62-9.72,2.43-14.57.26-1.58.53-3.16.79-4.74h171.04Z"/>
      </g>
      <g>
        <path class="cls-14" d="M151.72,232.69c0-15.86,10.65-28.71,23.78-28.71-13.14,0-23.78-12.86-23.78-28.71,0,15.85-10.65,28.71-23.79,28.71,13.14,0,23.79,12.85,23.79,28.71Z"/>
        <path d="M127.94,236.67c0-5.66,3.8-10.24,8.48-10.24-4.68,0-8.48-4.59-8.48-10.24,0,5.65-3.8,10.24-8.48,10.24,4.69,0,8.48,4.58,8.48,10.24Z"/>
      </g>
    </g>
    <path class="cls-7" d="M517.57,449.97c.99.49,22.7,16.26,22.7,16.26,0,0,19.98,7.3,20.97,8.6"/>
  </g>
  <g>
    <g>
      <g>
        <polygon class="cls-11" points="491.68 208.48 507.61 203.28 517.78 212.93 520.36 199.11 535.98 194 523.79 156.7 479.49 171.17 491.68 208.48"/>
        <path class="cls-9" d="M517.89,213.28c-.13.04-.27,0-.36-.08l-10.02-9.51-15.72,5.14c-.19.06-.4-.04-.46-.23l-12.19-37.3c-.03-.09-.02-.19.02-.28.04-.09.12-.15.21-.18l44.3-14.48c.19-.06.4.04.46.23l12.19,37.3c.06.19-.04.4-.23.46l-15.42,5.04-2.54,13.61c-.02.09-.06.16-.13.22-.03.03-.07.05-.12.06Z"/>
      </g>
      <path d="M498.61,175.06c2.7-.88,5.54-.01,7.31,1.98.25-2.65,2.04-5.03,4.73-5.92,3.63-1.19,7.53.79,8.71,4.42.77,2.36.36,4.11-.86,6.91l-6.38,13.56-13.16-7.18c-2.64-1.53-4-2.7-4.77-5.07-1.19-3.63.79-7.53,4.42-8.71Z"/>
    </g>
    <line class="cls-10" x1="604.18" y1="254.12" x2="675.54" y2="87.44"/>
    <path class="cls-10" d="M587.37,108.57c0,1.42-11.37,76.24-11.37,76.24"/>
  </g>
  <path class="cls-1" d="M551.43,5.73c10.97,4.02,17.97,14.08,18.63,25.04,7.58-7.94,19.42-11.11,30.39-7.09,14.76,5.4,22.35,21.75,16.95,36.52-3.52,9.61-9.31,14.23-20.39,20.16l-55.22,27.64-24.32-56.76c-4.62-11.68-6.07-18.95-2.55-28.56,5.4-14.76,21.75-22.35,36.52-16.95Z"/>
</svg>