<?xml version="1.0" encoding="UTF-8"?>
<svg id="Layer_1" data-name="Layer 1" xmlns="http://www.w3.org/2000/svg" viewBox="0 0 871 767">
  <defs>
    <style>
      .cls-1 {
        fill: #2a2a2b;
      }

      .cls-2 {
        fill: #898989;
      }

      .cls-3 {
        stroke-width: .1px;
      }

      .cls-3, .cls-4, .cls-5, .cls-6, .cls-7, .cls-8, .cls-9, .cls-10, .cls-11, .cls-12 {
        stroke: #000;
      }

      .cls-3, .cls-4, .cls-6, .cls-13, .cls-9, .cls-10, .cls-11, .cls-14 {
        stroke-miterlimit: 10;
      }

      .cls-3, .cls-15, .cls-6, .cls-13, .cls-9, .cls-10, .cls-14 {
        fill: none;
      }

      .cls-16 {
        fill: #b1b1b1;
      }

      .cls-4 {
        stroke-width: .24px;
      }

      .cls-4, .cls-5, .cls-17, .cls-7, .cls-8, .cls-18, .cls-11, .cls-12 {
        fill: #fff;
      }

      .cls-19 {
        fill: #767676;
      }

      .cls-5 {
        stroke-width: .7px;
      }

      .cls-5, .cls-15, .cls-7, .cls-20, .cls-8, .cls-12 {
        stroke-linecap: round;
        stroke-linejoin: round;
      }

      .cls-21 {
        opacity: .25;
      }

      .cls-22 {
        fill: #303030;
      }

      .cls-23 {
        opacity: .49;
      }

      .cls-15 {
        stroke: #9d9d9d;
        stroke-width: .18px;
      }

      .cls-24 {
        opacity: .36;
      }

      .cls-6 {
        stroke-width: .19px;
      }

      .cls-25 {
        opacity: .13;
      }

      .cls-25, .cls-26, .cls-27 {
        fill-rule: evenodd;
      }

      .cls-7, .cls-11, .cls-14 {
        stroke-width: .36px;
      }

      .cls-28 {
        opacity: .21;
      }

      .cls-20, .cls-14 {
        stroke: #fff;
      }

      .cls-20, .cls-12 {
        stroke-width: .39px;
      }

      .cls-8 {
        stroke-width: .54px;
      }

      .cls-13 {
        stroke: #8f8f8f;
        stroke-width: .13px;
      }

      .cls-29 {
        opacity: .56;
      }

      .cls-9 {
        stroke-width: .25px;
      }

      .cls-30 {
        fill: #dfdfdf;
      }

      .cls-10 {
        stroke-width: .51px;
      }

      .cls-18 {
        opacity: .32;
      }

      .cls-31 {
        fill: #ebebeb;
      }

      .cls-26 {
        opacity: .08;
      }

      .cls-32 {
        opacity: .04;
      }

      .cls-33 {
        fill: #1b1b1c;
      }

      .cls-27 {
        opacity: .1;
      }

      .cls-34 {
        fill: #101010;
      }

      .cls-35 {
        opacity: .7;
      }
    </style>
  </defs>
  <g class="cls-24">
    <path class="cls-10" d="M632.64,355.11c10.34,2.51,15.33,8.49,18.05,16.94,3.79,11.75,2.27,60.01,2.27,60.01"/>
    <path d="M619.95,354.3h0c4.58,0,8.65.4,12.11,1.19-.03.36-.05.91-.08,1.8-.25,7.65-1.01,30.91-18.27,39.72-6.77,3.45-13.97,5.35-20.27,5.35s-11.63-2.01-14.43-5.67c-2.59-3.38-3.15-8.14-1.63-13.78,2.66-9.84,7.42-16.93,14.55-21.67,6.62-4.4,15.12-6.66,25.98-6.92.7-.02,1.38-.03,2.05-.03M619.95,353.8c-.67,0-1.36,0-2.06.03-20.84.5-35.5,8.53-41.01,28.97-3.63,13.43,4.62,20.08,16.55,20.08,6.22,0,13.44-1.81,20.5-5.41,20.6-10.51,18.07-41.57,18.72-42.35-3.56-.86-7.75-1.32-12.7-1.32h0Z"/>
    <path class="cls-10" d="M593.45,392.45s4.72-5.12,11.56-18.79c6.85-13.68,9.99-14.92,25.43-17.8"/>
    <path d="M555.76,209.35c27.27,0,39.4,17.1,41.65,20.69-2.74.31-12.78,1.45-31.5,3.58-6.27.71-13.67,1.09-21.41,1.09-18.13,0-32.46-1.96-34.48-3.78-.84-.76-1.57-2.46-.87-4.75,1.06-3.45,6.73-11.92,36.45-16.09,3.47-.49,6.89-.73,10.17-.73M555.76,208.85c-3.2,0-6.61.23-10.24.74-38.74,5.43-39.26,18.63-35.85,21.71,2.38,2.16,18.02,3.91,34.82,3.91,7.26,0,14.74-.33,21.47-1.09,22.29-2.54,32.28-3.66,32.28-3.66,0,0-11.49-21.61-42.48-21.61h0Z"/>
    <path d="M639.68,142.14v.51c2.08,0,4.51.26,7.23.77,11.33,2.13,24.55,10.71,36.26,23.53,10.73,11.75,18.46,25.19,20.16,35.08,3.21,18.63-14.94,50.58-17.36,54.72-4.92-3.13-49.51-32.34-54.98-65.81l-.02-.11c-3.77-23.06-6.26-38.3-.83-44.69,2-2.36,5.12-3.5,9.53-3.5v-.51M639.68,142.14c-17.19,0-14.4,16.94-9.18,48.89,5.87,35.89,55.65,66.43,55.65,66.43,0,0,21.17-35.25,17.69-55.52-3.49-20.27-31.67-54.29-56.83-59.03-2.77-.52-5.2-.78-7.32-.78h0Z"/>
    <path class="cls-9" d="M644.79,158.32s22.89,24.89,27.95,41.24c5.06,16.36,12.6,52.54,12.6,52.54"/>
    <path d="M768.67,271.01v.51c7.43,0,15.12.76,22.86,2.25,15.11,2.92,23.82,8.9,28.46,13.4,5.71,5.53,8.66,12.14,8.09,18.11-.84,8.73-8.66,14.15-20.43,14.15-1.03,0-2.11-.04-3.19-.12-32.66-2.47-78.74-31.43-84.07-34.84,3.32-2.27,20.4-12.95,48.28-12.95v-.51M768.67,271.01c-31.6,0-49.18,13.48-49.18,13.48,0,0,.06.04.19.12,3.36,2.18,50.9,32.64,84.74,35.2,1.12.08,2.19.13,3.23.13,31.69,0,28.44-38.07-16.03-46.66-8.31-1.61-15.98-2.26-22.96-2.26h0Z"/>
    <path class="cls-10" d="M813.7,303.2s-59.06-27.55-94.02-18.58c-5.64,1.44-10.65,3.84-14.69,7.45-8.35,7.47-15.65,22.2-21.81,39.39-6.78,18.94-12.19,40.87-16.1,59.4-2.84,13.45-4.89,25.1-6.11,32.52-.89,5.38-1.34,8.53-1.34,8.53"/>
    <path class="cls-10" d="M686.14,257.46s2.51,30.64-2.96,73.98c-2.81,22.31-7.74,47.99-16.21,74.58-1.83,5.74-3.83,11.53-6,17.34-1.07,2.86-2.18,5.72-3.34,8.58"/>
    <path class="cls-10" d="M598.24,230.46s67.41,25.48,68.84,160.39c.05,4.91.02,9.97-.11,15.18-.2,8.2-.64,16.77-1.34,25.73"/>
    <path class="cls-10" d="M591.31,226.49s-37.86-13.42-77.31-2.8"/>
  </g>
  <g class="cls-32">
    <path d="M274.48,296.64c0-52.44,35.2-94.91,78.62-94.91-43.42,0-78.62-42.51-78.62-94.92,0,52.41-35.21,94.92-78.64,94.92,43.43,0,78.64,42.47,78.64,94.91Z"/>
  </g>
  <g>
    <path class="cls-31" d="M72.52,451.1h600.52v150.46c0,42.26-34.31,76.56-76.56,76.56H149.09c-42.26,0-76.56-34.31-76.56-76.56v-150.46h0Z"/>
    <g>
      <g class="cls-23">
        <rect class="cls-17" x="63.71" y="430.71" width="618.15" height="23.3" rx="11.56" ry="11.56"/>
        <path d="M670.3,430.8c6.33,0,11.47,5.15,11.47,11.47v.18c0,6.33-5.15,11.47-11.47,11.47H75.27c-6.33,0-11.47-5.15-11.47-11.47v-.18c0-6.33,5.15-11.47,11.47-11.47h595.02M670.3,430.62H75.27c-6.44,0-11.65,5.22-11.65,11.65v.18c0,6.44,5.22,11.65,11.65,11.65h595.02c6.44,0,11.65-5.22,11.65-11.65v-.18c0-6.44-5.22-11.65-11.65-11.65h0Z"/>
      </g>
      <line class="cls-4" x1="131.67" y1="19.27" x2="131.67" y2="425.88"/>
      <line class="cls-4" x1="401.32" y1="74.49" x2="401.32" y2="427.99"/>
      <g>
        <g>
          <g>
            <path class="cls-5" d="M495.26,721.57c1.21.71,2.37,1.4,3.47,2.05-1.1-.65-2.26-1.33-3.47-2.05Z"/>
            <path class="cls-5" d="M544.42,763.06c-1.3,1.73-3.51,2.49-5.6,1.96-5.1-1.29-15.42-4.3-24.84-9.57-10.64-5.94-66.31-39.01-87.2-51.43-4.39-2.61-5.83-8.28-3.24-12.67l4.6-7.8s.81-1.11,2.13-2.91c5.25-7.08,18.58-24.73,21.72-25.69,0,0,1.57,5.28,8.44,10.58,6.87,5.3,16.83-3.82,16.83-3.82,2.21-8.69,16.65-10.58,21.49-6.06,4.83,4.51,4.51,20.57,4.41,24.27-.09,3.69,22.71,43.39,22.71,43.39,0,0,16.64,12.74,21.38,23.04,3.18,6.89-.23,13.24-2.83,16.7Z"/>
            <path class="cls-25" d="M491.04,728.82c-.65,1.56-.58,3.25.05,4.53.61,1.25,1.75,2.11,3.33,2.11s2.72-.85,3.33-2.11c.62-1.28.69-2.97.05-4.53l-3.38-8.16-3.38,8.16ZM493.14,720.13l-8.16,3.38c-1.56.65-2.71,1.89-3.17,3.23-.45,1.32-.25,2.73.87,3.85,1.12,1.12,2.53,1.32,3.85.87,1.34-.46,2.59-1.61,3.23-3.17l3.38-8.16ZM499.08,728.29c.65,1.56,1.89,2.71,3.23,3.17,1.32.45,2.73.25,3.85-.87s1.32-2.53.87-3.85c-.46-1.34-1.61-2.59-3.17-3.23l-8.16-3.38,3.38,8.16ZM484.45,715.47c-1.56-.65-3.25-.58-4.53.05-1.25.61-2.11,1.75-2.11,3.33s.85,2.72,2.11,3.33c1.28.62,2.97.69,4.53.05l8.16-3.38-8.16-3.38ZM508.92,715.52c-1.28-.62-2.97-.69-4.53-.05l-8.16,3.38,8.16,3.38c1.56.65,3.25.58,4.53-.05,1.25-.61,2.11-1.75,2.11-3.33s-.85-2.72-2.11-3.33h0ZM506.17,707.11c-1.12-1.12-2.53-1.32-3.85-.87-1.34.46-2.59,1.61-3.23,3.17l-3.38,8.16,8.16-3.38c1.56-.65,2.71-1.89,3.17-3.23.45-1.32.25-2.73-.87-3.85h0ZM486.53,706.24c-1.32-.45-2.73-.25-3.85.87-1.12,1.12-1.32,2.53-.87,3.85.46,1.34,1.61,2.59,3.17,3.23l8.16,3.38-3.38-8.16c-.65-1.56-1.89-2.71-3.23-3.17h0ZM494.42,702.25c-1.58,0-2.72.85-3.33,2.11-.62,1.28-.69,2.97-.05,4.53l3.38,8.16,3.38-8.16c.65-1.56.58-3.25-.05-4.53-.61-1.25-1.75-2.11-3.33-2.11h0Z"/>
            <path class="cls-25" d="M454.31,705.49c-.18.43-.16.9.01,1.25.17.35.48.58.92.58s.75-.24.92-.58c.17-.35.19-.82.01-1.25l-.93-2.25-.93,2.25ZM454.89,703.1l-2.25.93c-.43.18-.75.52-.87.89-.12.36-.07.75.24,1.06s.7.36,1.06.24c.37-.13.71-.44.89-.87l.93-2.25ZM456.53,705.35c.18.43.52.75.89.87.36.12.75.07,1.06-.24s.36-.7.24-1.06c-.13-.37-.44-.71-.87-.89l-2.25-.93.93,2.25ZM452.5,701.81c-.43-.18-.9-.16-1.25.01-.35.17-.58.48-.58.92s.24.75.58.92c.35.17.82.19,1.25.01l2.25-.93-2.25-.93ZM459.24,701.83c-.35-.17-.82-.19-1.25-.01l-2.25.93,2.25.93c.43.18.9.16,1.25-.01.35-.17.58-.48.58-.92s-.24-.75-.58-.92h0ZM458.48,699.51c-.31-.31-.7-.36-1.06-.24-.37.13-.71.44-.89.87l-.93,2.25,2.25-.93c.43-.18.75-.52.87-.89.12-.36.07-.75-.24-1.06h0ZM453.07,699.27c-.36-.12-.75-.07-1.06.24s-.36.7-.24,1.06c.13.37.44.71.87.89l2.25.93-.93-2.25c-.18-.43-.52-.75-.89-.87h0ZM455.25,698.17c-.44,0-.75.24-.92.58-.17.35-.19.82-.01,1.25l.93,2.25.93-2.25c.18-.43.16-.9-.01-1.25-.17-.35-.48-.58-.92-.58h0Z"/>
          </g>
          <path d="M497.19,710.5c-.38-.23-.68-.6-.8-1.07-.24-.93.32-1.88,1.25-2.12,13.12-3.38,21.42-.72,21.77-.61.91.3,1.41,1.29,1.11,2.2-.3.91-1.28,1.41-2.2,1.11-.1-.03-7.78-2.43-19.81.67-.47.12-.94.04-1.32-.19Z"/>
          <path d="M490.08,697.15c-.38-.23-.68-.6-.8-1.07-.24-.93.32-1.88,1.25-2.12,13.12-3.38,21.42-.72,21.77-.61.91.3,1.41,1.29,1.11,2.2-.3.91-1.28,1.41-2.2,1.11-.1-.03-7.78-2.43-19.81.67-.47.12-.94.04-1.32-.19Z"/>
          <path d="M483.84,685.13c-.38-.23-.68-.6-.8-1.07-.24-.93.32-1.88,1.25-2.12,13.12-3.38,21.42-.72,21.77-.61.91.3,1.41,1.29,1.11,2.2-.3.91-1.28,1.41-2.2,1.11-.1-.03-7.78-2.43-19.81.67-.47.12-.94.04-1.32-.19Z"/>
        </g>
        <g>
          <path d="M337.76,179.08c4.17-2.59,8.15-5.37,10.29-8.14,2.14-2.75,2.68-5.97,3.11-9.51h.02c-.32,2.49.35,5.54,1.42,7.69l-8.06,23.52c-.27.78-.61,1.52-1.04,2.22l-1.32,17.59s-17.87,5.14-26.51,3.58l-7.11-2.62c-4.78-7.09,11.16-21.89,15.87-25.93,2.61-2.25,8.11-5.18,13.31-8.41Z"/>
          <path d="M377.2,143.05c.17-.01,8.03-.37,9.88,8.29,1.87,8.75,0,14.6,0,14.6h0c.18-4.89-5.33-10.63-5.33-10.63,0,0-10.99,4.83-16,6.7-5.01,1.87-6.3,2.28-6.3,2.28,0-3.54-.76-8.94-5.71-6.87-1.54.65-2.31,2.17-2.55,4.01h-.02c.54-4.46.91-9.43,4.08-14.58,5.67-9.24,17.02-7.61,21.07-4.59.31.23.61.49.89.78h0Z"/>
          <g>
            <path class="cls-17" d="M364.77,228.01c-8.22-.42-30.13-1.68-31.3-1.84-.42-.06-.76-.29-.99-.71-1.66-2.95,1.97-14.12,4.19-19.17.04-.09.08-.17.13-.25l4.8-7.92c1.73-2.85,3.15-5.9,4.23-9.05l6.55-19.14c.18-.51.16-1.07-.05-1.56-.94-2.22-1.36-4.88-1.09-6.95.18-1.4.76-3.23,2.51-3.96.72-.3,1.38-.45,1.97-.45,1.88,0,3.06,1.54,3.49,4.58.15,1.1,1.1,1.93,2.2,1.93.26,0,.51-.04.75-.13.91-.33,2.08-.76,3.61-1.33,3.92-1.46,11.48-4.73,14.55-6.07.27-.12.55-.18.84-.18.63,0,1.21.28,1.61.76,1.64,2.01,4.36,5.89,4.24,9.35,0,.1,0,.2-.02.3-.41,4.8-8.37,21.22-18.31,24.16-1.02.3-2.01.45-2.94.45-.99,0-1.92-.17-2.79-.52-.28-.11-.58-.17-.88-.17-1.2,0-2.18.93-2.23,2.11l-.02.33-.07,3.75c0,.19.02.39.07.58l7.09,28.5c.16.63.02,1.29-.38,1.8-.4.51-1,.8-1.64.8h-.11Z"/>
            <path d="M381.16,155.88c.61,0,1.18.27,1.56.74,1.63,2,4.35,5.87,4.23,9.31,0,.1,0,.19-.02.29-.2,2.36-2.22,7.64-5.56,12.79-2.26,3.49-6.92,9.6-12.71,11.31-1.02.3-2,.45-2.92.45-.98,0-1.91-.17-2.76-.51-.29-.12-.59-.17-.9-.17-1.23,0-2.24.95-2.3,2.17v.12s-.02.21-.02.21l-.07,3.75c0,.2.02.4.07.59l7.09,28.5c.15.61.02,1.25-.37,1.74-.39.49-.97.78-1.59.78-.04,0-.07,0-.11,0-8.45-.43-30.11-1.68-31.29-1.84-.41-.05-.72-.28-.94-.68-1.65-2.93,1.98-14.08,4.19-19.12.04-.08.08-.16.12-.24l4.8-7.92c1.73-2.85,3.15-5.9,4.24-9.06l6.55-19.14c.18-.53.16-1.1-.05-1.6-.93-2.21-1.35-4.86-1.09-6.92.18-1.39.75-3.19,2.47-3.91.71-.3,1.37-.45,1.95-.45,1.85,0,3,1.52,3.42,4.52.16,1.13,1.13,1.99,2.26,1.99.26,0,.52-.05.78-.14.9-.33,2.08-.76,3.61-1.33,3.9-1.46,11.48-4.73,14.55-6.07.26-.11.53-.17.82-.17M381.16,155.76c-.29,0-.59.06-.87.18-3.15,1.37-10.66,4.62-14.55,6.07-1.52.57-2.7,1-3.61,1.33-.24.09-.49.13-.73.13-1.04,0-1.98-.77-2.14-1.88-.33-2.38-1.26-4.63-3.55-4.63-.57,0-1.23.14-1.99.46-1.54.65-2.31,2.17-2.55,4.01-.28,2.23.22,4.91,1.1,6.98.2.48.22,1.02.05,1.51l-6.55,19.14c-1.08,3.16-2.5,6.18-4.22,9.04l-4.8,7.92c-.05.08-.09.17-.13.25-2.65,6.03-6.88,19.47-3.15,19.97,1.21.16,23.24,1.42,31.3,1.84.04,0,.08,0,.11,0,1.39,0,2.42-1.31,2.08-2.68l-7.09-28.5c-.05-.18-.07-.37-.06-.56l.07-3.75v-.21s.01-.08.02-.13c.05-1.21,1.05-2.05,2.17-2.05.28,0,.57.05.85.17.83.33,1.76.52,2.81.52.9,0,1.88-.14,2.95-.46,10.02-2.96,17.93-19.26,18.35-24.21.01-.1.02-.2.02-.3.13-3.5-2.66-7.44-4.25-9.39-.42-.51-1.03-.78-1.66-.78h0Z"/>
          </g>
          <path d="M375.87,208.8c-3.81,3.08-12.32,4.61-12.32,4.61-1.36-3.71-4.03-16.57-3.73-16.79l.11-4.16.11-4.14c1.35,1.47,3.21,2.57,5.72,2.57,0,0,5.75,3.64,6.95,7.49,1.19,3.79,3.17,10.42,3.17,10.42Z"/>
          <path class="cls-30" d="M359.95,188.05l-.11,4.14h-.02c-7.06-2.3-3.27-11.38-3.27-11.38,0,0,.72,4.33,3.4,7.24Z"/>
        </g>
        <path class="cls-11" d="M369.36,271.9c.82,1.14,6.31,2.01,12.97,2.01,4.5,0,8.47-.4,10.82-1.01h0s-.39,8.01-.53,15.76c-.02,1.24-.04,2.47-.04,3.65-.02,4.9.11,9.12.57,10.32,1.3,3.35,4.07,10.88,3.84,11.49-.23.62-2.54,6.38-2.54,8s7.15,8.77,7.15,8.77c0,0-22.74.03-64.85,15.34-30.4,11.06-51.44,25.2-60.49,33.52-2.94,2.7-4.62,4.79-4.93,5.96.35-4.94,2.18-21.09,2.18-21.09,14.12-6.26,32.28-22.04,42.42-32.05,13.28-13.11,16.42-18.28,16.51-18.44,4.78.68,10.64-30.52,11.28-34l13.37-13.63s4.74.46,11.97.92l.48,4.44-.19.05Z"/>
        <path class="cls-33" d="M529.8,368.15c-.49.12-20.33,4.93-38.23,2.46-24.34-8.01-62.09-10.91-62.09-10.91l113.82-3.98,5.81-11.13s20.57-2.96,47.55,8.53c26.98,11.49,25.17,28.73,18.16,48.44-7,19.72-37.88,23.09-48,27.76-6.2,2.86-25.71,10.77-39.91,16.48-10.27-.39-13.65-32.59-13.65-33.04h0c.34-13.16-.08-23.95-1.96-29.37-.86-2.47-3.05-4.72-6.17-6.74h0s13.06-4.22,24.67-8.51Z"/>
        <path d="M445.45,322.55c6.86-15.59,13.98-31.66,16.98-38.42.89-2.01,2.89-3.31,5.09-3.31h110.32c2.07,0,3.4,2.2,2.44,4.03l-31.18,59.73-5.81,11.13-113.82,3.98c0-.34,2.04-5.19,5.14-12.35,2.95-6.82,6.85-15.73,10.84-24.81Z"/>
        <path class="cls-16" d="M425.86,653.31c-1.61-3.93-3.52-7.74-4.85-10.11-3.11-5.53,2.07-10.2,2.07-10.2,0,0,1.64.77,4.41,1.95,7.88,3.36,24.9,10.07,38.92,11.8,18.94,2.34,36.41.78,41.78-3.55,1.38-1.12,2.87-2.31,4.34-3.38,4.21-3.04,8.25-4.96,9.15-.6,1.21,5.88-5.02,16.08-5.19,25.25-.17,9.17-.35,19.03-.35,19.03,0,0-6.57,3.13-15.52,5.39-4.72,1.19-10.1,2.14-15.54,2.25-1.87.04-3.75-.02-5.62-.2-17.47-1.73-29.93-5.36-38.4-5.36-4.73,0-11.35-.38-16.36-1.97-3.97-1.26-6.94-3.29-7.17-6.5-.5-6.93,7.99-18.13,8.31-23.79Z"/>
        <path d="M513.26,412.76c0,.45,3.38,32.65,13.65,33.04-9,3.62-15.86,6.35-15.86,6.35.99-13.59,1.91-27.46,2.21-39.39Z"/>
        <path d="M529.8,368.15c-11.61,4.28-24.67,8.5-24.67,8.5h0c-3.51-2.27-8.21-4.28-13.56-6.04,17.9,2.47,37.74-2.34,38.23-2.46Z"/>
        <path class="cls-1" d="M277.91,390.43c-1.58-6.22-1.9-10.88-1.9-10.88,9.05-8.31,30.09-22.46,60.49-33.52,42.11-15.31,64.85-15.34,64.85-15.34l18.95,11.47.3.18,8.68,5.25-69.84,3.27,70.05,8.82s37.74,2.89,62.09,10.91c5.34,1.76,10.04,3.77,13.56,6.05,3.13,2.03,5.31,4.27,6.17,6.74,1.89,5.42,2.3,16.2,1.96,29.36h0c-.31,11.93-1.22,25.8-2.21,39.39-1.53,20.96-3.23,41.25-3.12,52.67.26,26.99,4.41,55.52,1.81,63.31-2.6,7.78-4.67,26.72-2.6,36.58,2.08,9.86,6.23,20.24,6.23,25.69s-1.3,8.82-1.3,8.82l.45.6c-1.47,1.06-2.96,2.26-4.34,3.38-5.36,4.33-22.83,5.88-41.78,3.55-14.02-1.73-31.04-8.44-38.92-11.8,0,0,5.11-14.06,5.63-21.84.52-7.78-.34-35.63,0-46.01.32-9.58,2.56-23.37,2.9-25.43,8.7-.41,15.88-4.73,19.45-13.93.45-1.16.84-2.4,1.17-3.71,0,0,6.24-13.32-5.87-39.61-3.91-8.49-6.61-14.63-8.42-19.33h0c-.81-14.45,15.9-25.99,15.9-25.99l-16.32-2.86c.02-.05.03-.08.03-.08-.05,0-.28-.01-.69-.04h-.01c-4.33-.28-27.4-2.04-35.45-5.67-8.82-3.98-25.26-16.26-35.29-18.16-3.65-.69-6.48-.92-8.65-.84-1.54-.36-2.34.2-2.42.26h0c-2.21.43-3.39,1.32-3.98,2.32-.4.68-1.64,3.08-2.94,6.5t0,0c-7.57,11.15-34.18,10.42-34.18,10.42h0c-12.46-3.06-20.77-9.78-28.6-17.61-6.53-6.53-10-15.74-11.81-22.89Z"/>
        <path d="M485.09,691.15h0c-16.43,4.07-61.16-1.97-61.16-1.97l.78-5.57c5.01,1.6,11.63,1.97,16.36,1.97,8.48,0,20.93,3.63,38.4,5.36,1.86.18,3.74.25,5.62.2Z"/>
        <path d="M441.91,436.23l16.32,2.86s-16.71,11.54-15.9,25.98c-3.81-9.85-3.7-13.33-2.65-18.72,1.4-7.12,2.09-9.67,2.22-10.13Z"/>
        <g>
          <path class="cls-17" d="M455.99,524.47c0-5.34-1.63-9.12-5.58-18.27-.96-2.23-2.06-4.78-3.3-7.74-7.7-18.33-29.8-31.07-41.91-34.79-10.47-3.22-17.87-16.51-25.02-29.36-1.97-3.54-4.01-7.2-6.09-10.61-4.54-7.45-8-10.6-10.34-11.88,1.96.08,4.19.35,6.68.82.13.03.22.04.3.07,6.33,1.32,15.15,6.64,22.92,11.34,4.5,2.72,8.76,5.29,11.98,6.74,8.71,3.93,34.48,5.63,35.58,5.7l.25.05c-.26,1-.95,3.78-2.13,9.77-1.06,5.42-1.14,9.05,2.67,18.92.87,2.25,1.99,4.95,3.44,8.26,1.33,3.05,2.97,6.68,5,11.1,6.78,14.72,7.75,25.33,7.37,31.64-.31,5.04-1.49,7.64-1.5,7.67-.1.4-.21.78-.31,1.15,0-.19,0-.37,0-.56Z"/>
          <path d="M365.14,412.25c1.57.13,3.32.38,5.25.74.08.02.16.03.28.06,6.25,1.31,15.04,6.61,22.79,11.29,4.51,2.72,8.78,5.3,12.02,6.76,8.5,3.83,32.99,5.55,35.52,5.72-.32,1.25-.98,4.05-2.03,9.4-1.07,5.49-1.16,9.16,2.68,19.12.87,2.26,2,4.97,3.44,8.27,1.35,3.08,2.98,6.71,5,11.11,6.75,14.65,7.72,25.2,7.34,31.46-.2,3.29-.78,5.52-1.14,6.66-.31-4.62-2-8.54-5.55-16.78-.97-2.24-2.06-4.78-3.3-7.74-7.75-18.44-29.96-31.25-42.14-35-10.33-3.18-17.69-16.4-24.81-29.19-1.97-3.54-4.01-7.21-6.1-10.63-3.35-5.49-6.45-9.26-9.25-11.25M362.68,411.42s-.06,0-.09,0c-.26,0-.5,0-.75.01.19.04.39.1.6.18,2.35.82,6.11,3.69,11.33,12.26,9.69,15.91,17.82,35.98,31.31,40.13,13.49,4.15,34.42,17.29,41.69,34.59,6.29,14.97,8.85,19.31,8.85,25.87,0,1.02-.06,2.09-.18,3.26.45-1.16.84-2.39,1.17-3.71,0,0,1.22-2.61,1.54-7.8.39-6.54-.65-17.16-7.4-31.81-1.95-4.25-3.6-7.91-4.99-11.09-1.39-3.19-2.53-5.9-3.43-8.24-3.8-9.85-3.7-13.33-2.65-18.72,1.4-7.12,2.09-9.67,2.22-10.12l-.66-.12h-.01c-4.33-.28-27.39-2.04-35.45-5.67-8.72-3.93-24.89-15.99-34.96-18.1-.11-.03-.22-.05-.33-.07-3.21-.6-5.77-.85-7.81-.85h0Z"/>
        </g>
        <path class="cls-2" d="M436.01,541.67c-7.49.35-16.12-2.22-24.52-7.09-19.37-11.24-21.45-39.44-34.42-53.79-12.97-14.36-21.1-18.16-26.47-32.52-2.03-5.45-2-11.39-1.11-16.78.68-4.13,1.86-7.95,3.01-10.96t0,0c1.3-3.42,2.54-5.81,2.94-6.5.58-1,1.77-2.16,3.98-2.59h0c.57-.11,1.21-.2,1.92-.24.37-.02.74.03,1.09.16,2.36.86,6.12,3.96,11.33,12.53,9.69,15.91,17.82,35.98,31.31,40.13,13.49,4.15,34.42,17.3,41.69,34.59,7.26,17.3,9.57,20.4,8.68,29.14h0c-3.56,9.2-10.75,13.53-19.45,13.93Z"/>
        <path class="cls-19" d="M429.26,347.6l5.35-.25c-3.09,7.15-5.14,12.01-5.14,12.35l-70.05-8.82,69.84-3.27Z"/>
        <path d="M420.29,342.17l-18.95-11.47s-7.15-7.15-7.15-8.77,2.3-7.38,2.54-8c.23-.61-2.54-8.15-3.84-11.49-.47-1.21-.6-5.43-.57-10.32,3.75,11.38,6.45,23.54,10.14,30.85,5.73,11.34,15.96,18.04,17.83,19.2Z"/>
        <g>
          <path class="cls-17" d="M382.72,226.67c-11.42,0-18.05-1.71-18.26-2.88v-.08c0-1.18,6.94-2.89,18.26-2.89s18.26,1.7,18.26,2.93l-.02.12c-.33,1.15-6.87,2.81-18.24,2.81Z"/>
          <path d="M382.72,221.17c11.2,0,17.49,1.65,17.9,2.56h0c-.48.95-6.76,2.58-17.9,2.58s-17.45-1.64-17.9-2.57c.49-.94,6.77-2.57,17.9-2.57M382.72,220.46c-10.29,0-18.62,1.47-18.62,3.29v.11c.33,1.77,8.54,3.18,18.62,3.18s18.1-1.38,18.6-3.12h0s.02-.17.02-.17c0-1.81-8.34-3.29-18.62-3.29h0Z"/>
        </g>
        <path d="M364.82,230.42l-.71-6.57c.32,1.77,8.53,3.18,18.61,3.18s18.1-1.38,18.6-3.12l-1.39,10.52c-1.98.42-5.91,1.2-13,2.38-9.05,1.5-18,.64-21.4.2l-.71-6.59Z"/>
        <path d="M397.15,255.49l-.96,7.24c-3.24.02-7.99-.06-11.42-.58-5.71-.86-9.69-2.94-9.69-2.94,0,0,13.31-1.68,22.07-3.71Z"/>
        <path d="M395.69,266.49l-.7,5.27c-.3.35-1.03.67-2.1.94-2.35.61-6.32,1.01-10.82,1.01-6.66,0-12.15-.88-12.97-2.01l.19-.05-.48-4.44c2.63.17,5.6.33,8.78.46,7.32.32,14.02-.5,18.1-1.18Z"/>
        <path d="M352.5,420.51c-1.15,3.02-2.33,6.83-3.01,10.96-12.9,1.91-22.94,1.48-31.17-.54h0s26.61.73,34.18-10.42Z"/>
        <path d="M332.18,313.93c-.32-.05-.64-.23-.95-.58-1.79-2.03-2.01-9.92-1.54-19.38l13.76-14.03c-.64,3.48-6.5,34.68-11.28,34Z"/>
        <path d="M276,379.55s.32,4.66,1.9,10.88c-1.68-.36-6.21-1.57-6.87-4.38,0-.16.02-.34.03-.54.31-1.16,1.99-3.25,4.93-5.96Z"/>
        <line class="cls-14" x1="359.84" y1="356.09" x2="426.58" y2="365.84"/>
        <path class="cls-18" d="M502.51,323.22c-1.1-.06-1.85-.56-2.27-1.48-.4-.92-.37-1.98.11-3.21l2.34-5.96h2.31s0,.02,0,.02l-2.29,5.94c-.2.53-.21.99-.03,1.38.19.4.51.6.98.62s.95-.15,1.43-.52c.47-.35.8-.79,1.01-1.31l2.3-6.12h2.45s0,.02,0,.02l-2.26,6.13c-.2.55-.21,1.02,0,1.42.2.41.55.62,1.06.64s1.01-.15,1.51-.54c.5-.38.85-.85,1.05-1.41l2.24-6.24v-.02s2.62,0,2.62,0l-2.2,6.25c-.46,1.3-1.27,2.4-2.45,3.29-1.16.88-2.33,1.28-3.5,1.21l-.28-.02c-1.13-.06-1.93-.54-2.38-1.46l-.09.07c-1.09.82-2.39,1.28-3.68,1.3h0Z"/>
        <line class="cls-14" x1="432.87" y1="359.99" x2="543.3" y2="355.72"/>
        <path class="cls-3" d="M351.81,165.72s.7,2.88,2.79,2.27c.97-.28,1.03-1.62,1.03-1.62"/>
        <g>
          <path class="cls-6" d="M354.2,166.92c1.59,1.15,2.74,2.91,3.06,5.01.63,4.14-2.22,8-6.35,8.63-4.14.63-8-2.22-8.63-6.35-.63-4.14,2.22-8,6.35-8.63,1.03-.16,2.04-.1,2.99.14"/>
          <circle cx="349.74" cy="181.75" r="1.33"/>
          <g>
            <path class="cls-17" d="M349.7,183.9c-.25,0-.46-.18-.5-.43-.02-.13.01-.27.09-.38s.2-.18.33-.2h.01c.31,0,.52.18.56.42.04.27-.15.53-.42.57h-.08Z"/>
            <path d="M349.7,182.98c.2,0,.38.15.41.36.03.23-.12.44-.35.48-.02,0-.04,0-.06,0-.2,0-.38-.15-.41-.36-.02-.11.01-.22.08-.31s.16-.15.27-.17c.02,0,.04,0,.06,0M349.7,182.8s-.06,0-.09,0c-.32.05-.54.35-.5.67.04.29.3.5.58.5.03,0,.06,0,.09,0,.32-.05.54-.35.5-.67-.04-.29-.3-.5-.58-.5h0Z"/>
          </g>
        </g>
        <path d="M383.21,151.54c-.58,1.38-1.36,2.66-2.27,3.83-.91,1.18-1.97,2.23-3.16,3.12-1.18.89-2.5,1.62-3.9,2.1-1.39.54-2.87.75-4.34.91,1.47-.16,2.95-.39,4.33-.94,1.4-.49,2.7-1.22,3.88-2.12,2.36-1.78,4.21-4.24,5.3-6.96l.17.06Z"/>
        <path d="M382.83,156.09c.75,1.36,1.45,2.74,2.07,4.16.31.71.6,1.43.84,2.16.24.73.45,1.49.45,2.27-.01-.78-.24-1.53-.49-2.25-.26-.73-.56-1.44-.88-2.14-.65-1.4-1.37-2.77-2.14-4.1l.16-.09Z"/>
        <path class="cls-30" d="M365.39,235.7c.08.77.69,1.38,1.47,1.47,4.06.44,12.02.97,20.07-.36,7.09-1.17,11.02-1.95,13-2.38.02,0,.04,0,.06-.01.91-.2,1.79.39,1.97,1.3l.33,1.69c.13.66-.15,1.34-.72,1.71s-1.34.81-2.43,1.31h0c-2.58,1.2-6.79,2.66-13.08,3.47-1.47.19-2.83.34-4.09.46,5.8-.26,12.59-1.21,16.9-1.89,1.07-.17,1.98-.32,2.69-.44.9-.15,1.76.46,1.91,1.36l.24,1.46c.11.67-.2,1.34-.78,1.69-1.9,1.15-6.75,3.51-15.59,4.44l15.17-1.45c.97-.09,1.81.67,1.81,1.64v.92c0,.64-.36,1.21-.93,1.49-1.32.65-3.56,1.3-6.23,1.92-4.75,1.1-10.83,2.1-15.41,2.78-1.8.27-1.9,2.81-.13,3.24.98.24,2.04.46,3.16.63,3.43.52,8.18.6,11.42.58.74,0,1.4-.01,1.94-.02.92-.02,1.68.73,1.68,1.65h0c0,.78-.54,1.46-1.31,1.62-.69.14-1.65.33-2.81.52-4.09.68-10.79,1.5-18.1,1.18-3.19-.14-6.15-.3-8.78-.46-5.51-.34-9.57-.7-11.2-.84-.49-.05-.98.13-1.33.49l-12.82,13.07-10.67,10.88c-1.08,1.1-2.93.26-2.83-1.27,1.04-15.48,3.49-33.26,3.98-36.73.06-.39.25-.75.55-1.01,2.84-2.49,5.02-4.32,6.26-5.22,8.53-6.21,15.82-13.33,22.1-15.6,1-.36,2.07.33,2.19,1.39l.36,3.34Z"/>
        <path class="cls-8" d="M445.41,322.62c-3.98,9.07-7.89,17.99-10.83,24.8l-5.35.25c-10.47-7.04-16.29-7.2-26.8-24.63-3.7-7.31-6.39-19.47-10.15-30.85-.01-5.66.53-18.99.57-19.42,1.07-.28,1.8-.6,2.1-.95l.74-5.52c4.83.04,5.99-4.18.46-3.52l.95-7.23c3.21-1.13,7.06-.71,7.17-4.26,0-1.01-.88-1.81-1.88-1.71l-15.1,1.44c8.19-1.26,16.39-2.61,16.27-6.69-.02-3.24-2.22-2.17-4.74-1.81l.27-2.04c2.81-.45,4.56-6.09.79-6-.01-.24,1.41-10.45,1.41-10.68,0-1.82-8.34-3.29-18.63-3.29s-18.62,1.47-18.62,3.29c-.06.11.76,6.57.72,6.67-8.64,2.32-20.43,13.63-30.79,21.79.77,0-9.46,53.89-1.85,61.72-9.59,12.24-42.15,58.61-71.17,53.04-29.93-5.75,19.49-145.61,24.22-152.51,4.46-6.52,11.57-10.74,19.44-11.53l35.66-2.8c-.24.98-3.02,13.23,9.93,15.5,6.75,1.19,10.37-5.35,10.82-12.09l28.68.53c11.24.21,21.4,7.23,25.08,17.84.32.94.59,1.89.8,2.84,3.19,14.75,8.12,55.61,9.2,71.13.25,3.66,1.79,7.11,4.33,9.76l16.29,16.93Z"/>
        <path class="cls-7" d="M383.09,244.3s10.96-.8,16.05-3.87"/>
        <g>
          <g class="cls-35">
            <path class="cls-30" d="M387.21,224.68c-.15-.46-3.07-8.91,3.23-12.6s6.3-11.44,4.46-13.02c0,0,5.06,7.58-1.69,14.7-6.76,7.12-5.99,10.91-5.99,10.91Z"/>
          </g>
          <g class="cls-29">
            <path class="cls-30" d="M386.93,213.69c-.07-.2-1.31-3.8,1.38-5.38,2.69-1.57,2.69-4.88,1.9-5.56,0,0,2.16,3.24-.72,6.28-2.89,3.04-2.56,4.66-2.56,4.66Z"/>
          </g>
        </g>
        <circle class="cls-21" cx="352.99" cy="166.16" r=".18"/>
      </g>
      <path class="cls-26" d="M427.45,468.26c-.28.68-.25,1.42.02,1.98.27.55.76.92,1.45.92s1.19-.37,1.45-.92c.27-.56.3-1.29.02-1.98l-1.48-3.56-1.48,3.56ZM428.37,464.46l-3.56,1.48c-.68.28-1.18.83-1.38,1.41-.2.58-.11,1.19.38,1.68s1.1.58,1.68.38c.59-.2,1.13-.7,1.41-1.38l1.48-3.56ZM430.96,468.03c.28.68.83,1.18,1.41,1.38.58.2,1.19.11,1.68-.38s.58-1.1.38-1.68c-.2-.59-.7-1.13-1.38-1.41l-3.56-1.48,1.48,3.56ZM424.57,462.43c-.68-.28-1.42-.25-1.98.02-.55.27-.92.76-.92,1.45s.37,1.19.92,1.45c.56.27,1.29.3,1.98.02l3.56-1.48-3.56-1.48ZM435.25,462.45c-.56-.27-1.29-.3-1.98-.02l-3.56,1.48,3.56,1.48c.68.28,1.42.25,1.98-.02.55-.27.92-.76.92-1.45s-.37-1.19-.92-1.45h0ZM434.05,458.78c-.49-.49-1.1-.58-1.68-.38-.59.2-1.13.7-1.41,1.38l-1.48,3.56,3.56-1.48c.68-.28,1.18-.83,1.38-1.41.2-.58.11-1.19-.38-1.68h0ZM425.48,458.4c-.58-.2-1.19-.11-1.68.38s-.58,1.1-.38,1.68c.2.59.7,1.13,1.38,1.41l3.56,1.48-1.48-3.56c-.28-.68-.83-1.18-1.41-1.38h0ZM428.93,456.66c-.69,0-1.19.37-1.45.92-.27.56-.3,1.29-.02,1.98l1.48,3.56,1.48-3.56c.28-.68.25-1.42-.02-1.98-.27-.55-.76-.92-1.45-.92h0Z"/>
      <path class="cls-26" d="M424.78,447.83c-.13.32-.12.67,0,.94.13.26.36.44.69.44s.56-.18.69-.44c.13-.26.14-.62,0-.94l-.7-1.69-.7,1.69ZM425.21,446.03l-1.69.7c-.32.13-.56.39-.66.67-.09.27-.05.57.18.8s.52.27.8.18c.28-.1.54-.33.67-.66l.7-1.69ZM426.45,447.72c.13.32.39.56.67.66.27.09.57.05.8-.18s.27-.52.18-.8c-.1-.28-.33-.54-.66-.67l-1.69-.7.7,1.69ZM423.41,445.06c-.32-.13-.67-.12-.94,0-.26.13-.44.36-.44.69s.18.56.44.69c.26.13.62.14.94,0l1.69-.7-1.69-.7ZM428.49,445.07c-.26-.13-.62-.14-.94,0l-1.69.7,1.69.7c.32.13.67.12.94,0,.26-.13.44-.36.44-.69s-.18-.56-.44-.69h0ZM427.92,443.33c-.23-.23-.52-.27-.8-.18-.28.1-.54.33-.67.66l-.7,1.69,1.69-.7c.32-.13.56-.39.66-.67.09-.27.05-.57-.18-.8h0ZM423.84,443.15c-.27-.09-.57-.05-.8.18s-.27.52-.18.8c.1.28.33.54.66.67l1.69.7-.7-1.69c-.13-.32-.39-.56-.67-.66h0ZM425.48,442.32c-.33,0-.56.18-.69.44-.13.26-.14.62,0,.94l.7,1.69.7-1.69c.13-.32.12-.67,0-.94-.13-.26-.36-.44-.69-.44h0Z"/>
      <path class="cls-27" d="M407.65,462.09c-.65-1.87-2.24-3.6-4.41-4.51l-11.36-4.71.75,1.82c3.7,4.47,7.75,7.86,12.46,9.31.89.27,1.82.59,2.76.94.21-.93.12-1.91-.2-2.85ZM410.27,446.46c-1.77-.86-4.13-.96-6.3-.06l-11.37,4.71,11.37,4.71c2.17.9,4.53.8,6.3-.06,1.75-.85,2.93-2.44,2.93-4.64s-1.18-3.79-2.93-4.64ZM406.44,434.75c-1.56-1.56-3.52-1.84-5.36-1.21-1.87.65-3.6,2.24-4.5,4.41l-4.71,11.36,11.36-4.71c2.17-.9,3.77-2.63,4.41-4.5.63-1.84.35-3.8-1.21-5.36ZM383.61,437.96c-.85-2.05-2.45-3.59-4.2-4.3,2.73,4.9,5.44,9.81,8.31,14.24l-4.11-9.94ZM394.73,430.92c-.85-1.75-2.43-2.93-4.64-2.93s-3.79,1.18-4.64,2.93c-.87,1.77-.97,4.13-.06,6.3l4.71,11.37,4.7-11.37c.9-2.17.8-4.53-.06-6.3Z"/>
    </g>
    <line class="cls-8" x1="299.28" y1="269.73" x2="333.99" y2="252.27"/>
    <line class="cls-15" x1="305.34" y1="255.49" x2="307.69" y2="265.5"/>
  </g>
  <g class="cls-28">
    <path d="M590.18,290.17c0-9.09,6.1-16.45,13.63-16.45-7.53,0-13.63-7.37-13.63-16.46,0,9.09-6.1,16.46-13.63,16.46,7.53,0,13.63,7.36,13.63,16.45Z"/>
  </g>
  <g class="cls-28">
    <path d="M574.16,264.92c0-2.12,1.42-3.83,3.17-3.83-1.75,0-3.17-1.72-3.17-3.83,0,2.12-1.42,3.83-3.17,3.83,1.75,0,3.17,1.71,3.17,3.83Z"/>
  </g>
  <g>
    <g>
      <polygon class="cls-17" points="569.29 125.09 573.85 122.68 571.13 128.72 569.29 125.09"/>
      <path d="M573.7,122.84l-2.58,5.72-1.72-3.39,4.3-2.33M573.99,122.53h0,0ZM573.99,122.53l-4.76,2.59,1.91,3.76,2.86-6.34h0Z"/>
    </g>
    <g>
      <polygon class="cls-17" points="569.35 125.07 580.16 110.92 575.23 126.08 569.35 125.07"/>
      <path d="M579.97,111.28l-4.79,14.73-5.71-.98,10.5-13.75M580.34,110.57l-11.12,14.55,6.05,1.04,5.07-15.59h0Z"/>
    </g>
    <polygon points="580.34 110.57 569.23 125.12 571.13 128.87 565.72 124.5 580.34 110.57"/>
    <g>
      <polygon class="cls-17" points="579.26 111.5 565.68 124.45 561.89 125.18 579.26 111.5"/>
      <path d="M578.18,112.44l-12.53,11.93-3.5.69,16.03-12.62M580.34,110.57l-18.71,14.73,4.09-.8,14.62-13.93h0Z"/>
    </g>
  </g>
  <g>
    <ellipse class="cls-34" cx="171" cy="424.55" rx="18.99" ry="4.07"/>
    <g>
      <g>
        <path class="cls-30" d="M177.98,428.15h-5.63c-4.52,0-8.96-2.24-11.73-5.85-3.28-4.27-3.58-9.71-3.41-14.89.04-1.27.1-2.55.14-3.82.15-5.41-.04-10.88-.04-16.3,0,0,35.72,0,35.72,0-.26,0,0,19.17,0,20.92,0,3.34.15,6.84-1.01,10.03-2.1,5.79-7.81,9.92-14.03,9.92Z"/>
        <path class="cls-34" d="M192.77,387.39c0,1.4-6.55,1.71-7.79,1.82-5.9.5-11.87.51-17.79.15-2.41-.15-4.87-.34-7.19-.81-.72-.15-2.69-.47-2.69-1.16,0-.93,3.28-1.28,4.19-1.42,6.05-.89,12.32-1,18.49-.71,2.8.13,5.72.32,8.53.71,1.09.15,4.26.39,4.26,1.43Z"/>
      </g>
      <path class="cls-12" d="M174.27,388.96c-.33-.01-.65-.02-.98-.03-.13,0-.25-.04-.35-.12-1.33-1.06-2.58-2.45-3.95-3.09-3.21-1.51-7.15-1.79-10.61-2.34-5.52-.88-11.6-2.61-14.23-7.29-.9-1.61-1.11-3.95.51-4.94.97-.59,2.23-.44,3.36-.24,1.65.3,3.27.67,4.88,1.13.6.17,1.01-.6.53-1-3.58-2.99-6.7-6.46-9.25-10.28-.86-1.29-1.68-2.69-1.76-4.22-.08-1.53.8-3.21,2.35-3.62,1.63-.43,3.26.6,4.54,1.65.23.19.46.38.68.57.49.42,1.21-.14.89-.71-3.43-6.21-5.84-12.93-7.08-19.85-.96-5.34-1.19-11.01.93-16.03.1-.23.35-.27.58-.35,3.91-1.36,4.68,3.9,5.42,6.89,1.42,5.74,2.85,11.48,4.27,17.22.15.61,1.02.58,1.14-.03.77-4.02,1.58-8.04,2.43-12.04.28-1.31.68-2.79,1.92-3.44,1.61-.84,3.72.33,4.44,1.93.72,1.6.44,3.43.14,5.15-.63,3.71-1.27,7.43-1.9,11.14-.1.58.61.91,1.01.48,0,0,.02-.02.02-.03,1.66-1.75,5.17-2.07,6.39-.02.63,1.05.47,2.35.3,3.55-.24,1.68-.48,3.35-.72,5.03-.05.33-.37.57-.7.5-1.21-.27-2.48-.15-3.51.51-2.33,1.5-2.23,4.75-1.61,7.35,1.21,5.07,4.17,9.33,6.61,13.85,2.13,3.95,2.64,8.01,3.88,11.97.12.38-.18.76-.58.75Z"/>
      <path class="cls-22" d="M175.21,360.08c.18.35.34.71.51,1.06.17-.22.33-.45.48-.67-.29-.19-.62-.32-.99-.38h0Z"/>
      <path d="M177.98,366.25c-.62,7.59-1.25,15.19-1.87,22.78-.04,0-.08,0-.12,0-.3,0-.6-.02-.9-.03-1.43-4.21-1.86-8.54-4.13-12.75-2.44-4.52-5.4-8.78-6.61-13.85-.62-2.6-.72-5.85,1.61-7.35,1.19-.77,2.72-.8,4.11-.35-.58,4.03-1.16,8.06-1.73,12.09,2.87-1.65,3.12-6.85,6.48-6.75.13,0,.27.02.39.04.18.35.34.71.51,1.06.17-.22.33-.45.48-.67,1.57,1.02,1.95,3.72,1.78,5.79Z"/>
      <path class="cls-12" d="M219.5,344.69c-2.86,2.2-6.59,3.03-10.04,4.26-3.26,1.16-6.6,2.98-7.99,5.96-.14.31.02.67.34.79,3.31,1.24,7.69-1.5,10.77.4,2.95,1.81,1.87,6.47-.95,8.47-2.81,2-6.53,2.3-9.91,3.22-10.83,2.92-18.17,12.02-24.5,20.99-.11.15-.28.24-.46.25,0,0,0,0,0,0-.34,0-.62-.29-.59-.63.61-7.38,1.21-14.77,1.82-22.15.16-1.9-.15-4.32-1.41-5.5-.2-.19-.23-.49-.09-.73,4.71-7.85-.68-19.9,6.22-26.37.54-.51,1.19-.97,1.94-1.02,1.55-.1,2.55,1.47,3.17,2.82l4.17,8.99c.23.5.96.43,1.09-.1,2.04-8.2,4.35-16.51,9.43-23.39,1.36-1.84,3.01-3.63,5.23-4.41,2.22-.79,5.12-.24,6.26,1.73,1.14,1.96.22,4.37-.72,6.43-1.44,3.16-2.88,6.33-4.31,9.49-.22.48.27.98.76.77,4.22-1.79,9.49-2.87,12.09.51,2.17,2.83.54,7.03-2.32,9.24Z"/>
      <path class="cls-20" d="M186.53,355.12c-.91,1.88-2.62,3.31-4.09,4.87-1.39,1.47-2.64,3.29-2.58,5.16,0,.19.18.33.38.31,2.04-.28,3.6-2.85,5.69-2.74,2.01.11,2.67,2.73,1.74,4.5-.94,1.77-2.78,2.93-4.3,4.31-4.85,4.41-6.27,10.98-7.2,17.2-.02.1-.08.2-.17.25,0,0,0,0,0,0-.18.1-.4.03-.47-.15-1.63-3.86-3.26-7.73-4.88-11.59-.42-.99-8-12.5-6.12-17.62.15-.4.36-.81.74-1.04.78-.47,1.71.04,2.39.55l4.53,3.37c.25.19.61-.05.54-.35-1.1-4.66-2.09-9.46-1.26-14.29.22-1.29.61-2.64,1.55-3.64.94-1,2.59-1.52,3.71-.84,1.11.67,1.26,2.13,1.32,3.41.09,1.98.17,3.95.26,5.93.01.3.4.42.6.18,1.72-2.05,4.17-4.03,6.41-3.04,1.87.82,2.13,3.38,1.23,5.26Z"/>
    </g>
  </g>
  <path class="cls-13" d="M447.01,232.03s61.61-33.42,68.32-84.22c.84-6.35.67-11.7-.24-16.15-6.42-31.12-49.78-17.78-45.11,9.47,5.34,31.15,74.35,27.23,95.28-8.08"/>
</svg>