<svg width="651" height="829" viewBox="0 0 651 829" fill="none" xmlns="http://www.w3.org/2000/svg">
<path d="M174.793 534.005C176.879 533.561 298.68 415.009 298.68 415.009C298.68 415.009 397.498 481.119 383.987 502.519C370.483 523.917 134.896 805.192 121.314 816.975C107.732 828.751 9.08662 704.66 15.5836 687.305C22.0806 669.951 174.794 534.012 174.794 534.012L174.793 534.005Z" fill="#BFBFBF"/>
<path opacity="0.26" d="M643.063 106.883C608.648 113.717 606.714 116.173 608.139 151.225C601.305 116.817 598.848 114.882 563.79 116.309C598.205 109.474 600.14 107.018 598.714 71.9665C605.548 106.375 608.005 108.309 643.063 106.883Z" fill="#BFBFBF"/>
<path d="M580.103 27.5968C581.638 40.5077 572.413 52.2205 559.507 53.7552C546.601 55.2899 534.88 46.0678 533.344 33.157C533.134 31.39 533.124 29.6468 533.301 27.9424C533.728 23.7648 535.273 19.8614 537.652 16.5716C541.372 11.4322 547.146 7.8066 553.94 6.99865C562.723 5.95429 570.943 9.88428 575.791 16.5706C577.967 19.5699 579.463 23.1253 580.023 27.0362C580.045 27.2236 580.067 27.411 580.09 27.5984" fill="white"/>
<path d="M580.103 27.5968C581.638 40.5077 572.413 52.2205 559.507 53.7552C546.601 55.2899 534.88 46.0678 533.344 33.157C533.134 31.39 533.124 29.6468 533.301 27.9424C533.728 23.7648 535.273 19.8614 537.652 16.5716C541.372 11.4322 547.146 7.8066 553.94 6.99865C562.723 5.95429 570.943 9.88428 575.791 16.5706C577.967 19.5699 579.463 23.1253 580.023 27.0362C580.045 27.2236 580.067 27.411 580.09 27.5984" stroke="black" stroke-width="0.387694" stroke-miterlimit="10"/>
<path d="M553.947 7.00391L559.506 53.7545" stroke="black" stroke-width="0.387694" stroke-miterlimit="10"/>
<path d="M549.998 7.81386C549.998 7.81386 527.933 29.0969 552.601 53.5653L549.998 7.81386Z" fill="white"/>
<path d="M549.998 7.81386C549.998 7.81386 527.933 29.0969 552.601 53.5653" stroke="black" stroke-width="0.387694" stroke-miterlimit="10"/>
<path d="M557.254 6.95117C557.254 6.95117 583.768 22.858 565.519 52.423L557.254 6.95117Z" fill="white"/>
<path d="M557.254 6.95117C557.254 6.95117 583.768 22.858 565.519 52.423" stroke="black" stroke-width="0.387694" stroke-miterlimit="10"/>
<path d="M533.912 36.2129L580.47 30.6766" stroke="black" stroke-width="0.387694" stroke-miterlimit="10"/>
<path d="M557.067 11.6082C556.767 9.08496 558.218 6.8422 560.306 6.59385C558.218 6.8422 556.281 4.99554 555.981 2.47897C556.281 5.00223 554.831 7.24498 552.742 7.49334C554.831 7.24498 556.767 9.08496 557.067 11.6082Z" fill="black"/>
<path d="M503.448 74.4851L597.511 373.387L405.984 396.161L311.922 97.2598L503.448 74.4851Z" fill="white" stroke="black" stroke-width="0.472798" stroke-miterlimit="10"/>
<path d="M436.1 90.6919L433.613 82.7882L381.76 88.9541L384.697 98.2976C385.275 100.136 387.077 101.3 388.992 101.072L432.751 95.8686C435.241 95.5725 436.854 93.0866 436.1 90.6919Z" fill="black"/>
<path d="M514.331 360.022C515.443 363.555 513.408 366.764 509.793 367.193L483.606 370.307C479.991 370.737 476.154 368.22 475.043 364.694C473.93 361.161 475.965 357.953 479.58 357.523L505.768 354.409C509.383 353.979 513.219 356.496 514.331 360.022Z" fill="white"/>
<path d="M579.839 132.168L398.055 155.975L414.086 278.382L595.87 254.575L579.839 132.168Z" fill="white" stroke="black" stroke-width="0.236399" stroke-miterlimit="10"/>
<path opacity="0.05" d="M414.083 278.403L496.104 198.744L595.869 254.608L414.083 278.403Z" fill="#606060"/>
<path d="M579.846 132.197L498.759 219.015L398.055 156L579.846 132.197Z" fill="#BFBFBF"/>
<path d="M486.042 386.607C476.993 425.429 453.248 430.988 421.133 445.966C412.706 449.893 406.587 454.436 402.183 459.134L312.515 396.666C333.644 375.786 339.09 353.418 342.207 312.376C344.287 284.829 366.204 259.328 387.731 244.028C402.277 233.671 416.649 227.964 424.628 229.411C427.077 229.853 429.176 230.886 430.88 232.428C442.867 243.146 436.198 278.182 399.549 304.702C399.549 304.702 436.003 329.581 408.013 388.616L414.876 395.063L486.048 386.599L486.042 386.607Z" fill="white" stroke="black" stroke-width="0.236399" stroke-miterlimit="10"/>
<path d="M301.723 389.165L413.115 466.759C415.949 468.729 416.682 472.606 414.763 475.482L389.826 512.86C387.682 516.075 383.188 516.643 380.315 514.066L280.084 424.19C277.888 422.225 277.342 419.005 278.759 416.42L292.537 391.323C294.35 388.019 298.63 387.015 301.724 389.172L301.723 389.165Z" fill="black"/>
<path d="M395.04 479.633L386.796 492.057C385.275 494.342 382.192 494.967 379.908 493.453C377.623 491.933 376.998 488.851 378.512 486.567L386.756 474.143C388.277 471.858 391.359 471.233 393.644 472.747C395.929 474.267 396.554 477.349 395.04 479.633Z" fill="white"/>
<path d="M394.019 472.179C391.402 470.441 387.905 471.176 386.189 473.762L377.945 486.186C376.218 488.788 376.927 492.294 379.528 494.014C382.122 495.735 385.63 495.04 387.357 492.432L395.601 480.007C397.328 477.406 396.62 473.9 394.019 472.179ZM394.473 479.259L386.229 491.683C384.946 493.621 382.302 494.227 380.283 492.886C378.3 491.574 377.773 488.908 379.08 486.941L387.324 474.516C388.637 472.541 391.295 472.001 393.271 473.314C395.239 474.62 395.786 477.284 394.473 479.259Z" fill="#00002D"/>
<path d="M243.085 205.005C243.085 205.005 202.789 248.534 245.384 279.09C287.985 309.646 290.125 255.654 272.608 263.113C255.09 270.571 247.753 305.749 265.587 319.05C283.421 332.35 290.524 309.989 280.949 304.089C271.375 298.188 253.883 322.192 274.628 336.62" stroke="black" stroke-width="0.236399" stroke-miterlimit="10"/>
<path d="M501.648 480.111C501.648 480.111 540.34 525.067 575.529 486.211C610.711 447.349 557.302 439.114 562.73 457.358C568.158 475.603 602.281 486.872 617.522 470.663C632.764 454.454 611.345 444.864 604.393 453.707C597.447 462.549 619.314 482.647 636.005 463.673" stroke="black" stroke-width="0.236399" stroke-miterlimit="10"/>
<path d="M501.49 220.102C502.609 219.697 572.851 141.921 572.853 142.851L501.49 220.102Z" fill="white"/>
<path d="M501.49 220.102C502.609 219.697 572.851 141.921 572.853 142.851" stroke="black" stroke-width="0.236399" stroke-miterlimit="10"/>
<path d="M390.125 102.758C390.761 102.573 434.139 97.5238 434.139 97.5238L390.125 102.758Z" fill="black"/>
<path d="M384.252 249.939C384.583 249.635 391.003 255.557 398.39 254.19C405.776 252.823 418.613 236.941 417.493 233.178C416.374 229.415 407.731 232.669 407.731 232.669" fill="white"/>
<path d="M384.252 249.939C384.583 249.635 391.003 255.557 398.39 254.19C405.776 252.823 418.613 236.941 417.493 233.178C416.374 229.415 407.731 232.669 407.731 232.669" stroke="black" stroke-width="0.236399" stroke-miterlimit="10"/>
<path d="M285.4 624.914C285.066 625.307 372.431 518.316 371.754 519.184" stroke="black" stroke-width="0.945596" stroke-miterlimit="10"/>
</svg>
