<svg id="Layer_1" data-name="Layer 1" xmlns="http://www.w3.org/2000/svg" xmlns:xlink="http://www.w3.org/1999/xlink" viewBox="0 0 788 693"><defs><style>.cls-1,.cls-10,.cls-14,.cls-15,.cls-16,.cls-17,.cls-18,.cls-8,.cls-9{fill:none;}.cls-1,.cls-14,.cls-15,.cls-16,.cls-17,.cls-18,.cls-6,.cls-8{stroke:#000;}.cls-1,.cls-8{stroke-miterlimit:10;}.cls-1,.cls-10,.cls-16,.cls-9{stroke-width:1.4px;}.cls-2{fill:#2d2d2d;}.cls-3,.cls-6{fill:#fff;}.cls-4{fill:#4d4d4d;}.cls-5{fill:#dfdfdf;}.cls-10,.cls-14,.cls-15,.cls-16,.cls-17,.cls-18,.cls-6,.cls-9{stroke-linecap:round;stroke-linejoin:round;}.cls-6,.cls-8{stroke-width:0.7px;}.cls-7{fill:gray;}.cls-9{stroke:#fff;}.cls-10{stroke:#1a1a1a;}.cls-11{clip-path:url(#clip-path);}.cls-12{fill:#cfcfcf;}.cls-13{fill:#afafaf;}.cls-14{stroke-width:3.5px;}.cls-15{stroke-width:2.8px;}.cls-17{stroke-width:0.52px;}.cls-18{stroke-width:0.17px;}.cls-19{fill:#bfbfbf;}.cls-20{fill:#101010;}.cls-21{fill:#303030;}</style><clipPath id="clip-path"><path d="M269,664c1-7.22,3.63-13.65,7.14-22.63,4.51-11.54,2.46-33.73,1.43-40.6a14.94,14.94,0,0,1,.94-8.06,16.56,16.56,0,0,0,4.37,3.18c8.88,4.35,17.25-.61,25.76-3.17,3.88-1.17,8.42-1.31,11.58,1.41l-.62-.31c4.4,3.34,4.47,8.29,3.86,13.6,0,0-1.94,17.2-1.12,21.64s6,23.19,8.29,26.51a14.87,14.87,0,0,1,1.79,6,47,47,0,0,1,.06,11c-.62,4.66-11.47,12.43-30.94,12.87s-33-4.88-33-15.09A45.88,45.88,0,0,1,269,664Z"/></clipPath></defs><path class="cls-1" d="M426.39,307.06s77.24,24.66,72.76,109.05-166.37,140.45-131,212.45c23.51,47.8,77,38.22,89.36,17.77,11.32-18.69-34.36-26.07-58.85-28-29.89-2.41-76.3-36.78-80.57,8.29-6.07,64,92.05,49.64,73.68,32s-41.21,20.55-8.94,24.52,80.43-41.1,135-24.52,89.86,2.18,97.8-11.72"/><path class="cls-2" d="M352.72,106.62c-.58-.85-2.11.22-2.66-.79-.31-.57.67-1.8.47-2.47s-.61-1.2-.45-1.82-.08-2.2.71-2.52,1.54.08,1.83-.45,1.07-1.16,1.25-1.8.3-.75,1.11-1.07c.48-.19.92-1.4,1.86-1.36.62,0,1.22-.12,1.84-.11s1.24,1.25,1.85,1.26,1.29-.93,1.88-.89,1.21.66,1.78.77.76,1,1.25,1.28,2.77-.69,3-.09a8.53,8.53,0,0,1-.31,2.4c-.08.64.41,1.26.37,1.83s-2.07,1.14-2.11,1.7,1.11,1.39,1,1.93c-.08.71-1.64.76-1.88,1.21s.28,1.74-.42,1.89c-.43.1-1.13.08-1.93.22-.57.09-1.28-.24-2-.15s-1.1,1.63-1.76,1.69S358,107,357.36,107s-1.25.82-1.85.81-1.54,1.14-2.09,1C352.6,108.68,353,107.05,352.72,106.62Z"/><path d="M160.25,86.68c.14,2.16,2.35,8.7,7.65,11.21a4.94,4.94,0,0,1,2.75,5.12c-1,7.82-2.94,22.24-4,30.19a5,5,0,0,0,4.94,5.64h5.24a5,5,0,0,0,5-4.5c.47-4.8,2.15-11.65,8-11.32,5.62.32,7,6.53,7.26,11a5,5,0,0,0,1.25,3,5,5,0,0,0,3.69,1.67l5.55,0a5,5,0,0,0,4.93-5.82l-3.55-20.84-.06-.41a5,5,0,0,1,2.06-4.47,18.8,18.8,0,0,0,6.48-8.45c3.08-7.69-3.93-11.63-3.93-11.63a29.24,29.24,0,0,0-7.25-3.64A5,5,0,0,1,203,80.72c-1.6-3.74-5-9.75-11.25-11-7.86-1.54-9.41.52-15.39-5.64s-6.84-8.38-7.18-13,1-10.77,8-16.07c3.93-2.73,8.89-3.42,9.57-3.93s1.37-3.59-.51-3.94S169,30.76,163.5,38.12s-12.32,22.06,1,37.79c2.74,3.25,7.53,8.38,7.7,11.28s.17,4.62-.69,4.79-4.95-.68-7.35-5-.85-6.15-1.88-6.49S160.08,84.12,160.25,86.68Z"/><path d="M198.26,137.11a5,5,0,0,0,3.69,1.67l5.55,0a5,5,0,0,0,4.93-5.82l-3.55-20.84-.06-.41a7.11,7.11,0,0,0-.42,2.42C208.4,120.6,208.11,136.1,198.26,137.11Z"/><path class="cls-3" d="M246.73,533.66c-5.77,0-5.82-2.74-6-12.94-.1-5.37-.25-12.72-1.35-22.62,1.45-3.31,79.64-26.4,97.28-28.67l.34-.05,0-.34c-2-17.75-3.18-37.15-3.47-57.65l0-3.21c-.12-12,.06-24.43.52-37,0-1.11.08-2.14.13-3.16.77-19.22,2.22-39.07,4.29-59,.47-4.59,1-9.61,1.7-15.34.52-4.34,1.11-9,1.75-13.77.35-2.67.72-5.34,1.1-8a1.53,1.53,0,0,1,0-.32c.57-4.08,1.2-8.36,1.93-13.08l61.63,8.39c0,1.26.16,6.5.37,14.51,0,.37,0,.74,0,1.13.18,7.54-1.67,16-3.82,25.77-2.86,13-6.1,27.78-5.73,45.37.19,9.15-.84,21.41-1.84,33.27-.94,11.25-1.84,21.89-1.72,29.72.67,44.62-4.75,93.91-14.66,95.73-6.06,1.11-99.74,17.59-128.45,21A35.55,35.55,0,0,1,246.73,533.66Z"/><path d="M345.18,258.89l18.27,2.48,42.72,5.82c.05,1.66.17,6.71.37,14.19,0,.38,0,.76,0,1.15.18,7.49-1.67,15.92-3.81,25.69-2.87,13-6.11,27.81-5.74,45.45.19,9.13-.84,21.38-1.83,33.23-.95,11.26-1.85,21.91-1.73,29.75.32,21.42-.86,44.69-3.15,62.25-3.61,27.7-8.58,32.65-11.22,33.14-6.06,1.11-99.78,17.59-128.43,21a35.16,35.16,0,0,1-3.93.29c-5.26,0-5.47-2-5.68-12.61-.1-5.34-.25-12.64-1.33-22.46,1.51-1.46,16.52-6.89,42.92-14.68,20.45-6,45.08-12.65,54-13.8l.68-.09-.07-.68c-2-17.74-3.18-37.13-3.48-57.62v-.07l0-3.13c-.12-12,.06-24.43.52-37v-.09c0-1,.08-2,.13-3.07.77-19.21,2.22-39.05,4.29-59,.47-4.58,1-9.59,1.7-15.32.52-4.38,1.11-9,1.75-13.77.31-2.43.67-5.05,1.1-8a2.51,2.51,0,0,1,0-.27v-.06c.55-4,1.16-8.12,1.87-12.7m-.59-.79q-1,6.69-2,13.39c0,.12,0,.23-.05.35q-.57,4-1.1,8c-.61,4.59-1.2,9.19-1.75,13.77q-.9,7.69-1.7,15.34c-2.07,19.88-3.51,39.67-4.29,59-.05,1-.09,2.1-.13,3.15-.46,12.58-.64,25-.52,37.06,0,1.08,0,2.15,0,3.21.29,20.22,1.43,39.61,3.47,57.69h0c-17.58,2.26-97.92,26-97.58,29.06,3.18,28.59-1.61,35.87,7.73,35.87a34.24,34.24,0,0,0,4-.29c28.62-3.39,121.84-19.78,128.46-21,10.92-2,15.55-55.93,15-96.09-.24-16.21,3.93-45.3,3.56-63-.65-30.88,10-53.58,9.55-71.14,0-.38,0-.76,0-1.13-.24-9.26-.38-14.81-.38-14.81l-43.31-5.89-19-2.58Z"/><path class="cls-3" d="M281.93,603.41c-1.64-5.82-14.91-93.38-14.47-101.7.74-13.7.2-28.92-.31-43.63-.68-19.35-1.38-39.35.67-57.06,1.44-12.45,1.81-25.28,2.18-37.7.51-17.77,1.05-36.15,4.73-53.79,10.85-51.9,13.22-65.19,13.57-67.23l54.08,1.23c-.74,11.22-17.47,264.46-19,284.12-.91,11.39-1.51,23.07-2,33.38-.84,16.1-1.5,28.86-2.86,32.9Z"/><path d="M288.6,242.66,342,243.87c-1,15.43-17.46,264.28-19,283.75-.9,11.4-1.51,23.08-2,33.39-.79,15.22-1.48,28.42-2.79,32.63l-36,9.34c-1.95-8.16-14.8-93.16-14.37-101.25.74-13.72.2-28.94-.31-43.66-.68-19.33-1.38-39.32.67-57,1.44-12.47,1.81-25.31,2.18-37.73.51-17.76,1-36.12,4.72-53.73,10.42-49.83,13-64.07,13.53-66.94M288,242s-1.57,9.85-13.62,67.51c-6.26,30-3.41,61.26-6.92,91.52-3.63,31.36,1.33,69.2-.35,100.72-.51,9.4,13.67,100.65,14.59,102.13l37-9.61c2.32-6.36,2.65-37.28,5-66.55,1.61-20.23,19.06-284.48,19.06-284.48L288,242Z"/><path class="cls-4" d="M334.55,322.89l.61-1.15c-.14-.08-14.09-7.33-30.24-4.09l.26,1.27C320.86,315.79,334.42,322.82,334.55,322.89Z"/><path class="cls-3" d="M330.5,450l1.31,0c0-.17.29-17.64,1.37-44.52s1.37-37.4,1.37-37.5l-1.3,0c0,.1-.29,10.58-1.37,37.47S330.51,449.82,330.5,450Z"/><path d="M255.34,338a1.55,1.55,0,0,0,2.68,1.38c4.25-5,12.67-13.36,19.78-9.8,15,7.51,35.34,37.93,55.36,41.47l.43.07c.3.05.58.11.86.14s.53.11.8.14c3.62.59,7,1,10.14,1.22,8.84.57,20.88-1.19,32.78-3.72,11.42-2.44,22.71-5.59,30.91-8,7.55-2.26,12.47-3.94,12.47-3.94,2.09-.71-.19-48.44-.77-60.67-1.28-27.39-3.06-54.74-4.87-82.1-1.46-21.47-10.66-55.12-20.58-62.08a6.31,6.31,0,0,0-3.27-1.29c-3-.21-14.85-.89-28.64-1.66-.73-.06-1.46-.09-2.2-.15-2.15-.11-4.34-.24-6.56-.37l-7.62-.43-4.85-.28-3.76-.22c-12.92-.74-23.8-1.38-26.61-1.56a10.3,10.3,0,0,0-2.79.19c-9,1.92-13.35,13.81-16.3,21.23-5.61,14.14-8,28.77-10.86,43.67,0,10.66-4.5,23-6.55,33.5l-6.75,34.52C264.7,299,260.28,318.47,255.34,338Z"/><path d="M373.27,169.1c2-8.45,11.71-24.19,31.78-17.28s80.09,30.52,90.74,42.13c15.39,16.79,12.53,44.48-23.69,46.54-23.35,1.33-71.23-23.27-85.55-37.32S370.67,180,373.27,169.1Z"/><path class="cls-4" d="M454,207.9c-12,13.22-13.51,31.33-3.42,40.46s27.95,5.83,39.92-7.39,13.5-31.33,3.42-40.46S466,194.69,454,207.9Z"/><path class="cls-5" d="M372,251.58l16,15c.55-.22,1.15-.44,1.8-.64s1.13-.31,1.74-.46l1.09-.23a76.49,76.49,0,0,1,8.47-1.06c4.94-.4,10.7-.6,16.88-.83,5-.17,10.24-.37,15.57-.69,4.25-.26,8.55-.6,12.79-1.08l.14,0h0c4.16-.48,8.26-1.09,12.2-1.9,10.35-2.12,19.59-5.57,25.87-11.35a25.9,25.9,0,0,0,3.14-3.44h0c13.8-12.92,13.41-28.35,7.55-37.34a2.44,2.44,0,0,0-.23-.33,6.45,6.45,0,0,0-.37-.54c-.37-.52-.77-1-1.17-1.48a18.27,18.27,0,0,0-2.74-2.53c-.33-.26-.68-.5-1-.73s-.72-.46-1.09-.68-.6-.34-.91-.49-.38-.21-.58-.3c-9.7-4.75-24.07-3.54-34.72,4.46-2.13,1-5.32,2.7-9.21,4.85-6.6,3.64-15.26,8.61-24.24,13.85-9.81,5.73-20,11.78-28.4,16.77l-.76.46-5.54,3.31c-5.81,3.47-10.06,6-11.64,7l-.65.38Z"/><path d="M331,159.48c-4.26-7.58-17.86-20.09-35.28-8s-68.75,51.17-75.84,65.24c-10.25,20.34,12,60.81,47.38,52.93,22.83-5.07,50.28-56.38,60.24-73.8S336.41,169.2,331,159.48Z"/><path class="cls-4" d="M269.12,219.73c12.34,12.87,14.39,30.94,4.57,40.35s-27.78,6.62-40.12-6.25S219.18,222.9,229,213.48,256.78,206.87,269.12,219.73Z"/><path class="cls-5" d="M228.18,250.78c-7.2-11.78-7.29-29.52.82-37.3,9.81-9.41,27.78-6.61,40.12,6.25a38.09,38.09,0,0,1,10.5,20.76C261.57,256.06,243.74,263.88,228.18,250.78Z"/><path class="cls-3" d="M310.27,225.87l-20.17,3.79-.13,0,12,6.76a3.29,3.29,0,0,1,5.21,3.87,3.23,3.23,0,0,1-4.42,1.18,3.27,3.27,0,0,1-1.64-3.43l-11.84-6.66,7.09,19s10.58-4.48,18-.33l4.92-8.74C311.89,237.21,310.27,225.87,310.27,225.87Z"/><path class="cls-5" d="M431.49,309.82a9.45,9.45,0,0,1-12.91,3.42l-6.09-3.42,9.13-16.24,6.09,3.42A9.46,9.46,0,0,1,431.49,309.82Z"/><path class="cls-6" d="M412.49,309.82l-74.32-41.7A3,3,0,0,1,337,264l-22.37-12.57a1.37,1.37,0,0,1-.55-1.86l4.87-8.66a1.37,1.37,0,0,1,1.88-.5L343.15,253a3,3,0,0,1,4.15-1.1l74.32,41.7Z"/><path class="cls-5" d="M347.88,267.51s1.35-3.95,2.44-6.5,2.44-3.87,7-4.95,12.2-6.45,16.45-4.74S392,259,388.62,271.21s-20.55,23.55-20.83,15.42c0,0-6.32,5-8.31-2.62,0,0-8.68,2.12-7.5-5.43C352,278.58,340.16,280.29,347.88,267.51Z"/><path class="cls-7" d="M352,278.58a21.34,21.34,0,0,1,2.2-4.65,20.36,20.36,0,0,1,3.16-4.06,20.87,20.87,0,0,1-2.2,4.65A21.12,21.12,0,0,1,352,278.58Z"/><path class="cls-7" d="M359.5,284a49.92,49.92,0,0,1,3.33-6c1.22-1.93,2.48-3.8,3.89-5.65a17.65,17.65,0,0,1-1.25,3.24,34.1,34.1,0,0,1-1.69,3A30,30,0,0,1,359.5,284Z"/><path class="cls-7" d="M367.8,286.72c1-1.28,2-2.41,3-3.6.51-.58,1-1.18,1.49-1.77s1-1.21,1.54-1.81a9.54,9.54,0,0,1-2.17,4.31,11.6,11.6,0,0,1-1.76,1.67A7.64,7.64,0,0,1,367.8,286.72Z"/><path d="M391.43,258c.29,1.17.66,2.73.95,4.18a17.11,17.11,0,0,1,.28,3.1,76.49,76.49,0,0,1,8.47-1.06c-.34-2.41-1.3-7.92-3.13-10a1.16,1.16,0,0,0-1.3-.31l-3.93,1.53A2.21,2.21,0,0,0,391.43,258Z"/><rect class="cls-3" x="387.31" y="244.7" width="10.14" height="10.44" rx="3.46" transform="translate(851.01 327.93) rotate(157.16)"/><rect x="386.99" y="245.03" width="9.96" height="10.14" rx="3.46" transform="translate(850.3 328.42) rotate(157.16)"/><path d="M384.47,244.1c.59.94.93,2.22,1.15,2.44a7.32,7.32,0,0,0,2.9-.7,24.48,24.48,0,0,0,2.81-1.18,4.39,4.39,0,0,0,1.41-1c.56-.84-1.14-2.66-2-3.36Z"/><path class="cls-5" d="M172.49,149.06s6.07,10.93,16.39,9.55a13.6,13.6,0,0,1,3-.07,17.52,17.52,0,0,1,9.07,3.82,25.45,25.45,0,0,1,4.93,5h0c7.57,16.25,17.24,71.87,18.6,76.47,8,26.83,43.51,11.34,37.48-10.18-2-7.21-35.34-66.17-37.51-70a76,76,0,0,0-2.65-8.19A48.47,48.47,0,0,0,217,145.9c-2.82-4.16-6.39-7.15-10.65-6.24-.6.06-4.89.4-7.6-2-.92-.8-2.31-4-3.61-8.49-1.06-3.71-3.09-7-6.95-6.8-5.39.26-12,.69-13.21,1.28-2.16,1,1.48,19.21,1.6,19.84-.22-.66-6.68-19.62-11.77-25.25-1.33-1.47-2.85.33-3.18,2.29C160.13,129.49,172.49,149.06,172.49,149.06Z"/><path class="cls-7" d="M192,141l-4.66-18.31C187.3,129.57,192,141,192,141Z"/><path class="cls-7" d="M184.31,144.55,181,122.78C180.29,129.62,184.31,144.55,184.31,144.55Z"/><path class="cls-7" d="M256.28,222.65l1.4-.7c-3.08-6.12-7.17-13.68-7.21-13.76l-1.38.75C249.13,209,253.22,216.55,256.28,222.65Z"/><path class="cls-8" d="M312.49,422.87s-14.24-10.68-40.21-12.1"/><path class="cls-8" d="M310.89,428.74s-12.81-6.76-38.79-5.69"/><path class="cls-8" d="M309.11,435.15s-14.24-1.43-22.42,1.42"/><path class="cls-8" d="M353.59,422.16s14.24-10.68,40.21-12.1"/><path class="cls-8" d="M355.19,428S368,421.27,394,422.34"/><path class="cls-8" d="M357,434.44s14.24-1.43,22.42,1.42"/><path class="cls-9" d="M310.18,185.33c-1.07.35-19.93,37.36-19.93,37.36"/><line class="cls-9" x1="413.1" y1="221.15" x2="385.32" y2="201.94"/><path class="cls-10" d="M368.18,485.33s-23.13-1.43-31.67-22.07"/><path d="M269,664c1-7.22,3.63-13.65,7.14-22.63,4.51-11.54,2.46-33.73,1.43-40.6a14.94,14.94,0,0,1,.94-8.06,16.56,16.56,0,0,0,4.37,3.18c8.88,4.35,17.25-.61,25.76-3.17,3.88-1.17,8.42-1.31,11.58,1.41l-.62-.31c4.4,3.34,4.47,8.29,3.86,13.6,0,0-1.94,17.2-1.12,21.64s6,23.19,8.29,26.51a14.87,14.87,0,0,1,1.79,6,47,47,0,0,1,.06,11c-.62,4.66-11.47,12.43-30.94,12.87s-33-4.88-33-15.09A45.88,45.88,0,0,1,269,664Z"/><g class="cls-11"><path class="cls-4" d="M259.37,649.16c3.7-2.57,7.81.14,10.45,2.91a36,36,0,0,1,6.62,9.77c3.39,7.38,3.86,16.32-.16,23.55-.65,1.19,1.16,2.25,1.81,1.06a27.47,27.47,0,0,0,2-20.66A35.3,35.3,0,0,0,275.6,656a30.23,30.23,0,0,0-7.11-7.92c-3-2.13-7-2.94-10.18-.75-1.11.76-.06,2.58,1.06,1.81Z"/><path class="cls-4" d="M334.37,648.87a28.58,28.58,0,0,0-16,13.13,35.16,35.16,0,0,0-4,22.88,38.92,38.92,0,0,0,4.43,13c.65,1.18,2.47.12,1.81-1.06-7.06-12.81-6.2-30,4.83-40.37a24.5,24.5,0,0,1,9.49-5.59c1.29-.39.74-2.42-.56-2Z"/></g><path class="cls-3" d="M299.3,685.22c-18.76,0-30.41-5.66-30.41-14.77a45.86,45.86,0,0,1,.37-5.91c11.64,5.81,22.8,8.76,33.19,8.76h0c14.43,0,23.88-5.82,27.19-9.26a8.83,8.83,0,0,1,2.47-1.92,47,47,0,0,1,0,10.51c-.53,4-10.33,12.1-30.59,12.56l-2.22,0Z"/><path d="M331.82,662.67a46.71,46.71,0,0,1-.05,9.91c-.55,4.17-11.14,11.83-30.26,12.26l-2.21,0c-18.54,0-30.06-5.53-30.06-14.42a47.57,47.57,0,0,1,.3-5.38c11.54,5.7,22.6,8.58,32.91,8.58,14.55,0,24.09-5.89,27.44-9.37a9.65,9.65,0,0,1,1.93-1.61m.58-1a8.24,8.24,0,0,0-3,2.18c-3,3.14-12.21,9.15-26.94,9.15-9.09,0-20.29-2.28-33.47-8.94a45.88,45.88,0,0,0-.44,6.44c0,9.82,12.5,15.12,30.76,15.12l2.22,0c19.47-.44,30.32-8.21,30.94-12.87a47,47,0,0,0-.06-11Z"/><path d="M251.24,537.54a19.24,19.24,0,0,0-5.17-17c-7.44-7.43-1.83-12.83-1-15.62a16.29,16.29,0,0,0,0-10.41s-36.22.58-48.51,3l0,109.1s8.41,2.23,12.29-7.72,13.06-52.53,21.26-59.13S251.24,537.54,251.24,537.54Z"/><path class="cls-4" d="M202.44,516.16l.16,1.19c16.28-2.22,21.59-22,21.64-22.16l-1.16-.3C223,495.08,217.91,514.05,202.44,516.16Z"/><path class="cls-3" d="M198.58,606.42a9.35,9.35,0,0,1-1.67-.14l0-108.53c1.76-.33,4-.63,7-.93l0,108.07a9.73,9.73,0,0,1-5.29,1.53Z"/><path d="M203.55,497.21l0,107.49a9.39,9.39,0,0,1-4.94,1.37,8.88,8.88,0,0,1-1.32-.09l0-107.94c1.62-.29,3.68-.56,6.25-.83m.7-.77c-3,.29-5.65.63-7.65,1l0,109.1a8.75,8.75,0,0,0,2,.21,10,10,0,0,0,5.64-1.69l0-108.64Z"/><path class="cls-5" d="M367.83,143.34a27.65,27.65,0,0,1-.18,11.92c-1.43,5.34-3.92,44.84-12.46,52s-15.69-46.44-14.23-52C346.47,134.44,366,140.22,367.83,143.34Z"/><path d="M367.83,142.62c.56.57,7.82,6,8.54,7.48,0,0-4.27,1.78-6.76,8.18s-5-1.06-5-1.06,2.81-11.36,2.65-12.44S367.11,141.91,367.83,142.62Z"/><path d="M349.32,142.27c-.56.56-7.83,5.34-8.54,6.76,0,0,4.27,1.78,6.76,8.19s3.92,0,3.92,0-1.75-12.42-1.59-13.51S350,141.56,349.32,142.27Z"/><path d="M336.51,150.1c.36,0,8.54-1.07,10.32,2.84s5.71,2.76,3.56,6.72-8.19,11.08-7.47,23.53-18.15-7.47-18.15-15.3,4.62-14.95,4.62-14.95l2.14-2.84h5Z"/><ellipse class="cls-12" cx="372.05" cy="130.17" rx="2.93" ry="2.04" transform="translate(179.83 474.29) rotate(-80.1)"/><ellipse class="cls-12" cx="346.04" cy="128.9" rx="2.04" ry="2.93" transform="translate(-19.86 79.18) rotate(-12.69)"/><path class="cls-4" d="M352.86,145.49c-1.05-1.16-1.9-5.52-3.1-6l.24-3.65a161.25,161.25,0,0,0,18.34-5.55l-.82,12.44c-.89.61-2.55,4.24-4.38,5.4C360,150.1,356.2,149.22,352.86,145.49Z"/><path class="cls-3" d="M346.76,135.26A5.9,5.9,0,0,0,348.9,139l5.19,4.67a4.83,4.83,0,0,0,2.93,1.23l2,.14a4.9,4.9,0,0,0,3-.8l6-4a6.09,6.09,0,0,0,2.68-3.47c.34-1.35.79-4.5,1.07-6.59.16-1.17.26-2,.26-2h0c.67-2.51.21-5.93.21-8.74,0-7.76-8.66-11.62-16.52-9.53-7.34,2-9.45,5.61-8.88,13,.08,1.06,0,3.26-.07,5.61C346.68,131,346.62,133.67,346.76,135.26Z"/><path d="M368.2,114.22a26.42,26.42,0,0,1-4.55.68c-1.7.22-3.2.79-4.59.71a21.81,21.81,0,0,1-4.59-.87c-2.5-.69-4-1.68-4.31-1.67-.8,0-1.72,4.76-2,6.91s-1.14,1.66-1.43,3.62c-.33,2.17.17,5-.74,4.46s-1.54-2.39-1.93-4.39a14.3,14.3,0,0,1-.89-4.51c.07-1.46,1.27-3,1.47-4.43.25-1.82,0-3.6.5-4.51s2-1.67,3.36-2.68c1.13-.82,2.06-2.13,3.21-2.91,1.47-1,3.29-1.41,3.82-2.21a4.46,4.46,0,0,1,3.5-2.16,8.66,8.66,0,0,1,4.14,1.29c.75.42,1.87,1.63,3.41,2.58,1.17.72,2.59,1.22,3.71,2a11.31,11.31,0,0,1,2.84,3c.79,1.22,1,3.12,1.19,5.2.21,2.27,1.29,4.51,1.19,5.62-.19,2.11-1.48,4.06-2.11,7.16s-1.56,1.3-1.79.17a27.68,27.68,0,0,0-.05-3.44c-.51-3.7-1.57-6.13-1.69-7.25C369.63,114.77,370.75,112.89,368.2,114.22Z"/><path class="cls-12" d="M346.69,136.8a6.18,6.18,0,0,0,2.05,3.88c2.72,2.2,2.73,2.18,5.45,4.37a4.67,4.67,0,0,0,2.83,1.32c1,.07,1,.34,2,.41a5.18,5.18,0,0,0,3.06-1c3-2,2.86-2.17,5.85-4.15a5.88,5.88,0,0,0,2.65-3.36c.33-1.36.69-4.46,1-6.55-.54-.17-.93,0-1.24,1.37a15.08,15.08,0,0,1-1.33,3.22,7.23,7.23,0,0,1-1.18,2.14,13.72,13.72,0,0,1-4.52,3.88,9.72,9.72,0,0,1-5.45,1.09c-2.26-.23-4.5-.89-5.45-1.71a14.26,14.26,0,0,1-2.31-3.08,8.09,8.09,0,0,1-1.5-3.44s-.07,0-.07,0c-.06-.33.11-.7.07-1.05l0,0c0-.17-.09-.34-.11-.51s-.31-.49-.37-.75a5.71,5.71,0,0,0-1.38-2.83C346.66,132.52,346.54,135.21,346.69,136.8Z"/><path class="cls-13" d="M348,134.35c.05.41.11.85.17,1.31,0-.17,0-.34-.05-.52A7.18,7.18,0,0,0,348,134.35Z"/><path class="cls-14" d="M218,149.39c5.33,1.06,5,6.4,5,6.4s-.33,11.26-18.57,8.54a7.71,7.71,0,0,1-3.32-1.24,3.83,3.83,0,0,1-1.42-2.49"/><path class="cls-15" d="M218.72,151.17c5.34,1.06,5,6.4,5,6.4s-.33,11.27-18.6,8.54a13.43,13.43,0,0,1-4.53-1.42c-2.14-1.43-2.18-4.57-2.49-4.63"/><path class="cls-16" d="M219.07,153.3c5.34,1.07,5,6.41,5,6.41s-.8,10.26-18.51,7.83c-.45-.07-4.63-.36-6.76-2.85-1.72-2-2.07-5.26-2.49-5.34"/><path class="cls-17" d="M219.43,154.37c5.34,1.07,5,6.4,5,6.4s-.8,10.27-18.5,7.83c-.46-.06-4.63-.35-6.77-2.84-1.72-2-2.06-5.26-2.49-5.34"/><path class="cls-5" d="M211.6,155.79c2.49,3.2,9.25,1.07,10.2-.32A48.47,48.47,0,0,0,217,145.9c-1.81.13-5.48.46-5.75,1C210.89,147.61,209.11,152.59,211.6,155.79Z"/><path class="cls-5" d="M191.86,158.54a16.76,16.76,0,0,1,5.15,1.52,17.75,17.75,0,0,1,4.63,2.14c.7,0,.61,0,1.06-.36,2.49-1.78-.35-7.47-.35-7.47s-6.76-2.14-7.48-2.14-2.13,1.78-2.49,2.85S191.41,157.08,191.86,158.54Z"/><path class="cls-17" d="M347.44,163.79a9.6,9.6,0,0,0,7.73,8.18c7.08,1.39,11.66-6.11,11.66-6.11"/><rect x="355.46" y="172.25" width="3.16" height="3.16" rx="0.76" transform="translate(-24.89 65.08) rotate(-10.07)"/><polygon class="cls-3" points="357.02 172.54 357.31 173.46 358.27 173.46 357.5 174.02 357.8 174.93 357.02 174.37 356.24 174.93 356.54 174.02 355.76 173.46 356.72 173.46 357.02 172.54"/><circle class="cls-18" cx="356.73" cy="172.14" r="0.51"/><path class="cls-19" d="M590.73,198.57c.12,1.89,2,7.59,6.42,9.79a4.37,4.37,0,0,1,2.31,4.47c-.86,6.83-2.47,19.42-3.36,26.37a4.28,4.28,0,0,0,4.14,4.92h4.4a4.24,4.24,0,0,0,4.15-3.93c.39-4.19,1.81-10.18,6.68-9.88s5.88,5.7,6.09,9.65a4.45,4.45,0,0,0,1.06,2.65,4.09,4.09,0,0,0,3.09,1.46l4.65,0A4.29,4.29,0,0,0,634.5,239l-3-18.2c0-.12,0-.23,0-.35a4.43,4.43,0,0,1,1.73-3.91,16.29,16.29,0,0,0,5.43-7.37A8.2,8.2,0,0,0,635.34,199a24.08,24.08,0,0,0-6.09-3.18,4.29,4.29,0,0,1-2.7-2.47c-1.33-3.27-4.22-8.52-9.43-9.58-6.6-1.35-7.89.45-12.91-4.93s-5.73-7.32-6-11.35.86-9.41,6.74-14c3.3-2.39,7.46-3,8-3.44s1.15-3.14-.43-3.44-14.49,3.14-19.07,9.56-10.33,19.27.86,33c2.29,2.83,6.31,7.31,6.45,9.85s.14,4-.57,4.18-4.16-.6-6.17-4.33-.72-5.38-1.58-5.67S590.59,196.33,590.73,198.57Z"/><path d="M151.8,88.1c0-5.35,3.59-9.69,8-9.69-4.43,0-8-4.34-8-9.68,0,5.34-3.6,9.68-8,9.68C148.2,78.41,151.8,82.75,151.8,88.1Z"/><path class="cls-20" d="M155.73,89.85a1.62,1.62,0,0,1,1.45-1.75,1.63,1.63,0,0,1-1.45-1.75,1.63,1.63,0,0,1-1.45,1.75A1.62,1.62,0,0,1,155.73,89.85Z"/><path class="cls-19" d="M545.91,201.83c-.93-1.5-1.73-2.82-2.54-4.13-3.76-6.1-7.17-12.34-8.62-19.47a71.27,71.27,0,0,1-.87-19.23,63.63,63.63,0,0,1,1.25-8.8c1.68-7.84,4.92-14.78,11.86-19.45a.84.84,0,0,0,.2-.24c-1.24-2.77-2.66-5.39-3.62-8.16a27.42,27.42,0,0,1,2.51-23.81c6.64-11.17,21.18-11.39,28.6-.72,3.71,5.35,4.2,11.09,2.94,17.16-.72,3.47-2.88,6.15-5.55,8.43a35.84,35.84,0,0,1-9.63,5.55c-2.32,1-4.58,2.07-6.85,3.15a16.84,16.84,0,0,0-1.75,1.1c8.8,9.81,13.84,20.86,13.44,34.18-.39,13-3.7,24.71-13,34.47,2.84.29,5.32.48,7.78.82a36.26,36.26,0,0,1,3.79,1c1.55.4,2.54,1.19,2.23,3a3.79,3.79,0,0,0,.07.83c2-.1,2.55,1.08,2.69,2.82.51,6.26,1.1,12.52,1.66,18.78.28,3.1.53,6.21.83,9.31.08.84.19,1.56-.84,2-.3.13-.49.9-.48,1.37.05,1.19-.3,1.74-1.61,1.74q-20.48-.06-40.94,0c-1.17,0-1.55-.57-1.83-1.55-.16-.54-.57-1.29-1-1.41-1.13-.3-1.23-.94-1.13-1.9q1.53-14,3-28.07a2.6,2.6,0,0,1,1.91-2.59c.87-.23,1.28-.64,1.18-1.57-.17-1.64.78-2.41,2.22-2.93,3.42-1.24,7-1.4,10.56-1.51Zm.05-6.7.36-.32a8.17,8.17,0,0,0-1-1.05,10.37,10.37,0,0,1-4-6.85,35.26,35.26,0,0,1-.49-10.8c.59-5.09.94-10.22,1.39-15.33-.34,4.23-.4,8.45-.32,12.67.08,4.47.1,9,.49,13.41a7.72,7.72,0,0,0,5.88,7.07,8.12,8.12,0,0,0,8.44-4,19.27,19.27,0,0,0,2-4.54c2.11-7.26,2-14.71,1.7-22.17a54,54,0,0,0-3.17-15.91,43.2,43.2,0,0,0-6.55-11.7c1.49-2.68,4.39-3.72,6.88-5.29a16.66,16.66,0,0,0-8.69,5.79A45.56,45.56,0,0,0,540,157.93c-.78,5.43-1.39,10.89-1.74,16.36-.3,4.76-.2,9.58,1.6,14.14A12.48,12.48,0,0,0,546,195.13Zm1.09-77.58c.09,4,.87,7.25,2.82,10.14a1.46,1.46,0,0,0,2,.63c2.51-.86,5.14-1.44,7.58-2.47a48.52,48.52,0,0,0,8.44-4.21c6.86-4.63,7.21-15.37.2-21-4.41-3.52-8.93-3.53-13.3,0C549.31,105.24,547.81,111.52,547.05,117.55Zm-6.22,23.82a6.18,6.18,0,0,0-1.09,1.27,29.24,29.24,0,0,0-2.82,9.79c-.51,5.54-1,11.1-1.73,16.62a29.94,29.94,0,0,0,.92,12.21c.23.82.53,1.62.78,2.37A116.51,116.51,0,0,1,540.83,141.37Zm25.06-48c5.29,2.86,8,7.69,9.62,13.13a15.72,15.72,0,0,1-3.36,15.65c4.56-3.67,6.37-11.58,4.33-18.24C574.83,98.5,570.88,95.43,565.89,93.4ZM561.94,185c4.73-3.28,4.93-28.72.36-35.36.09.48.11.71.18.93a43.09,43.09,0,0,1,1.84,12.73c-.11,4.09.73,8.18-.38,12.26-.51,1.89-.57,3.9-.94,5.83C562.78,182.54,562.34,183.66,561.94,185Zm-8.35,20.08a15.52,15.52,0,0,1,.15,1.89c-.06.79.25,1.1,1,1.07,2.6-.12,5.21-.22,7.81-.3.85,0,1.3-.32,1.29-1.24s-.29-1.41-1.17-1.41C559.71,205.06,556.71,205.08,553.59,205.08Zm-8.1-86.4-.24,0c.33-3.42.66-6.83,1-10.06-3.69,3.34-2.41,15.63,2.63,19.73-3-5.89-3-11.71-2-17.62l-.39,0Zm8.78,77.75c-.06.54,0,1.29-.18,1.35-1.36.45-1.19,1.9-1.87,2.79-.2.25.09,1,.36,1.41.09.14.95.05,1.15-.2q1.88-2.33,3.59-4.79c.24-.34.39-1.12.2-1.31a2,2,0,0,0-1.54-.63,16,16,0,0,0-2.89,1.19c-.1,0-.14.22-.3.47Zm21.31-86.92c-.83,3.07-1.86,6.83-2.81,10.33C575.06,118.18,576.22,113.76,575.58,109.51ZM564.8,95.66c-2.08-1.17-6.07-1.13-7.49.45Zm-10.27,108-.06.43,2.95.5.09-.65Zm-11.32-87.49.22,0c.11-2,.23-4,.34-5.93l-.28,0C543.4,112.18,543.3,114.15,543.21,116.12Z"/><rect class="cls-12" x="468.15" y="243.46" width="342.28" height="442.11" rx="47.08"/><path class="cls-5" d="M117.54,693.29h-10.2A27.21,27.21,0,0,1,86.1,682.7c-5.94-7.73-6.47-17.58-6.17-27,.07-2.31.19-4.61.25-6.92.27-9.79-.08-19.69-.08-29.51h64.67c-.46,0,0,34.71,0,37.87,0,6,.26,12.38-1.83,18.15A27.48,27.48,0,0,1,117.54,693.29Z"/><path class="cls-20" d="M144.31,619.49c0,2.53-11.86,3.1-14.11,3.29a222,222,0,0,1-32.21.27,96.39,96.39,0,0,1-13-1.45c-1.31-.27-4.87-.85-4.87-2.11,0-1.69,5.94-2.32,7.59-2.56a175.54,175.54,0,0,1,33.48-1.29c5.07.23,10.36.57,15.43,1.27C138.58,617.19,144.31,617.62,144.31,619.49Z"/><path class="cls-6" d="M110.82,622.34l-1.77-.05a1,1,0,0,1-.64-.22c-2.41-1.91-4.67-4.43-7.15-5.6-5.81-2.74-13-3.24-19.21-4.24-10-1.6-21-4.72-25.77-13.19-1.63-2.91-2-7.16.92-8.94,1.76-1.06,4-.8,6.09-.43q4.47.81,8.84,2a1,1,0,0,0,1-1.81,87.44,87.44,0,0,1-16.74-18.61c-1.57-2.34-3.05-4.88-3.19-7.65s1.44-5.81,4.26-6.55,5.9,1.08,8.21,3c.42.34.83.69,1.24,1a1.05,1.05,0,0,0,1.62-1.29,117.57,117.57,0,0,1-12.83-35.94c-1.73-9.68-2.16-19.93,1.69-29,.17-.42.63-.49,1-.64,7.08-2.45,8.47,7.07,9.81,12.47l7.74,31.19a1.06,1.06,0,0,0,2.06-.06q2.07-10.94,4.4-21.81c.5-2.38,1.23-5,3.47-6.22,2.91-1.53,6.74.59,8,3.49s.79,6.22.26,9.33q-1.71,10.08-3.44,20.17a1.05,1.05,0,0,0,1.82.88l0,0c3-3.18,9.35-3.75,11.57,0,1.13,1.91.85,4.26.55,6.44q-.66,4.54-1.31,9.11a1.07,1.07,0,0,1-1.26.9,8.33,8.33,0,0,0-6.35.92c-4.21,2.71-4,8.6-2.92,13.31,2.19,9.18,7.55,16.89,12,25.07,3.87,7.15,4.78,14.49,7,21.66A1.05,1.05,0,0,1,110.82,622.34Z"/><path class="cls-21" d="M112.53,570c.32.64.63,1.28.93,1.91a15,15,0,0,0,.87-1.22,4.66,4.66,0,0,0-1.8-.69Z"/><path d="M117.55,581.21l-3.39,41.25H114l-1.63-.05c-2.59-7.61-3.36-15.45-7.48-23.08-4.42-8.18-9.78-15.89-12-25.07-1.12-4.71-1.29-10.6,2.92-13.31a8.74,8.74,0,0,1,7.44-.63q-1.58,11-3.14,21.89c5.21-3,5.65-12.39,11.73-12.23a4,4,0,0,1,.71.07c.32.64.63,1.28.93,1.91a15,15,0,0,0,.87-1.22C117.16,572.58,117.85,577.47,117.55,581.21Z"/><path class="cls-6" d="M192.72,542.19c-5.19,4-11.93,5.48-18.18,7.7-5.9,2.1-11.95,5.41-14.46,10.8a1.06,1.06,0,0,0,.61,1.43c6,2.25,13.93-2.71,19.5.72,5.34,3.28,3.38,11.72-1.72,15.34s-11.82,4.17-17.94,5.82c-19.61,5.29-32.91,21.76-44.36,38a1,1,0,0,1-.83.44h0a1,1,0,0,1-1.07-1.13l3.3-40.11c.28-3.43-.28-7.82-2.56-10a1.07,1.07,0,0,1-.16-1.32c8.53-14.21-1.22-36,11.27-47.74a5.93,5.93,0,0,1,3.51-1.85c2.8-.19,4.61,2.67,5.74,5.1l7.55,16.28a1,1,0,0,0,2-.19c3.7-14.85,7.87-29.89,17.07-42.34,2.46-3.34,5.45-6.57,9.47-8s9.26-.43,11.34,3.13.4,7.92-1.3,11.63q-3.9,8.6-7.81,17.19a1,1,0,0,0,1.37,1.39c7.65-3.24,17.19-5.2,21.9.93C200.84,530.58,197.9,538.2,192.72,542.19Z"/></svg>