<svg id="Layer_1" data-name="Layer 1" xmlns="http://www.w3.org/2000/svg" xmlns:xlink="http://www.w3.org/1999/xlink" viewBox="0 0 500 558"><defs><style>.cls-1,.cls-10,.cls-14,.cls-15,.cls-16,.cls-17,.cls-18,.cls-8,.cls-9{fill:none;}.cls-1,.cls-14,.cls-15,.cls-16,.cls-17,.cls-18,.cls-6,.cls-8{stroke:#000;}.cls-1,.cls-8{stroke-miterlimit:10;}.cls-1,.cls-10,.cls-16,.cls-9{stroke-width:1px;}.cls-2{fill:#2d2d2d;}.cls-3,.cls-6{fill:#fff;}.cls-4{fill:#4d4d4d;}.cls-5{fill:#dfdfdf;}.cls-10,.cls-14,.cls-15,.cls-16,.cls-17,.cls-18,.cls-6,.cls-9{stroke-linecap:round;stroke-linejoin:round;}.cls-6,.cls-8{stroke-width:0.5px;}.cls-7{fill:gray;}.cls-9{stroke:#fff;}.cls-10{stroke:#1a1a1a;}.cls-11{clip-path:url(#clip-path);}.cls-12{fill:#cfcfcf;}.cls-13{fill:#afafaf;}.cls-14{stroke-width:2.5px;}.cls-15{stroke-width:2px;}.cls-17{stroke-width:0.37px;}.cls-18{stroke-width:0.12px;}.cls-19{fill:#bfbfbf;}.cls-20{fill:#101010;}.cls-21{fill:#303030;}</style><clipPath id="clip-path"><path d="M208.9,537.07c.71-5.16,2.6-9.75,5.1-16.17,3.22-8.24,1.76-24.1,1-29a10.64,10.64,0,0,1,.67-5.75,11.86,11.86,0,0,0,3.12,2.27c6.35,3.11,12.33-.43,18.41-2.27,2.78-.83,6-.93,8.27,1l-.44-.22c3.15,2.39,3.2,5.92,2.76,9.72,0,0-1.39,12.29-.8,15.46s4.32,16.57,5.93,18.95a10.8,10.8,0,0,1,1.28,4.32,34.18,34.18,0,0,1,0,7.89c-.44,3.33-8.2,8.88-22.11,9.2s-23.57-3.49-23.57-10.78A34,34,0,0,1,208.9,537.07Z"/></clipPath></defs><path class="cls-1" d="M321.39,282s55.2,17.62,52,77.93-118.9,100.37-93.6,151.82c16.81,34.16,55,27.31,63.86,12.7,8.09-13.36-24.55-18.63-42-20-21.36-1.72-54.53-26.29-57.58,5.93-4.34,45.76,65.78,35.47,52.65,22.84s-29.45,14.68-6.38,17.52,57.47-29.37,96.5-17.52,64.21,1.56,69.89-8.38"/><path class="cls-2" d="M268.75,138.75c-.42-.61-1.51.16-1.9-.57-.23-.41.47-1.29.33-1.76s-.44-.86-.32-1.3-.06-1.58.5-1.8,1.11.05,1.31-.32.77-.83.9-1.29.21-.54.79-.77c.35-.13.65-1,1.33-1,.44,0,.87-.08,1.32-.08s.88.9,1.32.9.92-.66,1.34-.63.87.47,1.27.55.55.71.89.91,2-.49,2.15-.06a5.93,5.93,0,0,1-.22,1.71c-.06.46.29.9.26,1.31s-1.48.81-1.5,1.22.78,1,.74,1.37-1.17.55-1.35.87.2,1.24-.29,1.35c-.31.07-.81.06-1.39.16-.41.06-.91-.18-1.4-.11s-.79,1.17-1.26,1.21-1.05-1.65-1.51-1.63-.89.59-1.32.58-1.1.81-1.5.73C268.66,140.22,268.92,139.06,268.75,138.75Z"/><path d="M131.2,124.5c.1,1.54,1.68,6.21,5.46,8a3.53,3.53,0,0,1,2,3.65c-.73,5.6-2.11,15.9-2.87,21.58a3.56,3.56,0,0,0,3.53,4h3.75a3.56,3.56,0,0,0,3.54-3.22c.33-3.42,1.54-8.32,5.69-8.08s5,4.67,5.19,7.9a3.59,3.59,0,0,0,.9,2.17,3.56,3.56,0,0,0,2.63,1.19l4,0a3.56,3.56,0,0,0,3.53-4.16L166,142.7c0-.1,0-.2,0-.29a3.6,3.6,0,0,1,1.47-3.2,13.4,13.4,0,0,0,4.63-6c2.2-5.5-2.81-8.31-2.81-8.31a20.55,20.55,0,0,0-5.18-2.61,3.56,3.56,0,0,1-2.3-2c-1.14-2.67-3.6-7-8-7.84-5.62-1.1-6.72.37-11-4s-4.89-6-5.14-9.29.74-7.7,5.75-11.48c2.81-2,6.35-2.45,6.84-2.82s1-2.56-.37-2.81-12.34,2.57-16.25,7.82-8.8,15.77.73,27c2,2.32,5.38,6,5.5,8.07s.12,3.3-.49,3.42a6.42,6.42,0,0,1-5.25-3.55c-1.71-3-.61-4.4-1.35-4.64S131.08,122.67,131.2,124.5Z"/><path d="M158.37,160.54a3.56,3.56,0,0,0,2.63,1.19l4,0a3.56,3.56,0,0,0,3.53-4.16L166,142.7c0-.1,0-.2,0-.29a5.09,5.09,0,0,0-.3,1.72C165.61,148.74,165.4,159.82,158.37,160.54Z"/><path class="cls-3" d="M193,443.92c-4.12,0-4.16-1.95-4.3-9.25-.08-3.83-.19-9.09-1-16.16,1-2.37,56.91-18.87,69.51-20.49l.25,0,0-.25c-1.43-12.69-2.27-26.55-2.48-41.2l0-2.26c-.08-8.59.05-17.49.38-26.5,0-.79,0-1.53.09-2.26.55-13.73,1.58-27.92,3.06-42.16.34-3.27.74-6.86,1.22-10.95.37-3.13.79-6.44,1.25-9.84.24-1.91.51-3.82.78-5.72a1.37,1.37,0,0,1,0-.23c.41-2.94.86-6,1.38-9.34l44,6,.27,10.37c0,.27,0,.53,0,.81.13,5.38-1.2,11.42-2.73,18.42-2.05,9.3-4.36,19.85-4.1,32.42.14,6.54-.6,15.3-1.31,23.77-.68,8.05-1.31,15.65-1.23,21.24.48,31.89-3.39,67.11-10.48,68.42-4.33.79-71.27,12.56-91.79,15A24.38,24.38,0,0,1,193,443.92Z"/><path d="M263.36,247.56l13.05,1.78,30.53,4.15c0,1.19.13,4.8.27,10.15,0,.27,0,.54,0,.81.13,5.36-1.2,11.39-2.73,18.37-2,9.31-4.36,19.87-4.1,32.48.14,6.52-.6,15.27-1.31,23.74-.68,8-1.31,15.66-1.23,21.27.48,31.91-3.54,66.92-10.27,68.16-4.33.8-71.3,12.57-91.78,15a23.93,23.93,0,0,1-2.81.2c-3.76,0-3.9-1.42-4.06-9-.07-3.82-.18-9-.95-16.05,2.73-2.8,57.06-18.78,69.29-20.35l.48-.07-.05-.49c-1.43-12.67-2.27-26.53-2.48-41.17v-.11l0-2.18c-.08-8.56,0-17.46.37-26.46v-.08c0-.72,0-1.45.09-2.18.55-13.73,1.58-27.91,3.06-42.14.34-3.28.74-6.86,1.22-10.95.37-3.13.79-6.44,1.25-9.84.22-1.74.48-3.61.78-5.73,0-.06,0-.13,0-.23.39-2.83.83-5.8,1.34-9.08m-.42-.56c-.49,3.19-1,6.37-1.42,9.57a1.9,1.9,0,0,0,0,.25c-.28,1.9-.54,3.81-.79,5.71-.44,3.28-.86,6.57-1.25,9.85q-.65,5.49-1.22,11c-1.47,14.21-2.51,28.35-3.06,42.17,0,.75-.07,1.51-.09,2.26q-.5,13.49-.38,26.48l0,2.3c.21,14.44,1,28.3,2.48,41.22h0c-12.56,1.62-70,18.56-69.73,20.77,2.27,20.43-1.15,25.63,5.52,25.63a25.51,25.51,0,0,0,2.87-.2c20.46-2.43,87.08-14.14,91.81-15,7.8-1.43,11.11-40,10.68-68.66-.17-11.59,2.81-32.38,2.54-45-.46-22.07,7.14-38.29,6.83-50.84,0-.27,0-.54,0-.8-.18-6.62-.28-10.59-.28-10.59l-30.95-4.21L262.94,247Z"/><path class="cls-3" d="M218.15,493.77C217,489.6,207.5,427,207.82,421.09c.52-9.79.14-20.67-.23-31.18-.48-13.82-1-28.12.48-40.77,1-8.91,1.3-18.08,1.56-26.95.37-12.7.75-25.83,3.38-38.44,7.75-37.09,9.45-46.58,9.7-48l38.65.87c-.53,8-12.49,189-13.6,203-.65,8.14-1.08,16.49-1.46,23.86-.6,11.5-1.07,20.62-2.05,23.51Z"/><path d="M222.92,236l38.17.87c-.73,11-12.48,188.86-13.58,202.77-.65,8.15-1.08,16.5-1.46,23.87-.57,10.87-1.06,20.31-2,23.31l-25.72,6.68c-1.39-5.83-10.58-66.57-10.27-72.35.52-9.81.14-20.69-.23-31.21-.48-13.81-1-28.1.48-40.73,1-8.92,1.3-18.09,1.56-27,.37-12.69.75-25.81,3.37-38.39,7.45-35.62,9.31-45.8,9.67-47.85m-.42-.5s-1.12,7-9.73,48.24c-4.48,21.44-2.44,43.78-5,65.41-2.59,22.4,1,49.44-.25,72-.36,6.72,9.77,71.93,10.43,73l26.44-6.87c1.67-4.55,1.9-26.64,3.57-47.56,1.15-14.45,13.62-203.3,13.62-203.3l-39.13-.88Z"/><path class="cls-4" d="M255.76,293.3l.44-.82c-.1-.06-10.07-5.24-21.61-2.93l.18.92A34.94,34.94,0,0,1,255.76,293.3Z"/><path class="cls-3" d="M252.87,384.13h.93c0-.12.21-12.6,1-31.82s1-26.72,1-26.79l-.93,0c0,.08-.2,7.57-1,26.79S252.87,384,252.87,384.13Z"/><path d="M199.16,304.1a1.1,1.1,0,0,0,1.91,1c3-3.55,9.05-9.54,14.14-7,10.73,5.37,25.25,27.1,39.55,29.63l.32.06.61.1.57.1c2.59.42,5,.72,7.24.87,6.32.41,14.93-.85,23.43-2.66,8.16-1.75,16.23-4,22.09-5.75,5.4-1.61,8.91-2.81,8.92-2.81,1.49-.51-.14-34.62-.56-43.36-.92-19.57-2.18-39.12-3.48-58.67-1-15.34-7.62-39.39-14.7-44.36a4.62,4.62,0,0,0-2.34-.93c-2.12-.14-10.62-.63-20.47-1.18l-1.57-.1-4.69-.27-5.45-.31-3.46-.2-2.68-.16c-9.24-.53-17-1-19-1.11a6.93,6.93,0,0,0-2,.14c-6.4,1.37-9.54,9.87-11.64,15.17-4,10.1-5.69,20.55-7.77,31.2,0,7.62-3.21,16.45-4.68,23.94l-4.82,24.67C205.85,276.21,202.69,290.14,199.16,304.1Z"/><path d="M283.43,183.4c1.46-6,8.37-17.29,22.71-12.35s57.23,21.81,64.85,30.11c11,12,8.95,31.78-16.94,33.25-16.68,1-50.89-16.63-61.13-26.66S281.57,191.15,283.43,183.4Z"/><path class="cls-4" d="M341.11,211.13c-8.56,9.44-9.65,22.39-2.45,28.91s20,4.16,28.53-5.28,9.65-22.39,2.45-28.91S349.66,201.69,341.11,211.13Z"/><path class="cls-5" d="M282.53,242.34,294,253.1a11.88,11.88,0,0,1,1.28-.46c.39-.12.81-.23,1.25-.33l.78-.16a53.73,53.73,0,0,1,6-.76c3.53-.29,7.65-.43,12.06-.59,3.57-.13,7.32-.27,11.13-.5,3-.19,6.11-.43,9.14-.77h.12c3-.35,5.9-.79,8.71-1.36,7.4-1.52,14-4,18.49-8.11a19.77,19.77,0,0,0,2.24-2.46h0c9.86-9.23,9.58-20.26,5.4-26.69a2,2,0,0,0-.17-.23c-.08-.13-.17-.27-.26-.39-.27-.37-.55-.72-.84-1.06a12.89,12.89,0,0,0-2-1.8c-.23-.19-.48-.36-.73-.53l-.77-.48c-.21-.12-.43-.25-.65-.36l-.42-.21c-6.93-3.39-17.2-2.52-24.81,3.19-1.52.72-3.8,1.93-6.58,3.46-4.72,2.61-10.91,6.16-17.32,9.9-7,4.1-14.31,8.42-20.3,12l-.55.33-4,2.36-8.31,5-.47.27Z"/><path d="M253.19,176.52c-3.05-5.41-12.76-14.36-25.21-5.7s-49.14,36.57-54.2,46.63c-7.32,14.53,8.55,43.45,33.86,37.82,16.31-3.63,35.93-40.3,43.05-52.74S257.09,183.47,253.19,176.52Z"/><path class="cls-4" d="M209,219.58c8.82,9.2,10.28,22.11,3.27,28.83s-19.85,4.73-28.67-4.46-10.29-22.11-3.27-28.84S200.18,210.39,209,219.58Z"/><path class="cls-5" d="M179.75,241.77c-5.15-8.42-5.22-21.1.58-26.66,7-6.72,19.85-4.72,28.67,4.47a27.12,27.12,0,0,1,7.5,14.83C203.61,245.54,190.86,251.13,179.75,241.77Z"/><path class="cls-3" d="M238.41,224,224,226.68l-.09,0,8.59,4.83a2.27,2.27,0,1,1-.61,1.16l-8.46-4.76,5.07,13.59s7.56-3.21,12.83-.24l3.52-6.24C239.57,232.07,238.41,224,238.41,224Z"/><path class="cls-5" d="M325,284a6.75,6.75,0,0,1-9.23,2.44L311.46,284,318,272.35l4.35,2.45A6.75,6.75,0,0,1,325,284Z"/><path class="cls-6" d="M311.46,284l-53.11-29.8a2.17,2.17,0,0,1-.87-2.94l-16-9a1,1,0,0,1-.4-1.33l3.48-6.19a1,1,0,0,1,1.35-.35l16,9a2.17,2.17,0,0,1,3-.79L318,272.35Z"/><path class="cls-5" d="M265.28,253.72s1-2.82,1.75-4.64,1.75-2.77,5-3.54,8.72-4.61,11.75-3.38,13,5.48,10.64,14.21-14.69,16.83-14.89,11c0,0-4.51,3.58-5.93-1.88,0,0-6.21,1.52-5.36-3.88C268.22,261.63,259.77,262.85,265.28,253.72Z"/><path class="cls-7" d="M268.22,261.63a16.87,16.87,0,0,1,3.82-6.22,14.84,14.84,0,0,1-1.56,3.32A15.39,15.39,0,0,1,268.22,261.63Z"/><path class="cls-7" d="M273.59,265.52a36.57,36.57,0,0,1,2.38-4.3c.87-1.37,1.77-2.71,2.78-4a12.43,12.43,0,0,1-.9,2.31,20.41,20.41,0,0,1-1.2,2.15A21.44,21.44,0,0,1,273.59,265.52Z"/><path class="cls-7" d="M279.52,267.45c.72-.92,1.46-1.72,2.16-2.57.36-.42.71-.84,1.06-1.27s.7-.86,1.11-1.29a6.79,6.79,0,0,1-1.56,3.08,8.34,8.34,0,0,1-1.25,1.2A5.4,5.4,0,0,1,279.52,267.45Z"/><path d="M296.41,246.94c.2.84.47,1.95.68,3a12.17,12.17,0,0,1,.2,2.22,53.73,53.73,0,0,1,6-.76c-.25-1.73-.93-5.66-2.24-7.17a.81.81,0,0,0-.92-.21l-2.81,1.09A1.56,1.56,0,0,0,296.41,246.94Z"/><rect class="cls-3" x="293.46" y="237.43" width="7.25" height="7.46" rx="3.46" transform="translate(664.49 348.07) rotate(157.16)"/><rect x="293.24" y="237.66" width="7.12" height="7.25" rx="3.46" transform="translate(663.98 348.42) rotate(157.16)"/><path d="M291.43,237c.43.67.67,1.58.83,1.74a5.37,5.37,0,0,0,2.07-.5,17.86,17.86,0,0,0,2-.85,2.93,2.93,0,0,0,1-.69c.4-.6-.81-1.9-1.4-2.4Z"/><path class="cls-5" d="M140,169.07s4.34,7.82,11.71,6.83a9.56,9.56,0,0,1,2.13-.05,12.49,12.49,0,0,1,6.48,2.73,18.41,18.41,0,0,1,3.52,3.59h0c5.41,11.61,12.32,51.36,13.29,54.65,5.68,19.17,31.1,8.1,26.78-7.28-1.44-5.15-25.25-47.29-26.8-50a52.88,52.88,0,0,0-1.89-5.85,35.43,35.43,0,0,0-3.44-6.85c-2-3-4.57-5.1-7.61-4.45-.43,0-3.5.28-5.44-1.43-.65-.57-1.65-2.85-2.57-6.07-.76-2.65-2.21-5-5-4.86-3.85.19-8.54.5-9.44.91-1.54.72,1.06,13.73,1.14,14.18-.16-.46-4.77-14-8.41-18-.95-1.05-2,.24-2.27,1.64C131.12,155.09,140,169.07,140,169.07Z"/><path class="cls-7" d="M153.87,163.32l-3.33-13.09C150.53,155.15,153.87,163.32,153.87,163.32Z"/><path class="cls-7" d="M148.4,165.85,146,150.29C145.52,155.19,148.4,165.85,148.4,165.85Z"/><path class="cls-7" d="M199.83,221.67l1-.5c-2.2-4.38-5.13-9.78-5.16-9.84l-1,.54S197.64,217.31,199.83,221.67Z"/><path class="cls-8" d="M240,364.75s-10.17-7.63-28.73-8.65"/><path class="cls-8" d="M238.85,368.94s-9.16-4.83-27.72-4.06"/><path class="cls-8" d="M237.58,373.52s-10.17-1-16,1"/><path class="cls-8" d="M269.37,364.24s10.17-7.63,28.73-8.65"/><path class="cls-8" d="M270.51,368.44s9.16-4.84,27.72-4.07"/><path class="cls-8" d="M271.78,373s10.18-1,16,1"/><path class="cls-9" d="M238.34,195c-.76.26-14.24,26.71-14.24,26.71"/><line class="cls-9" x1="311.9" y1="220.59" x2="292.04" y2="206.87"/><path class="cls-10" d="M279.79,409.38s-16.53-1-22.63-15.77"/><path d="M208.9,537.07c.71-5.16,2.6-9.75,5.1-16.17,3.22-8.24,1.76-24.1,1-29a10.64,10.64,0,0,1,.67-5.75,11.86,11.86,0,0,0,3.12,2.27c6.35,3.11,12.33-.43,18.41-2.27,2.78-.83,6-.93,8.27,1l-.44-.22c3.15,2.39,3.2,5.92,2.76,9.72,0,0-1.39,12.29-.8,15.46s4.32,16.57,5.93,18.95a10.8,10.8,0,0,1,1.28,4.32,34.18,34.18,0,0,1,0,7.89c-.44,3.33-8.2,8.88-22.11,9.2s-23.57-3.49-23.57-10.78A34,34,0,0,1,208.9,537.07Z"/><g class="cls-11"><path class="cls-4" d="M202,526.46c5.11-3.45,10.43,5.25,12.16,9,2.47,5.31,2.8,11.71-.07,16.92-.46.85.83,1.61,1.3.76,3.28-6,2.72-13.23-.3-19.19-2.21-4.36-8.06-12.66-13.85-8.75-.79.53,0,1.83.76,1.29Z"/><path class="cls-4" d="M255.63,526.25c-6.26,2-11,7.17-13.21,13.26a27,27,0,0,0,2.09,21.79c.46.84,1.75.09,1.29-.76a25.59,25.59,0,0,1-2.05-20.28c1.95-5.73,6.42-10.74,12.28-12.56.92-.29.53-1.74-.4-1.45Z"/></g><path class="cls-3" d="M230.57,552.23c-13.41,0-21.73-4-21.73-10.55a32.69,32.69,0,0,1,.26-4.23c8.32,4.16,16.3,6.26,23.72,6.26,10.31,0,17.07-4.16,19.43-6.62a6.42,6.42,0,0,1,1.77-1.37,34,34,0,0,1,0,7.51c-.38,2.87-7.39,8.65-21.87,9l-1.58,0Z"/><path d="M253.81,536.11a33.63,33.63,0,0,1,0,7.09c-.39,3-8,8.45-21.62,8.76l-1.58,0c-13.25,0-21.48-4-21.48-10.3a32.39,32.39,0,0,1,.22-3.85c8.24,4.07,16.14,6.13,23.51,6.13,10.4,0,17.22-4.21,19.61-6.69a7.07,7.07,0,0,1,1.38-1.16m.42-.74a5.79,5.79,0,0,0-2.16,1.55c-2.16,2.25-8.72,6.54-19.25,6.54-6.49,0-14.5-1.63-23.92-6.39a34,34,0,0,0-.31,4.61c0,7,8.93,10.8,22,10.8l1.59,0c13.91-.32,21.67-5.87,22.11-9.2a34.18,34.18,0,0,0,0-7.89Z"/><path d="M196.22,446.69a13.75,13.75,0,0,0-3.69-12.15c-5.31-5.31-1.31-9.17-.69-11.17a11.58,11.58,0,0,0,0-7.43s-25.88.41-34.66,2.11l0,78s6,1.59,8.78-5.52,9.34-37.54,15.2-42.25S196.22,446.69,196.22,446.69Z"/><path class="cls-4" d="M161.35,431.42l.12.85c11.63-1.59,15.42-15.7,15.46-15.84l-.83-.22C176.06,416.35,172.41,429.91,161.35,431.42Z"/><path class="cls-3" d="M158.6,495.92a7,7,0,0,1-1.2-.1l0-77.56c1.25-.24,2.89-.45,5-.66l0,77.23a6.94,6.94,0,0,1-3.77,1.09Z"/><path d="M162.15,417.87l0,76.82a6.66,6.66,0,0,1-3.52,1,5.78,5.78,0,0,1-.95-.07l0-77.13c1.17-.21,2.64-.41,4.48-.6m.5-.55c-2.16.21-4,.45-5.47.73l0,78a6.26,6.26,0,0,0,1.45.15,7.12,7.12,0,0,0,4-1.21l0-77.64Z"/><path class="cls-5" d="M279.54,165a19.64,19.64,0,0,1-.13,8.52c-1,3.81-2.79,32-8.9,37.13s-11.21-33.19-10.17-37.13C264.28,158.63,278.23,162.76,279.54,165Z"/><path d="M279.54,164.48c.4.4,5.59,4.32,6.1,5.34,0,0-3.05,1.27-4.83,5.85s-3.56-.77-3.56-.77,2-8.11,1.89-8.88S279,164,279.54,164.48Z"/><path d="M266.32,164.22c-.41.41-5.6,3.82-6.11,4.83,0,0,3.05,1.28,4.83,5.85s2.8,0,2.8,0-1.24-8.87-1.13-9.65S266.82,163.71,266.32,164.22Z"/><path d="M257.16,169.82c.25,0,6.1-.77,7.38,2s4.07,2,2.54,4.8-5.85,7.92-5.34,16.82-13-5.34-13-10.94,3.3-10.68,3.3-10.68l1.53-2h3.56Z"/><ellipse class="cls-12" cx="282.56" cy="155.58" rx="2.1" ry="1.46" transform="translate(80.7 407.17) rotate(-80.1)"/><ellipse class="cls-12" cx="263.97" cy="154.67" rx="1.46" ry="2.1" transform="translate(-27.53 61.77) rotate(-12.69)"/><path class="cls-4" d="M268.84,166.53c-.74-.83-1.35-3.95-2.21-4.29l.17-2.61a116.76,116.76,0,0,0,13.11-4l-.59,8.88c-.63.44-1.82,3-3.13,3.86C274,169.82,271.24,169.19,268.84,166.53Z"/><path class="cls-3" d="M264.49,159.22a4.22,4.22,0,0,0,1.52,2.66l3.71,3.33a3.48,3.48,0,0,0,2.1.88l1.44.1a3.43,3.43,0,0,0,2.15-.58l4.26-2.83a4.34,4.34,0,0,0,1.92-2.48c.24-1,.56-3.22.76-4.71.11-.84.19-1.43.19-1.43h0c.48-1.8.15-4.24.15-6.25,0-5.55-6.19-8.31-11.8-6.81-5.25,1.4-6.76,4-6.35,9.28.05.75,0,2.33,0,4S264.39,158.08,264.49,159.22Z"/><path d="M279.81,144.18a20.53,20.53,0,0,1-3.25.49,21.29,21.29,0,0,1-3.29.5,15,15,0,0,1-3.27-.62c-1.79-.5-2.83-1.2-3.09-1.2-.56,0-1.23,3.41-1.45,4.94s-.81,1.19-1,2.59c-.23,1.56.13,3.56-.53,3.19s-1.09-1.71-1.38-3.14a10.53,10.53,0,0,1-.63-3.22c.05-1,.9-2.12,1.05-3.17.18-1.3,0-2.57.36-3.22s1.4-1.2,2.4-1.92c.81-.58,1.47-1.52,2.29-2.08,1.06-.71,2.36-1,2.73-1.57a3.19,3.19,0,0,1,2.5-1.55,6.06,6.06,0,0,1,3,.93c.54.29,1.34,1.16,2.44,1.84.83.51,1.85.87,2.65,1.46a8.17,8.17,0,0,1,2,2.12,8.73,8.73,0,0,1,.85,3.72c.15,1.61.92,3.22.85,4-.14,1.51-1.06,2.9-1.51,5.12s-1.11.93-1.28.12a17.71,17.71,0,0,0,0-2.46c-.36-2.65-1.11-4.38-1.2-5.18C280.83,144.57,281.63,143.23,279.81,144.18Z"/><path class="cls-12" d="M264.43,160.32a4.46,4.46,0,0,0,1.47,2.77c1.94,1.57,2,1.56,3.9,3.12a3.41,3.41,0,0,0,2,.95c.72,0,.7.24,1.42.28a3.68,3.68,0,0,0,2.19-.69c2.14-1.42,2.05-1.55,4.18-3a4.18,4.18,0,0,0,1.9-2.4c.23-1,.49-3.19.69-4.68-.38-.12-.67,0-.88,1a10.57,10.57,0,0,1-1,2.3,4.83,4.83,0,0,1-.84,1.53,9.7,9.7,0,0,1-3.23,2.77,6.93,6.93,0,0,1-3.89.78,8.18,8.18,0,0,1-3.9-1.22,10.29,10.29,0,0,1-1.65-2.2,5.83,5.83,0,0,1-1.07-2.46l0,0c0-.23.08-.49,0-.74l0,0c0-.12-.07-.24-.08-.36s-.22-.36-.27-.54a4,4,0,0,0-1-2C264.41,157.26,264.33,159.18,264.43,160.32Z"/><path class="cls-13" d="M265.34,158.57c0,.29.08.6.13.93,0-.12,0-.24,0-.37A5,5,0,0,0,265.34,158.57Z"/><path class="cls-14" d="M172.47,169.31a4.38,4.38,0,0,1,3.56,4.58s-.23,8.05-13.27,6.1a5.57,5.57,0,0,1-2.37-.89,2.75,2.75,0,0,1-1-1.78"/><path class="cls-15" d="M173,170.58a4.38,4.38,0,0,1,3.56,4.58s-.23,8.05-13.29,6.1a9.51,9.51,0,0,1-3.24-1c-1.52-1-1.55-3.26-1.78-3.3"/><path class="cls-16" d="M173.24,172.11a4.38,4.38,0,0,1,3.56,4.57s-.57,7.34-13.23,5.6c-.32-.05-3.3-.26-4.83-2-1.23-1.43-1.48-3.75-1.78-3.81"/><path class="cls-17" d="M173.49,172.87a4.38,4.38,0,0,1,3.56,4.58s-.57,7.33-13.22,5.59c-.33,0-3.31-.25-4.83-2-1.24-1.44-1.48-3.76-1.78-3.82"/><path class="cls-5" d="M167.9,173.89c1.78,2.29,6.61.76,7.29-.23a35.43,35.43,0,0,0-3.44-6.85c-1.3.1-3.92.34-4.11.72S166.12,171.6,167.9,173.89Z"/><path class="cls-5" d="M153.79,175.85a11.84,11.84,0,0,1,3.68,1.09,12.86,12.86,0,0,1,3.31,1.52c.5,0,.44,0,.76-.25,1.78-1.27-.26-5.34-.26-5.34s-4.83-1.53-5.34-1.53-1.52,1.28-1.78,2A3.59,3.59,0,0,0,153.79,175.85Z"/><path class="cls-17" d="M265,179.6a6.84,6.84,0,0,0,5.52,5.85c5.05,1,8.33-4.37,8.33-4.37"/><rect x="270.7" y="185.65" width="2.26" height="2.26" rx="0.76" transform="translate(-28.46 50.39) rotate(-10.07)"/><polygon class="cls-3" points="271.82 185.86 272.03 186.51 272.71 186.51 272.16 186.91 272.37 187.56 271.82 187.16 271.26 187.56 271.47 186.91 270.92 186.51 271.61 186.51 271.82 185.86"/><circle class="cls-18" cx="271.61" cy="185.57" r="0.36"/><path class="cls-19" d="M438.83,204.46c.09,1.35,1.41,5.42,4.59,7a3.12,3.12,0,0,1,1.65,3.2c-.61,4.88-1.76,13.88-2.4,18.84a3.07,3.07,0,0,0,3,3.52h3.14a3,3,0,0,0,3-2.81c.28-3,1.29-7.27,4.78-7.06s4.2,4.07,4.35,6.9a3.15,3.15,0,0,0,.75,1.89,2.92,2.92,0,0,0,2.21,1l3.32,0a3.07,3.07,0,0,0,3-3.63l-2.13-13,0-.25a3.15,3.15,0,0,1,1.23-2.79,11.68,11.68,0,0,0,3.89-5.27,5.87,5.87,0,0,0-2.36-7.26,17.12,17.12,0,0,0-4.35-2.27,3.08,3.08,0,0,1-1.93-1.77c-.95-2.34-3-6.09-6.74-6.85-4.71-1-5.63.32-9.22-3.52s-4.1-5.23-4.3-8.11.61-6.72,4.81-10c2.36-1.71,5.33-2.14,5.74-2.45s.82-2.25-.31-2.46-10.35,2.24-13.63,6.83-7.38,13.77.62,23.59c1.64,2,4.51,5.22,4.61,7s.1,2.88-.41,3a5.39,5.39,0,0,1-4.41-3.1c-1.43-2.67-.51-3.84-1.13-4S438.73,202.86,438.83,204.46Z"/><path d="M125.16,125.51c0-3.82,2.57-6.92,5.73-6.92-3.16,0-5.73-3.1-5.73-6.92,0,3.82-2.57,6.92-5.74,6.92C122.59,118.59,125.16,121.69,125.16,125.51Z"/><path class="cls-20" d="M128,126.76a1.16,1.16,0,0,1,1-1.25,1.16,1.16,0,0,1-1-1.25,1.16,1.16,0,0,1-1,1.25A1.16,1.16,0,0,1,128,126.76Z"/><path class="cls-19" d="M406.8,206.79c-.66-1.08-1.23-2-1.81-2.95-2.69-4.36-5.13-8.83-6.16-13.92a50.66,50.66,0,0,1-.62-13.74,46,46,0,0,1,.89-6.29c1.2-5.6,3.52-10.56,8.48-13.9a.53.53,0,0,0,.14-.17c-.89-2-1.9-3.85-2.59-5.83a19.64,19.64,0,0,1,1.79-17c4.75-8,15.14-8.14,20.44-.51,2.66,3.82,3,7.93,2.1,12.26a10.9,10.9,0,0,1-4,6,25.71,25.71,0,0,1-6.89,4c-1.65.7-3.27,1.48-4.89,2.25a13.86,13.86,0,0,0-1.25.79c6.29,7,9.89,14.91,9.61,24.43-.28,9.25-2.65,17.65-9.27,24.63,2,.21,3.8.34,5.55.59a26.37,26.37,0,0,1,2.72.68c1.1.28,1.81.85,1.59,2.13a2.65,2.65,0,0,0,.05.59c1.45-.07,1.82.78,1.92,2,.36,4.48.79,9,1.19,13.42.2,2.22.38,4.44.59,6.66.06.59.14,1.11-.6,1.41-.22.1-.35.65-.34,1,0,.85-.22,1.25-1.16,1.24q-14.62,0-29.25,0c-.84,0-1.11-.4-1.31-1.11-.11-.38-.41-.92-.72-1-.81-.21-.88-.66-.81-1.35q1.09-10,2.15-20.06a1.83,1.83,0,0,1,1.36-1.85c.62-.17.91-.46.85-1.12-.12-1.18.55-1.73,1.58-2.1a23.87,23.87,0,0,1,7.55-1.08Zm0-4.79.25-.23a6.2,6.2,0,0,0-.69-.75,7.44,7.44,0,0,1-2.86-4.9,25.55,25.55,0,0,1-.35-7.71c.43-3.64.67-7.3,1-11-.24,3-.29,6-.23,9.06.05,3.19.07,6.4.35,9.58a5.51,5.51,0,0,0,4.2,5,5.83,5.83,0,0,0,6-2.89A14.11,14.11,0,0,0,416,195c1.51-5.19,1.45-10.51,1.22-15.84a38.37,38.37,0,0,0-2.27-11.37,30.71,30.71,0,0,0-4.68-8.36c1.07-1.92,3.14-2.66,4.92-3.79a11.92,11.92,0,0,0-6.21,4.15,32.37,32.37,0,0,0-6.33,15.62c-.57,3.87-1,7.78-1.25,11.68a23.18,23.18,0,0,0,1.15,10.11A8.9,8.9,0,0,0,406.84,202Zm.78-55.44a12.86,12.86,0,0,0,2,7.25,1,1,0,0,0,1.43.45c1.79-.62,3.67-1,5.42-1.77a34.63,34.63,0,0,0,6-3c4.9-3.31,5.15-11,.14-15-3.15-2.51-6.38-2.52-9.5,0C409.23,137.76,408.16,142.25,407.62,146.56Zm-4.44,17a4.49,4.49,0,0,0-.79.91,21,21,0,0,0-2,7c-.37,4-.72,7.94-1.24,11.88a21.43,21.43,0,0,0,.66,8.73c.17.58.38,1.16.56,1.69A83,83,0,0,1,403.18,163.58Zm17.9-34.28c3.79,2,5.7,5.5,6.87,9.38a11.24,11.24,0,0,1-2.39,11.19c3.26-2.63,4.54-8.28,3.09-13C427.47,133,424.65,130.75,421.08,129.3Zm-2.82,65.46c3.38-2.35,3.52-20.52.25-25.27.07.35.09.51.13.67a30.64,30.64,0,0,1,1.32,9.1c-.08,2.91.52,5.83-.27,8.75-.37,1.35-.41,2.79-.67,4.17C418.86,193,418.55,193.8,418.26,194.76Zm-6,14.35a10.88,10.88,0,0,1,.11,1.35c0,.57.18.79.74.76,1.86-.08,3.72-.16,5.58-.21.6,0,.93-.23.92-.89s-.21-1-.84-1C416.66,209.1,414.52,209.11,412.29,209.11Zm-5.79-61.74-.17,0c.24-2.44.47-4.88.7-7.19-2.63,2.39-1.72,11.17,1.88,14.1-2.15-4.21-2.15-8.36-1.42-12.59l-.28,0Zm6.28,55.56c0,.38,0,.92-.13,1-1,.32-.85,1.36-1.34,2-.14.18.07.73.26,1,.06.1.68,0,.82-.15.9-1.11,1.75-2.25,2.57-3.42.17-.25.28-.8.14-.94a1.42,1.42,0,0,0-1.1-.45,11.87,11.87,0,0,0-2.07.85c-.07,0-.1.16-.21.34ZM428,140.81l-2,7.38C427.63,147,428.47,143.85,428,140.81Zm-7.71-9.9c-1.48-.83-4.34-.8-5.35.33ZM413,208.06l-.05.31,2.11.35.06-.46Zm-8.1-62.52.16,0,.25-4.24h-.21Z"/><rect class="cls-12" x="351.24" y="236.53" width="244.6" height="315.94" rx="47.08"/><path class="cls-5" d="M100.68,558H93.39a19.48,19.48,0,0,1-15.18-7.57c-4.24-5.53-4.63-12.56-4.41-19.26,0-1.65.13-3.3.18-4.94.19-7,0-14.08,0-21.09h46.21c-.33,0,0,24.8,0,27.06,0,4.33.19,8.84-1.31,13A19.65,19.65,0,0,1,100.68,558Z"/><path class="cls-20" d="M119.81,505.26c0,1.81-8.48,2.22-10.08,2.35a160.78,160.78,0,0,1-23,.2,70,70,0,0,1-9.31-1.05c-.93-.19-3.47-.6-3.47-1.5,0-1.21,4.24-1.66,5.42-1.83a126.39,126.39,0,0,1,23.92-.93c3.62.17,7.41.41,11,.92C115.71,503.61,119.81,503.92,119.81,505.26Z"/><path class="cls-6" d="M95.87,507.29l-1.26,0a.76.76,0,0,1-.46-.16c-1.72-1.37-3.34-3.17-5.1-4-4.16-2-9.26-2.31-13.73-3-7.14-1.14-15-3.37-18.42-9.43-1.17-2.08-1.43-5.11.66-6.38a6.28,6.28,0,0,1,4.35-.31q3.2.57,6.32,1.46a.75.75,0,0,0,.68-1.3,62.42,62.42,0,0,1-12-13.3,11.29,11.29,0,0,1-2.28-5.46,4.55,4.55,0,0,1,3.05-4.69c2.1-.56,4.21.77,5.87,2.13l.88.75a.76.76,0,0,0,1.16-.93,84,84,0,0,1-9.17-25.68c-1.24-6.91-1.54-14.24,1.21-20.74.12-.29.45-.35.75-.45,5.06-1.76,6,5.05,7,8.91q2.76,11.14,5.53,22.28a.75.75,0,0,0,1.47,0q1.48-7.8,3.14-15.58c.37-1.7.89-3.61,2.49-4.45,2.07-1.09,4.81.42,5.74,2.5s.56,4.44.18,6.66q-1.23,7.22-2.45,14.42a.75.75,0,0,0,1.3.62l0,0c2.15-2.27,6.68-2.68,8.26,0,.82,1.36.62,3,.4,4.59-.31,2.17-.63,4.34-.94,6.51a.76.76,0,0,1-.9.65,5.89,5.89,0,0,0-4.53.66c-3,1.94-2.89,6.14-2.09,9.51,1.57,6.56,5.4,12.07,8.55,17.91,2.77,5.11,3.42,10.36,5,15.49A.75.75,0,0,1,95.87,507.29Z"/><path class="cls-21" d="M97.1,469.92c.23.46.45.91.67,1.37.22-.29.42-.58.62-.87a3.31,3.31,0,0,0-1.29-.5Z"/><path d="M100.68,477.9q-1.2,14.75-2.42,29.48h-.15c-.39,0-.77,0-1.16,0-1.85-5.44-2.4-11-5.35-16.5-3.15-5.84-7-11.35-8.55-17.91-.8-3.37-.92-7.57,2.09-9.51a6.2,6.2,0,0,1,5.31-.45q-1.12,7.81-2.24,15.64c3.72-2.13,4-8.86,8.38-8.74a2.76,2.76,0,0,1,.51.05c.23.46.45.91.67,1.37.22-.29.42-.58.62-.87C100.41,471.74,100.9,475.23,100.68,477.9Z"/><path class="cls-6" d="M154.4,450c-3.7,2.84-8.52,3.91-13,5.5-4.21,1.5-8.54,3.86-10.33,7.71a.77.77,0,0,0,.44,1c4.28,1.6,9.95-1.94,13.93.51,3.81,2.35,2.42,8.38-1.23,11s-8.44,3-12.82,4.17c-14,3.78-23.52,15.55-31.7,27.16a.75.75,0,0,1-.59.32h0a.76.76,0,0,1-.76-.82q1.17-14.32,2.35-28.66c.21-2.45-.19-5.59-1.82-7.11a.76.76,0,0,1-.12-.94c6.09-10.16-.87-25.74,8.05-34.12a4.26,4.26,0,0,1,2.52-1.32c2-.14,3.29,1.91,4.1,3.65l5.39,11.63a.75.75,0,0,0,1.41-.14c2.64-10.61,5.62-21.36,12.2-30.26,1.76-2.38,3.89-4.69,6.77-5.71s6.62-.31,8.1,2.23.28,5.66-.93,8.32l-5.58,12.28a.75.75,0,0,0,1,1c5.46-2.32,12.28-3.72,15.65.66C160.21,441.72,158.1,447.17,154.4,450Z"/></svg>