<?xml version="1.0" encoding="UTF-8"?>
<svg id="Layer_1" data-name="Layer 1" xmlns="http://www.w3.org/2000/svg" viewBox="0 0 871 767">
  <defs>
    <style>
      .cls-1 {
        fill: #626262;
      }

      .cls-2, .cls-3, .cls-4, .cls-5, .cls-6, .cls-7 {
        fill: #fff;
      }

      .cls-8 {
        stroke-width: .29px;
      }

      .cls-8, .cls-4, .cls-5, .cls-6, .cls-7 {
        stroke: #000;
      }

      .cls-8, .cls-9 {
        fill: none;
        stroke-miterlimit: 10;
      }

      .cls-3, .cls-10, .cls-9 {
        fill-rule: evenodd;
      }

      .cls-11 {
        fill: #262626;
      }

      .cls-12 {
        fill: #ddd;
      }

      .cls-13 {
        fill: #dfdfdf;
      }

      .cls-4 {
        stroke-width: .42px;
      }

      .cls-4, .cls-5, .cls-6, .cls-7 {
        stroke-linecap: round;
        stroke-linejoin: round;
      }

      .cls-14 {
        fill: #ebebeb;
      }

      .cls-5 {
        stroke-width: .28px;
      }

      .cls-6 {
        stroke-width: .64px;
      }

      .cls-15 {
        fill: #b7b7b7;
      }

      .cls-9 {
        stroke: #fff;
        stroke-width: .56px;
      }

      .cls-7 {
        stroke-width: .51px;
      }

      .cls-16 {
        fill: #101010;
      }
    </style>
  </defs>
  <path class="cls-13" d="M575.31,297.5c.44-.42.94-1,1.46-1.69.01-.02.03-.04.04-.05,4.23-4.86,16.26-18.52,22.23-23.85.49-.43,1.79-.43,2.98-.33v-.06s2.9-3.83,2.9-3.83c.91-1.2,2.78-.09,2.15,1.29-1.57,3.44-3.85,8.09-7.15,14.23-8.05,14.96-12.05,18.09-13.01,18.68-.13.08-.26.13-.4.16-2.19.44-24.58,4.89-30.46,4.47-6.18-.44-12.98-3.44-17.56-3-4.24.41-43.22,6.82-49.09,7.79-.46.07-.92-.11-1.2-.47-5.7-7.28-9.99-13.44-12.06-16.5-.58-.86.06-2.01,1.1-1.97l90.64,3.46h0c1.96-1.24,4.11-2.99,6.18-5.47,5.16-6.18,8.89-10.44,10.04-11.75.24-.27.58-.43.95-.43h0c.95,0,1.56,1,1.12,1.85-1.9,3.61-6.22,11.62-9.35,15.73-.02.02-.04.05-.06.07-.88,1.02-1.41,1.63-1.45,1.68Z"/>
  <path class="cls-13" d="M475.7,205.16s20.47,79.85,23.77,84.47-1.92,12.53-9.07,11.6c-7.15-.93-32.6-23.21-32.6-23.21l-12.76-38.89,7.14-13.28,23.53-20.69Z"/>
  <path class="cls-11" d="M673.36,599.21c-.71-.18-9.88,2.65-29.3-5.47-6.38-2.66-12.44-5.36-17.71-7.78-10.79-4.95-18.25-8.73-18.25-8.73-2.37-5.72-4.09-10.08-4.65-11.91-1.68-5.52-16.65-58.99-27.74-95.18h0c-5.22-17.05-9.58-30.27-11.28-32.81-4.45-6.68-22-7.62-46.78-11.73-4.7-.78-9.65-1.67-14.83-2.74-17.77-3.67-32.68-5.74-47.23-10.43-12.05-3.89-23.84-9.58-36.8-19.49-28.6-21.86-27.32-76.32-27.32-76.32,6.69-1.23,13.94-2.86,21.09-4.63.01,0,.02,0,.03,0,.17-.04.33-.08.5-.12.06-.02.13-.03.2-.05,18.17-4.52,35.6-9.86,41.6-11.74.6.06,29.49-11,32.63-14.75,1.36,3.49,5.77,10.67,5.77,10.67,0,0,5.48,8.44,13.9,19.15,10.95,13.92,26.87,31.67,42.23,39.76,36.01,10.41,64.96,20.54,69.91,35.51,4.94,14.98,8.47,28.92,13.95,66.17,5.47,37.25,10.59,67.44,15.89,74.85,5.3,7.41,19.07,17.12,19.24,22.77.17,5.65-6,16.24-4.59,23.13,1.41,6.88,10.24,22.07,9.53,21.89Z"/>
  <path d="M643.89,683.16c-3.1,2.05-8.06,5.32-13.53,8.91-10.18,6.69-22.14,14.49-27.25,17.65-9.71,6-17.12,9.36-17.12,9.36,0,0-14.52,3.04-18.71,4.6-.55.2-.92.38-1.06.52-1.24,1.23-3.53,8.12-3.53,8.12,0,0-5.83-2.82-5.47-9.53.35-6.71-3.18-12-6.88-14.12-3.71-2.12-13.95-5.12-13.42-10.94.53-5.83,10.94-23.83,1.94-51.02-9-27.19-28.6-41.84-37.07-72.2-8.25-29.56-36.24-133.28-46.17-162.07,14.55,4.7,29.46,6.76,47.23,10.43,5.18,1.07,10.13,1.96,14.83,2.74v-3.78c38.24,8.66,52.77,35.33,58.06,48.32h0c11.08,36.19,26.06,89.66,27.74,95.18.56,1.83,2.28,6.19,4.65,11.91,3.31,8.01,7.89,18.66,12.3,28.69,6.41,14.6,12.47,27.89,13.77,29.84,2.82,4.24,9.71,5.47,9.71,8.65s-6.88,11.65-3.89,17.83c3,6.18,11.83,9.71,11.65,14.83-.18,5.12-1.77,7.95-1.77,7.95l-.14.36c-3.67-1.41-5.86-2.2-5.86-2.2Z"/>
  <path class="cls-5" d="M501.03,545.47c-7.19,1.66-13.29,3.48-17.3,5.53-8.82,4.51-45.52,13.92-38.68-15.52,7.43-31.83,17.13-74.04-8-105.05-38.97-48.08-46.35-88.04-45.58-111.76.42-12.99-5.98-25.35-12.23-33.49-7.02-25.74-15.39-56.13-16.27-64.19-.62-5.63-.16-12.14.81-18.54,5.37-35.45,33.54-63.23,69.13-67.55,5.32-.64,18.35-3.73,27.56.69,5.29,2.54,5.74,20.38,9.96,36.14,3.29,12.26,11.91,23.03,8.21,37.67-1.64,6.5-11.33,17.72-12.22,20.48-.98,3.04,4.37,20.23,10.22,35.93,4.16,11.16,11.87,20.64,21.97,26.97,21.06,13.2,58.17,35.95,86.38,47.82,10.1,4.25,18.34,8.87,25.15,14.17,1.62,38.01-7.22,125.22-109.11,190.68Z"/>
  <path class="cls-14" d="M739.92,734.97h-172.65v-7.78s26.64-2.81,38.04-13.39c11.41-10.57,25.05-21.73,25.05-21.73,5.47-3.59,10.42-6.86,13.53-8.91,0,0,2.19.8,5.86,2.2h0c8.99,3.45,26.9,10.56,43.57,18.71,23.48,11.48,46.61,30.89,46.61,30.89Z"/>
  <path d="M603.1,709.72c5.11-3.16,17.07-10.97,27.25-17.65,0,0-13.65,11.16-25.05,21.73-11.4,10.57-38.04,13.39-38.04,13.39v-3.51c4.2-1.56,18.71-4.6,18.71-4.6,0,0,7.42-3.35,17.12-9.36Z"/>
  <path d="M647.77,211.01l-37.33,49.39-8.41,11.13v.06c-1.19-.11-2.5-.11-2.98.33-5.99,5.34-18.04,19.04-22.25,23.88,4.12-5.39,10.34-17.61,10.34-17.61h-2.65s-4.15,4.68-10.41,12.18c-2.07,2.47-4.22,4.23-6.18,5.47h0s7.99-11.26,7.99-11.26l57.59-81.15,14.3,7.59Z"/>
  <g>
    <path d="M439.42,127.82c-.95,4.07-1.71,7.79-1.71,7.79,0,0-3.32-3.03-11.65-4.92-1.46-.33-2.75-.83-3.88-1.45-2.22-1.22-3.82-2.93-4.84-4.83-1.36-2.53-1.68-5.38-1.07-7.84,2.5-.21,6.53-1.21,9.28-5.25,1.98-2.91,3.18-8.57,4.79-14.56,1.84-6.87,4.22-14.16,8.89-18.21,6.9-5.96,14.3-5.77,20.27-4.96,12.18,1.64,16.03,19.31,15.74,19.67-6.08,7.42-22.76,9.91-22.99,9.94-.01-.59-.06-1.38-.17-2.24-.1-.74-.25-1.54-.48-2.31-.62-2.09-1.82-4.03-4.12-4.28-5.27-.59-6.63,7.31-5.7,11.14.56,2.29,1.67,4.44,3.02,5.82,0,0-1.7,3.62-3.29,8.55-.66,2.04-1.42,5.07-2.09,7.94Z"/>
    <path class="cls-13" d="M448.67,124.01c-1.48-1.64-2.47-2.93-2.47-2.93,0,0-.98,6.59,1.12,6.99h0c-1,3.09-2.3,7.27-2.95,10.1-.11.49-.22.96-.31,1.41,0,0-15.87,1.46-20.81-3.96l2.8-4.92c8.33,1.88,11.65,4.92,11.65,4.92,0,0,.76-3.72,1.71-7.79.67-2.87,1.43-5.9,2.09-7.94,1.6-4.93,3.29-8.55,3.29-8.55-1.35-1.38-2.46-3.52-3.02-5.82-.93-3.83.42-11.73,5.7-11.14,2.3.26,3.5,2.19,4.12,4.28.23.78.38,1.57.48,2.31.11.86.16,1.65.17,2.24.23-.03,16.91-2.53,22.99-9.94.14,1.4.45,6.04-.9,10.37-1.62,5.18-4.85,10.29-4.85,10.29l1.36,6.8s-4.5.51-5.36,1.44c-.31.34-.79,1.48-1.48,2.83-1.23,2.39-3.11,5.4-5.83,5.67-2.73.27-6.88-3.75-9.51-6.67Z"/>
    <path class="cls-15" d="M448.67,124.01c-.03.08-.61,1.77-1.35,4.06h0c-2.11-.4-1.12-6.99-1.12-6.99,0,0,1,1.29,2.47,2.93Z"/>
  </g>
  <path class="cls-4" d="M700.2,658.35c.17,7.42-18.36.46-31.42-8.12-11.11-7.3-32.55-28.34-42.43-38.3-3.65-3.65-5.94-6.01-5.94-6.01-4.41-10.03-8.99-20.69-12.31-28.69,0,0,7.47,3.79,18.25,8.73,5.27,2.42,11.33,5.12,17.7,7.78,19.42,8.12,28.6,5.3,29.31,5.47l10.77,20.65s15.89,31.08,16.07,38.49Z"/>
  <path class="cls-13" d="M370.99,179.01s-23.85,30.99-3.21,101.32c12.97,44.21,95.64-5.91,99.9-6.75,4.26-.84,6.97-23.12,4.01-23-9.5.38-46.25,5.86-61.58,5.86-10.11,0-.97-50.56-5.61-63.78-5.53-15.78-30.22-13.88-30.22-13.88l-3.29.23Z"/>
  <polyline class="cls-1" points="507.02 281.6 508.26 281.62 576.84 283.22 567.89 295.83 458.11 291.72"/>
  <path class="cls-4" d="M426.76,226.19c.52.17,16.76,5.36,25.75-.35,8.99-5.7,10.81-7.45,14.61-7.46"/>
  <path class="cls-13" d="M452.59,137.26c2.85,4.5,7.61,33.59,4.51,39.99s-9.87,2.53-16.14-11.31c-6.28-13.84-25.45-24.16-30.97-24.52-5.51-.35,18.29-8.01,24.46-7.85,6.17.15,14.87-1.48,18.14,3.69Z"/>
  <path d="M388.77,155.34c-1.46-1.28-6.45-30.53,15.9-35.53,22.35-4.99,25.67-11.89,26.63-20.69.97-8.8,10.2,20.76,10.2,20.76,0,0-.93,15.54-6.4,19.87s-33.65,4.1-30.45,17.1c4.5,18.27-3.98,23.24-7.78,23.57,0,0,4.31-4.03,4.47-7.23.16-3.19-2.54-2.93-5.25,0-2.71,2.93-9.2,1.77-9.44,5.51,0,0-1.96-4.97,5.65-8.39,4.95-2.23-3.54-14.97-3.54-14.97Z"/>
  <g>
    <path class="cls-10" d="M445.59,122.03s-.04.05-.06.06-.06.02-.09.02c-.02,0-.06,0-.08-.02h0s-.05-.04-.06-.06l-.24-.43-1.43-2.53s-.02-.04-.03-.06l-.91-1.62-.22-.4s-.02-.06-.02-.09c0-.03.02-.06.02-.09.02-.02.03-.05.06-.06.09-.05.19-.02.24.06l.03.06.9,1.59.25.45,1.5,2.67.08.14.07.13c.03.06.03.12,0,.17Z"/>
    <path class="cls-10" d="M445.4,111.81l-.03.15-1.43,6.97-.02.06c-.02.09-.09.14-.17.14,0,0-.02,0-.03,0-.04,0-.08-.03-.1-.06,0-.02-.02-.04-.03-.06,0-.03,0-.06,0-.09l.09-.45,1.35-6.58.03-.15c.02-.08.09-.14.16-.14.02,0,.02,0,.04,0,.1.02.16.11.13.2Z"/>
    <path class="cls-3" d="M445.05,121.6c-1.01-.54-2.27-2.05-2.42-2.85-.06-.34-.05-.79.05-1.35l.91,1.62s.02.04.03.06l1.43,2.53Z"/>
    <path class="cls-10" d="M448.59,118.82c-.2,1.05-1.86,2.96-3.06,3.28-.02.02-.06.02-.09.02-.02,0-.06,0-.08-.02h0c-1.2-.32-2.85-2.24-3.05-3.28-.09-.49-.03-1.16.13-1.9,0-.03.02-.06.02-.09.37-1.63,1.22-3.67,2.01-5.36,0-.03.02-.06.04-.1.04-.09.14-.13.23-.09.03.02.06.04.08.07.02.05.03.11,0,.16-.03.07-.07.14-.1.21-.98,2.1-1.64,3.85-1.94,5.15-.04.18-.08.36-.11.51-.09.56-.11,1.01-.05,1.35.15.8,1.4,2.31,2.42,2.85.1.06.21.11.31.13.02.02.06.02.08.03.02,0,.05-.02.08-.03.1-.02.21-.07.31-.13h0c1.01-.55,2.26-2.05,2.41-2.85.06-.34.05-.79-.05-1.35-.02-.16-.06-.33-.1-.51h0c-.3-1.32-.96-3.07-1.94-5.16-.02-.07-.06-.14-.1-.21-.04-.08,0-.18.08-.23.09-.04.19,0,.23.09.02.03.03.06.05.1.78,1.69,1.64,3.72,2.01,5.36.02.02.02.06.02.09.17.75.23,1.41.13,1.9Z"/>
    <path class="cls-10" d="M448.45,116.91s0,.06-.02.09l-.23.4-.9,1.6s-.02.04-.03.06l-1.43,2.53h0s0,0,0,0l-.24.43s-.04.05-.06.06-.06.02-.09.02c-.02,0-.06,0-.08-.02h0s-.05-.04-.06-.06c-.03-.06-.03-.11,0-.17l.07-.13.08-.14,1.5-2.66.26-.47.9-1.58h0s.03-.06.03-.06c.05-.08.15-.11.24-.06.02.02.05.04.06.06.02.02.02.06.02.09Z"/>
    <path class="cls-3" d="M448.25,118.75c-.15.8-1.39,2.31-2.41,2.84l1.43-2.53s.02-.04.03-.06l.9-1.6c.1.55.11,1.01.05,1.35Z"/>
    <path class="cls-10" d="M447.29,118.93s0,.06,0,.08c0,.02-.02.04-.03.06-.03.02-.06.05-.1.06,0,0-.02,0-.03,0-.08,0-.15-.06-.17-.14l-.02-.06-1.43-6.98-.03-.15c-.02-.09.05-.18.13-.2.02,0,.02,0,.04,0,.08,0,.15.06.17.14l.03.15,1.35,6.58.1.46Z"/>
    <path class="cls-10" d="M445.44,109.55c-.67,0-1.2.55-1.2,1.21,0,.27.09.51.24.71.07.1.16.19.26.26.02-.07.06-.14.1-.21.02-.05.02-.11,0-.16-.15-.16-.25-.36-.25-.6,0-.48.39-.86.86-.86s.86.39.86.86c0,.16-.05.31-.13.44-.02.03-.04.06-.06.09-.04.05-.08.09-.12.12-.04.04-.08.07-.12.09-.07.05-.15.08-.23.1-.02,0-.02,0-.04,0-.06,0-.11.02-.17.02s-.12,0-.17-.02c-.02,0-.02,0-.04,0-.07,0-.14.06-.16.14l-.03.15c.1.04.21.06.33.06.02,0,.05,0,.07,0s.05,0,.07,0c.12,0,.24-.02.34-.06.11-.04.21-.1.3-.16.1-.07.19-.16.26-.26.15-.2.24-.44.24-.71,0-.67-.54-1.21-1.21-1.21Z"/>
    <path class="cls-3" d="M448.1,116.88h0s-.9,1.58-.9,1.58l-1.35-6.58c.11-.04.21-.1.3-.16.98,2.09,1.64,3.84,1.94,5.15Z"/>
    <path class="cls-3" d="M446.94,118.93l-1.5,2.66-1.5-2.67,1.43-6.97s.05,0,.07,0,.05,0,.07,0l1.43,6.98Z"/>
    <path class="cls-3" d="M445.04,111.89l-1.35,6.58-.9-1.59c.3-1.3.96-3.05,1.94-5.15.09.06.19.12.3.16Z"/>
    <path class="cls-3" d="M446.3,110.76c0,.41-.3.77-.69.85-.06,0-.11.02-.17.02s-.12,0-.17-.02c-.17-.04-.32-.13-.44-.25-.15-.16-.25-.36-.25-.6,0-.48.39-.86.86-.86s.86.39.86.86Z"/>
  </g>
  <path class="cls-9" d="M392.31,170.31s4.05-5.67,5.9-17.55c1.85-11.87,7.12-18.73,20.32-21.9"/>
  <path d="M475.2,93.06c-1.8,4.2-5.79,7.06-10.08,8.3,4.13-1.37,7.97-4.34,9.55-8.48,0,0,.53.18.53.18h0Z"/>
  <rect class="cls-14" x="187.29" y="337.85" width="222.36" height="408.04" rx="37.72" ry="37.72"/>
  <path d="M567.96,298.47l-104.54-2.59-1.9-.05v-1.51c0-.87.72-1.57,1.58-1.55.1,0,.21,0,.32.01,13.78.38,97.68,2.69,104.47,3.05.02,0,.07,2.64.07,2.64Z"/>
  <path class="cls-13" d="M508.44,266.13c.39.43,12.94,14.26,15.46,19.5,1.15,2.38,3.04,5.69,4.79,8.62,2.15,3.62,4.08,6.65,4.08,6.65,0,0-3.64,1.67-7.49-2.66-.91-1.02-2.07-2.52-3.35-4.24-4.15-5.57-9.5-13.53-11.23-15.87-2.27-3.06-10.05-8.57-10.05-8.57,0,0,7.09,15.96,9.46,19.31,1.07,1.52,2.25,3.69,3.21,5.61,1.16,2.3,2.01,4.24,2.01,4.24,0,0-2.46,2.27-3.55,1.48-.32-.23-1.58-2.18-3.2-4.82-2.72-4.41-6.46-10.76-8.47-14.21-.9-1.55-2.42-2.64-4.17-3.02-2.34-.5-5.92-1.32-9.68-2.37-1.44-.4-2.9-.84-4.33-1.3-7.88-2.56-9.65-3.35-9.65-3.35l-38.6,18.74h0c2.56-13.35,7.25-28.96,8.11-31.78,4.77-1.27,37.08-9.99,44.47-10.5,8.01-.55,15.56.59,22.37,4.92,15.67,9.95,19.47,18.95,19.47,18.95l10.19,17.99c1.23,1.92,2.35,3.76,3.28,5.32,1.61,2.7,2.63,4.55,2.63,4.55,0,0-5.02.99-7.19-1.18-.57-.57-1.63-1.92-2.94-3.66-3.68-4.89-9.31-12.83-11.35-14.87-2.71-2.71-13.88-13.12-14.28-13.49Z"/>
  <path d="M463.42,292.77v3.1h-.39c-.84-.03-1.51-.72-1.51-1.56h0c0-.88.72-1.58,1.58-1.56.1,0,.21,0,.32.01Z"/>
  <g>
    <g>
      <path class="cls-13" d="M345.35,764h-11.01c-7.59,0-13.75-6.14-13.77-13.74,0-3.48,0-6.49.04-7.42.05-1.4.11-2.8.15-4.2.16-5.92-.04-11.9-.04-17.83v-.11h39.32c-.28,0,0,21.11,0,23.03,0,.69,0,2.88,0,5.59,0,8.11-6.57,14.69-14.68,14.69Z"/>
      <path class="cls-16" d="M359.74,720.81c0,1.54-7.21,1.88-8.58,2-6.49.55-13.07.57-19.58.17-2.65-.16-5.36-.37-7.92-.89-.8-.16-2.96-.51-2.96-1.28,0-1.03,3.61-1.41,4.61-1.56,6.66-.98,13.57-1.1,20.35-.79,3.08.14,6.3.35,9.39.78,1.2.17,4.69.43,4.69,1.57Z"/>
    </g>
    <path class="cls-7" d="M339.38,722.54c-.36-.01-.72-.03-1.08-.03-.14,0-.28-.05-.39-.14-1.46-1.16-2.84-2.69-4.35-3.4-3.53-1.67-7.88-1.97-11.68-2.58-6.07-.97-12.78-2.87-15.67-8.02-.99-1.77-1.22-4.35.56-5.43,1.07-.65,2.46-.49,3.7-.26,1.81.33,3.61.74,5.37,1.24.66.19,1.11-.66.58-1.1-3.94-3.29-7.38-7.11-10.18-11.31-.95-1.42-1.85-2.96-1.94-4.65-.09-1.68.88-3.53,2.59-3.99,1.79-.48,3.59.66,5,1.81.25.21.5.42.75.63.54.47,1.33-.16.99-.78-3.78-6.84-6.43-14.24-7.8-21.85-1.06-5.88-1.31-12.12,1.02-17.65.11-.25.38-.3.64-.39,4.3-1.49,5.15,4.3,5.97,7.58,1.57,6.32,3.14,12.64,4.71,18.96.17.67,1.12.64,1.25-.04.84-4.43,1.73-8.85,2.67-13.26.31-1.45.75-3.07,2.11-3.78,1.77-.93,4.1.36,4.89,2.13.79,1.77.48,3.78.16,5.67-.7,4.09-1.39,8.18-2.09,12.26-.11.63.67,1,1.11.53,0,0,.02-.02.03-.03,1.83-1.93,5.69-2.28,7.03-.02.69,1.16.52,2.59.33,3.91-.26,1.85-.53,3.69-.79,5.54-.05.37-.4.63-.77.55-1.34-.29-2.73-.17-3.86.56-2.56,1.65-2.46,5.23-1.77,8.09,1.33,5.58,4.59,10.27,7.28,15.24,2.35,4.35,2.91,8.81,4.27,13.17.13.42-.2.84-.63.82Z"/>
    <path class="cls-12" d="M343.47,697.53c-.68,8.36-1.37,16.72-2.06,25.08-.05,0-.09,0-.13,0-.33,0-.66-.02-.99-.03-1.58-4.63-2.04-9.4-4.55-14.04-2.69-4.97-5.95-9.66-7.28-15.24-.68-2.86-.79-6.44,1.77-8.09,1.32-.85,3-.88,4.52-.38,4.94,3.27-1.27,8.87-1.91,13.31,3.16-1.81,3.57-7.01,7.13-7.44,2.84-.34,3.67,4.56,3.48,6.84Z"/>
    <g>
      <path d="M342.11,722.35c-.11,0-.21-.04-.29-.12s-.11-.18-.1-.29l2-24.38c.18-2.12-.16-4.88-1.63-6.26-.13-.12-.15-.33-.05-.49,2.37-3.96,2.45-8.88,2.53-13.65.1-5.91.19-11.49,4.28-15.33.72-.68,1.35-1.02,1.98-1.06h.14c1.16,0,2.18.96,3.11,2.96l4.59,9.9c.15.32.46.52.81.52.42,0,.77-.27.87-.68,2.31-9.28,4.84-18.22,10.34-25.66,1.29-1.75,3.11-3.88,5.64-4.77.68-.24,1.43-.37,2.18-.37,1.94,0,3.63.83,4.41,2.16,1.2,2.06.22,4.61-.8,6.84l-4.75,10.45c-.13.28-.11.59.06.85.17.26.45.41.75.41.12,0,.24-.02.35-.07,1.98-.84,4.91-1.84,7.61-1.84,2.4,0,4.22.78,5.4,2.33,2.28,2.97.54,7.47-2.5,9.81-2.4,1.84-5.42,2.82-8.33,3.76-.89.29-1.78.58-2.65.89-4.63,1.65-7.63,3.9-8.94,6.69-.1.23-.11.48-.02.71.1.23.29.42.53.51.69.26,1.47.39,2.38.39h0c1.08,0,2.21-.18,3.31-.35,1.07-.17,2.18-.34,3.2-.34,1.19,0,2.12.23,2.92.72,1.44.88,1.78,2.27,1.81,3.29.07,2.06-1.11,4.38-2.86,5.62-2.24,1.59-5.07,2.2-7.81,2.8-1,.22-2.03.44-3.02.71-12.26,3.31-20.42,13.71-27.11,23.21-.07.1-.18.16-.3.16h-.02Z"/>
      <path class="cls-2" d="M378.49,642.92c1.85,0,3.46.78,4.19,2.03,1.14,1.95.18,4.44-.81,6.61l-4.75,10.45c-.16.36-.13.76.08,1.09.21.33.57.53.96.53.15,0,.31-.03.45-.09,2.81-1.19,5.4-1.82,7.51-1.82,2.32,0,4.07.75,5.2,2.23,2.19,2.85.49,7.19-2.46,9.46-2.36,1.81-5.36,2.78-8.26,3.72-.87.28-1.78.58-2.66.89-4.69,1.67-7.75,3.97-9.08,6.83-.13.29-.14.62-.02.91.12.3.37.54.67.65.72.27,1.53.4,2.47.4,1.1,0,2.24-.18,3.34-.35,1.06-.17,2.16-.34,3.16-.34,1.15,0,2.03.22,2.79.68,1.34.82,1.66,2.13,1.69,3.08.06,1.99-1.07,4.21-2.76,5.41-2.2,1.56-5,2.17-7.72,2.76-1,.22-2.03.44-3.03.71-12.34,3.33-20.54,13.78-27.25,23.31-.02.03-.06.06-.12.06-.05,0-.08-.03-.1-.04-.02-.02-.04-.05-.03-.1l1-12.19,1-12.19c.18-2.18-.17-5.03-1.71-6.47-.04-.04-.05-.11-.01-.17,2.41-4.01,2.49-8.98,2.56-13.77.09-5.85.18-11.38,4.2-15.15.68-.64,1.26-.95,1.82-.99.04,0,.08,0,.12,0,1.06,0,2,.92,2.88,2.82l4.59,9.89c.19.41.59.66,1.04.66.54,0,.98-.35,1.11-.87,2.3-9.25,4.83-18.16,10.29-25.57,1.27-1.72,3.05-3.81,5.52-4.68.65-.23,1.37-.35,2.1-.35M378.49,642.42c-.77,0-1.55.13-2.27.38-2.45.86-4.26,2.83-5.76,4.86-5.59,7.57-8.13,16.72-10.38,25.75-.08.32-.35.48-.62.48-.23,0-.46-.12-.58-.37l-4.59-9.9c-.67-1.43-1.72-3.11-3.33-3.11-.05,0-.1,0-.16,0-.83.06-1.55.57-2.14,1.13-7.59,7.13-1.67,20.39-6.85,29.03-.15.26-.12.6.1.8,1.38,1.3,1.72,3.97,1.55,6.05-.67,8.13-1.33,16.26-2,24.38-.03.37.27.69.64.69,0,0,0,0,.01,0,0,0,0,0,.01,0,.2,0,.39-.11.51-.27,6.96-9.88,15.05-19.89,26.97-23.11,3.72-1,7.81-1.34,10.91-3.54,3.1-2.2,4.29-7.33,1.04-9.33-.93-.57-1.97-.76-3.06-.76-2.1,0-4.39.69-6.51.69-.8,0-1.57-.1-2.29-.37-.35-.13-.53-.53-.37-.87,1.53-3.28,5.2-5.28,8.79-6.56,3.8-1.35,7.9-2.26,11.05-4.69,3.15-2.42,4.94-7.06,2.55-10.17-1.35-1.76-3.37-2.42-5.6-2.42-2.49,0-5.26.82-7.71,1.86-.09.04-.17.05-.26.05-.43,0-.78-.46-.58-.9,1.58-3.48,3.17-6.96,4.75-10.45,1.03-2.26,2.05-4.92.79-7.07-.89-1.53-2.75-2.28-4.63-2.28h0Z"/>
    </g>
  </g>
  <path class="cls-12" d="M500.49,79.64c0-12.33,8.28-22.32,18.49-22.32-10.21,0-18.49-10-18.49-22.32,0,12.32-8.28,22.32-18.49,22.32,10.21,0,18.49,9.99,18.49,22.32Z"/>
  <g>
    <g>
      <g>
        <polygon class="cls-2" points="510.26 180.1 522.64 176.06 530.55 183.56 532.55 172.82 544.69 168.85 535.22 139.85 500.78 151.1 510.26 180.1"/>
        <path class="cls-6" d="M530.63,183.83c-.1.03-.21,0-.28-.06l-7.79-7.39-12.22,3.99c-.15.05-.31-.03-.36-.18l-9.48-29c-.02-.07-.02-.15.02-.22.03-.07.09-.12.16-.14l34.43-11.25c.15-.05.31.03.36.18l9.48,29c.05.15-.03.31-.18.36l-11.99,3.92-1.97,10.58c-.01.07-.05.13-.1.17-.03.02-.06.04-.09.05Z"/>
      </g>
      <path d="M515.65,154.13c2.1-.68,4.31,0,5.68,1.54.2-2.06,1.58-3.91,3.68-4.6,2.82-.92,5.85.62,6.77,3.44.6,1.84.28,3.2-.67,5.37l-4.96,10.54-10.23-5.58c-2.05-1.19-3.11-2.1-3.71-3.94-.92-2.82.62-5.85,3.44-6.77Z"/>
    </g>
    <line class="cls-8" x1="597.71" y1="215.58" x2="653.17" y2="86.01"/>
    <path class="cls-8" d="M584.64,102.44c0,1.11-8.84,59.27-8.84,59.27"/>
  </g>
  <path class="cls-14" d="M276.71,309.94c.08,1.26,1.32,5.08,4.29,6.55,1.08.54,1.7,1.75,1.55,2.99-.57,4.57-1.65,13-2.25,17.64-.22,1.74,1.08,3.29,2.77,3.29h2.94c1.44,0,2.64-1.14,2.78-2.63.26-2.8,1.21-6.81,4.47-6.61,3.16.19,3.93,3.82,4.08,6.46.04.68.3,1.3.7,1.77.51.59,1.25.97,2.07.98l3.11.02c1.74,0,3.06-1.62,2.77-3.4l-1.99-12.18c-.01-.08-.02-.16-.03-.24-.08-1.01.35-2.01,1.15-2.61,1.12-.83,2.65-2.36,3.64-4.93,1.73-4.5-2.21-6.8-2.21-6.8,0,0-2.02-1.49-4.07-2.13-.81-.25-1.48-.85-1.81-1.66-.89-2.19-2.82-5.7-6.31-6.41-4.41-.9-5.28.3-8.63-3.3-3.36-3.6-3.84-4.89-4.03-7.59-.19-2.7.58-6.29,4.51-9.39,2.21-1.6,4.99-2,5.37-2.3.38-.3.77-2.1-.29-2.3-1.06-.2-9.69,2.1-12.76,6.39-3.07,4.3-6.91,12.89.58,22.08,1.54,1.9,4.22,4.89,4.32,6.59.1,1.7.1,2.7-.38,2.8-.48.1-2.78-.4-4.13-2.9s-.48-3.6-1.06-3.8c-.58-.2-1.25,2.1-1.15,3.6Z"/>
  <path class="cls-13" d="M297.79,283.46c.69-7.59,6.34-13.27,12.62-12.7-6.28-.57-10.82-7.18-10.13-14.77-.69,7.58-6.34,13.27-12.63,12.7,6.28.57,10.82,7.18,10.13,14.76Z"/>
  <path class="cls-13" d="M311.04,267.62c.13-1.48,1.24-2.59,2.46-2.48-1.23-.11-2.11-1.4-1.97-2.88-.13,1.48-1.24,2.59-2.46,2.48,1.23.11,2.11,1.4,1.98,2.88Z"/>
</svg>