<?xml version="1.0" encoding="UTF-8"?>
<svg xmlns="http://www.w3.org/2000/svg" xmlns:xlink="http://www.w3.org/1999/xlink" viewBox="0 0 871 767">
  <defs>
    <style>
      .cls-1, .cls-2, .cls-3, .cls-4, .cls-5 {
        stroke-width: .33px;
      }

      .cls-1, .cls-2, .cls-6, .cls-5, .cls-7, .cls-8, .cls-9, .cls-10, .cls-11, .cls-12 {
        fill: none;
      }

      .cls-1, .cls-4, .cls-6, .cls-9, .cls-11, .cls-12 {
        stroke-linecap: round;
      }

      .cls-1, .cls-4, .cls-6, .cls-11, .cls-12 {
        stroke-linejoin: round;
      }

      .cls-1, .cls-6, .cls-11, .cls-12 {
        stroke: #000114;
      }

      .cls-13, .cls-14 {
        mix-blend-mode: multiply;
      }

      .cls-13, .cls-15 {
        fill: #e6e6e6;
      }

      .cls-16 {
        opacity: .1;
      }

      .cls-16, .cls-17 {
        fill: #8f8f8f;
      }

      .cls-2, .cls-3, .cls-5, .cls-7, .cls-8, .cls-9, .cls-10 {
        stroke-miterlimit: 10;
      }

      .cls-2, .cls-10 {
        stroke: #afafaf;
      }

      .cls-18 {
        fill: #f3c400;
      }

      .cls-3, .cls-19, .cls-4, .cls-20 {
        fill: #fff;
      }

      .cls-3, .cls-4 {
        stroke: #000;
      }

      .cls-21 {
        fill: #505050;
      }

      .cls-22 {
        fill: #9f9f9f;
      }

      .cls-19 {
        opacity: .45;
      }

      .cls-23 {
        opacity: .46;
      }

      .cls-24 {
        fill: #424242;
      }

      .cls-25 {
        fill: #606060;
      }

      .cls-6 {
        stroke-width: .26px;
      }

      .cls-5, .cls-8 {
        stroke: #606060;
      }

      .cls-26 {
        fill: #303030;
      }

      .cls-7 {
        stroke: #1e243b;
        stroke-width: .46px;
      }

      .cls-27 {
        fill: #404040;
      }

      .cls-14 {
        fill: #f2f2f2;
      }

      .cls-28 {
        isolation: isolate;
      }

      .cls-29 {
        opacity: .22;
      }

      .cls-29, .cls-30, .cls-31 {
        fill: #707070;
      }

      .cls-8 {
        stroke-width: .92px;
      }

      .cls-32 {
        fill: #ddd;
      }

      .cls-33 {
        opacity: .43;
      }

      .cls-9 {
        stroke: #fff;
        stroke-width: 3.47px;
      }

      .cls-34 {
        fill: #efefef;
      }

      .cls-35 {
        fill: #dfdfdf;
      }

      .cls-10 {
        stroke-width: 2.63px;
      }

      .cls-36 {
        fill: #cfcfcf;
      }

      .cls-37 {
        fill: #b3b3b3;
      }

      .cls-11 {
        stroke-width: .54px;
      }

      .cls-38, .cls-30 {
        opacity: .04;
      }

      .cls-39 {
        fill: gray;
      }

      .cls-15 {
        mix-blend-mode: color-burn;
      }

      .cls-12 {
        stroke-width: .46px;
      }

      .cls-40 {
        fill: url(#linear-gradient);
      }

      .cls-41 {
        fill: #000114;
      }

      .cls-42 {
        fill: #101010;
      }

      .cls-43 {
        fill: #afafaf;
      }
    </style>
    <linearGradient id="linear-gradient" x1="213.16" y1="112.08" x2="248.16" y2="112.08" gradientTransform="translate(307.12 -132.7) rotate(81.43)" gradientUnits="userSpaceOnUse">
      <stop offset="0" stop-color="#fff"/>
      <stop offset="1" stop-color="#999"/>
    </linearGradient>
  </defs>
  <g class="cls-28">
    <g id="Layer_1" data-name="Layer 1">
      <g>
        <rect class="cls-16" x="358.72" y="189.11" width="440.18" height="440.18" transform="translate(372.8 -269.05) rotate(37.85)"/>
        <g>
          <line class="cls-2" x1="182.71" y1="715.51" x2="686.66" y2="715.51"/>
          <g>
            <g class="cls-33">
              <rect class="cls-34" x="510.37" y="110.7" width="90.94" height="90.94" transform="translate(967.17 -248.99) rotate(119.74)"/>
              <rect class="cls-22" x="515.91" y="116.24" width="79.86" height="79.86" transform="translate(150.68 -255.16) rotate(29.74)"/>
              <polygon class="cls-17" points="501.54 170.72 543.85 145.72 542.57 194.15 501.54 170.72"/>
              <polygon class="cls-17" points="529.87 186.9 564.35 175.59 570.89 210.34 529.87 186.9"/>
              <path class="cls-17" d="M594.81,153.9c-2.86,5-9.22,6.74-14.22,3.88-5-2.86-6.74-9.22-3.88-14.22,2.86-5,9.22-6.74,14.22-3.88,5,2.86,6.74,9.22,3.88,14.22Z"/>
            </g>
            <polyline class="cls-5" points="606.27 123.04 631.49 137.4 618.88 160.33"/>
          </g>
          <path class="cls-30" d="M338.92,512.56c0-78.78,52.88-142.56,118.1-142.56-65.23,0-118.1-63.85-118.1-142.59,0,78.73-52.89,142.59-118.13,142.59,65.24,0,118.13,63.79,118.13,142.56Z"/>
          <path class="cls-29" d="M370.99,105.85c0-18.89,12.68-34.19,28.33-34.19-15.64,0-28.33-15.32-28.33-34.2,0,18.88-12.69,34.2-28.33,34.2,15.65,0,28.33,15.3,28.33,34.19Z"/>
          <g>
            <path class="cls-25" d="M428.09,88.41s20.45-13.32,25.11-12.79c2.08.24,5.75,6.87,7.34,14.42-7.56,8.94-18.79,13.11-28.74,9.62-1.11-.39-2.29-1.18-3.46-2.25-.81-4.85-.26-9-.26-9Z"/>
            <g>
              <path class="cls-32" d="M459.02,72.35s7.23-6.62,11.97-2.61c4.74,4.01-3.52,14.51-11.96,9.6l-.02-7Z"/>
              <path class="cls-32" d="M442.34,48.68c-2.44-.08-4.67.09-6.69.46-21.58,3.95-16.45,28.23-10.45,39,6.16,11.03,20.13,11.41,28.99,6.44,10.56-5.93,15.86-45.02-11.85-45.9Z"/>
              <path class="cls-32" d="M425.19,75.96c.42-1.76-.38-4.79-2.32-7-2.2-2.49-5.2-3.58-9.19-1.59-4.64,2.3-2.18,10.65,3.8,13.17,3.15,1.33,6.74-.52,7.52-3.79l.19-.79Z"/>
            </g>
            <path d="M430.66,101.76c-2.75,6.3-7.49,6.51-12.38,6.51s-7.31-5.77-10.61-3.38c-3.3,2.39-5.65-3.09-7.12-6.04-1.47-2.95-3.46-11.12-2.48-12.6.98-1.48,2.51-2.85,1.02-5.86-1.96-3.94-4.48-4.5-2.03-7.95,2.44-3.44,7.95-.47,8.32-4.73.48-5.43-5.93-7-3.97-10.94,1.96-3.94,7.18-1.36,12.56-5.63,4.64-3.69-1.38-5.42-.4-11.32.98-5.9,8.11-11.03,13.98-11.52,5.87-.49,4.75-8.69,13.1-11.48,11.69-3.9,19.41-3.98,21.43-4.46,15.86-3.81,11.05-3.39,15.45-3.89,5.82,2.18,9.82,6.94,11.29,4.48,1.47-2.46,5.11-10.89,12.65-8.46,6.1,1.97-1.53,9.78-3.97,12.24-4.13,2.78-7.24,3.47-10.07,3.07-2.83-.41,2.97,1.94,4.19,2.35,1.21.41,11.7-6.01,16.95-6.01s5.41,3.57,12.12,3.57c4.83,0,3.66-6.3,8.36-5.21,5.99,1.39-2.27,8.85-6.71,12.1-4.45,3.25-11.36-3.21-13.59,3.52-1.97,5.93,7.37.6,11.01,3.04,3.64,2.44,6.59,9.04,8.21,9.04s8.5-1.68,9.71-2.5c1.21-.81,1.91-6.75,3.46-4.16,2.83,4.75.67,8.06-2.57,10.5-3.23,2.44-7.91-.57-11.42,4.97-2.94,4.64,5.29,1.13,6.91,6.42,1.62,5.29-.84,9.13,1.58,9.13s8.76-3.02,7.71.49c-1.93,6.47-6.11,5.13-10.16,9.2-4.04,4.07-12.42,9.26-15.25,8.45-2.83-.81-7.04-8.02-9.3-4.22-2.1,3.52,4.15,7.41,6.17,7.82,2.02.41,7.97-7.23,10.23-3.06s-5.71,6.26-7.73,6.67c-2.02.41-4.45-2.97-7.52-.55s-.21,5.84-2.23,7.47c-2.02,1.63-10.36-1.27-7.32,1.64,3.95,3.78,7.52.9,10.35,1.3,2.83.41,8.43-3.15,8.55,1.78s-6.19,3.98-7.81,4.8c-1.62.81-11.97,2.23-15.6,3.05-3.64.81-25.03-3.69-27.45-4.9-.35-.17-1.83,1.42-2.25,1.11-3.77-2.75-4.07-8.18-4.07-12.87-.5-2.94-4.27-2.62-3.83-5.57.64-4.29,4.06-1.92,4.31-7.09,5.54-2.79,5.49,1.74,6.11-10.22-.86-3.09-4.89-1.03-6.5-2.66-1.62-1.63.5-6.17-3.24-10.34-4.21-4.69-8.13-2.93-10.96-5.37-2.83-2.44-1.9-4.79-5.39-5.21-6.2-.75-9.69,2.01-12.12,4.45-2.42,2.44-6.28,2.2-8.82,15.01-3.53,4.07-6.75-1.21-6.3,5.33.31,4.42.43,7.7,4.47,8.11,4.91,2.74,2.74,2.73,7.76,8.33,1.07,1.19,3.07,2.07,2.86,3.67,1.57,4.04,1.96,4.93.36,8.6Z"/>
            <path class="cls-7" d="M541.68,35.21s-2.91,8.12-3.87,9.88c-.96,1.77-11.89,5.16-11.89,5.16l-3.6-.18s-2.39,4.02-5.91,4.98c-3.51.96-6.39-2.89-8.94-1.93-2.55.96-3.67,4.98-6.54,5.46-2.87.48-5.43-3.53-5.43-3.53,0,0-3.67,6.26-6.7,6.75-3.03.48-6.54-4.34-9.1-4.34s-8.78,6.26-11.81,5.78c-3.03-.48-6.54-4.5-9.09-4.4-2.54.1-6.56-1.23-10.39-3.47-2.34-1.37-3.83-4.34-4.64-6.45-.65-1.68-1.9-3.05-3.55-3.76-1.99-.87-4.53-1.64-5.73-.64-2.15,1.78-4.57,8.74-4.57,8.74"/>
            <path class="cls-7" d="M398.13,86.29s1.36,13.32,4.62,13.32,1.7-3,3.69-3.71c1.99-.71,1.84,2.28,3.55-.14,1.7-2.43-1.28-5.28,1.7-5.71,2.98-.43,3.78,6.54,7.95,6.28,3.89-.24,4.9-2.82,6.3-5.72"/>
            <ellipse class="cls-8" cx="417.54" cy="83.17" rx="3.83" ry="4.45"/>
            <ellipse class="cls-8" cx="467.06" cy="82.59" rx="4.05" ry="4.45"/>
            <path class="cls-24" d="M413.18,95.97c.54,2.39-1.84,3.95-3.65,4.85-1.14.56-2.28,1.11-3.42,1.67-1.01.49-2.13.94-2.89,1.79-1.49,1.68-1.61,4.29-1.57,6.42.04,2.35.39,4.7.17,7.04-.21,2.2-.92,4.46-2.66,5.92-.23.19.1.51.32.32,3.47-2.91,2.89-7.96,2.67-11.97-.07-1.3-.1-2.61.07-3.9.15-1.13.42-2.31,1.1-3.24s1.9-1.44,2.95-1.96c1.16-.56,2.32-1.12,3.48-1.7s2.25-1.19,3.03-2.18c.7-.9,1.09-2.04.84-3.18-.06-.29-.51-.17-.44.12h0Z"/>
            <path class="cls-24" d="M464.34,88.67c-.58,4.16-1.17,8.62.74,12.54.76,1.57,1.91,2.98,3.42,3.88,1.76,1.05,3.82,1.28,5.81,1.51,1.83.21,4.43.28,5.22,2.29.37.94.43,2,.46,3s0,2.09.04,3.13c.07,1.89.42,3.77,1.62,5.29,1.03,1.3,2.52,2.19,4.09,2.68,3.92,1.23,7.95-.16,11.53-1.77.49-.22.98-.45,1.46-.67.27-.12.03-.52-.23-.4-3.59,1.67-7.6,3.49-11.65,2.65-1.6-.33-3.16-1.05-4.33-2.21-1.35-1.34-1.88-3.12-2-4.98-.13-1.99.1-4.02-.3-5.98-.18-.87-.54-1.72-1.26-2.28s-1.61-.77-2.48-.93c-1.97-.35-4.01-.38-5.93-.96-1.79-.54-3.27-1.65-4.31-3.2-2.34-3.45-2.19-7.77-1.68-11.73.07-.59.16-1.17.24-1.76.04-.29-.4-.41-.44-.12h0Z"/>
          </g>
          <ellipse class="cls-17" cx="445.89" cy="419.7" rx="90.33" ry="10.49"/>
          <g class="cls-38">
            <path d="M451.79,766.91c-98.81,0-179.19-17.02-179.19-37.94s80.38-37.94,179.19-37.94,179.19,17.02,179.19,37.94-80.38,37.94-179.19,37.94Z"/>
            <path class="cls-20" d="M451.79,691.55c47.93,0,92.98,3.99,126.85,11.24,32.94,7.05,51.83,16.59,51.83,26.19s-18.89,19.15-51.83,26.19c-33.87,7.25-78.92,11.24-126.85,11.24s-92.98-3.99-126.85-11.24c-32.94-7.05-51.83-16.59-51.83-26.19s18.89-19.15,51.83-26.19c33.87-7.25,78.92-11.24,126.85-11.24M451.79,690.54c-99.24,0-179.7,17.21-179.7,38.44s80.45,38.44,179.7,38.44,179.7-17.21,179.7-38.44-80.45-38.44-179.7-38.44h0Z"/>
          </g>
          <g>
            <g>
              <g>
                <g>
                  <path class="cls-41" d="M422.75,465.86s3.62-7.25-16.16-11.82c-19.78-4.58-41.51,1.68-38.58,11.82,2.93,10.15,34.98,23.42,54.73,0Z"/>
                  <path class="cls-32" d="M392.17,265.37s-34.95,64.54-26.95,139.99c10.88,102.69,6.25,180.81,6.88,220.63.62,39.82,6.81,60.26,6.81,60.26l22.87,1.83s11.08-91.9,11.08-159.74c0-49.87,37.07-148.45,33.04-200.56-4.02-52.11-53.72-62.42-53.72-62.42Z"/>
                </g>
                <path class="cls-18" d="M382.08,500.75c-.7-.82-1.81-.09-1.75,1.15.36,7.12,2.27,22.57,12.1,22.57,5.86,0,10.34-5.5,13.48-11.45,2.05-3.89-.83-9.07-4.23-7.56-5.65,2.51-12.94,3.06-19.6-4.71Z"/>
                <g>
                  <path class="cls-41" d="M367.75,464.11s25.07,26.47,55,1.75c0,0-2.77,13.73-3.76,21.28-.99,7.55-2.55,25.22-2.55,37.33s.47,41.4-3.32,55.66c-2.82,10.65-2.57,23.63-3.1,34.76-1.19,24.87-4.65,48.79-8.25,73.19,0,0-22.86-1.83-22.87-1.83-.82-.07-3.38-17.21-3.77-19.15-5.32-26.59-6.13-54.69-4.41-82,.35-5.49-1.73-43.02-1.04-49.89.69-6.87-2.43-48.06-2.94-52.18-.51-4.12,1.01-18.92,1.01-18.92Z"/>
                  <path class="cls-12" d="M369.33,476.72s19.56,17.59,46.48,4.47"/>
                  <g>
                    <path class="cls-31" d="M368.01,498.65c.3,4.15.61,8.71.88,13.18,9.7,5.41,28.92,12.53,48.01-1.19.27-4.64.63-9.3,1-13.42-20.02,15.16-40.37,6.96-49.9,1.42Z"/>
                    <path class="cls-36" d="M368.89,511.83c.29,4.64.53,9.18.69,13.06,9.82,5.31,28.36,11.72,46.86-1.24.02-3.97.2-8.48.46-13-19.09,13.71-38.31,6.6-48.01,1.19Z"/>
                    <path class="cls-31" d="M369.59,524.89c.2,4.82.26,8.62.09,10.32-.06.58-.1,1.37-.12,2.34,9.89,5.35,28.68,11.86,47.34-1.55-.24-4.3-.46-8.3-.46-11.53,0-.27,0-.55,0-.83-18.5,12.96-37.04,6.55-46.86,1.24Z"/>
                  </g>
                </g>
                <g>
                  <path class="cls-36" d="M403.43,661.95l-28.54,1.12-.51-23.05c-.16-7.26,4.14-13.31,9.62-13.53l8.73-.34c5.47-.21,10.04,5.49,10.2,12.75l.51,23.05Z"/>
                  <path class="cls-21" d="M380.52,652.23c-1.48-.3-2.78-1.5-3.47-3.27-1.11-2.83-3.05-6.85-5.19-6.94-3.31-.14-4.88,6.38-3.24,16.79,1.64,10.42,1.73,26.1-2.88,31.23s-10.03,18.45-10.03,18.45l2.68,13.83s16.97,29.27,41.94,3.68l10.02-34.06s1.04-14.69.48-19.73c-.56-5.04-.45-19.46-1.97-25.17-1.52-5.71-8.52.26-9.1,4.94-.46,3.67-13.61,1.39-19.23.24Z"/>
                  <path class="cls-36" d="M400.5,645.51s-1.76,6.98-.38,15.74c1.38,8.76-3.81,45.15-12.64,48.53-8.83,3.39-15.88,1.52-18.83-3.31-2.96-4.83,12.52-23.3,11.58-39.01-.94-15.72-1.06-22.86-1.06-22.86l21.33.91Z"/>
                  <path class="cls-20" d="M354.52,723.43s-3.44-23.98,14.37-26.98c17.81-3,31.13,3.21,31.44,29.56,0,0-20.38,31.11-45.81-2.58Z"/>
                  <path class="cls-9" d="M374.62,659.85s15.73,14.15,29.8-.46"/>
                  <path class="cls-9" d="M374.32,672.35s15.91,9.41,29.8-.46"/>
                  <path class="cls-9" d="M401.31,685.29s-17.84-.76-29.58-1.26"/>
                  <path class="cls-9" d="M397.94,700.2s-9.42-13.8-29.39-7.05"/>
                  <path class="cls-41" d="M354.21,720.29s16.38,13.55,39.98,5.46c0,0,6.18-1.3,10.54-15.54,4.36-14.24,6.37-16.44,5.56-22.12l.56-4.6s2.99,13.49,2.43,16.91c-.56,3.43-5.76,11.5-5.71,19.03.05,6.98-4.5,12.14-8.89,14.95-7.87,5.05-16.64,5.38-25.18,4.34-4.4-.54-8.86-.68-13.08-2.51-5-2.16-7.76-9.24-6.22-15.9Z"/>
                </g>
              </g>
              <g>
                <g>
                  <path class="cls-41" d="M480.65,470.91s-3.62-7.25,16.16-11.82c19.78-4.58,41.51,1.68,38.58,11.82-2.93,10.15-34.98,23.42-54.73,0Z"/>
                  <path class="cls-32" d="M511.23,270.42s35.22,63.34,27.22,138.79c-10.88,102.69-6.52,182.02-7.14,221.84-.62,39.82-6.81,60.26-6.81,60.26l-22.87,1.83s-11.08-91.9-11.08-159.74c0-49.87-30.42-147.25-26.39-199.36,4.02-52.11,47.07-63.61,47.07-63.61Z"/>
                </g>
                <g>
                  <path class="cls-41" d="M535.65,469.16s-25.07,26.47-55,1.75c0,0,2.77,13.73,3.76,21.28.99,7.55,2.55,25.22,2.55,37.33s-.47,41.4,3.32,55.66c2.82,10.65,2.57,23.63,3.1,34.76,1.19,24.87,4.65,48.79,8.25,73.19,0,0,22.86-1.83,22.87-1.83.82-.07,3.38-17.21,3.77-19.15,5.32-26.59,6.13-54.69,4.41-82-.35-5.49,1.73-43.02,1.04-49.89-.69-6.87,2.43-48.06,2.94-52.18.51-4.12-1.01-18.92-1.01-18.92Z"/>
                  <path class="cls-12" d="M534.07,481.77s-19.56,17.59-46.48,4.47"/>
                  <g>
                    <path class="cls-31" d="M535.39,503.7c-.3,4.15-.61,8.71-.88,13.18-9.7,5.41-28.92,12.53-48.01-1.19-.27-4.64-.63-9.3-1-13.42,20.02,15.16,40.37,6.96,49.9,1.42Z"/>
                    <path class="cls-36" d="M534.5,516.88c-.29,4.64-.53,9.18-.69,13.06-9.82,5.31-28.36,11.72-46.86-1.24-.02-3.97-.2-8.48-.46-13,19.09,13.71,38.31,6.6,48.01,1.19Z"/>
                    <path class="cls-31" d="M533.81,529.94c-.2,4.82-.26,8.62-.09,10.32.06.58.1,1.37.12,2.34-9.89,5.35-28.68,11.86-47.34-1.55.24-4.3.46-8.3.46-11.53,0-.27,0-.55,0-.83,18.5,12.96,37.04,6.55,46.86,1.24Z"/>
                  </g>
                </g>
                <g>
                  <path class="cls-36" d="M499.96,667l28.54,1.12.51-23.05c.16-7.26-4.14-13.31-9.62-13.53l-8.73-.34c-5.47-.21-10.04,5.49-10.2,12.75l-.51,23.05Z"/>
                  <path class="cls-21" d="M522.88,657.28c1.48-.3,2.78-1.5,3.47-3.27,1.11-2.83,3.05-6.85,5.19-6.94,3.31-.14,4.88,6.38,3.24,16.79-1.64,10.42-1.73,26.1,2.88,31.23,4.62,5.13,10.03,18.45,10.03,18.45l-2.68,13.83s-16.97,29.27-41.94,3.68l-10.02-34.06s-1.04-14.69-.48-19.73c.56-5.04.45-19.46,1.97-25.17,1.52-5.71,8.52.26,9.1,4.94.46,3.67,13.61,1.39,19.23.24Z"/>
                  <path class="cls-36" d="M502.89,650.57s1.76,6.98.38,15.74c-1.38,8.76,3.81,45.15,12.64,48.53,8.83,3.39,15.88,1.52,18.83-3.31,2.96-4.83-12.52-23.3-11.58-39.01.94-15.72,1.06-22.86,1.06-22.86l-21.33.91Z"/>
                  <path class="cls-20" d="M548.87,728.48s3.44-23.98-14.37-26.98c-17.81-3-31.13,3.21-31.44,29.56,0,0,20.38,31.11,45.81-2.58Z"/>
                  <path class="cls-9" d="M528.78,664.91s-15.73,14.15-29.8-.46"/>
                  <path class="cls-9" d="M529.08,677.4s-15.91,9.41-29.8-.46"/>
                  <path class="cls-9" d="M502.08,690.34s17.84-.76,29.58-1.26"/>
                  <path class="cls-9" d="M505.46,705.25s9.42-13.8,29.39-7.05"/>
                  <path class="cls-41" d="M549.19,725.34s-16.38,13.55-39.98,5.46c0,0-6.18-1.3-10.54-15.54-4.36-14.24-6.37-16.44-5.56-22.12l-.56-4.6s-2.99,13.49-2.43,16.91c.56,3.43,5.76,11.5,5.71,19.03-.05,6.98,4.5,12.14,8.89,14.95,7.87,5.05,16.64,5.38,25.18,4.34,4.4-.54,8.86-.68,13.08-2.51,5-2.16,7.76-9.24,6.22-15.9Z"/>
                </g>
              </g>
            </g>
            <path class="cls-41" d="M544.66,423.63c-26.74,8.76-66.97,9.96-113.71-3.94-36.44-10.83-60.13-5.13-73.28,1-.18-1.01-.37-2.03-.53-3.08,0,0-9.28-136.43,39.23-158.38l107.98-2.87s56.84,32.61,40.31,167.28Z"/>
          </g>
          <g>
            <path class="cls-31" d="M468.79,123.25s4.2,2.44,10.26,2c0,0,3.65,52.5-28.44,51.28-32.09-1.22-23.57-47.41-23.57-47.41l16.34-5.55,25.41-.32Z"/>
            <path class="cls-32" d="M450.85,165.16c-.26,0-.53,0-.8-.02-5.22-.2-8.92-1.87-11.64-5.25-5.78-7.19-5.06-24.79-4.31-32.8l10.6-2.42,24.21-1.42c1.09.45,1.91,1.03,3.65,1.42-.25,9.7-4.15,28.65-11.04,36.02-2.85,3.05-6.24,4.47-10.68,4.47Z"/>
            <path class="cls-25" d="M517.83,190.58c-12.23-10-8.89-53.72-20.38-60.46-6.77-3.97-15.19-4.83-20.96-4.87,0,0,.91,48.31-27.02,47.62-27.92-.69-22.44-43.75-22.44-43.75-9.04.92-18.23,2.91-18.23,2.91,0,0-5.46,17.41-7.76,39.64-2.3,22.23,2.12,31.44-1.72,53.67-.31,1.78-.72,3.52-1.2,5.21-.26.21-18.14,14.82-16.84,20.81,1.32,6.04-4.69,12.01-4.69,12.01,35.57,43.35,95.67,42.79,120.86,30.57,16.02-7.77,27.39-20.94,33.55-29.49,3.21-4.45,6.87-12.15,2.43-15.38-25.77-18.76-4.89-49.73-15.61-58.5Z"/>
            <path class="cls-32" d="M457.02,145.19h-.02c-10.47,1.61-19.54-7.45-17.82-17.9.16-.99.26-1.93.29-2.79.21-8.07-1.2-14.68-2.52-19.15l29.31-3.4c-.16,4.77.1,11.25,1.85,18.67.24,1.03.6,2.11,1.03,3.22,3.68,9.41-2.13,19.82-12.12,21.35Z"/>
            <path class="cls-41" d="M466.68,112.36s3.75,12.47-16.62,15.95c0,0-11.2,2.75-16.45-13.01-5.25-15.76,33.07-2.94,33.07-2.94Z"/>
          </g>
          <path class="cls-25" d="M478.67,184.86s-11.12-56.34,6.8-58.09c21.38-2.1,39.04,30.8,45.49,45.64,5.41,12.45-2.69,74.44-2.69,74.44l-49.59-61.99Z"/>
          <path class="cls-41" d="M481.66,188.19c3.6-2.87,8.47-3.78,12.76-2.1,3.73,1.46,6.32,4.64,1.75,11.5-9.15,13.73-9.37,43.08-34.4,65.76-17.94,16.25-17.61-3.73-13.71-13.58,5.63-14.23,19.13-39.67,19.13-39.67l14.48-21.91Z"/>
          <g>
            <path class="cls-20" d="M462.74,123.04s15.22,57.06,31.52,77.81c-3.31,6.37-4.41,13.98-9.37,27.09-7.32,34.23-15.2,15.38-12.34,21.57-8.56-18.49-14.71-51.69-16.62-64.45-4.17-27.85-8.84-56.37-10.85-59.05-4.01-5.35,17.66-2.97,17.66-2.97Z"/>
            <path class="cls-6" d="M447.75,135.79c-.11.19,4.71,26.83,5.56,31.67.91,5.23,3.87,24.63,3.87,24.63"/>
            <line class="cls-6" x1="466.23" y1="135.79" x2="480.97" y2="176.56"/>
          </g>
          <path class="cls-25" d="M406,195.45c-2.44,17.39-24.41,42.41-24.41,42.41,0,0-19.73-45.44-19.44-46.74.3-1.29,12.2-36.33,26.22-48.99,12.12-10.95,28.31-11.59,28.31-11.59,0,0-8.24,47.51-10.69,64.9Z"/>
          <g>
            <path class="cls-31" d="M399.17,230.31s-3.09,34.11-22.58,33.07c-19.49-1.03-22.43-25.51-22.43-25.51l45.01-7.56Z"/>
            <path class="cls-20" d="M393.95,168.5s24.24,84.36-19.76,86.85c-34.7,1.97-19.48-68.34-7.89-87.07,11.59-18.73,27.65.22,27.65.22Z"/>
            <path class="cls-41" d="M393.95,168.5s24.24,78.52-19.76,81.02c-34.7,1.97-17.92-65.26-6.33-84,11.59-18.73,26.09,2.98,26.09,2.98Z"/>
          </g>
          <path class="cls-41" d="M453.6,130.65s-4.9,2.5-7.69-2.6c-2.8-5.1,7.69-3.38,7.69-3.38v5.98Z"/>
          <path class="cls-41" d="M451.87,92.28s9.65,5.02,10.06,10.28c.42,5.26-5.8,13.81-7.98,14.96-2.18,1.16-5.14-9.2-5.14-9.2l3.07-16.05Z"/>
          <g>
            <path class="cls-39" d="M454.54,90.93v-5.13c.02-.75-.59-1.36-1.34-1.36l-67.12-.18c-.75,0-1.36.6-1.36,1.35v5.13h-.01l-.05,17.45-.05,18.59c0,.75.6,1.36,1.35,1.36l67.12.18c.75,0,1.36-.6,1.36-1.35l.06-23.74.03-12.3h0Z"/>
            <g>
              <path class="cls-37" d="M391.37,80.5h9.65v2.94c0,.46-.37.83-.83.83h-7.98c-.46,0-.83-.37-.83-.83v-2.94h0Z" transform="translate(792.17 165.86) rotate(-179.84)"/>
              <g>
                <path class="cls-27" d="M435.91,82.54h4.83v1.47c0,.23-.19.42-.42.42h-3.99c-.23,0-.42-.19-.42-.42v-1.47h0Z" transform="translate(876.42 168.15) rotate(-179.84)"/>
                <g>
                  <path class="cls-37" d="M444.3,83.12h3.39v1.03c0,.16-.13.29-.29.29h-2.8c-.16,0-.29-.13-.29-.29v-1.03h0Z" transform="translate(891.77 168.77) rotate(-179.85)"/>
                  <g>
                    <rect x="446.81" y="83.12" width=".06" height="1.33" transform="translate(893.43 168.88) rotate(-179.83)"/>
                    <rect x="447.37" y="83.12" width=".06" height="1.33" transform="translate(894.55 168.88) rotate(-179.83)"/>
                    <rect x="446.24" y="83.12" width=".06" height="1.33" transform="translate(892.3 168.87) rotate(-179.83)"/>
                    <rect x="445.68" y="83.12" width=".06" height="1.33" transform="translate(891.17 168.86) rotate(-179.83)"/>
                    <rect x="445.12" y="83.12" width=".06" height="1.33" transform="translate(890.05 168.86) rotate(-179.83)"/>
                    <rect x="444.56" y="83.12" width=".06" height="1.33" transform="translate(888.92 168.86) rotate(-179.83)"/>
                  </g>
                </g>
              </g>
            </g>
            <g>
              <g>
                <rect class="cls-14" x="445.7" y="105.51" width="7.95" height="1.43" rx=".21" ry=".21" transform="translate(899.06 213.68) rotate(-179.84)"/>
                <path class="cls-14" d="M442.78,106.92h1.96s.07-.06.11-.1v-1.21s-.06-.07-.1-.11h-1.96s-.07.06-.11.1v1.21s.06.07.1.11Z"/>
              </g>
              <path class="cls-19" d="M387.65,126.4h0c.71,0,1.28-.57,1.28-1.28l.03-9.9c0-.71-.57-1.28-1.28-1.28h0c-.71,0-1.28.57-1.28,1.28l-.03,9.9c0,.71.57,1.28,1.28,1.28Z"/>
              <rect class="cls-13" x="435.9" y="85.56" width="16.62" height="3.95" rx="1.01" ry="1.01" transform="translate(888.19 176.27) rotate(-179.84)"/>
            </g>
            <g>
              <circle class="cls-41" cx="419.58" cy="106.29" r="20.8" transform="translate(203.65 481.41) rotate(-74.29)"/>
              <circle class="cls-15" cx="421.29" cy="106.29" r="20.8" transform="translate(71.74 364.35) rotate(-50.6)"/>
              <path class="cls-42" d="M399.97,106.23c-.03,10.83,8.73,19.63,19.56,19.66,10.83.03,19.63-8.73,19.66-19.56.03-10.83-8.73-19.63-19.56-19.66-10.83-.03-19.63,8.73-19.66,19.56Z"/>
              <path d="M422.88,120.54c7.87-1.82,12.78-9.69,10.95-17.56-1.82-7.87-9.69-12.78-17.56-10.95-7.87,1.82-12.78,9.69-10.95,17.56,1.82,7.87,9.69,12.78,17.56,10.95Z"/>
            </g>
          </g>
          <g>
            <path class="cls-20" d="M464.15,97.59s-9.33-2.48-12.96-2.02c0,0-6.12,2.03-9.42,7.75-1.07,1.85-.28,4.23,1.66,5.13h0c1.42.66,3.11.34,4.19-.8l4-4.19,9.36.91,3.17-6.77Z"/>
            <path class="cls-20" d="M465.94,96.45s-10.54-9.54-13.14-9.24c-2.6.3-10.28,5.48-11.95,10.49,0,0-1.55,5.11,4.14,3.03,5.69-2.08,8.08-4.57,8.08-4.57l11.06,1.43,1.8-1.14Z"/>
            <path class="cls-20" d="M469.42,97.97s-.05-.11-.08-.18c0-.01-.01-.03-.02-.04-1.13-2.22-10.15-14.78-10.15-14.78,0,0-6.12-2.99-11.06-2.37-4.94.62-5.47,3.83-3.52,5.25,1.96,1.42,7.02,1.83,7.02,1.83,0,0,3.89,2.49,8.04,5.03.2,1.48.43,2.91.72,3.98.98,3.62-2.31,15.67-8.06,21.41-5.75,5.74-.86,11.39-.86,11.39,6.31,4.43,11.87-1.18,12.03-1.52.17-.33,6.58-28.21,5.93-30.01Z"/>
            <path class="cls-20" d="M461.22,103.4s-4.71-1.7-10.22.14c0,0-5.81,2.82-6.64,8.67,0,0-.57,4.57,3.64,2.36l4.96-4.91s4.66.77,5.11,2.7c.45,1.93,3.15-8.97,3.15-8.97Z"/>
            <g>
              <path class="cls-1" d="M445.99,108l5.38-5.21s7.52-.96,11.08,1.06"/>
              <path class="cls-1" d="M443.46,100.93l8.37-5.88s6.04.21,10.2,2.41"/>
              <polyline class="cls-1" points="451.61 87.68 453.6 87.12 462.74 93.68"/>
            </g>
          </g>
          <path class="cls-11" d="M451.79,130.03s5.44,3.59,10.67-.29"/>
          <g>
            <path class="cls-3" d="M374.2,92.05s1.25-7.39,5.87-15.45c.69-1.2,1.91-1.94,3.24-1.97,2.97-.07,8.39.11,11.87,2.04.94.52,1.38,1.67,1.06,2.72h0c-.3.99-1.19,1.65-2.18,1.61-2.35-.09-6.61-.08-9.15,1.05l-.72,6.09-9.99,3.9Z"/>
            <path class="cls-3" d="M397.15,92.42c-2.2-2.63-6.47-7.35-9.39-8.03,0,0-7.34-1.75-16.15,8.96-.19.24-.3.53-.3.84,0,2.05.44,10.7,6.35,25.92-1.23,5.81-10.28,48.52-16.64,75.99-2.24,9.68,4.18,19.24,13.99,20.82h0c10.66,1.72,20.25-6.7,19.91-17.49l-2.19-70.04h0s1.97-7.23-.64-14.46c-.44-1.23-1.02-2.56-1.65-3.91.28-.05.57-.15.86-.37,1.59-1.17.36-2.95,0-5.61-.06-.44-.2-.88-.37-1.32.88.64,2.06.65,2.97,0h0c1.03-.75,1.4-2.17.88-3.37l-1.59-3.62.87.58c1.55.6,3.33-.28,3.79-2.09.25-.97-.05-2.01-.69-2.78Z"/>
          </g>
          <g>
            <path class="cls-1" d="M497.67,188.34s9.99,8.79,20.01,19.39"/>
            <path class="cls-1" d="M452.19,271.01s27.33,8.05,45.48,6.22c11.63-1.17,24.78-18.78,30.59-30.37"/>
            <path class="cls-1" d="M487.14,141.61s-3.31,29.83,0,44.48"/>
            <path class="cls-1" d="M407.26,190.27s-2.85,42.45-8.91,49.83"/>
            <path class="cls-1" d="M411.68,159.89s-8.44,28.54-2.87,61.19"/>
            <path class="cls-1" d="M386.94,259.93s21.72,31.49,85.62,26.45"/>
            <path class="cls-1" d="M465.94,286.76s-42.63-.8-62.42-30.34"/>
          </g>
          <path class="cls-20" d="M498.64,200.81c-2.55,4.94-4.16,10.27-5.84,15.54-1.71,5.36-4.14,10.3-6.54,15.4-3.72,7.9-6.81,13.32-11.83,20.46-2.7,3.85-9.61,13.89-14.42,16.78-3.64,2.19-7.15,3.28-10.76.65-2.03-1.48-2.84-4.22-2.84-4.22,0,0,2.49,2.84,5.51,2.81,3.69-.03,6.47-3.07,7.64-4.39,15.04-16.93,19.98-26.74,19.98-26.74,10.57-21.93,8.73-23.92,13.99-35.35,1.12-2.43,5.99-7.79,4.17-12.25-.71-1.73-2.16-2.79-3.27-3.42,2.99.88,6.04,3.35,6.86,7.46.43,2.19-1.26,4.7-2.24,6.52-.13.25-.26.49-.39.74Z"/>
          <path class="cls-1" d="M393.11,96.56l-7-4.57s-5.19.94-9.54,3.52"/>
          <polyline class="cls-1" points="389.88 102.68 385.94 99.13 377.79 101.24"/>
          <path class="cls-1" d="M388.37,110.1l-2.07-3.46s-3.95-.1-6.05,1.73"/>
          <path class="cls-20" d="M411.25,94.77c0-4.68,3.14-8.48,7.02-8.48-3.88,0-7.02-3.8-7.02-8.48,0,4.68-3.14,8.48-7.02,8.48,3.88,0,7.02,3.79,7.02,8.48Z"/>
          <path class="cls-20" d="M419.41,88.4c0-1.52,1.02-2.76,2.28-2.76-1.26,0-2.28-1.23-2.28-2.76,0,1.52-1.02,2.76-2.28,2.76,1.26,0,2.28,1.23,2.28,2.76Z"/>
          <g class="cls-23">
            <g>
              <rect class="cls-43" x="171.98" y="107.24" width="1.96" height="16.57" transform="translate(228.51 315.96) rotate(-139.23)"/>
              <g>
                <g>
                  <g>
                    <path class="cls-22" d="M198.3,106.23l-16.98-1.28c-2.33-.18-4.35,1.57-4.53,3.89h0c-.18,2.33,1.57,4.35,3.89,4.53l16.98,1.28.64-8.42Z"/>
                    <path class="cls-17" d="M182.79,107.28c-2.33-.18-4.35,1.57-4.53,3.89-.03.44,0,.87.1,1.27-1.05-.84-1.68-2.17-1.57-3.61.18-2.33,2.2-4.07,4.53-3.89l16.98,1.28-.17,2.21-15.34-1.16Z"/>
                  </g>
                  <path class="cls-22" d="M186.7,102.55h0c-1.73-.13-3.23,1.16-3.36,2.89l-.62,8.15c-.13,1.73,1.16,3.23,2.89,3.36h0c1.73.13,3.23-1.16,3.36-2.89l.62-8.15c.13-1.73-1.16-3.23-2.89-3.36Z"/>
                </g>
                <g>
                  <path class="cls-43" d="M227.14,146.66s-20.19-.75-30.46-23.35c-8.77-19.29,15.06-48.84,39.18-45.74l-8.72,69.08Z"/>
                  <path class="cls-43" d="M196.68,123.32c1.58,3.47,3.39,6.41,5.32,8.93-5.26-17.1,12.22-40.38,32.42-43.25l1.44-11.41c-24.13-3.1-47.96,26.44-39.18,45.74Z"/>
                  <ellipse class="cls-40" cx="230.66" cy="112.08" rx="34.89" ry="16.9" transform="translate(85.46 323.47) rotate(-81.43)"/>
                </g>
              </g>
            </g>
            <line class="cls-10" x1="168.02" y1="120.83" x2="168.02" y2="715.51"/>
          </g>
          <rect class="cls-43" x="160.68" y="715.51" width="14.69" height="14.69"/>
          <path class="cls-20" d="M224.05,94.33c0-4.92,3.3-8.9,7.38-8.9-4.07,0-7.38-3.99-7.38-8.91,0,4.92-3.3,8.91-7.38,8.91,4.08,0,7.38,3.98,7.38,8.9Z"/>
          <g>
            <rect class="cls-30" x="260.64" y="552.49" width="75.62" height="38.21" transform="translate(243.53 -70.88) rotate(22.68)"/>
            <g>
              <rect class="cls-32" x="272.49" y="551.5" width="23.82" height="28.45" rx="1.05" ry="1.05" transform="translate(-347.24 609.95) rotate(-67.32)"/>
              <rect class="cls-32" x="302.06" y="563.86" width="23.82" height="28.45" rx="1.05" ry="1.05" transform="translate(-340.48 644.82) rotate(-67.32)"/>
            </g>
            <g>
              <rect class="cls-32" x="271.13" y="541.79" width="3.16" height="3.16" rx=".44" ry=".44" transform="translate(-333.8 585.44) rotate(-67.32)"/>
              <rect class="cls-32" x="268" y="549.28" width="3.16" height="3.16" rx=".44" ry=".44" transform="translate(-342.63 587.13) rotate(-67.31)"/>
              <rect class="cls-32" x="264.88" y="556.76" width="3.16" height="3.16" rx=".44" ry=".44" transform="translate(-351.45 588.86) rotate(-67.32)"/>
              <rect class="cls-32" x="261.75" y="564.24" width="3.16" height="3.16" rx=".44" ry=".44" transform="translate(-360.27 590.56) rotate(-67.31)"/>
              <rect class="cls-32" x="332.1" y="576.07" width="3.16" height="3.16" rx=".44" ry=".44" transform="translate(-327.97 662.73) rotate(-67.31)"/>
              <rect class="cls-32" x="328.97" y="583.55" width="3.16" height="3.16" rx=".44" ry=".44" transform="translate(-336.79 664.44) rotate(-67.31)"/>
              <rect class="cls-32" x="325.84" y="591.03" width="3.16" height="3.16" rx=".44" ry=".44" transform="translate(-345.62 666.15) rotate(-67.31)"/>
              <rect class="cls-32" x="277.54" y="544.47" width="3.16" height="3.16" rx=".44" ry=".44" transform="translate(-332.34 593) rotate(-67.32)"/>
              <rect class="cls-32" x="283.95" y="547.15" width="3.16" height="3.16" rx=".44" ry=".44" transform="translate(-330.87 600.56) rotate(-67.32)"/>
              <rect class="cls-32" x="290.36" y="549.83" width="3.16" height="3.16" rx=".44" ry=".44" transform="translate(-329.41 608.1) rotate(-67.31)"/>
              <rect class="cls-32" x="296.77" y="552.51" width="3.16" height="3.16" rx=".44" ry=".44" transform="translate(-327.94 615.66) rotate(-67.31)"/>
              <rect class="cls-32" x="303.18" y="555.19" width="3.16" height="3.16" rx=".44" ry=".44" transform="translate(-326.48 623.22) rotate(-67.31)"/>
              <rect class="cls-32" x="309.59" y="557.87" width="3.16" height="3.16" rx=".44" ry=".44" transform="translate(-325.01 630.78) rotate(-67.31)"/>
              <rect class="cls-32" x="316" y="560.55" width="3.16" height="3.16" rx=".44" ry=".44" transform="translate(-323.54 638.34) rotate(-67.31)"/>
              <rect class="cls-32" x="322.41" y="563.23" width="3.16" height="3.16" rx=".44" ry=".44" transform="translate(-322.08 645.9) rotate(-67.31)"/>
              <rect class="cls-32" x="328.82" y="565.91" width="3.16" height="3.16" rx=".44" ry=".44" transform="translate(-320.61 653.46) rotate(-67.31)"/>
              <rect class="cls-32" x="335.22" y="568.59" width="3.16" height="3.16" rx=".44" ry=".44" transform="translate(-319.15 661.02) rotate(-67.31)"/>
              <g>
                <rect class="cls-32" x="258.62" y="571.72" width="3.16" height="3.16" rx=".44" ry=".44" transform="translate(-369.1 592.28) rotate(-67.32)"/>
                <rect class="cls-32" x="265.03" y="574.4" width="3.16" height="3.16" rx=".44" ry=".44" transform="translate(-367.63 599.84) rotate(-67.32)"/>
                <rect class="cls-32" x="271.44" y="577.08" width="3.16" height="3.16" rx=".44" ry=".44" transform="translate(-366.16 607.44) rotate(-67.32)"/>
                <rect class="cls-32" x="277.85" y="579.76" width="3.16" height="3.16" rx=".44" ry=".44" transform="translate(-364.7 614.96) rotate(-67.32)"/>
                <rect class="cls-32" x="284.26" y="582.43" width="3.16" height="3.16" rx=".44" ry=".44" transform="translate(-363.23 622.52) rotate(-67.32)"/>
                <rect class="cls-32" x="290.67" y="585.11" width="3.16" height="3.16" rx=".44" ry=".44" transform="translate(-361.76 630.12) rotate(-67.32)"/>
                <rect class="cls-32" x="297.08" y="587.79" width="3.16" height="3.16" rx=".44" ry=".44" transform="translate(-360.3 637.64) rotate(-67.32)"/>
                <rect class="cls-32" x="303.49" y="590.47" width="3.16" height="3.16" rx=".44" ry=".44" transform="translate(-358.84 645.18) rotate(-67.31)"/>
                <rect class="cls-32" x="309.9" y="593.15" width="3.16" height="3.16" rx=".44" ry=".44" transform="translate(-357.37 652.74) rotate(-67.31)"/>
                <rect class="cls-32" x="316.31" y="595.83" width="3.16" height="3.16" rx=".44" ry=".44" transform="translate(-355.91 660.3) rotate(-67.31)"/>
                <rect class="cls-32" x="322.72" y="598.51" width="3.16" height="3.16" rx=".44" ry=".44" transform="translate(-354.44 667.86) rotate(-67.31)"/>
              </g>
            </g>
          </g>
          <g>
            <g>
              <path class="cls-35" d="M180.26,748.96h-8.84c-7.09,0-14.06-3.52-18.41-9.18-5.15-6.7-5.61-15.24-5.35-23.37.06-2,.16-4,.22-5.99.23-8.49-.06-17.07-.06-25.58,0,0,56.06,0,56.06,0-.4,0,0,30.09,0,32.83,0,5.25.23,10.73-1.59,15.73-3.3,9.08-12.26,15.56-22.02,15.56Z"/>
              <path class="cls-42" d="M203.47,684.99c0,2.19-10.28,2.69-12.23,2.85-9.25.78-18.63.81-27.92.24-3.78-.23-7.64-.53-11.29-1.26-1.14-.23-4.22-.73-4.22-1.82,0-1.47,5.15-2.01,6.58-2.22,9.5-1.4,19.34-1.57,29.01-1.12,4.4.2,8.98.5,13.38,1.11,1.71.24,6.68.61,6.68,2.24Z"/>
            </g>
            <path class="cls-4" d="M174.44,687.46c-.51-.02-1.02-.04-1.53-.04-.2,0-.4-.07-.55-.19-2.09-1.66-4.05-3.84-6.2-4.85-5.04-2.38-11.23-2.8-16.65-3.67-8.66-1.39-18.21-4.09-22.34-11.44-1.42-2.52-1.74-6.2.8-7.75,1.53-.92,3.5-.7,5.28-.37,2.58.46,5.14,1.05,7.66,1.77.94.27,1.58-.95.83-1.57-5.61-4.69-10.52-10.13-14.51-16.13-1.35-2.03-2.64-4.23-2.76-6.63-.13-2.4,1.25-5.04,3.69-5.68,2.55-.68,5.12.94,7.12,2.58.36.3.72.6,1.07.9.77.67,1.9-.23,1.4-1.12-5.38-9.75-9.16-20.3-11.11-31.15-1.51-8.39-1.87-17.28,1.46-25.16.15-.36.55-.42.92-.55,6.13-2.13,7.34,6.12,8.5,10.81,2.24,9.01,4.47,18.02,6.71,27.03.24.95,1.6.91,1.78-.05,1.2-6.31,2.47-12.62,3.81-18.9.44-2.06,1.07-4.37,3.01-5.39,2.52-1.33,5.85.51,6.96,3.03,1.12,2.52.68,5.39.22,8.08-.99,5.83-1.99,11.66-2.98,17.48-.15.9.95,1.43,1.58.76.01-.01.03-.03.04-.04,2.61-2.75,8.11-3.25,10.03-.03.98,1.66.74,3.69.48,5.58-.38,2.63-.76,5.27-1.13,7.9-.08.52-.58.89-1.09.78-1.91-.42-3.9-.24-5.5.8-3.65,2.35-3.5,7.46-2.53,11.54,1.9,7.96,6.54,14.64,10.37,21.73,3.35,6.2,4.14,12.57,6.08,18.78.19.6-.28,1.2-.9,1.18Z"/>
            <path class="cls-26" d="M175.93,642.12c.28.55.54,1.11.81,1.66.27-.35.52-.7.75-1.06-.46-.3-.97-.51-1.56-.6h0Z"/>
            <path d="M180.27,651.81c-.98,11.92-1.96,23.83-2.93,35.75-.07,0-.13,0-.19,0-.47,0-.94-.02-1.41-.04-2.25-6.6-2.91-13.4-6.48-20.01-3.83-7.09-8.48-13.77-10.37-21.73-.98-4.08-1.12-9.19,2.53-11.54,1.88-1.21,4.27-1.25,6.45-.55-.91,6.33-1.81,12.65-2.72,18.97,4.51-2.59,4.9-10.74,10.17-10.6.21,0,.42.02.61.06.28.55.54,1.11.81,1.66.27-.35.52-.7.75-1.06,2.46,1.6,3.06,5.84,2.79,9.08Z"/>
            <path class="cls-4" d="M245.43,617.98c-4.5,3.45-10.34,4.75-15.76,6.68-5.11,1.82-10.36,4.68-12.53,9.35-.23.49.02,1.06.53,1.24,5.19,1.95,12.08-2.35,16.9.62,4.63,2.85,2.94,10.16-1.48,13.3-4.42,3.14-10.25,3.62-15.56,5.05-17,4.58-28.52,18.86-38.45,32.95-.17.24-.43.38-.72.39,0,0,0,0-.01,0-.54,0-.97-.45-.93-.99.95-11.59,1.9-23.18,2.85-34.76.25-2.98-.24-6.78-2.21-8.63-.31-.29-.36-.78-.14-1.14,7.39-12.32-1.06-31.22,9.76-41.38.84-.79,1.86-1.53,3.05-1.61,2.43-.16,4,2.31,4.98,4.43l6.54,14.11c.36.78,1.5.67,1.71-.16,3.21-12.87,6.82-25.91,14.8-36.7,2.14-2.89,4.72-5.7,8.21-6.93,3.48-1.24,8.03-.38,9.83,2.71,1.79,3.07.35,6.86-1.12,10.08-2.26,4.97-4.51,9.93-6.77,14.89-.34.76.42,1.54,1.19,1.21,6.62-2.81,14.9-4.51,18.98.8,3.4,4.43.85,11.04-3.64,14.49Z"/>
          </g>
        </g>
      </g>
    </g>
  </g>
</svg>