<svg width="18" height="39" viewBox="0 0 18 39" fill="none" xmlns="http://www.w3.org/2000/svg">
<path d="M4.34612 4.90585C5.66312 1.64626 8.49468 0 12.8737 0H13.8286C16.4626 0 17.8125 0.197551 17.8125 0.559727V6.22285H14.0261C11.7543 6.4204 10.6019 7.50693 10.6019 9.44951V13.9932C10.6019 14.2566 10.7336 14.3554 10.9641 14.3554H17.4174V14.7175C17.0223 18.8661 16.693 20.9404 16.4626 20.9404H10.9641C10.7665 20.9404 10.6348 21.0721 10.6019 21.3355V38.9504H3.88517L3.78639 37.7981V21.566C3.58884 21.1709 3.42421 20.9733 3.22666 20.9733H0V14.3883H3.22666C3.58884 14.1907 3.78639 13.9932 3.78639 13.7956L3.58884 7.93496C3.85224 6.58503 4.08272 5.59727 4.34612 4.90585Z" fill="white"/>
</svg>
