<svg width="35" height="35" viewBox="0 0 35 35" fill="none" xmlns="http://www.w3.org/2000/svg">
<path d="M0.375984 7.27014C2.04629 2.42227 5.36693 0 10.3412 0H24.2859L26.6982 0.186329L29.0806 0.968243C32.6541 2.5354 34.4375 5.84606 34.4375 10.9002V23.717C34.4375 27.7263 33.3528 30.6011 31.1801 32.3346C30.2185 33.7354 26.5219 34.4342 20.0869 34.4342C11.6888 34.6638 6.71781 34.341 5.17062 33.4626C1.72354 31.6492 0 28.0225 0 22.5923V12.6271C0 10.5375 0.126437 8.75078 0.375984 7.27014ZM4.60498 5.5466C3.58017 5.5466 3.07109 8.73415 3.07109 15.1026V19.3316C3.07109 22.7354 3.19753 25.2841 3.44708 26.9777C4.26226 30.0288 7.0705 31.5527 11.8751 31.5527C14.7566 31.4263 17.4949 31.3664 20.0835 31.3664H25.6301C28.9308 31.3664 30.9039 29.0074 31.5527 24.2859V10.7172C31.5527 5.6198 29.1305 3.07109 24.2826 3.07109H10.9035C7.72931 3.07109 5.62978 3.89626 4.60498 5.5466ZM8.99368 14.5403C10.5409 10.4677 13.2859 8.43137 17.2354 8.43137H17.4217C19.1985 8.43137 20.9087 9.00699 22.5591 10.1549C24.9813 12.2245 26.1925 14.4471 26.1925 16.8295V17.2354C26.1925 21.4344 23.9066 24.3591 19.3316 26.0095H15.5085C10.7871 24.4024 8.42804 21.5409 8.42804 17.425C8.5944 15.7747 8.78406 14.8131 8.99368 14.5436V14.5403ZM11.4692 17.4217C11.5723 18.4864 11.7087 19.1253 11.8751 19.3349C13.023 21.8836 14.873 23.158 17.4217 23.158C20.6392 23.158 22.5491 21.1849 23.1546 17.2354C23.1546 16.5034 23.0914 16.0542 22.9683 15.8878C22.0267 12.9432 20.18 11.4692 17.4217 11.4692H17.2354C13.8515 11.4692 11.9284 13.4556 11.4692 17.4217ZM26.3854 5.92258C27.6398 5.92258 28.4118 6.69452 28.7046 8.24171C28.1622 9.51606 27.4602 10.1549 26.605 10.1549C25.7499 10.1549 25.0379 9.51939 24.4756 8.24171C24.4756 7.09379 25.1144 6.31853 26.3888 5.92258H26.3854Z" fill="white"/>
</svg>
