<svg width="34" height="32" viewBox="0 0 34 32" fill="none" xmlns="http://www.w3.org/2000/svg">
<path d="M3.97622 0C6.7948 0.387168 8.20409 1.72677 8.20409 4.01106V4.23175C7.47622 6.44248 6.13661 7.54978 4.19303 7.54978C1.81195 7.54978 0.41427 6.44248 0 4.23175V2.8844C0.925332 0.960177 2.24945 0 3.97622 0ZM0.875 10.4264H7.07356L7.51106 11.3014V31.5C7.51106 31.7904 7.36394 31.9375 7.07356 31.9375H0.875C0.631084 31.9375 0.487832 31.7904 0.4375 31.5V10.8639C0.4375 10.62 0.584624 10.4768 0.875 10.4264ZM24.1361 9.98894H26.3584C26.7727 9.98894 27.8761 10.3529 29.6764 11.0846C32.0575 13.1753 33.25 15.4712 33.25 17.9762V31.9414H26.5791C26.3352 31.9414 26.1919 31.7942 26.1416 31.5039V20.2024C26.1416 17.0896 24.891 15.5371 22.3861 15.5371C20.2218 15.5371 18.9596 17.0935 18.5957 20.2024V31.5039C18.5957 31.7942 18.4486 31.9414 18.1582 31.9414H11.9596C11.7157 31.9414 11.5725 31.7942 11.5221 31.5039V10.4264H18.5957V12.6488H19.068C20.7212 10.9491 22.4093 10.0586 24.1361 9.98894Z" fill="white"/>
</svg>
