<svg width="19" height="12" viewBox="0 0 19 12" fill="none" xmlns="http://www.w3.org/2000/svg">
<g clip-path="url(#clip0_111_186)">
<path d="M1.32123 0C1.06188 0 0.822707 0.0770398 0.619552 0.204013L8.43599 6.7524C8.79331 7.052 9.27599 7.052 9.63331 6.7524L17.4368 0.204013C17.2336 0.0770398 16.9944 0 16.7351 0H1.32123ZM0.0763633 0.878825C0.0288164 1.01293 0 1.15702 0 1.30825V10.0294C0 10.292 0.079245 10.5331 0.213241 10.7385L5.80794 5.68953L0.0763633 0.878825ZM17.98 0.878825L12.2614 5.6824L17.8416 10.7385C17.9756 10.5345 18.0549 10.292 18.0549 10.0294V1.30825C18.0549 1.15702 18.0261 1.01436 17.9785 0.878825H17.98ZM11.5871 6.25449L10.1967 7.42008C9.52381 7.98504 8.53685 7.98361 7.86398 7.42008L6.4808 6.26163L0.929327 11.2763C1.05324 11.3149 1.18435 11.3377 1.32123 11.3377H16.7351C16.872 11.3377 17.0031 11.3149 17.127 11.2763L11.5885 6.25449H11.5871Z" fill="white"/>
</g>
<defs>
<clipPath id="clip0_111_186">
<rect width="18.0563" height="11.3377" fill="white"/>
</clipPath>
</defs>
</svg>
