<svg width="20" height="22" viewBox="0 0 20 22" fill="none" xmlns="http://www.w3.org/2000/svg">
<path d="M12.9226 18.3399C11.8914 18.1869 10.9099 17.781 10.0643 17.1554C9.08274 16.4523 8.18103 15.6382 7.37639 14.7288C6.38839 13.6419 5.38098 12.5705 4.50731 11.3705C3.82132 10.4078 3.20652 9.39855 2.87 8.24068C2.63702 7.50203 2.57662 6.71902 2.69095 5.95376C2.84195 5.03988 3.31438 4.2968 3.95938 3.6735C4.22472 3.4295 4.51379 3.21212 4.82227 3.0258C5.19546 2.7818 5.67652 2.78845 6.04109 3.04576C6.89965 3.57146 7.5576 4.38109 7.90491 5.34377C8.02571 5.62104 7.99335 5.94267 7.81646 6.18445C7.60074 6.4839 7.37639 6.7767 7.15852 7.07615C6.96653 7.34232 6.76806 7.60185 6.59764 7.88134C6.4186 8.14308 6.42075 8.49355 6.60412 8.75085C7.0334 9.37194 7.4519 10.0108 7.91785 10.603C8.76348 11.681 9.70186 12.6792 10.7201 13.5886C10.9466 13.7883 11.1903 13.9657 11.4319 14.1476C11.6412 14.3162 11.9281 14.3428 12.1632 14.2164C12.4221 14.0855 12.6745 13.9391 12.9182 13.7816C13.2569 13.5598 13.5891 13.3313 13.9213 13.1117C14.1996 12.9276 14.5556 12.921 14.8425 13.094C15.6989 13.531 16.3978 14.2386 16.8357 15.1125C17.0881 15.5584 17.045 16.1196 16.7279 16.521C15.893 17.6479 14.8252 18.3444 13.4079 18.3732C13.2461 18.371 13.0865 18.3599 12.9269 18.3399H12.9226Z" fill="white"/>
</svg>
