<svg width="36" height="34" viewBox="0 0 36 34" fill="none" xmlns="http://www.w3.org/2000/svg">
<path d="M34.8688 31.7219C33.2767 29.6522 31.7642 27.5825 30.212 25.5128C27.5453 21.9705 24.9184 18.468 22.2517 14.9256C21.6148 14.0898 21.6148 13.8908 22.172 13.2539C25.0776 10.1892 27.9433 7.08469 30.809 3.98016C31.7642 2.94532 32.8389 1.95028 33.7145 0.796032C33.9135 0.557223 34.1523 0.358215 33.9135 0H30.8488C30.4906 0.23881 30.0528 0.318413 29.7344 0.676628C29.0577 1.55226 28.1821 2.30849 27.4657 3.14433C25.197 5.69163 22.8089 8.11953 20.5402 10.627C19.784 11.4231 19.5849 11.3833 18.9481 10.5474C16.6396 7.4429 14.2913 4.37818 11.9828 1.27365C11.6246 0.796032 11.2266 0.318413 10.6694 0H0.0423467C-0.0372565 0.557223 0.241355 0.99504 0.559768 1.43286C2.07223 3.50254 3.62449 5.53243 5.17676 7.60211C7.68426 10.9056 10.152 14.249 12.6595 17.5525C13.2167 18.3087 13.2167 18.5078 12.6993 19.1048C10.8286 21.1347 8.99771 23.1247 7.12704 25.1148C4.93795 27.4631 2.74886 29.8512 0.519966 32.1995C0.201553 32.5577 -0.11686 32.9159 0.0423467 33.4334H3.10707C3.38568 33.2742 3.7041 33.1547 3.94291 32.9159C5.17676 31.7219 6.2912 30.488 7.44545 29.2144C9.71414 26.7069 12.0624 24.279 14.3311 21.7715C15.0874 20.9357 15.167 20.9755 15.8436 21.8511C18.4705 25.3536 21.0974 28.8562 23.7243 32.3985C24.0825 32.8761 24.4407 33.2742 24.998 33.4732C28.3413 33.4732 31.6846 33.4732 35.028 33.4732C35.227 33.4732 35.5056 33.6324 35.625 33.314C35.3464 32.7567 35.227 32.1995 34.8688 31.7219ZM26.3512 31.1249C25.993 31.1249 25.9134 30.8463 25.7542 30.6074C20.7392 23.9208 15.7242 17.2341 10.7092 10.5474C8.87831 8.11953 7.08723 5.69163 5.25636 3.30353C5.05735 3.02492 4.85834 2.74631 4.53993 2.3483C6.09219 2.3483 7.44545 2.3881 8.7987 2.3483C9.27632 2.3483 9.55493 2.5075 9.79374 2.86572C13.8933 8.23893 17.9133 13.6122 21.973 19.0252C24.799 22.8063 27.6647 26.6273 30.4906 30.4084C30.6498 30.6074 30.7692 30.8065 31.008 31.1249C29.3761 31.1249 27.8637 31.1249 26.3512 31.1249Z" fill="white"/>
</svg>
