<svg width="38" height="27" viewBox="0 0 38 27" fill="none" xmlns="http://www.w3.org/2000/svg">
<path d="M35.6755 1.14539C37.2252 2.18972 38 5.76064 38 11.7571V14.4521C38 18.6968 37.6294 21.7961 36.8546 23.7163C36.1472 25.5018 33.7553 26.4113 29.7128 26.4113H12.3298C7.31028 26.4113 4.07624 26.1082 2.69504 25.4681C0.909574 24.4911 0 20.3812 0 13.1046V12.9025C0.202128 6.46808 0.707447 2.99823 1.51596 2.49291C1.51596 0.808511 6.90603 0 17.7199 0C28.5337 0 34.5301 0.370567 35.6755 1.14539ZM15.2269 18.1241H15.8333L24.8617 13.1046C24.6259 12.8014 21.4929 11.0496 15.3954 7.91667H15.1933V18.1241H15.2269Z" fill="white"/>
</svg>
