<svg xmlns="http://www.w3.org/2000/svg" xmlns:xlink="http://www.w3.org/1999/xlink" viewBox="0 0 872 768"><defs><style>.cls-1,.cls-27,.cls-28,.cls-3,.cls-33,.cls-38,.cls-39,.cls-47,.cls-48,.cls-53,.cls-8{fill:none;}.cls-2{isolation:isolate;}.cls-3,.cls-53{stroke:#afafaf;}.cls-17,.cls-27,.cls-28,.cls-3,.cls-38,.cls-49,.cls-53,.cls-8{stroke-miterlimit:10;}.cls-3,.cls-47,.cls-49,.cls-54,.cls-8{stroke-width:0.32px;}.cls-4{opacity:0.43;}.cls-5{fill:#efefef;}.cls-6{fill:#9f9f9f;}.cls-7{fill:#8f8f8f;}.cls-28,.cls-8{stroke:#606060;}.cls-9{fill:url(#linear-gradient);}.cls-10,.cls-43,.cls-45{mix-blend-mode:multiply;}.cls-10{fill:url(#linear-gradient-2);}.cls-11{clip-path:url(#clip-path);}.cls-12{fill:#303030;}.cls-13{fill:#dfdfdf;}.cls-14{fill:#1e1e1e;}.cls-15,.cls-17,.cls-49,.cls-54{stroke:#000;}.cls-15,.cls-33,.cls-38,.cls-39,.cls-47,.cls-48,.cls-54{stroke-linecap:round;}.cls-15,.cls-33,.cls-39,.cls-47,.cls-48,.cls-54{stroke-linejoin:round;}.cls-15{stroke-width:0.05px;fill:url(#linear-gradient-3);}.cls-16{clip-path:url(#clip-path-2);}.cls-17,.cls-37,.cls-44,.cls-49,.cls-54{fill:#fff;}.cls-17{stroke-width:0.26px;}.cls-18{fill:#1c0102;}.cls-19{opacity:0.48;}.cls-20{opacity:0.49;}.cls-21{fill:#101010;}.cls-22{opacity:0.16;}.cls-23,.cls-24,.cls-34{fill:#707070;}.cls-23{opacity:0.04;}.cls-24{opacity:0.22;}.cls-25{fill:#606060;}.cls-26{fill:#ddd;}.cls-27{stroke:#1e243b;stroke-width:0.45px;}.cls-28{stroke-width:0.91px;}.cls-29{fill:#424242;}.cls-30{opacity:0.38;fill:url(#linear-gradient-4);}.cls-31{fill:#000114;}.cls-32{fill:#f3c400;}.cls-33,.cls-39,.cls-47,.cls-48{stroke:#000114;}.cls-33{stroke-width:0.45px;}.cls-35{fill:#cfcfcf;}.cls-36{fill:#505050;}.cls-38{stroke:#fff;stroke-width:3.43px;}.cls-39{stroke-width:0.26px;}.cls-40{fill:gray;}.cls-41{fill:#b3b3b3;}.cls-42{fill:#404040;}.cls-43{fill:#f2f2f2;}.cls-44{opacity:0.45;}.cls-45,.cls-46{fill:#e6e6e6;}.cls-46{mix-blend-mode:color-burn;}.cls-48{stroke-width:0.53px;}.cls-50{opacity:0.46;}.cls-51{fill:#afafaf;}.cls-52{fill:url(#linear-gradient-5);}.cls-53{stroke-width:2.59px;}</style><linearGradient id="linear-gradient" x1="1595.37" y1="-9450.17" x2="1778.17" y2="-9450.17" gradientTransform="matrix(1, 0, 0, -1, -1038.5, -9067.81)" gradientUnits="userSpaceOnUse"><stop offset="0" stop-color="#fff"/><stop offset="1" stop-color="#999"/></linearGradient><linearGradient id="linear-gradient-2" x1="1600.13" y1="-9450.17" x2="1773.41" y2="-9450.17" xlink:href="#linear-gradient"/><clipPath id="clip-path"><rect class="cls-1" x="557.29" y="291.51" width="177.79" height="177.79" transform="translate(1192.13 894.41) rotate(-167.21)"/></clipPath><linearGradient id="linear-gradient-3" x1="4391.29" y1="893.3" x2="4383.45" y2="931.8" gradientTransform="matrix(-0.98, -0.22, -0.22, 0.98, 5139.6, 461.05)" xlink:href="#linear-gradient"/><clipPath id="clip-path-2"><path class="cls-1" d="M658.07,361.11a78.12,78.12,0,0,1,5.65-6.78c-1.22-.25-2.1-6.18-.73-7.7a29.91,29.91,0,0,1,6-5.11,3.62,3.62,0,0,1,5.2,1.42,6.36,6.36,0,0,1,.33,4.52,7.07,7.07,0,0,1-2.67,3.69c-.31.23-.7.63-.46.94a.63.63,0,0,0,.46.2c.62,0,1.29-.17,1.78.48a1.57,1.57,0,0,1,.29,1c0,.58-.26.81-.77,1.18a3.4,3.4,0,0,1-1.43.59,2.52,2.52,0,0,1-1.13,0,2,2,0,0,0-1.82.52c-1.58,1.53-2.06,4.52-1.74,6.59a3,3,0,0,0,.22.77,4.38,4.38,0,0,0,.73.88c4.82,5.34-5.27,10.28-8.88,12s-7.65,3.78-11.48,5.43a2.07,2.07,0,0,1-2.89-1.91c0-7,3.07-15.69,7-19.35a1.44,1.44,0,0,1,.74-.28C654,360,657,360.85,658.07,361.11Z"/></clipPath><linearGradient id="linear-gradient-4" x1="308.94" y1="730.01" x2="664.07" y2="730.01" gradientTransform="matrix(1, 0, 0, 1, 0, 0)" xlink:href="#linear-gradient"/><linearGradient id="linear-gradient-5" x1="250.7" y1="120.43" x2="285.29" y2="120.43" gradientTransform="translate(347.15 -162.51) rotate(81.43)" xlink:href="#linear-gradient"/></defs><g class="cls-2"><g id="Layer_1" data-name="Layer 1"><line class="cls-3" x1="220.61" y1="716.7" x2="718.59" y2="716.7"/><g class="cls-4"><rect class="cls-5" x="544.39" y="119.07" width="89.86" height="89.86" transform="translate(1024.06 -266.35) rotate(119.74)"/><rect class="cls-6" x="549.86" y="124.54" width="78.92" height="78.92" transform="translate(158.97 -270.74) rotate(29.74)"/><polygon class="cls-7" points="535.66 178.38 577.47 153.67 576.2 201.53 535.66 178.38"/><polygon class="cls-7" points="563.65 194.36 597.73 183.19 604.19 217.52 563.65 194.36"/><path class="cls-7" d="M627.82,161.75A10.29,10.29,0,1,1,624,147.7,10.3,10.3,0,0,1,627.82,161.75Z"/></g><polyline class="cls-8" points="639.15 131.26 664.08 145.45 651.61 168.11"/><rect class="cls-9" x="556.87" y="290.96" width="182.8" height="182.8" transform="translate(100.72 -134.02) rotate(12.79)"/><rect class="cls-10" x="561.63" y="295.71" width="173.28" height="173.28" transform="translate(100.72 -134.02) rotate(12.79)"/><g class="cls-11"><path d="M583.77,339.36S599,334,605.63,342l-2.79,4.35-13.34-3Z"/><path class="cls-12" d="M623.46,370.4c.51-.42,1-.85,1.46-1.27C624.43,369.55,623.94,370,623.46,370.4Z"/><path d="M682.73,439.6s5.68,14.94,14.95,16.52L701.61,445l-7.71-8.44Z"/><path d="M669.3,338.55c.79-.82,2.08-.95,3.41-1a22.32,22.32,0,0,1,8.53,1.44c3.7,1.49,5.9,3.9,7.81,7.39,4.69,8.56,6.72,18.54,7.46,28.28a104.86,104.86,0,0,1-.31,13.85c-1,5.52-4.89,1.71-10.39,1.52a27.36,27.36,0,0,1-20.88-11,17,17,0,0,1-3.18-6.87,21.54,21.54,0,0,1,.39-7.91,44.89,44.89,0,0,1,3-9.92c1-2.23,2.26-4.34,3-6.65a17,17,0,0,0,.85-3.87,3.57,3.57,0,0,0,0-1.72,2.43,2.43,0,0,1-.19-1.48C668.94,340,668.87,339,669.3,338.55Z"/><circle cx="671.12" cy="344.77" r="6.63"/><path class="cls-13" d="M602.88,332.54c-.41-1.54.64-3.07,1.79-4.16s2.51-2.1,3-3.59a4.41,4.41,0,0,0-.55-3.81,5.84,5.84,0,0,0-3.18-2.26,3.44,3.44,0,0,0-3.16.38c-.85.71-.9,2.32.1,2.79.29.13.61.16.88.31a1.47,1.47,0,0,1,.6,1.7,2.75,2.75,0,0,1-1.25,1.44,3.38,3.38,0,0,1-3.12.34,2.12,2.12,0,0,1-1.11-2.71c.59-1.19,2.46-1.52,2.7-2.84a1.79,1.79,0,0,0-.73-1.68,3.71,3.71,0,0,0-1.8-.63,5.71,5.71,0,0,0-3.9.83,3.79,3.79,0,0,0-1.72,3.47,8.91,8.91,0,0,1,1.68-6.1c.57-.77,1.27-1.43,1.84-2.19a4.56,4.56,0,0,0,1.06-2.6,2.32,2.32,0,0,0-1.44-2.25,3.05,3.05,0,0,0-1.41,0,8,8,0,0,0-4.9,2.92,7,7,0,0,0-1.38,5.49c0,.09.06.2.15.2s.07-.18,0-.12a10,10,0,0,1-.38-3.74c0-1.27-.47-2.77-1.7-3.08a2.43,2.43,0,0,0-1.36.11c-2,.7-3.07,2.89-3.25,5-.49,5.56,3.85,10.28,5.49,15.62a44.16,44.16,0,0,1,1.25,8.19c.19,1.8-.57,3.42.34,5a5.61,5.61,0,0,0,2.65,2.06c2.86,1.32,6.32,2.07,9.08.56s4-4.87,4.37-8A18.39,18.39,0,0,0,602.88,332.54Z"/><path class="cls-12" d="M613.21,408l.27,1.11c1.7,7.12,3.11,14.05,1.08,19a9.83,9.83,0,0,1-1.85,3c-3.39,3.74-4.69,8.6-1.39,12.4s5.66,2,10.49,3.38a117.11,117.11,0,0,0,17.38,3.71c5.35.72,10.88,1.07,16.11-.32.69-.19,1.37-.4,2-.65.52-.19,1-.41,1.53-.64a19.71,19.71,0,0,0,4.33-2.71c.33-.27.65-.56,1-.86a14.91,14.91,0,0,0,3.42-4.88,2,2,0,0,0,.15-.57c.25-2-2.86-3.56-4-5.64a2.49,2.49,0,0,1-.16-.33c-.14-.35-.26-.7-.36-1,0-.11-.06-.21-.09-.32-2.14-8.49,8.15-16.64,12.75-23.12.12-.16.23-.33.35-.5l0-.07a31.55,31.55,0,0,0,3.18-6.15,39.94,39.94,0,0,0,2.73-13.2,31,31,0,0,0-.33-5.51c-1.12-7.15-4.8-14.15-10.66-18.27h0a20.43,20.43,0,0,0-2.71-1.62c-.36-.17-.71-.34-1.08-.5a37.58,37.58,0,0,0-4.8-1.74c-1.24-.37-2.51-.69-3.76-1l-.65-.13c-3-.63-5.94-1.05-8.91-1.7a22.85,22.85,0,0,0-7-.78c-4.35.41-8,3.23-11.47,5.93-2,1.56-4,3.14-5.9,4.79-.46.42-.95.85-1.46,1.27-5,4.41-9.45,9.33-12,15.43C609.1,391.61,611.23,399.88,613.21,408Z"/><path class="cls-14" d="M583.77,339.36c-.1,8.68-1.31,13.5-1.79,20.64-.12,1.79-.19,3.72-.19,5.89,0,4.35.45,8.67.81,13,2.31,27.87,15.73,28.28,30.61,29.12-2-8.14-4.11-16.41-1.72-22.19,2.52-6.1,7-11,12-15.43a44.1,44.1,0,0,1-10.84,6.85,4.87,4.87,0,0,1-2.21.48c-2-.17-3.07-2.39-3.52-4.33a24,24,0,0,1-.86-6.47c-.28-7.86-.16-12.18-.24-18.33,0-2-.08-4.1-.17-6.61a20.14,20.14,0,0,1-3,.88h0c-.39.08-.78.16-1.17.22l-.43.07-.42.05-.43,0-.52.05a26,26,0,0,1-11.43-1.7l-.14-.06-.92-.38-.1,0A26.52,26.52,0,0,1,583.77,339.36Z"/><path class="cls-15" d="M658.07,361.11a78.12,78.12,0,0,1,5.65-6.78,6.68,6.68,0,0,1-3.41-1.46c-1.88-1.84.76-6.31,2.18-8.16,1.59-2.1,2.51-2.46,4.73-3.89,1.8-1.16,5.12,1,5.95,2.38a5.54,5.54,0,0,1,.9,3.95,6.33,6.33,0,0,1-2.22,4c-.31.23-.7.63-.46.94a.63.63,0,0,0,.46.2c.62,0,1.29-.17,1.78.48a1.57,1.57,0,0,1,.29,1c0,.58-.26.81-.77,1.18a3.4,3.4,0,0,1-1.43.59,2.52,2.52,0,0,1-1.13,0,2,2,0,0,0-1.82.52c-1.58,1.53-2.06,4.52-1.74,6.59a3,3,0,0,0,.22.77,4.38,4.38,0,0,0,.73.88c4.82,5.34-5.27,10.28-8.88,12s-7.71,3.81-11.55,5.46a2,2,0,0,1-2.82-1.85c0-7.06,3.06-15.77,7-19.44C652.72,359.6,656.73,360.79,658.07,361.11Z"/><g class="cls-16"><path d="M667.81,378.39s-14.16-8.59-24.12-10.23-25.94-1.75-10.38,13.45,3.52,8.13,3.52,8.13l17.68,7.94,5.72-1.39s6.66-2.93,7.45-6.88l.8-4Z"/></g><path class="cls-17" d="M598.74,463.44c.17-.83.35-1.65.54-2.47,2.77-12,7.44-23.32,15.16-32.86l.12.06c7.26,4,15.65,5.6,23.93,5.85a150.74,150.74,0,0,0,22.3-1h0c.76-.08,1.54-.18,2.31-.28l.13.25a7.58,7.58,0,0,1,.52,1.37,6.57,6.57,0,0,1-.72,4.7c-.84,1.85-1.73,3.67-.2,6.59.11.22.23.44.35.66a57.24,57.24,0,0,1,2.55,5.37c.25.62.47,1.24.67,1.87.13.39.24.78.34,1.17a22.92,22.92,0,0,1,.61,3.37,41.47,41.47,0,0,1-1.09,13,55.16,55.16,0,0,1-3,9.19.25.25,0,0,1,0,.07l0,.06c-3.46,8.41-8.8,17.23-13.6,24.57h0a53.63,53.63,0,0,1-13.79-1.4,45.88,45.88,0,0,1-18.43-8.41c-.05.19-7.71-6.37-12.56-14.68A59.55,59.55,0,0,1,598.74,463.44Z"/><path class="cls-13" d="M689.28,436.69c-2.42.41-3.54,7.77-6,7.42a5.28,5.28,0,0,1-2.93-1.87c-2.75-2.93-5-6.61-8.59-8.34a16.92,16.92,0,0,0-7.37-1.26,10.37,10.37,0,0,0-5,.94,4,4,0,0,0-2.21,4.26c.43,1.67,2.83,2.63,4,1.38-1.89,0-4.29.48-5,2.25-.57,1.48.52,3.17,1.95,3.84a9.4,9.4,0,0,0,4.66.5,10.3,10.3,0,0,0-2.9,1.06,2.15,2.15,0,0,0-1.09,2,2.74,2.74,0,0,0,1.7,1.83,9.82,9.82,0,0,0,6.24.8,14.59,14.59,0,0,1,3-.57,2.51,2.51,0,0,1,2.44,1.43c-.9.13-1.82.2-2.72.33a7.59,7.59,0,0,0-3.47,1.1,2.58,2.58,0,0,0-.92,3.23,2.89,2.89,0,0,0,3.11,1c1.13-.25,2.17-.83,3.31-1a5.37,5.37,0,0,1,4.38,1.14,16.63,16.63,0,0,0,2.23,2c1.42.78,3.7-.52,5.24-1.05,4.94-1.69,9-3.53,12.82-7.1,1.59-1.49,3.16-3.56,2.56-5.66a5.29,5.29,0,0,0-1.73-2.38C695.37,442.47,691.41,436.34,689.28,436.69Z"/><path class="cls-12" d="M671.21,365.84c7.38,3.85,12.54,6.49,18.54,12.26,8.33,8,15.35,19.22,19.54,30a45.41,45.41,0,0,1,3,10.08c1.1,8-1.89,15.92-5.07,23.32-2,4.57-9.53,14.61-9.53,14.61s-1.28-3.66-1.43-4.52c-.92-5.47-8-11.44-13.52-12,.77-4.64,4.55-9.3,5.32-13.94a10,10,0,0,0,0-3,11.21,11.21,0,0,0-5.36-8.84A102.13,102.13,0,0,1,662.84,396C656,387.81,665,374.58,671.21,365.84Z"/><path class="cls-13" d="M663.72,354.33a21.89,21.89,0,0,0,4.11.22s-3.63,3.05-6.81,2.89Z"/><path class="cls-13" d="M587.1,341.14a26.6,26.6,0,0,0,15.56,1.74,27.78,27.78,0,0,0,.9-3.75A57.05,57.05,0,0,1,587.1,341.14Z"/><path class="cls-13" d="M686.33,440.61s8.73,3.68,10,11.19a22,22,0,0,1-3.55,3S692.83,445.54,686.33,440.61Z"/><path class="cls-18" d="M601.09,320.15a2.07,2.07,0,0,1-.47-.18.3.3,0,0,1-.12-.41.3.3,0,0,1,.41-.13,1.52,1.52,0,0,0,2.08-.87.29.29,0,0,1,.38-.2.3.3,0,0,1,.21.37,2,2,0,0,1-1.2,1.29A2.15,2.15,0,0,1,601.09,320.15Z"/><path class="cls-13" d="M581.64,329.38c-1.91-1.7-4.21-3.15-5.28-5.47a6.51,6.51,0,0,1-.25-4.79c.34-1,1.17-2.05,2.23-1.91s1.5,1.14,1.71,2.07a7.45,7.45,0,0,0,.76,2.75,5.62,5.62,0,0,0,1.54,1.32,14.87,14.87,0,0,1,5.8,8.48,5.78,5.78,0,0,1,.12,2.86c-.17.61-.52,1.63-1.34,1.24s-1-1.39-1.41-2a23,23,0,0,0-1.67-2.28A21.54,21.54,0,0,0,581.64,329.38Z"/><path class="cls-13" d="M608.29,324s2.08-4.24-5.2-5.89c-5-1.13-4.56,3.22-2.67,4.81s1.11,2.47-.41,3.05.22,1.95.22,1.95A7.64,7.64,0,0,0,608.29,324Z"/><path class="cls-12" d="M682.7,442.37s8.08,11.43,4,16.57a1.91,1.91,0,0,0,2.58-.87c1.83-4.08-2.37-13-4-14.94S682.7,442.37,682.7,442.37Z"/><path class="cls-12" d="M683.67,443.58a2.31,2.31,0,0,0-.88.54c-.13.21-1.3-.34-1.16-.73s.82-2.07,2.24-1.29,1.19,1.6.82,1.94S683.67,443.58,683.67,443.58Z"/><g class="cls-19"><path d="M672,442.43c-3.37-3.08-8-3.67-12.44-3.52a.09.09,0,0,0,0,.18c4.35-.15,9,.42,12.32,3.47.08.07.21-.05.12-.13Z"/></g><g class="cls-19"><path d="M671,446.79a14.64,14.64,0,0,0-7.43-1.4c-.11,0-.11.18,0,.17a14.65,14.65,0,0,1,7.34,1.38c.1.05.19-.1.09-.15Z"/></g><g class="cls-19"><path d="M676.46,453.24a8.16,8.16,0,0,0-5-.34c-.11,0-.07.2,0,.17a8,8,0,0,1,4.89.34c.11,0,.15-.13.05-.17Z"/></g><g class="cls-19"><path d="M684.6,443.26c-.73,1-2.22.54-3.11,0a8.92,8.92,0,0,1-2.57-2.44,43.44,43.44,0,0,0-4.46-5.3.08.08,0,0,0-.12.12,32.34,32.34,0,0,1,2.84,3.13c.86,1.09,1.59,2.27,2.54,3.28a6.19,6.19,0,0,0,2.76,1.82,2.08,2.08,0,0,0,2.28-.56c.06-.09-.09-.18-.16-.09Z"/></g><g class="cls-20"><path d="M581,314.43a14.32,14.32,0,0,0,4.29,12.72c.08.08.21,0,.12-.12a14.17,14.17,0,0,1-4.24-12.55c0-.11-.15-.16-.17-.05Z"/></g><g class="cls-20"><path d="M588,312.69a12.72,12.72,0,0,0-.39,10.75c0,.1.19,0,.15-.09a12.53,12.53,0,0,1,.39-10.57c.06-.1-.1-.19-.15-.09Z"/></g><path d="M605.71,315.1a4.38,4.38,0,0,1-2.79,2.59,1.39,1.39,0,0,0-1.08,1.23c-.2,2.21-.57,6.27-.78,8.52a1.39,1.39,0,0,1-1.7,1.23l-1.43-.32a1.41,1.41,0,0,1-1.08-1.54c.17-1.34.14-3.33-1.48-3.6s-2.32,1.36-2.67,2.58a1.4,1.4,0,0,1-1.65,1l-1.52-.34a1.4,1.4,0,0,1-1-1.9l2.27-5.48a.49.49,0,0,0,0-.11,1.39,1.39,0,0,0-.28-1.35,5.3,5.3,0,0,1-1.25-2.72,2.59,2.59,0,0,1,1.8-2.93,8,8,0,0,1,2.21-.55,1.41,1.41,0,0,0,1.06-.58c.66-.92,2-2.35,3.76-2.3,2.24.07,2.54.73,4.56-.59s2.39-1.87,2.77-3.11a5,5,0,0,0-1.2-4.9,11.24,11.24,0,0,0-2.38-1.67c-.15-.18-.15-1.07.39-1s4.5,2.05,5.54,4.4,2,6.81-2.62,10.29c-1,.72-2.58,1.82-2.81,2.61s-.34,1.25-.11,1.35a2.52,2.52,0,0,0,2.32-.9c.92-1,.61-1.63.92-1.66S605.91,314.41,605.71,315.1Z"/><path d="M609,315a2.51,2.51,0,0,0-1.59-3.15,2.29,2.29,0,1,1,4.39,1A2.53,2.53,0,0,0,609,315Z"/><path class="cls-21" d="M607.84,315.27a.46.46,0,0,0-.29-.57.45.45,0,0,0,.5-.39.5.5,0,0,1-.21,1Z"/><path class="cls-1" d="M615.92,502.28c.16-1.13.38-2.45.65-3.9h0v0c.18-1.05.4-2.17.64-3.35.83-4.17,1.91-9,3-13.94h0c.35-1.48.69-3,1-4.42.64-2.73,1.29-5.39,1.9-7.89,2-8.29,3.66-14.62,3.66-14.62"/><ellipse class="cls-22" cx="593.43" cy="326.45" rx="1.72" ry="8.19" transform="translate(143.71 832.89) rotate(-77.21)"/><path class="cls-17" d="M620.41,481.06h-.15c.54.81-.74,6.41-2.82,14.11a45.88,45.88,0,0,0,18.43,8.41,53.66,53.66,0,0,0,13.8,1.4q2.05-.08,4.05-.33c5.14-12.62,9-22.85,9.55-24.24l0-.06a.25.25,0,0,0,0-.07v0h-.39"/><path d="M671.7,354.36a1.08,1.08,0,0,0,0,1.36s-.73.16-1-.12.57-1.33.68-1.34S671.7,354.29,671.7,354.36Z"/><path class="cls-17" d="M656.31,440.14s-14.68,3.15-28.17-.05"/><path class="cls-17" d="M636.52,434.45s-1.37,3.88-.78,6.83"/><path d="M676.5,409q-3.64-4.53-7-9.28c-.1-.13-.33,0-.23.14,2.28,3.17,4.64,6.29,7.08,9.33.11.13.3-.05.19-.19Z"/><path d="M645.84,381.32a3.15,3.15,0,0,0-2.13,2.27c0,.16.22.23.25.07a2.89,2.89,0,0,1,1.95-2.08c.16-.05.09-.31-.07-.26Z"/><path d="M624.72,463.12a13.76,13.76,0,0,1-1.16,4.26,40.57,40.57,0,0,0-2.69,12.22c0,.17.25.17.27,0a40.56,40.56,0,0,1,1.5-8.68c.39-1.37.88-2.7,1.39-4a12.31,12.31,0,0,0,1-3.77c0-.17-.26-.17-.27,0Z"/><path d="M658.74,446.31c-2.2,3.17-2.33,7.28-1.66,11a22.59,22.59,0,0,0,5,10.52c.11.13.3-.06.19-.19a22.26,22.26,0,0,1-4.89-10.05c-.73-3.71-.66-7.9,1.56-11.11.1-.14-.13-.27-.22-.13Z"/><path d="M664.11,466.91a11.31,11.31,0,0,1-4.31-7c0-.16-.28-.09-.25.07a11.55,11.55,0,0,0,4.43,7.13c.13.1.26-.13.13-.23Z"/></g><polyline class="cls-8" points="730.91 474.62 724.96 502.67 699.58 497.68"/><path class="cls-23" d="M375,516.17c0-77.85,52.25-140.88,116.7-140.88C427.22,375.29,375,312.2,375,234.4c0,77.8-52.26,140.89-116.73,140.89C322.71,375.3,375,438.33,375,516.17Z"/><path class="cls-24" d="M406.66,114.28c0-18.67,12.53-33.79,28-33.79-15.46,0-28-15.13-28-33.79,0,18.66-12.54,33.79-28,33.79C394.12,80.49,406.66,95.61,406.66,114.28Z"/><path class="cls-25" d="M463.09,97s20.2-13.16,24.81-12.64c2.05.23,5.68,6.79,7.26,14.25-7.47,8.84-18.57,12.95-28.4,9.51a10.35,10.35,0,0,1-3.42-2.22A32.89,32.89,0,0,1,463.09,97Z"/><path class="cls-26" d="M493.65,81.18s7.14-6.54,11.83-2.58S502,92.94,493.66,88.09Z"/><path class="cls-26" d="M477.17,57.78a31.37,31.37,0,0,0-6.61.45c-21.33,3.91-16.26,27.9-10.33,38.54,6.09,10.9,19.9,11.27,28.65,6.36C499.31,97.28,504.55,58.65,477.17,57.78Z"/><path class="cls-26" d="M460.21,84.74c.42-1.74-.37-4.74-2.29-6.92-2.17-2.46-5.14-3.53-9.09-1.57-4.58,2.27-2.15,10.52,3.76,13A5.48,5.48,0,0,0,460,85.52Z"/><path d="M465.62,110.23c-2.72,6.23-7.4,6.43-12.24,6.43s-7.22-5.7-10.48-3.34-5.59-3-7-6-3.41-11-2.45-12.45,2.49-2.82,1-5.79c-1.93-3.89-4.42-4.45-2-7.85s7.86-.47,8.23-4.68c.47-5.36-5.86-6.92-3.93-10.81s7.1-1.34,12.41-5.56c4.59-3.64-1.36-5.35-.39-11.19s8-10.89,13.81-11.38,4.69-8.59,12.94-11.34c11.55-3.85,19.18-3.93,21.18-4.41,15.66-3.77,10.91-3.35,15.26-3.84,5.75,2.15,9.71,6.85,11.16,4.42s5-10.76,12.49-8.36c6,2-1.5,9.67-3.92,12.1-4.08,2.74-7.16,3.43-9.95,3s2.94,1.91,4.13,2.32,11.56-5.94,16.75-5.94,5.35,3.52,12,3.52c4.77,0,3.62-6.22,8.26-5.14,5.92,1.37-2.24,8.74-6.63,12S545,32.79,542.76,39.44c-1.94,5.87,7.28.59,10.88,3s6.51,8.94,8.11,8.94,8.4-1.66,9.6-2.47,1.89-6.67,3.42-4.1c2.8,4.69.66,8-2.54,10.37s-7.82-.56-11.28,4.91c-2.9,4.59,5.23,1.13,6.82,6.35s-.83,9,1.57,9,8.65-3,7.62.48c-1.91,6.4-6,5.07-10,9.09s-12.27,9.15-15.07,8.35-7-7.92-9.19-4.17c-2.07,3.47,4.11,7.32,6.11,7.72s7.87-7.14,10.11-3c2.31,4.28-5.64,6.19-7.64,6.59s-4.4-2.93-7.43-.53-.2,5.77-2.2,7.37-10.24-1.25-7.23,1.62c3.9,3.74,7.43.89,10.23,1.29s8.33-3.11,8.45,1.76c.13,5-6.12,3.93-7.71,4.74s-11.83,2.21-15.42,3-24.73-3.64-27.13-4.85c-.34-.17-1.81,1.4-2.22,1.1-3.73-2.72-4-8.08-4-12.72-.5-2.9-4.22-2.59-3.78-5.5.63-4.24,4-1.9,4.25-7,5.48-2.76,5.43,1.72,6-10.09-.85-3.06-4.83-1-6.43-2.63s.5-6.09-3.2-10.22c-4.16-4.64-8-2.89-10.83-5.3s-1.87-4.73-5.32-5.15c-6.13-.74-9.58,2-12,4.4s-6.2,2.17-8.71,14.83c-3.49,4-6.68-1.2-6.23,5.26.3,4.37.43,7.61,4.42,8,4.85,2.71,2.71,2.7,7.67,8.23,1.06,1.18,3,2,2.82,3.62C466.82,105.73,467.21,106.6,465.62,110.23Z"/><path class="cls-27" d="M575.33,44.47s-2.88,8-3.83,9.77-11.75,5.1-11.75,5.1l-3.55-.18s-2.37,4-5.84,4.92-6.3-2.86-8.83-1.91-3.63,4.92-6.47,5.4-5.36-3.49-5.36-3.49-3.63,6.19-6.62,6.66-6.47-4.28-9-4.28-8.68,6.19-11.68,5.71-6.46-4.44-9-4.34S487,66.62,483.17,64.4c-2.31-1.36-3.79-4.29-4.59-6.38a6.61,6.61,0,0,0-3.5-3.71c-2-.86-4.48-1.62-5.67-.63-2.12,1.76-4.52,8.63-4.52,8.63"/><path class="cls-27" d="M433.48,95s1.34,13.16,4.56,13.16,1.69-3,3.65-3.67,1.82,2.26,3.5-.14-1.26-5.22,1.69-5.64,3.73,6.46,7.85,6.21c3.84-.24,4.84-2.79,6.22-5.66"/><ellipse class="cls-28" cx="452.66" cy="91.87" rx="3.79" ry="4.4"/><ellipse class="cls-28" cx="501.59" cy="91.29" rx="4" ry="4.4"/><path class="cls-29" d="M448.35,104.51c.53,2.6-2.15,4.08-4.08,5L441,111.14a7.16,7.16,0,0,0-2.53,1.67c-1.36,1.61-1.5,4-1.48,6.06,0,2.32.38,4.64.19,7a8.66,8.66,0,0,1-2.65,6c-.22.19.1.51.32.32,3.36-2.86,2.87-7.7,2.65-11.64-.13-2.38-.34-5.57,1.36-7.5a9.43,9.43,0,0,1,3.12-1.88c1.11-.54,2.23-1.07,3.33-1.63,1.94-1,4-2.7,3.51-5.15,0-.28-.49-.16-.43.12Z"/><path class="cls-29" d="M498.9,97.3c-.57,4.07-1.14,8.41.67,12.26a9.17,9.17,0,0,0,3.24,3.84,12.8,12.8,0,0,0,5.45,1.56c2,.24,4.93.22,5.72,2.51.68,2,.33,4.25.45,6.31a8.16,8.16,0,0,0,1.69,4.92,8.36,8.36,0,0,0,4,2.54c4.41,1.36,8.85-.59,12.8-2.43.27-.12,0-.51-.23-.39-3.57,1.67-7.56,3.48-11.59,2.6a8.34,8.34,0,0,1-4.35-2.32,7.8,7.8,0,0,1-1.85-5.25,28.06,28.06,0,0,0-.34-5.72c-.45-1.76-1.78-2.53-3.48-2.85-1.87-.35-3.8-.38-5.64-.87a7.88,7.88,0,0,1-4.56-3.15c-2.76-3.94-2.14-9-1.51-13.44,0-.29-.4-.41-.44-.12Z"/><ellipse class="cls-7" cx="480.67" cy="424.4" rx="89.26" ry="10.37"/><ellipse class="cls-30" cx="486.5" cy="730.01" rx="177.56" ry="37.99"/><path class="cls-31" d="M457.81,470s3.57-7.16-16-11.68-41,1.65-38.12,11.68S438.29,493.16,457.81,470Z"/><path class="cls-26" d="M427.59,271.9S393.05,335.68,401,410.23c10.76,101.47,6.18,178.67,6.8,218s6.72,59.54,6.72,59.54l22.61,1.81S448,598.79,448,531.76c0-49.28,36.63-146.69,32.65-198.18S427.59,271.9,427.59,271.9Z"/><path class="cls-32" d="M417.62,504.49c-.69-.81-1.79-.09-1.73,1.14.36,7,2.25,22.3,12,22.3,5.79,0,10.22-5.43,13.31-11.31,2-3.84-.82-9-4.17-7.47C431.41,511.63,424.2,512.17,417.62,504.49Z"/><path class="cls-31" d="M403.46,468.29s24.77,26.15,54.35,1.73c0,0-2.74,13.57-3.72,21a352,352,0,0,0-2.52,36.88c0,12,.46,40.91-3.27,55-2.79,10.52-2.54,23.35-3.07,34.35-1.18,24.57-4.59,48.2-8.15,72.32l-22.61-1.81c-.8-.06-3.34-17-3.72-18.92-5.26-26.27-6.06-54-4.37-81,.35-5.43-1.7-42.52-1-49.3s-2.4-47.49-2.9-51.56S403.46,468.29,403.46,468.29Z"/><path class="cls-33" d="M405,480.75s19.33,17.39,45.93,4.42"/><path class="cls-34" d="M403.72,502.42c.29,4.09.6,8.6.87,13,9.58,5.35,28.58,12.38,47.44-1.17.27-4.59.62-9.19,1-13.26C433.24,516,413.14,507.89,403.72,502.42Z"/><path class="cls-35" d="M404.59,515.44c.28,4.58.52,9.07.68,12.9,9.71,5.25,28,11.58,46.31-1.22,0-3.93.19-8.38.45-12.85C433.17,527.82,414.17,520.79,404.59,515.44Z"/><path class="cls-34" d="M405.27,528.34a96,96,0,0,1,.09,10.2c-.06.57-.09,1.36-.12,2.32,9.78,5.28,28.34,11.71,46.79-1.53-.24-4.25-.46-8.2-.46-11.4,0-.26,0-.54,0-.81C433.3,539.92,415,533.59,405.27,528.34Z"/><path class="cls-35" d="M438.72,663.78l-28.21,1.11-.5-22.78c-.16-7.17,4.09-13.16,9.5-13.37l8.62-.34c5.41-.21,9.92,5.43,10.08,12.6Z"/><path class="cls-36" d="M416.08,654.18a4.93,4.93,0,0,1-3.43-3.23c-1.09-2.8-3-6.77-5.13-6.86-3.27-.14-4.83,6.3-3.21,16.59s1.72,25.79-2.85,30.87-9.9,18.23-9.9,18.23l2.64,13.67s16.77,28.92,41.45,3.63l9.9-33.66s1-14.52.47-19.5-.44-19.23-1.94-24.87-8.42.27-9,4.89C434.63,657.57,421.63,655.31,416.08,654.18Z"/><path class="cls-35" d="M435.82,647.54a42.9,42.9,0,0,0-.38,15.55c1.37,8.66-3.76,44.61-12.49,48s-15.69,1.5-18.61-3.27,12.37-23,11.45-38.55-1.05-22.59-1.05-22.59Z"/><path class="cls-37" d="M390.39,724.54s-3.4-23.7,14.19-26.67,30.76,3.17,31.07,29.21C435.65,727.08,415.51,757.83,390.39,724.54Z"/><path class="cls-38" d="M410.25,661.71s15.54,14,29.44-.45"/><path class="cls-38" d="M410,674.06s15.72,9.3,29.45-.45"/><path class="cls-38" d="M436.62,686.85l-29.23-1.25"/><path class="cls-38" d="M433.29,701.58s-9.31-13.65-29-7"/><path class="cls-31" d="M390.07,721.43s16.19,13.39,39.51,5.39c0,0,6.11-1.29,10.42-15.35s6.29-16.25,5.5-21.86l.55-4.55s3,13.32,2.41,16.71-5.7,11.36-5.65,18.8c.05,6.89-4.45,12-8.78,14.77-7.78,5-16.45,5.32-24.88,4.29-4.35-.53-8.75-.68-12.93-2.48C391.28,735,388.55,728,390.07,721.43Z"/><path class="cls-31" d="M515,475s-3.57-7.16,16-11.68S572,465,569.1,475,534.53,498.15,515,475Z"/><path class="cls-26" d="M545.23,276.89S580,339.48,572.13,414c-10.75,101.47-6.44,179.86-7.06,219.21s-6.72,59.54-6.72,59.54l-22.6,1.81s-11-90.8-11-157.84c0-49.28-30-145.51-26.08-197S545.23,276.89,545.23,276.89Z"/><path class="cls-31" d="M569.36,473.28S544.59,499.43,515,475c0,0,2.74,13.57,3.72,21a352,352,0,0,1,2.52,36.89c0,12-.46,40.9,3.27,55,2.79,10.52,2.54,23.35,3.07,34.35,1.18,24.58,4.59,48.21,8.16,72.32l22.6-1.81c.8-.06,3.34-17,3.72-18.92,5.26-26.27,6.06-54,4.37-81-.34-5.43,1.7-42.51,1-49.3s2.4-47.49,2.9-51.56S569.36,473.28,569.36,473.28Z"/><path class="cls-33" d="M567.8,485.74s-19.33,17.39-45.93,4.42"/><path class="cls-34" d="M569.1,507.41c-.29,4.1-.6,8.6-.87,13-9.58,5.35-28.58,12.38-47.44-1.17-.27-4.59-.62-9.19-1-13.26C539.58,521,559.68,512.88,569.1,507.41Z"/><path class="cls-35" d="M568.23,520.43c-.28,4.59-.52,9.07-.68,12.9-9.7,5.25-28,11.58-46.31-1.22,0-3.93-.19-8.38-.45-12.85C539.65,532.81,558.65,525.78,568.23,520.43Z"/><path class="cls-34" d="M567.55,533.33a96,96,0,0,0-.09,10.2c.06.57.09,1.36.12,2.32-9.78,5.29-28.34,11.71-46.79-1.53.24-4.25.46-8.2.46-11.39,0-.27,0-.55,0-.82C539.52,544.91,557.85,538.58,567.55,533.33Z"/><path class="cls-35" d="M534.1,668.78l28.21,1.1.51-22.78c.15-7.17-4.1-13.16-9.51-13.37l-8.62-.34c-5.41-.21-9.92,5.43-10.08,12.6Z"/><path class="cls-36" d="M556.74,659.17a4.93,4.93,0,0,0,3.43-3.23c1.09-2.79,3-6.77,5.13-6.86,3.27-.14,4.83,6.3,3.21,16.6s-1.72,25.78,2.85,30.86,9.9,18.23,9.9,18.23l-2.64,13.67s-16.77,28.92-41.45,3.63l-9.9-33.66s-1-14.51-.47-19.5.44-19.22,1.94-24.86,8.42.26,9,4.88C538.19,662.56,551.19,660.31,556.74,659.17Z"/><path class="cls-35" d="M537,652.53a42.9,42.9,0,0,1,.38,15.55c-1.37,8.66,3.76,44.61,12.49,48s15.69,1.5,18.61-3.27-12.37-23-11.45-38.55,1.05-22.59,1.05-22.59Z"/><path class="cls-37" d="M582.43,729.53s3.4-23.69-14.19-26.66-30.76,3.16-31.07,29.2C537.17,732.07,557.31,762.82,582.43,729.53Z"/><path class="cls-38" d="M562.57,666.7s-15.54,14-29.44-.45"/><path class="cls-38" d="M562.87,679.05s-15.72,9.3-29.45-.45"/><path class="cls-38" d="M536.2,691.84l29.23-1.25"/><path class="cls-38" d="M539.53,706.57s9.31-13.64,29-7"/><path class="cls-31" d="M582.75,726.42s-16.19,13.39-39.51,5.39c0,0-6.11-1.28-10.42-15.35s-6.29-16.25-5.5-21.86l-.55-4.55s-2.95,13.33-2.41,16.71,5.7,11.36,5.65,18.8c0,6.9,4.45,12,8.78,14.77,7.78,5,16.45,5.32,24.88,4.29,4.35-.53,8.76-.68,12.93-2.48C581.54,740,584.27,733,582.75,726.42Z"/><path class="cls-31" d="M578.27,428.29c-26.42,8.65-66.17,9.85-112.36-3.89-36-10.7-59.42-5.07-72.42,1-.18-1-.36-2-.52-3.05,0,0-9.17-134.82,38.77-156.51L538.44,263S594.6,295.21,578.27,428.29Z"/><path class="cls-34" d="M503.3,131.47a19.07,19.07,0,0,0,10.14,2s3.6,51.88-28.11,50.67S462,137.28,462,137.28l16.15-5.49Z"/><path class="cls-26" d="M485.57,172.88l-.79,0c-5.16-.19-8.81-1.84-11.5-5.18-5.71-7.11-5-24.5-4.25-32.42l10.47-2.38,23.93-1.41a17.29,17.29,0,0,0,3.6,1.41c-.24,9.58-4.1,28.3-10.91,35.59A13.53,13.53,0,0,1,485.57,172.88Z"/><path class="cls-25" d="M551.76,198c-12.08-9.89-8.78-53.09-20.13-59.74-6.69-3.92-15-4.77-20.72-4.81,0,0,.9,47.73-26.69,47.05S462,137.28,462,137.28c-8.93.9-18,2.87-18,2.87a221.58,221.58,0,0,0-7.67,39.18c-2.28,22,2.09,31.06-1.7,53a52.7,52.7,0,0,1-1.19,5.14c-.26.22-17.93,14.65-16.64,20.57s-4.63,11.87-4.63,11.87c35.15,42.83,94.53,42.28,119.43,30.2,15.82-7.68,27.06-20.68,33.15-29.14,3.17-4.4,6.79-12,2.4-15.2C541.72,237.26,562.36,206.66,551.76,198Z"/><path class="cls-26" d="M491.67,153.15h0a15.44,15.44,0,0,1-17.6-17.69,20.17,20.17,0,0,0,.28-2.76,61.2,61.2,0,0,0-2.49-18.92l29-3.37a70,70,0,0,0,1.83,18.45,23.88,23.88,0,0,0,1,3.19A15.5,15.5,0,0,1,491.67,153.15Z"/><path class="cls-31" d="M501.21,120.71s3.71,12.32-16.42,15.76c0,0-11.07,2.72-16.26-12.85S501.21,120.71,501.21,120.71Z"/><path class="cls-25" d="M513.06,192.35s-11-55.66,6.72-57.4c21.12-2.07,38.57,30.43,44.94,45.1,5.35,12.3-2.66,73.56-2.66,73.56Z"/><path class="cls-31" d="M516,195.64a12.81,12.81,0,0,1,12.61-2.08c3.69,1.44,6.24,4.58,1.72,11.37-9,13.56-9.26,42.56-34,65-17.73,16.06-17.4-3.68-13.55-13.41,5.56-14.07,18.9-39.2,18.9-39.2Z"/><path class="cls-37" d="M497.32,131.26s15,56.39,31.15,76.89c-3.27,6.29-4.36,13.82-9.26,26.77-7.23,33.83-15,15.2-12.19,21.32-8.46-18.27-14.54-51.08-16.43-63.69-4.12-27.52-8.74-55.7-10.72-58.35C475.91,128.91,497.32,131.26,497.32,131.26Z"/><path class="cls-39" d="M482.51,143.86c-.11.19,4.65,26.51,5.49,31.3.9,5.17,3.82,24.33,3.82,24.33"/><line class="cls-39" x1="500.77" y1="143.86" x2="515.33" y2="184.14"/><path class="cls-25" d="M441.25,202.82c-2.41,17.18-24.12,41.91-24.12,41.91s-19.5-44.91-19.21-46.18,12.06-35.9,25.91-48.41c12-10.82,28-11.46,28-11.46S443.66,185.63,441.25,202.82Z"/><path class="cls-34" d="M434.51,237.26s-3.06,33.7-22.31,32.68S390,244.73,390,244.73Z"/><path class="cls-37" d="M429.35,176.18S453.3,259.54,409.83,262c-34.29,1.95-19.25-67.52-7.8-86S429.35,176.18,429.35,176.18Z"/><path class="cls-31" d="M429.35,176.18s23.95,77.59-19.52,80.06c-34.29,1.94-17.71-64.49-6.26-83S429.35,176.18,429.35,176.18Z"/><path class="cls-31" d="M488.29,138.78a5.61,5.61,0,0,1-7.6-2.57c-2.76-5,7.6-3.33,7.6-3.33Z"/><path class="cls-31" d="M486.58,100.87s9.54,5,9.95,10.16-5.73,13.64-7.89,14.79-5.09-9.09-5.09-9.09Z"/><path class="cls-40" d="M489.22,99.53V94.46a1.34,1.34,0,0,0-1.34-1.34l-66.32-.18a1.33,1.33,0,0,0-1.34,1.33l0,5.07h0l0,17.24,0,18.38a1.33,1.33,0,0,0,1.33,1.34l66.33.18a1.34,1.34,0,0,0,1.34-1.34l.06-23.45,0-12.16Z"/><path class="cls-41" d="M426.8,89.23h9.54a0,0,0,0,1,0,0v2.9a.83.83,0,0,1-.83.83h-7.87a.83.83,0,0,1-.83-.83v-2.9a0,0,0,0,1,0,0Z" transform="translate(862.89 183.37) rotate(-179.84)"/><path class="cls-42" d="M470.81,91.24h4.77a0,0,0,0,1,0,0v1.45a.42.42,0,0,1-.42.42h-3.93a.42.42,0,0,1-.42-.42V91.24A0,0,0,0,1,470.81,91.24Z" transform="translate(946.14 185.63) rotate(-179.84)"/><path class="cls-41" d="M479.1,91.81h3.35a0,0,0,0,1,0,0v1a.29.29,0,0,1-.29.29H479.4a.29.29,0,0,1-.29-.29v-1A0,0,0,0,1,479.1,91.81Z" transform="translate(961.3 186.24) rotate(-179.85)"/><rect x="481.58" y="91.82" width="0.06" height="1.31" transform="translate(962.94 186.35) rotate(-179.83)"/><rect x="482.13" y="91.82" width="0.06" height="1.31" transform="translate(964.05 186.35) rotate(-179.83)"/><rect x="481.02" y="91.82" width="0.06" height="1.31" transform="translate(961.83 186.35) rotate(-179.83)"/><rect x="480.46" y="91.81" width="0.06" height="1.31" transform="translate(960.71 186.34) rotate(-179.83)"/><rect x="479.91" y="91.81" width="0.06" height="1.31" transform="translate(959.6 186.34) rotate(-179.83)"/><rect x="479.35" y="91.81" width="0.06" height="1.31" transform="translate(958.49 186.33) rotate(-179.83)"/><rect class="cls-43" x="480.49" y="113.94" width="7.85" height="1.41" rx="0.21" transform="translate(968.51 230.61) rotate(-179.84)"/><path class="cls-43" d="M477.6,115.34h1.93l.11-.11V114l-.1-.11H477.6l-.11.11v1.2Z"/><path class="cls-44" d="M423.12,134.58h0a1.26,1.26,0,0,0,1.27-1.26l0-9.79a1.26,1.26,0,0,0-1.26-1.27h0a1.28,1.28,0,0,0-1.27,1.27l0,9.78A1.26,1.26,0,0,0,423.12,134.58Z"/><rect class="cls-45" x="470.8" y="94.22" width="16.42" height="3.9" rx="1.01" transform="translate(957.76 193.65) rotate(-179.84)"/><circle class="cls-31" cx="454.67" cy="114.71" r="20.55" transform="translate(221.14 521.34) rotate(-74.29)"/><circle class="cls-46" cx="456.36" cy="114.71" r="20.55" transform="translate(78.04 394.53) rotate(-50.6)"/><path class="cls-21" d="M435.29,114.65a19.38,19.38,0,1,0,19.44-19.32A19.39,19.39,0,0,0,435.29,114.65Z"/><path d="M457.94,128.8A14.46,14.46,0,1,0,440.58,118,14.47,14.47,0,0,0,457.94,128.8Z"/><path class="cls-37" d="M498.71,106.12s-9.21-2.45-12.81-2a18.61,18.61,0,0,0-9.31,7.65,3.62,3.62,0,0,0,1.64,5.07h0a3.62,3.62,0,0,0,4.14-.78l4-4.15,9.25.9Z"/><path class="cls-37" d="M500.49,105s-10.42-9.43-13-9.13-10.15,5.42-11.8,10.37c0,0-1.53,5,4.1,3s8-4.52,8-4.52l10.93,1.41Z"/><path class="cls-37" d="M503.92,106.49s0-.11-.08-.18l0,0c-1.12-2.19-10-14.61-10-14.61s-6.05-3-10.93-2.33-5.41,3.78-3.48,5.18,6.94,1.81,6.94,1.81,3.85,2.46,7.95,5a31,31,0,0,0,.72,3.94c1,3.58-2.28,15.48-8,21.15a8.09,8.09,0,0,0-.85,11.26c6.23,4.38,11.73-1.17,11.89-1.5S504.56,108.27,503.92,106.49Z"/><path class="cls-37" d="M495.82,111.85a16.73,16.73,0,0,0-10.1.14s-5.74,2.79-6.56,8.57c0,0-.57,4.51,3.6,2.34l4.9-4.86s4.6.77,5,2.67S495.82,111.85,495.82,111.85Z"/><path class="cls-47" d="M480.77,116.4l5.32-5.15s7.43-.94,11,1"/><path class="cls-47" d="M478.27,109.41l8.27-5.8s6,.2,10.08,2.38"/><polyline class="cls-47" points="486.32 96.32 488.29 95.77 497.32 102.25"/><path class="cls-48" d="M486.5,138.17s5.38,3.55,10.54-.29"/><path class="cls-49" d="M409.83,100.64a51.69,51.69,0,0,1,5.8-15.27,3.81,3.81,0,0,1,3.2-1.94c2.93-.07,8.29.1,11.73,2a2.3,2.3,0,0,1,1.05,2.69h0a2.17,2.17,0,0,1-2.15,1.59c-2.32-.09-6.54-.07-9,1l-.72,6Z"/><path class="cls-49" d="M432.51,101c-2.17-2.6-6.4-7.26-9.29-7.94,0,0-7.25-1.73-16,8.86a1.31,1.31,0,0,0-.29.83c0,2,.43,10.57,6.27,25.61-1.22,5.74-10.16,47.95-16.44,75.08A17,17,0,0,0,410.63,224h0a17,17,0,0,0,19.67-17.29l-2.16-69.2h0a26.35,26.35,0,0,0-.63-14.29c-.44-1.22-1-2.53-1.63-3.87a2,2,0,0,0,.84-.36c1.58-1.16.36-2.92,0-5.55a4.89,4.89,0,0,0-.37-1.3,2.48,2.48,0,0,0,2.94,0h0a2.76,2.76,0,0,0,.86-3.33l-1.57-3.58.86.57a2.83,2.83,0,0,0,3.75-2.06A3.16,3.16,0,0,0,432.51,101Z"/><path class="cls-47" d="M531.83,195.79s9.87,8.68,19.78,19.16"/><path class="cls-47" d="M486.89,277.48s27,7.95,44.94,6.14c11.5-1.16,24.49-18.55,30.23-30"/><path class="cls-47" d="M521.43,149.61s-3.27,29.48,0,43.95"/><path class="cls-47" d="M442.5,197.69s-2.82,41.95-8.8,49.24"/><path class="cls-47" d="M446.87,167.68s-8.34,28.2-2.84,60.46"/><path class="cls-47" d="M422.42,266.53s21.46,31.11,84.6,26.14"/><path class="cls-47" d="M500.49,293s-42.12-.79-61.69-30"/><path class="cls-37" d="M532.8,208.11c-2.52,4.88-4.11,10.15-5.77,15.36a125.21,125.21,0,0,1-6.47,15.22,123.17,123.17,0,0,1-11.69,20.21c-2.67,3.8-9.5,13.72-14.25,16.58-3.6,2.17-7.06,3.24-10.63.64a8.91,8.91,0,0,1-2.81-4.17s2.46,2.8,5.45,2.78c3.65,0,6.39-3,7.55-4.34C509,253.66,513.92,244,513.92,244c10.44-21.66,8.63-23.63,13.82-34.93,1.1-2.4,5.93-7.7,4.12-12.1a7.19,7.19,0,0,0-3.23-3.38,9.57,9.57,0,0,1,6.77,7.37c.43,2.16-1.24,4.65-2.22,6.45Z"/><path class="cls-47" d="M428.52,105.1l-6.91-4.52a32.82,32.82,0,0,0-9.43,3.48"/><polyline class="cls-47" points="425.33 111.14 421.43 107.63 413.38 109.72"/><path class="cls-47" d="M423.83,118.48l-2-3.42s-3.9-.1-6,1.71"/><path class="cls-37" d="M446.44,103.32c0-4.62,3.11-8.37,6.94-8.37-3.83,0-6.94-3.75-6.94-8.38,0,4.63-3.1,8.38-6.94,8.38C443.34,95,446.44,98.7,446.44,103.32Z"/><path class="cls-37" d="M454.51,97a2.52,2.52,0,0,1,2.25-2.72,2.53,2.53,0,0,1-2.25-2.73,2.53,2.53,0,0,1-2.26,2.73A2.52,2.52,0,0,1,454.51,97Z"/><g class="cls-50"><rect class="cls-51" x="210.01" y="115.65" width="1.94" height="16.37" transform="translate(289.89 355.39) rotate(-139.23)"/><path class="cls-6" d="M236,114.65l-16.78-1.27a4.17,4.17,0,0,0-4.47,3.85h0a4.15,4.15,0,0,0,3.84,4.47L235.39,123Z"/><path class="cls-7" d="M220.7,115.69a4.18,4.18,0,0,0-4.48,3.85,4.08,4.08,0,0,0,.1,1.26,4.18,4.18,0,0,1,2.92-7.42L236,114.65l-.17,2.19Z"/><path class="cls-6" d="M224.55,111h0a3.09,3.09,0,0,0-3.32,2.85l-.61,8a3.09,3.09,0,0,0,2.85,3.32h0a3.09,3.09,0,0,0,3.32-2.85l.61-8A3.09,3.09,0,0,0,224.55,111Z"/><path class="cls-51" d="M264.52,154.61s-19.95-.74-30.11-23.07c-8.67-19.07,14.88-48.26,38.72-45.2Z"/><path class="cls-51" d="M234.41,131.54a45,45,0,0,0,5.26,8.82c-5.2-16.9,12.07-39.9,32-42.74l1.42-11.28C249.29,83.28,225.74,112.47,234.41,131.54Z"/><ellipse class="cls-52" cx="267.99" cy="120.43" rx="34.48" ry="16.7" transform="translate(108.97 367.49) rotate(-81.43)"/><line class="cls-53" x1="206.1" y1="129.07" x2="206.1" y2="716.7"/></g><rect class="cls-51" x="198.84" y="716.7" width="14.51" height="14.51"/><path class="cls-37" d="M261.46,102.9c0-4.87,3.27-8.8,7.29-8.8-4,0-7.29-3.94-7.29-8.8,0,4.86-3.26,8.8-7.29,8.8C258.2,94.1,261.46,98,261.46,102.9Z"/><rect class="cls-23" x="297.62" y="555.62" width="74.72" height="37.75" transform="translate(247.48 -84.75) rotate(22.68)"/><rect class="cls-26" x="309.33" y="554.64" width="23.53" height="28.11" rx="1.05" transform="translate(-327.44 645.63) rotate(-67.32)"/><rect class="cls-26" x="338.55" y="566.86" width="23.53" height="28.11" rx="1.05" transform="translate(-320.76 680.09) rotate(-67.32)"/><rect class="cls-26" x="307.98" y="545.05" width="3.12" height="3.12" rx="0.44" transform="translate(-314.16 621.41) rotate(-67.32)"/><rect class="cls-26" x="304.89" y="552.44" width="3.12" height="3.12" rx="0.44" transform="translate(-322.88 623.09) rotate(-67.31)"/><rect class="cls-26" x="301.8" y="559.84" width="3.12" height="3.12" rx="0.44" transform="translate(-331.6 624.79) rotate(-67.32)"/><rect class="cls-26" x="298.71" y="567.23" width="3.12" height="3.12" rx="0.44" transform="translate(-340.32 626.47) rotate(-67.31)"/><rect class="cls-26" x="368.23" y="578.92" width="3.12" height="3.12" rx="0.44" transform="translate(-308.4 697.79) rotate(-67.31)"/><rect class="cls-26" x="365.14" y="586.31" width="3.12" height="3.12" rx="0.44" transform="translate(-317.12 699.48) rotate(-67.31)"/><rect class="cls-26" x="362.05" y="593.7" width="3.12" height="3.12" rx="0.44" transform="translate(-325.84 701.17) rotate(-67.31)"/><rect class="cls-26" x="314.32" y="547.7" width="3.12" height="3.12" rx="0.44" transform="translate(-312.71 628.88) rotate(-67.32)"/><rect class="cls-26" x="320.65" y="550.35" width="3.12" height="3.12" rx="0.44" transform="translate(-311.26 636.35) rotate(-67.32)"/><rect class="cls-26" x="326.98" y="552.99" width="3.12" height="3.12" rx="0.44" transform="translate(-309.82 643.81) rotate(-67.31)"/><rect class="cls-26" x="333.32" y="555.64" width="3.12" height="3.12" rx="0.44" transform="translate(-308.37 651.28) rotate(-67.31)"/><rect class="cls-26" x="339.65" y="558.29" width="3.12" height="3.12" rx="0.44" transform="translate(-306.92 658.75) rotate(-67.31)"/><rect class="cls-26" x="345.98" y="560.93" width="3.12" height="3.12" rx="0.44" transform="translate(-305.47 666.22) rotate(-67.31)"/><rect class="cls-26" x="352.32" y="563.58" width="3.12" height="3.12" rx="0.44" transform="translate(-304.02 673.69) rotate(-67.31)"/><rect class="cls-26" x="358.65" y="566.23" width="3.12" height="3.12" rx="0.44" transform="translate(-302.58 681.16) rotate(-67.31)"/><rect class="cls-26" x="364.98" y="568.88" width="3.12" height="3.12" rx="0.44" transform="translate(-301.13 688.63) rotate(-67.31)"/><rect class="cls-26" x="371.32" y="571.52" width="3.12" height="3.12" rx="0.44" transform="translate(-299.68 696.1) rotate(-67.31)"/><rect class="cls-26" x="295.62" y="574.62" width="3.12" height="3.12" rx="0.44" transform="translate(-349.04 628.17) rotate(-67.32)"/><rect class="cls-26" x="301.96" y="577.27" width="3.12" height="3.12" rx="0.44" transform="translate(-347.59 635.64) rotate(-67.32)"/><rect class="cls-26" x="308.29" y="579.91" width="3.12" height="3.12" rx="0.44" transform="translate(-346.14 643.15) rotate(-67.32)"/><rect class="cls-26" x="314.62" y="582.56" width="3.12" height="3.12" rx="0.44" transform="translate(-344.69 650.58) rotate(-67.32)"/><rect class="cls-26" x="320.96" y="585.21" width="3.12" height="3.12" rx="0.44" transform="translate(-343.24 658.05) rotate(-67.32)"/><rect class="cls-26" x="327.29" y="587.86" width="3.12" height="3.12" rx="0.44" transform="translate(-341.79 665.56) rotate(-67.32)"/><rect class="cls-26" x="333.62" y="590.5" width="3.12" height="3.12" rx="0.44" transform="translate(-340.35 672.99) rotate(-67.32)"/><rect class="cls-26" x="339.96" y="593.15" width="3.12" height="3.12" rx="0.44" transform="translate(-338.9 680.45) rotate(-67.31)"/><rect class="cls-26" x="346.29" y="595.8" width="3.12" height="3.12" rx="0.44" transform="translate(-337.45 687.92) rotate(-67.31)"/><rect class="cls-26" x="352.62" y="598.45" width="3.12" height="3.12" rx="0.44" transform="translate(-336 695.39) rotate(-67.31)"/><rect class="cls-26" x="358.96" y="601.09" width="3.12" height="3.12" rx="0.44" transform="translate(-334.55 702.86) rotate(-67.31)"/><path class="cls-13" d="M218.2,749.76h-8.74a23.3,23.3,0,0,1-18.19-9.07c-5.09-6.62-5.55-15.06-5.29-23.09.07-2,.16-4,.21-5.92.23-8.39-.06-16.87-.06-25.28h55.4c-.4,0,0,29.73,0,32.44,0,5.18.23,10.6-1.57,15.55A23.53,23.53,0,0,1,218.2,749.76Z"/><path class="cls-21" d="M241.13,686.55c0,2.17-10.16,2.65-12.09,2.82a192.44,192.44,0,0,1-27.59.23,83.78,83.78,0,0,1-11.15-1.25c-1.13-.23-4.17-.73-4.17-1.8,0-1.45,5.09-2,6.5-2.2a151.51,151.51,0,0,1,28.67-1.11c4.35.2,8.88.49,13.23,1.1C236.22,684.57,241.13,684.94,241.13,686.55Z"/><path class="cls-54" d="M212.44,689l-1.52,0a.81.81,0,0,1-.54-.19c-2.06-1.63-4-3.79-6.13-4.79-5-2.35-11.09-2.77-16.45-3.63-8.56-1.37-18-4.05-22.08-11.3-1.39-2.5-1.71-6.13.79-7.66,1.51-.91,3.46-.68,5.22-.37,2.55.46,5.08,1,7.57,1.75a.89.89,0,0,0,.81-1.55,75.57,75.57,0,0,1-14.34-15.94c-1.34-2-2.6-4.18-2.73-6.55s1.24-5,3.65-5.62,5.06.93,7,2.56c.35.29.71.59,1.05.89a.9.9,0,0,0,1.39-1.11,100.69,100.69,0,0,1-11-30.78c-1.49-8.29-1.85-17.07,1.44-24.86.15-.36.54-.42.91-.54,6.05-2.11,7.25,6,8.4,10.68l6.63,26.71a.9.9,0,0,0,1.76,0q1.77-9.36,3.76-18.68c.44-2,1.06-4.32,3-5.33,2.49-1.31,5.78.5,6.88,3s.68,5.33.22,8l-2.94,17.28a.9.9,0,0,0,1.56.75l0,0c2.58-2.72,8-3.22,9.91,0,1,1.63.74,3.65.47,5.51q-.55,3.9-1.12,7.8a.9.9,0,0,1-1.07.77,7.17,7.17,0,0,0-5.44.79c-3.61,2.33-3.46,7.37-2.5,11.4,1.87,7.87,6.46,14.47,10.25,21.48,3.31,6.12,4.1,12.41,6,18.55A.9.9,0,0,1,212.44,689Z"/><path class="cls-12" d="M213.91,644.19c.27.54.53,1.09.79,1.64a12.57,12.57,0,0,0,.75-1.05,3.93,3.93,0,0,0-1.54-.59Z"/><path d="M218.2,653.76q-1.44,17.65-2.9,35.33h-.18l-1.39,0c-2.22-6.52-2.88-13.24-6.41-19.77-3.79-7-8.38-13.61-10.25-21.48-1-4-1.11-9.07,2.5-11.4a7.49,7.49,0,0,1,6.37-.53q-1.35,9.38-2.69,18.74c4.46-2.55,4.84-10.61,10.05-10.47a3,3,0,0,1,.61.06l.8,1.64c.26-.34.51-.69.74-1.05C217.88,646.37,218.47,650.55,218.2,653.76Z"/><path class="cls-54" d="M282.59,620.33c-4.44,3.41-10.22,4.7-15.57,6.6-5,1.8-10.23,4.63-12.38,9.25a.9.9,0,0,0,.52,1.22c5.13,1.93,11.93-2.32,16.7.62,4.57,2.81,2.9,10-1.47,13.14s-10.12,3.57-15.37,5c-16.79,4.53-28.19,18.63-38,32.55a.87.87,0,0,1-.72.38h0a.92.92,0,0,1-.92-1l2.82-34.35c.25-2.94-.23-6.7-2.18-8.53a.91.91,0,0,1-.14-1.13c7.3-12.17-1-30.85,9.65-40.89a5.11,5.11,0,0,1,3-1.59c2.4-.16,4,2.29,4.92,4.38l6.46,13.94a.9.9,0,0,0,1.69-.17c3.17-12.71,6.74-25.59,14.62-36.26,2.11-2.86,4.67-5.63,8.11-6.85s7.94-.37,9.71,2.68.34,6.78-1.11,10L266.25,604a.9.9,0,0,0,1.18,1.2c6.54-2.78,14.72-4.46,18.75.79C289.55,610.39,287,616.92,282.59,620.33Z"/></g></g></svg>