<svg width="749" height="982" viewBox="0 0 749 982" fill="none" xmlns="http://www.w3.org/2000/svg">
<path d="M454.402 712.629C544.441 712.629 617.432 677.272 617.432 633.657C617.432 590.042 544.441 554.685 454.402 554.685C364.364 554.685 291.373 590.042 291.373 633.657C291.373 677.272 364.364 712.629 454.402 712.629Z" fill="#8F8F8F"/>
<g opacity="0.51">
<path d="M490.438 416.533C490.438 301.461 567.677 208.285 662.958 208.285C567.677 208.285 490.438 115.007 490.438 0C490.438 115.007 413.18 208.285 317.871 208.285C413.17 208.295 490.438 301.47 490.438 416.533Z" fill="#CFCFCF"/>
</g>
<path d="M105.805 900.648L110.891 954.873C110.984 955.907 110.434 956.894 109.503 957.341L101.595 961.169C100.375 961.765 98.8943 961.262 98.2889 960.042C97.2551 957.965 94.1908 958.319 93.6506 960.573L92.9521 963.47C92.7379 964.345 92.0766 965.035 91.2197 965.277L35.3553 981.203C35.1318 981.269 34.9083 981.297 34.6754 981.297H2.48679C1.11766 981.297 0 980.188 0 978.81V974.637C0 973.724 0.502947 972.886 1.30394 972.448L21.6826 961.393C22.0365 961.207 22.3346 960.936 22.5581 960.601L64.014 899.474C64.4797 898.795 65.2434 898.385 66.0724 898.385H103.337C104.622 898.385 105.693 899.363 105.814 900.639L105.805 900.648Z" fill="black"/>
<path d="M680.273 727.979C649.425 730.698 617.926 724.383 590.897 709.109C564.837 694.384 544.142 671.509 530.87 644.769C523.623 630.155 518.631 614.182 516.61 597.976C516.219 594.828 514.198 592.108 510.742 592.108C507.874 592.108 504.484 594.809 504.875 597.976C508.861 629.979 522.338 660.062 543.201 684.632C564.39 709.584 593.198 727.178 624.902 735.206C642.924 739.77 661.748 741.344 680.264 739.714C683.421 739.435 686.131 737.218 686.131 733.846C686.131 730.885 683.44 727.699 680.264 727.979H680.273Z" fill="#EAEAEA"/>
<path d="M743.142 839.894C681.895 832.266 619.538 829.109 558.44 839.745C505.965 848.882 454.991 869.112 411.803 900.499C399.667 909.319 387.95 918.894 377.285 929.465C367.022 939.645 358.406 951.93 358.565 966.963C358.648 974.507 370.384 974.525 370.3 966.963C370.17 955.097 377.537 945.736 385.584 937.764C394.507 928.925 404.156 920.738 414.206 913.222C434.668 897.91 456.993 885.141 480.427 874.979C531.42 852.859 586.996 844.597 642.292 844.597C676.017 844.597 709.678 847.466 743.133 851.629C746.281 852.021 749.001 848.649 749.001 845.762C749.001 842.269 746.29 840.285 743.133 839.894H743.142Z" fill="#EAEAEA"/>
<path d="M285.691 859.276L282.599 925.283C282.589 925.553 282.543 925.814 282.468 926.074L278.035 941.153C277.783 942.01 277.196 942.737 276.405 943.156L270.938 946.071C269.848 946.649 269.168 947.785 269.168 949.024V951.632C269.168 953.476 270.667 954.975 272.512 954.975H307.131C308.137 954.975 309.087 954.519 309.73 953.736L320.767 940.148C321.027 939.831 321.223 939.468 321.344 939.086L339.273 884.637C339.609 883.631 339.441 882.523 338.826 881.666L338.435 881.116C336.87 878.9 338.454 875.845 341.164 875.845C342.403 875.845 343.548 875.156 344.126 874.057L348.065 866.559C350.943 861.092 349.714 854.376 345.094 850.278L313.343 822.141C311.807 820.772 309.404 821.117 308.305 822.849L286.203 857.636C285.886 858.13 285.709 858.689 285.681 859.276H285.691Z" fill="black"/>
<path d="M338.158 245.885C338.158 245.885 356.013 239.664 383.74 243.547C383.74 243.547 359.124 250.859 338.158 245.885Z" fill="black"/>
<path d="M304.637 258.207C304.637 258.207 276.808 264.662 261.002 355.611L304.637 258.207Z" fill="#808080"/>
<path d="M153.967 424.979C153.967 424.979 211.927 405.42 268.825 383.747V437.255C268.825 437.255 222.74 459.636 167.993 466.212L153.967 424.979Z" fill="#808080"/>
<path d="M267.362 883.343C261.727 883.343 256.409 880.605 253.14 876.032C211.609 817.886 75.2266 624.232 63.7241 573.798C59.0671 553.354 61.4329 537.055 70.7746 525.347C86.0493 506.189 115.118 505.956 115.416 505.956L141.597 506.44L167.862 610.355L168.132 610.42C204.316 619.613 259.426 690.053 299.28 747.529C327.315 787.951 320.497 842.772 283.428 875.035L278.818 879.04C275.642 881.807 271.572 883.334 267.371 883.334L267.362 883.343Z" fill="white"/>
<path d="M115.408 506.43L141.235 506.905L167.342 610.205L167.481 610.745L168.022 610.885C204.066 620.04 259.092 690.397 298.909 747.807C326.804 788.034 320.023 842.585 283.131 874.699L278.521 878.713C275.429 881.405 271.47 882.895 267.372 882.895C261.886 882.895 256.708 880.232 253.523 875.779C212.011 817.643 75.6563 624.054 64.1816 573.713C59.5527 553.418 61.8997 537.249 71.1391 525.663C86.1809 506.793 114.793 506.449 115.408 506.449M115.417 505.499C115.417 505.499 47.6868 505.499 63.2782 573.909C74.818 624.529 211.787 818.928 252.768 876.301C256.289 881.228 261.803 883.808 267.372 883.808C271.526 883.808 275.717 882.374 279.126 879.403L283.737 875.388C320.955 842.995 327.791 787.81 299.673 747.267C260.163 690.294 204.699 619.239 168.254 609.972L141.971 505.983L115.426 505.489L115.417 505.499Z" fill="black"/>
<path d="M456.992 493.987C461.593 449.541 440.683 270.175 440.683 270.175C440.683 270.175 447.845 260.256 431.425 249.862C423.108 244.59 413.3 242.168 403.465 242.671L331.897 246.341C314.145 247.254 297.66 255.776 286.623 269.7C280.783 277.067 274.953 285.617 271.05 294.27C260.479 317.713 237.697 475.527 237.697 490.028C237.697 491.835 237.884 493.679 238.275 495.533C238.275 495.533 238.275 515.064 273.583 530.311C300.864 542.083 413.142 545.641 447.78 515.092C450.891 512.791 453.713 509.708 455.417 505.554C456.721 502.36 457.383 498.55 457.001 493.996L456.992 493.987Z" fill="black"/>
<path d="M339.118 255.096C338.447 257.518 343.076 238.201 348.599 209.486L375.982 211.694C375.982 211.694 381.468 239.021 382.883 255.059C382.883 255.059 349.558 262.51 339.127 255.105L339.118 255.096Z" fill="#333333"/>
<path d="M372.086 174.329L342.359 177.433L346.262 214.811L375.988 211.707L372.086 174.329Z" fill="#333333"/>
<path d="M349.082 225.041C346.306 225.041 341.398 224.212 339.61 218.651C335.521 205.901 342.199 180.846 343.019 177.866C344.583 177.652 346.102 177.54 347.545 177.54C354.614 177.54 360.035 180.111 363.658 185.187C369.125 192.843 369.265 205.137 366.629 212.812C364.003 220.468 355.639 225.031 349.082 225.031V225.041Z" fill="white"/>
<path d="M347.544 178.015C354.455 178.015 359.754 180.521 363.275 185.466C368.649 193.001 368.789 205.109 366.19 212.672C363.629 220.123 355.479 224.585 349.081 224.585C346.436 224.585 341.751 223.793 340.056 218.521C336.116 206.246 342.291 182.337 343.39 178.304C344.824 178.118 346.221 178.025 347.544 178.025M347.544 177.084C346.017 177.084 344.387 177.205 342.654 177.457C342.654 177.457 334.738 205.007 339.171 218.801C340.67 223.476 344.601 225.516 349.081 225.516C356.094 225.516 364.467 220.552 367.066 212.98C371.052 201.374 369.338 177.093 347.544 177.093V177.084Z" fill="black"/>
<path d="M345.516 225.023C345.516 225.023 354.475 227.472 362.001 222.489C362.001 222.489 359.924 237.457 343.42 235.147L345.516 225.013V225.023Z" fill="#1A1A1A"/>
<path d="M350.451 493.978H177.642C177.642 493.978 111.607 493.978 102.563 571.189C95.6242 630.397 55.3884 812.529 41.3804 875.109C38.6515 887.31 45.4692 899.623 57.2512 903.786L87.0089 914.292C114.792 924.109 144.941 907.633 151.703 878.946C166.801 814.876 222.283 727.187 220.318 666.349C219.768 649.23 233.534 635.073 250.662 635.166C250.662 635.166 427.327 622.164 448.824 575.25C467.749 533.943 457.001 493.978 457.001 493.978H350.46H350.451Z" fill="white" stroke="black" stroke-width="2.14056" stroke-linecap="round" stroke-linejoin="round"/>
<path d="M337.132 252.34L338.157 245.886C338.157 245.886 358.656 249.732 383.739 243.548L385.08 251.874C385.341 253.504 384.344 255.069 382.761 255.535C374.863 257.817 351.96 263.424 338.892 256.075C337.579 255.339 336.89 253.83 337.123 252.34H337.132Z" fill="#999999"/>
<path d="M438.458 362.103C438.057 362.335 436.139 359.634 433.67 355.22C431.286 350.768 428.389 344.574 426.163 337.905C421.441 324.624 419.681 309.749 419.429 306.536C419.02 303.332 417.874 289.324 419.634 276.266C421.031 263.162 425.13 251.463 425.856 251.715C427.02 252.069 423.826 263.776 422.82 276.601C421.451 289.389 422.429 303.053 422.82 306.192C423.071 309.34 424.934 323.813 429.218 336.89C431.23 343.466 433.791 349.631 435.682 354.242C437.657 358.805 438.933 361.832 438.458 362.103Z" fill="black"/>
<path d="M339.33 275.829C338.883 276.36 337.84 275.764 337.421 274.637C336.974 273.538 337.225 272.327 337.281 272.085C337.318 271.842 337.57 270.706 338.352 269.933C339.097 269.113 340.178 268.946 340.392 269.495C340.709 270.259 340.373 270.771 340.168 271.302C339.917 271.805 339.693 272.392 339.665 272.541C339.638 272.69 339.572 273.351 339.619 273.985C339.628 274.609 339.824 275.27 339.321 275.829H339.33Z" fill="black"/>
<path d="M336.994 294.075C336.547 294.606 335.504 294.01 335.085 292.883C334.638 291.784 334.889 290.564 334.945 290.331C334.982 290.089 335.234 288.952 336.016 288.179C336.761 287.36 337.842 287.192 338.056 287.741C338.373 288.505 338.037 289.017 337.832 289.548C337.581 290.051 337.357 290.638 337.33 290.787C337.302 290.936 337.236 291.597 337.283 292.231C337.292 292.855 337.488 293.516 336.985 294.075H336.994Z" fill="black"/>
<path d="M335.102 312.144C334.655 312.675 333.611 312.079 333.192 310.952C332.745 309.853 332.997 308.633 333.053 308.4C333.09 308.158 333.341 307.022 334.124 306.249C334.869 305.429 335.949 305.261 336.163 305.811C336.48 306.575 336.145 307.087 335.94 307.618C335.688 308.121 335.465 308.707 335.437 308.856C335.409 309.005 335.344 309.667 335.39 310.3C335.4 310.924 335.595 311.585 335.092 312.144H335.102Z" fill="black"/>
<path d="M343.858 178.025C342.628 181.341 339.471 182.794 344.417 184.731C346.941 185.718 352.073 183.948 356.562 183.604C360.707 183.287 365.96 184.619 368.791 183.129C371.091 181.918 373.429 182.924 374.528 187.115C375.348 190.235 374.277 194.231 374.528 196.615C375.115 202.213 371.995 205.734 373.55 202.669C376.456 196.941 375.152 197.91 375.86 190.729C376.251 186.808 375.376 183.101 374.5 178.677C373.513 173.694 372.507 171.999 369.108 170.294C364.861 168.161 360.846 166.792 357.847 167.137C355.267 167.435 351.728 168.376 348.664 170.276C345.301 172.362 343.951 175.436 343.858 178.016V178.025Z" fill="black"/>
<path d="M337.822 212.513C337.971 213.119 338.139 213.687 338.316 214.227C338.046 211.917 337.822 210.632 337.822 210.632V212.513Z" fill="black"/>
<path d="M368.073 190.486C368.296 197.35 368.25 207.828 366.126 211.33C362.959 216.527 343.913 231.029 338.324 214.227C338.566 216.341 338.855 219.312 339.051 222.963C339.47 230.768 341.156 235.099 352.127 234.28C363.099 233.46 369.74 223.643 369.721 213.268C369.721 209.058 370.196 198.077 370.504 191.455C369.647 191.222 368.836 190.896 368.082 190.477L368.073 190.486Z" fill="black"/>
<path d="M371.704 195.217C371.704 195.217 374.582 198.43 375.113 203.469V192.246L370.559 193.252L371.704 195.217Z" fill="black"/>
<path d="M369.181 183.659C369.181 183.659 373.195 180.175 376.287 183.789C378.839 186.77 376.772 194.351 367.952 193.783C367.952 193.783 365.986 188.884 369.181 183.649V183.659Z" fill="#333333"/>
<path d="M341.677 181.209C341.677 181.209 340.987 178.322 342.673 176.161L342.338 178.639L341.677 181.209Z" fill="black"/>
<path d="M452.819 391.003C452.819 391.003 436.203 356.933 434.154 350.507C434.154 350.507 440.776 409.072 454.403 410.888L452.81 391.003H452.819Z" fill="black"/>
<path d="M335.188 479.326C335.188 479.326 399.881 481.049 457.562 468.681L457.655 478.777C457.655 478.777 394.06 483.508 335.188 479.326Z" fill="black"/>
<path d="M622.425 961.457H610.653C601.208 961.457 591.913 956.772 586.12 949.228C579.265 940.296 578.641 928.924 578.995 918.092C579.079 915.428 579.209 912.765 579.284 910.101C579.591 898.785 579.2 887.356 579.2 876.021H653.887C653.347 876.021 653.887 916.118 653.887 919.759C653.887 926.754 654.195 934.056 651.773 940.725C647.377 952.823 635.437 961.457 622.435 961.457H622.425Z" fill="#DFDFDF"/>
<path d="M653.348 876.217C653.348 879.141 639.648 879.793 637.049 880.017C624.717 881.05 612.218 881.088 599.849 880.333C594.811 880.026 589.66 879.625 584.808 878.647C583.29 878.34 579.191 877.669 579.191 876.217C579.191 874.261 586.056 873.534 587.956 873.255C600.613 871.392 613.727 871.168 626.618 871.755C632.476 872.025 638.586 872.416 644.444 873.227C646.726 873.543 653.348 874.046 653.348 876.207V876.217Z" fill="#101010"/>
<path d="M614.667 879.505C613.988 879.477 613.308 879.459 612.628 879.449C612.358 879.449 612.097 879.356 611.892 879.189C609.116 876.981 606.499 874.075 603.64 872.725C596.934 869.558 588.682 868.99 581.454 867.835C569.924 865.991 557.192 862.387 551.697 852.598C549.806 849.235 549.387 844.336 552.758 842.278C554.789 841.049 557.425 841.347 559.79 841.775C563.227 842.39 566.636 843.181 569.998 844.131C571.256 844.485 572.103 842.874 571.097 842.036C563.618 835.796 557.08 828.531 551.762 820.549C549.955 817.848 548.25 814.914 548.083 811.719C547.915 808.525 549.75 805.013 553.001 804.147C556.4 803.244 559.818 805.395 562.491 807.593C562.976 807.984 563.451 808.385 563.916 808.795C564.941 809.68 566.44 808.497 565.788 807.305C558.617 794.312 553.578 780.257 550.979 765.802C548.977 754.625 548.483 742.778 552.926 732.282C553.131 731.797 553.652 731.713 554.146 731.546C562.314 728.705 563.926 739.705 565.472 745.945C568.452 757.951 571.423 769.956 574.413 781.962C574.73 783.228 576.546 783.172 576.788 781.896C578.39 773.486 580.085 765.085 581.864 756.712C582.451 753.964 583.289 750.881 585.878 749.521C589.241 747.752 593.665 750.201 595.155 753.564C596.654 756.917 596.068 760.735 595.453 764.33C594.13 772.098 592.808 779.857 591.485 787.624C591.28 788.826 592.752 789.524 593.59 788.64C593.609 788.621 593.627 788.602 593.637 788.584C597.111 784.914 604.441 784.243 606.993 788.537C608.306 790.744 607.98 793.455 607.626 795.97C607.123 799.481 606.62 802.983 606.117 806.494C606.015 807.193 605.354 807.686 604.664 807.537C602.122 806.979 599.477 807.221 597.334 808.608C592.473 811.738 592.668 818.546 593.972 823.976C596.496 834.575 602.69 843.479 607.794 852.933C612.255 861.194 613.317 869.679 615.897 877.95C616.148 878.751 615.524 879.552 614.695 879.515L614.667 879.505Z" fill="white" stroke="black" stroke-width="1.07028" stroke-linecap="round" stroke-linejoin="round"/>
<path d="M616.648 819.104C617.021 819.839 617.366 820.575 617.719 821.311C618.073 820.855 618.409 820.379 618.725 819.904C618.12 819.504 617.431 819.225 616.648 819.104Z" fill="#303030"/>
<path d="M622.434 832.014C621.13 847.885 619.826 863.774 618.522 879.645C618.438 879.645 618.355 879.645 618.271 879.645C617.647 879.635 617.023 879.617 616.399 879.589C613.409 870.797 612.515 861.734 607.755 852.923C602.651 843.479 596.458 834.575 593.934 823.967C592.63 818.527 592.434 811.728 597.296 808.599C599.792 806.988 602.987 806.932 605.883 807.872C604.673 816.301 603.462 824.73 602.26 833.15C608.268 829.704 608.789 818.835 615.812 819.021C616.091 819.021 616.371 819.049 616.632 819.105C617.004 819.841 617.349 820.576 617.703 821.312C618.057 820.856 618.392 820.381 618.709 819.906C621.978 822.039 622.779 827.683 622.425 832.004L622.434 832.014Z" fill="black"/>
<path d="M709.258 786.934C703.27 791.535 695.483 793.268 688.265 795.838C681.447 798.269 674.462 802.078 671.565 808.3C671.267 808.952 671.593 809.707 672.264 809.958C679.184 812.547 688.349 806.829 694.785 810.787C700.951 814.578 698.697 824.329 692.81 828.502C686.924 832.684 679.156 833.317 672.087 835.226C649.445 841.336 634.086 860.355 620.861 879.123C620.637 879.439 620.283 879.635 619.902 879.635C619.902 879.635 619.892 879.635 619.883 879.635C619.166 879.644 618.588 879.039 618.653 878.322C619.92 862.889 621.187 847.446 622.454 832.004C622.78 828.036 622.137 822.969 619.51 820.501C619.091 820.11 619.026 819.467 619.324 818.983C629.169 802.572 617.908 777.378 632.335 763.845C633.453 762.793 634.822 761.815 636.396 761.703C639.628 761.489 641.724 764.786 643.028 767.599L651.746 786.394C652.23 787.428 653.748 787.288 654.018 786.18C658.293 769.033 663.108 751.663 673.736 737.282C676.586 733.436 680.032 729.691 684.67 728.052C689.308 726.404 695.372 727.549 697.765 731.666C700.159 735.755 698.222 740.812 696.266 745.106C693.257 751.728 690.249 758.341 687.241 764.954C686.784 765.959 687.799 767.003 688.824 766.565C697.653 762.821 708.672 760.557 714.111 767.636C718.647 773.541 715.247 782.342 709.268 786.944L709.258 786.934Z" fill="white" stroke="black" stroke-width="1.07028" stroke-linecap="round" stroke-linejoin="round"/>
<path d="M385.006 167.304C385.006 169.101 379.055 169.157 378.198 170.536C377.322 171.951 379.753 176.711 378.254 177.558C376.838 178.359 373.727 173.935 371.995 174.131C370.337 174.317 370.141 174.885 368.642 173.945C367.245 173.069 363.379 174.513 362.504 173.013C361.656 171.56 362.793 169.036 362.774 167.304C362.746 165.525 362.336 163.457 363.165 162.023C364.022 160.551 365.205 158.418 366.695 157.561C368.185 156.705 370.551 155.326 372.321 155.326C374.09 155.326 376.028 157.58 377.462 158.409C378.943 159.266 378.952 161.511 379.809 162.982C380.666 164.454 384.997 165.525 384.997 167.304H385.006Z" fill="black"/>
<path d="M182.383 575.017C182.383 575.017 196.838 603.675 188.157 639.012" stroke="black" stroke-width="2.14056" stroke-miterlimit="10"/>
<path d="M262.986 481.06C262.986 481.06 218.605 495.031 242.588 507.027C266.572 519.032 342.265 485.065 362.001 511.125C381.737 537.185 434.249 592.621 454.413 575.027C474.578 557.433 458.185 492.982 457.654 478.787C457.123 464.593 453.575 394.311 441.038 387.568C428.502 380.834 306.304 388.601 285.041 410.889C263.777 433.177 262.986 481.06 262.986 481.06Z" fill="black"/>
<path d="M74.6131 503.747L51.3286 389.243C51.0771 388.004 51.3938 386.737 52.1947 385.759C52.9957 384.781 54.1786 384.223 55.436 384.223H207.596C210.251 384.223 212.57 386.113 213.101 388.721L236.488 503.756H74.6131V503.747Z" fill="white"/>
<path d="M207.594 384.678C210.035 384.678 212.158 386.411 212.642 388.805L235.918 503.281H74.9932L51.7924 389.149C51.5689 388.05 51.8483 386.923 52.5561 386.048C53.264 385.181 54.3165 384.678 55.4434 384.678H207.604M207.594 383.747H55.4341C52.4909 383.747 50.2836 386.448 50.8703 389.335L74.2294 504.212H237.054L213.555 388.618C212.978 385.787 210.491 383.747 207.594 383.747Z" fill="black"/>
<path d="M77.6856 511.114H233.599C235.508 511.114 237.055 509.567 237.055 507.659C237.055 505.75 235.508 504.203 233.599 504.203H77.6856C75.7773 504.203 74.2302 505.75 74.2302 507.659C74.2302 509.567 75.7773 511.114 77.6856 511.114Z" fill="black"/>
<path d="M240.509 510.658C238.861 510.658 237.52 509.317 237.52 507.668C237.52 506.02 238.861 504.679 240.509 504.679H303.611C305.259 504.679 306.6 506.02 306.6 507.668C306.6 509.317 305.259 510.658 303.611 510.658H240.509Z" fill="white"/>
<path d="M303.611 505.144C304.999 505.144 306.135 506.281 306.135 507.668C306.135 509.056 304.999 510.192 303.611 510.192H240.51C239.122 510.192 237.986 509.056 237.986 507.668C237.986 506.281 239.122 505.144 240.51 505.144H303.611ZM303.611 504.213H240.51C238.601 504.213 237.055 505.759 237.055 507.668C237.055 509.578 238.601 511.124 240.51 511.124H303.611C305.521 511.124 307.067 509.578 307.067 507.668C307.067 505.759 305.521 504.213 303.611 504.213Z" fill="black"/>
<path d="M262.343 507.845C262.44 507.845 262.519 507.766 262.519 507.669C262.519 507.571 262.44 507.492 262.343 507.492C262.245 507.492 262.166 507.571 262.166 507.669C262.166 507.766 262.245 507.845 262.343 507.845Z" fill="white"/>
<path d="M262.342 507.026C261.988 507.026 261.699 507.315 261.699 507.669C261.699 508.023 261.988 508.312 262.342 508.312C262.696 508.312 262.985 508.023 262.985 507.669C262.985 507.315 262.696 507.026 262.342 507.026Z" fill="black"/>
<path d="M256.839 507.845C256.936 507.845 257.015 507.766 257.015 507.669C257.015 507.571 256.936 507.492 256.839 507.492C256.741 507.492 256.662 507.571 256.662 507.669C256.662 507.766 256.741 507.845 256.839 507.845Z" fill="white"/>
<path d="M256.838 507.026C256.484 507.026 256.195 507.315 256.195 507.669C256.195 508.023 256.484 508.312 256.838 508.312C257.192 508.312 257.481 508.023 257.481 507.669C257.481 507.315 257.192 507.026 256.838 507.026Z" fill="black"/>
<path d="M250.66 507.492H243.051V508.144H250.66V507.492Z" fill="white"/>
<path d="M251.119 507.026H242.588V508.61H251.119V507.026Z" fill="black"/>
<path d="M426.908 247.346C426.908 247.346 436.418 247.747 446.039 256.39C476.626 283.894 538.805 351.885 552.03 400.279C567.612 457.317 515.343 479.317 335.195 479.317L326.235 452.493C325.583 450.556 326.645 448.46 328.601 447.836C345.859 442.313 422.289 418.404 469.435 412.611C469.435 412.611 441.55 385.722 426.312 329.727C411.075 273.732 426.918 247.337 426.918 247.337L426.908 247.346Z" fill="#999999"/>
<path d="M263.608 506.272C255.142 506.272 249.656 504.447 248.157 501.122C248.119 501.038 248.092 500.973 248.064 500.935C247.7 500.348 249.023 497.564 251.258 495.356C253.428 493.289 255.589 490.914 256.027 490.355C256.493 489.815 258.337 487.43 259.892 485.102L260.414 484.357C261.168 483.276 261.876 482.252 262.463 481.618L262.519 481.553L262.547 481.469C263.683 478.638 267.539 472.835 273.49 468.486C281.128 462.413 291.382 459.684 293.506 459.33C295.117 458.865 300.668 457.877 306.983 457.877C309.563 457.877 312.003 458.045 314.229 458.371C314.965 458.464 315.682 458.501 316.371 458.501C319.147 458.501 323.087 457.775 326.374 454.403L334.608 478.163C333.797 478.638 332.419 479.513 330.612 480.668C321.028 486.76 298.591 501.01 284.937 503.729C276.555 505.397 269.374 506.253 263.599 506.253L263.608 506.272Z" fill="white"/>
<path d="M326.189 455.278L334.06 477.985C333.221 478.488 331.964 479.289 330.371 480.295C320.815 486.368 298.425 500.59 284.855 503.291C276.5 504.958 269.356 505.806 263.61 505.806C255.46 505.806 249.984 504.027 248.587 500.935C248.549 500.851 248.521 500.786 248.493 500.739C248.391 500.134 249.574 497.684 251.586 495.71C253.737 493.661 255.898 491.295 256.392 490.68C256.867 490.121 258.729 487.718 260.285 485.39L260.806 484.636C261.551 483.564 262.25 482.559 262.818 481.944L262.939 481.813L263.004 481.655C264.122 478.87 267.913 473.17 273.818 468.858C281.362 462.86 291.505 460.159 293.6 459.814H293.656L293.712 459.786C295.249 459.339 300.744 458.361 307.003 458.361C309.564 458.361 311.976 458.529 314.202 458.855C314.938 458.948 315.674 458.985 316.391 458.985C319.111 458.985 322.911 458.315 326.189 455.269M326.609 453.527C326.46 453.527 323.377 458.063 316.382 458.063C315.721 458.063 315.031 458.026 314.305 457.933C311.865 457.579 309.369 457.439 306.994 457.439C300.586 457.439 295.007 458.445 293.442 458.901C291.272 459.265 280.999 461.966 273.231 468.141C267.205 472.546 263.284 478.46 262.129 481.329C261.374 482.139 260.499 483.462 259.512 484.868C257.947 487.216 256.121 489.563 255.674 490.093C255.246 490.634 253.113 492.981 250.943 495.048C248.81 497.153 247.096 500.255 247.674 501.205C247.925 501.615 249.276 506.756 263.61 506.756C268.835 506.756 275.783 506.076 285.041 504.223C301.741 500.888 331.2 480.612 335.187 478.414L326.59 453.62C326.609 453.565 326.618 453.537 326.609 453.537V453.527Z" fill="black"/>
<path d="M256.195 504.213C256.195 504.213 260.452 491.043 280.029 481.813L256.195 504.213Z" fill="white"/>
<path d="M256.195 504.213C256.195 504.213 260.452 491.043 280.029 481.813" stroke="black" stroke-width="1.07028" stroke-miterlimit="10"/>
<path d="M50.7787 403.047C50.7787 391.6 58.4626 382.333 67.9441 382.333C58.4626 382.333 50.7787 373.056 50.7787 361.609C50.7787 373.047 43.0948 382.333 33.6133 382.333C43.0948 382.333 50.7787 391.6 50.7787 403.047Z" fill="black"/>
<path d="M164.873 837.928C164.873 837.928 205.323 710.813 202.818 649.36" stroke="black" stroke-width="2.14056" stroke-miterlimit="10"/>
<path d="M420.016 298.974C418.898 300.063 428.612 357.064 452.819 390.994" stroke="white" stroke-width="3.21083" stroke-linecap="round" stroke-linejoin="round"/>
</svg>
